<svg width="20" height="20" viewBox="0 0 20 20" fill="none" xmlns="http://www.w3.org/2000/svg">
<path d="M17.3027 9.57617C17.373 9.3418 17.4082 9.09961 17.4082 8.85352C17.4082 8.30078 17.2266 7.76953 16.8984 7.33594C16.9688 7.10156 17.0039 6.85938 17.0039 6.61328C17.0039 6.06055 16.8223 5.5293 16.4941 5.0957C16.5645 4.86133 16.5996 4.61914 16.5996 4.37305C16.5996 3.36523 16 2.45703 15.0703 2.06055C14.9069 1.99009 14.7307 1.95419 14.5527 1.95508H5.33203V10.3145H5.33789L7.01367 16.3848C7.2832 17.3633 8.18164 18.0469 9.19727 18.0469C9.77734 18.0469 10.3184 17.8164 10.7187 17.3945C11.1191 16.9746 11.3242 16.4238 11.2949 15.8438L11.1777 13.4434H15.8633C16.0996 13.4434 16.3301 13.3809 16.5332 13.2617C17.3223 12.8027 17.8125 11.9707 17.8125 11.0938C17.8125 10.541 17.6309 10.0098 17.3027 9.57617ZM2.1875 2.57812V9.6875C2.1875 10.0332 2.4668 10.3125 2.8125 10.3125H4.08203V1.95312H2.8125C2.4668 1.95312 2.1875 2.23242 2.1875 2.57812Z" fill="#B511B8"/>
</svg>
