<svg width="20" height="20" viewBox="0 0 20 20" fill="none" xmlns="http://www.w3.org/2000/svg">
<path d="M12.5002 11.6666L11.8835 11.7691C11.8686 11.6796 11.8734 11.5879 11.8975 11.5004C11.9217 11.4129 11.9646 11.3317 12.0233 11.2625C12.082 11.1932 12.155 11.1376 12.2374 11.0995C12.3197 11.0613 12.4094 11.0416 12.5002 11.0416V11.6666ZM3.3335 11.6666V12.2916C3.16774 12.2916 3.00876 12.2257 2.89155 12.1085C2.77434 11.9913 2.7085 11.8323 2.7085 11.6666H3.3335ZM5.00016 2.70825H14.4668V3.95825H5.00016V2.70825ZM15.4668 12.2916H12.5002V11.0416H15.4668V12.2916ZM13.1168 11.5641L13.7885 15.5933L12.5552 15.7991L11.8835 11.7691L13.1168 11.5641ZM12.3502 17.2916H12.1718V16.0416H12.3493L12.3502 17.2916ZM9.571 15.8999L7.47516 12.7558L8.51516 12.0624L10.611 15.2066L9.571 15.8999ZM6.6085 12.2916H3.3335V11.0416H6.6085V12.2916ZM2.7085 11.6666V4.99992H3.9585V11.6666H2.7085ZM16.7143 4.54992L17.7143 9.54992L16.4893 9.79575L15.4893 4.79575L16.7143 4.54992ZM7.47516 12.7558C7.38008 12.613 7.25122 12.4968 7.10003 12.4158C6.94885 12.3349 6.78 12.2925 6.6085 12.2924V11.0424C7.37516 11.0424 8.09016 11.4249 8.51516 12.0624L7.47516 12.7558ZM13.7885 15.5933C13.8234 15.8022 13.8123 16.017 13.7561 16.2212C13.6998 16.4254 13.5998 16.6149 13.4629 16.7766C13.326 16.9382 13.1556 17.0681 12.9634 17.1572C12.7712 17.2462 12.562 17.2916 12.3502 17.2916V16.0424C12.3804 16.0423 12.4102 16.0357 12.4376 16.023C12.465 16.0102 12.4893 15.9917 12.5088 15.9686C12.5283 15.9455 12.5425 15.9185 12.5505 15.8894C12.5585 15.8602 12.5601 15.8289 12.5552 15.7991L13.7885 15.5933ZM15.4668 11.0424C15.621 11.0424 15.7732 11.0083 15.9125 10.9424C16.0518 10.8765 16.1748 10.7805 16.2725 10.6613C16.3702 10.5421 16.4403 10.4027 16.4776 10.2532C16.515 10.1037 16.5187 9.94772 16.4885 9.79658L17.7143 9.55075C17.7808 9.88323 17.7726 10.2272 17.6905 10.5561C17.6083 10.8851 17.4542 11.1917 17.2392 11.4539C17.0242 11.716 16.7537 11.9272 16.4472 12.0723C16.1407 12.2173 15.8059 12.2925 15.4668 12.2924V11.0424ZM14.4668 2.70825C14.9966 2.70815 15.51 2.89242 15.9198 3.22818C16.3295 3.56395 16.6103 4.03048 16.7143 4.54992L15.4893 4.79575C15.4423 4.55927 15.3146 4.34727 15.1281 4.19439C14.9417 4.04151 14.708 3.95805 14.4668 3.95825V2.70825ZM12.1718 17.2916C11.6574 17.2915 11.1509 17.1653 10.6973 16.9226C10.2438 16.6798 9.85717 16.3288 9.57183 15.9008L10.611 15.2074C10.7823 15.4644 11.0144 15.675 11.2867 15.8207C11.559 15.9664 11.863 16.0417 12.1718 16.0416V17.2916ZM5.00016 3.95825C4.42516 3.95825 3.9585 4.42492 3.9585 4.99992H2.7085C2.7085 4.39213 2.94994 3.80924 3.37971 3.37947C3.80948 2.94969 4.39237 2.70825 5.00016 2.70825V3.95825Z" fill="black"/>
<path d="M6.66699 11.6666V3.33325" stroke="black" stroke-width="1.25"/>
</svg>
