<?xml version="1.0" standalone="no"?>
<!DOCTYPE svg PUBLIC "-//W3C//DTD SVG 20010904//EN"
 "http://www.w3.org/TR/2001/REC-SVG-20010904/DTD/svg10.dtd">
<svg version="1.0" xmlns="http://www.w3.org/2000/svg"
 width="1280.000000pt" height="1280.000000pt" viewBox="0 0 1280.000000 1280.000000"
 preserveAspectRatio="xMidYMid meet">
<metadata>
Created by potrace 1.16, written by Peter Selinger 2001-2019
</metadata>
<g transform="translate(0.000000,1280.000000) scale(0.100000,-0.100000)"
fill="#000000" stroke="none">
<path d="M7560 11059 c-359 -43 -688 -175 -980 -393 -116 -86 -295 -263 -377
-371 -33 -44 -375 -552 -760 -1130 -596 -894 -710 -1059 -765 -1111 -78 -73
-145 -113 -253 -151 l-80 -28 -1155 -5 c-1047 -5 -1159 -7 -1196 -22 -125 -50
-213 -145 -248 -269 -15 -50 -16 -265 -13 -2320 l3 -2264 22 -97 c135 -586
554 -1005 1140 -1140 l97 -23 3185 -3 c3512 -3 3280 -7 3502 59 133 39 319
130 432 210 115 82 263 231 344 345 76 106 160 274 201 400 17 53 170 795 366
1775 310 1550 337 1694 342 1815 18 419 -133 809 -428 1103 -202 203 -448 337
-737 403 -95 21 -114 22 -909 25 -447 2 -813 6 -813 8 0 3 81 492 181 1087
l181 1083 -5 125 c-6 144 -29 247 -82 358 -95 202 -241 350 -440 448 -151 74
-216 87 -465 90 -118 1 -249 -2 -290 -7z m407 -819 c36 -22 63 -66 63 -105 0
-14 -97 -607 -216 -1318 -240 -1436 -236 -1402 -182 -1519 45 -98 130 -174
241 -217 37 -14 162 -17 1102 -21 l1060 -5 81 -31 c172 -67 294 -174 369 -328
50 -101 75 -197 75 -296 0 -77 -649 -3340 -682 -3429 -71 -188 -217 -328 -417
-399 l-76 -27 -2357 -3 -2358 -2 0 2294 0 2293 63 23 c103 37 288 137 378 205
47 35 129 109 182 164 89 93 157 192 826 1194 512 767 748 1114 796 1165 172
186 429 324 676 366 46 8 143 14 214 15 112 1 134 -2 162 -19z m-4107 -5441
l0 -2260 -397 3 -398 4 -73 27 c-202 73 -347 219 -419 422 l-28 80 -3 1993 -2
1992 660 0 660 0 0 -2261z"/>
</g>
</svg>
