<svg width="20" height="20" viewBox="0 0 20 20" fill="none" xmlns="http://www.w3.org/2000/svg">
<path d="M3.33317 17.5001H4.1665V6.66675H3.33317C2.89114 6.66675 2.46722 6.84234 2.15466 7.1549C1.8421 7.46746 1.6665 7.89139 1.6665 8.33342V15.8334C1.6665 16.2754 1.8421 16.6994 2.15466 17.0119C2.46722 17.3245 2.89114 17.5001 3.33317 17.5001ZM16.6665 6.66675H10.8332L11.7682 3.86008C11.8516 3.60959 11.8743 3.34287 11.8345 3.08188C11.7946 2.82089 11.6934 2.57309 11.539 2.35891C11.3846 2.14473 11.1816 1.97028 10.9466 1.84994C10.7116 1.72961 10.4514 1.66682 10.1873 1.66675H9.99984L5.83317 6.19842V17.5001H14.9998L18.2598 10.3367L18.3332 10.0001V8.33342C18.3332 7.89139 18.1576 7.46746 17.845 7.1549C17.5325 6.84234 17.1085 6.66675 16.6665 6.66675Z" fill="#B511B8"/>
</svg>
