<svg width="198" height="15" viewBox="0 0 198 15" fill="none" xmlns="http://www.w3.org/2000/svg">
<path d="M196.912 11.0745C196.717 11.0745 196.548 11.0049 196.405 10.8657C196.266 10.7232 196.196 10.5542 196.196 10.3586C196.196 10.1597 196.266 9.99071 196.405 9.85151C196.548 9.7123 196.717 9.6427 196.912 9.6427C197.111 9.6427 197.28 9.7123 197.419 9.85151C197.559 9.99071 197.628 10.1597 197.628 10.3586C197.628 10.4879 197.595 10.6072 197.529 10.7166C197.466 10.8259 197.38 10.9138 197.27 10.9801C197.164 11.043 197.045 11.0745 196.912 11.0745Z" fill="#4D5965"/>
<path d="M190.37 11.159C189.743 11.159 189.195 10.9933 188.724 10.6619C188.253 10.3304 187.885 9.86807 187.62 9.27479C187.358 8.68152 187.228 7.99046 187.228 7.20164C187.228 6.41613 187.358 5.72839 187.62 5.13843C187.885 4.54515 188.255 4.08445 188.729 3.75633C189.203 3.42489 189.755 3.25917 190.384 3.25917C190.849 3.25917 191.235 3.34203 191.543 3.50775C191.851 3.67015 192.098 3.87233 192.284 4.11428C192.469 4.35623 192.613 4.59155 192.716 4.82025H192.796V0.818115H193.686V10.9999H192.821V9.58303H192.716C192.613 9.81504 192.468 10.0537 192.279 10.2989C192.09 10.5409 191.84 10.7447 191.528 10.9104C191.22 11.0762 190.834 11.159 190.37 11.159ZM190.474 10.3487C190.968 10.3487 191.389 10.2144 191.737 9.94596C192.085 9.67418 192.35 9.30131 192.532 8.82735C192.718 8.35008 192.811 7.8032 192.811 7.18672C192.811 6.57687 192.719 6.03829 192.537 5.57096C192.355 5.10031 192.09 4.73241 191.742 4.46726C191.394 4.1988 190.971 4.06456 190.474 4.06456C189.964 4.06456 189.533 4.20377 189.181 4.48218C188.833 4.75727 188.568 5.13014 188.386 5.60079C188.207 6.07143 188.117 6.60008 188.117 7.18672C188.117 7.78 188.209 8.31527 188.391 8.79255C188.573 9.26982 188.838 9.64932 189.186 9.93104C189.538 10.2095 189.967 10.3487 190.474 10.3487Z" fill="#4D5965"/>
<path d="M182.573 11.159C181.86 11.159 181.244 10.9933 180.723 10.6619C180.203 10.3271 179.8 9.86474 179.515 9.27478C179.234 8.6815 179.093 7.99874 179.093 7.22648C179.093 6.45755 179.234 5.77478 179.515 5.17819C179.8 4.57828 180.193 4.1093 180.694 3.77123C181.197 3.42985 181.779 3.25916 182.439 3.25916C182.853 3.25916 183.252 3.33539 183.637 3.48785C184.021 3.637 184.366 3.86735 184.671 4.1789C184.979 4.48714 185.223 4.87658 185.402 5.34722C185.581 5.81455 185.67 6.36806 185.67 7.00773V7.44523H179.704V6.6647H184.765C184.765 6.17417 184.666 5.73335 184.467 5.34225C184.272 4.94784 183.998 4.63629 183.647 4.40759C183.299 4.1789 182.896 4.06455 182.439 4.06455C181.955 4.06455 181.529 4.19381 181.161 4.45234C180.793 4.71086 180.505 5.05224 180.296 5.47648C180.09 5.90073 179.986 6.36474 179.983 6.86853V7.33586C179.983 7.94239 180.087 8.4727 180.296 8.92677C180.508 9.37753 180.808 9.72719 181.196 9.97577C181.584 10.2244 182.043 10.3486 182.573 10.3486C182.934 10.3486 183.251 10.2923 183.522 10.1796C183.798 10.0669 184.028 9.91612 184.214 9.7272C184.402 9.53496 184.545 9.3245 184.641 9.0958L185.481 9.36924C185.365 9.69074 185.175 9.98737 184.91 10.2592C184.648 10.5309 184.32 10.7497 183.925 10.9154C183.534 11.0778 183.083 11.159 182.573 11.159Z" fill="#4D5965"/>
<path d="M178.028 3.36365L175.239 11H174.294L171.505 3.36365H172.464L174.731 9.83169H174.801L177.068 3.36365H178.028Z" fill="#4D5965"/>
<path d="M166.894 11V3.36361H167.754V4.53691H167.819C167.971 4.15244 168.236 3.84254 168.614 3.60722C168.995 3.36859 169.426 3.24927 169.907 3.24927C169.98 3.24927 170.061 3.25092 170.15 3.25424C170.24 3.25755 170.315 3.26087 170.374 3.26418V4.16404C170.334 4.15741 170.265 4.14747 170.165 4.13421C170.066 4.12095 169.958 4.11432 169.842 4.11432C169.444 4.11432 169.09 4.19884 168.778 4.36788C168.47 4.5336 168.226 4.76395 168.047 5.05893C167.868 5.35391 167.779 5.69032 167.779 6.06816V11H166.894Z" fill="#4D5965"/>
<path d="M161.846 11.159C161.134 11.159 160.517 10.9933 159.997 10.6619C159.477 10.3271 159.074 9.86474 158.789 9.27478C158.507 8.6815 158.366 7.99874 158.366 7.22648C158.366 6.45755 158.507 5.77478 158.789 5.17819C159.074 4.57828 159.467 4.1093 159.967 3.77123C160.471 3.42985 161.053 3.25916 161.712 3.25916C162.126 3.25916 162.526 3.33539 162.91 3.48785C163.295 3.637 163.639 3.86735 163.944 4.1789C164.253 4.48714 164.496 4.87658 164.675 5.34722C164.854 5.81455 164.944 6.36806 164.944 7.00773V7.44523H158.978V6.6647H164.039C164.039 6.17417 163.939 5.73335 163.74 5.34225C163.545 4.94784 163.272 4.63629 162.92 4.40759C162.572 4.1789 162.169 4.06455 161.712 4.06455C161.228 4.06455 160.802 4.19381 160.434 4.45234C160.066 4.71086 159.778 5.05224 159.569 5.47648C159.364 5.90073 159.259 6.36474 159.256 6.86853V7.33586C159.256 7.94239 159.361 8.4727 159.569 8.92677C159.781 9.37753 160.081 9.72719 160.469 9.97577C160.857 10.2244 161.316 10.3486 161.846 10.3486C162.208 10.3486 162.524 10.2923 162.796 10.1796C163.071 10.0669 163.301 9.91612 163.487 9.7272C163.676 9.53496 163.818 9.3245 163.915 9.0958L164.755 9.36924C164.639 9.69074 164.448 9.98737 164.183 10.2592C163.921 10.5309 163.593 10.7497 163.199 10.9154C162.807 11.0778 162.357 11.159 161.846 11.159Z" fill="#4D5965"/>
<path d="M156.712 5.03898L155.902 5.26768C155.822 5.03898 155.709 4.83184 155.564 4.64623C155.418 4.46062 155.227 4.31313 154.992 4.20376C154.76 4.09438 154.471 4.0397 154.127 4.0397C153.61 4.0397 153.185 4.16233 152.854 4.40759C152.523 4.65286 152.357 4.96938 152.357 5.35717C152.357 5.68529 152.47 5.9521 152.695 6.15759C152.924 6.35977 153.275 6.52052 153.749 6.63984L154.902 6.92322C155.542 7.07899 156.021 7.32592 156.339 7.66398C156.661 8.00205 156.821 8.42629 156.821 8.93671C156.821 9.36758 156.702 9.7504 156.463 10.0851C156.225 10.4199 155.892 10.6834 155.464 10.8756C155.04 11.0646 154.548 11.159 153.988 11.159C153.242 11.159 152.627 10.9916 152.143 10.6569C151.659 10.3188 151.349 9.8316 151.213 9.19523L152.064 8.98643C152.173 9.4405 152.387 9.78354 152.705 10.0155C153.026 10.2476 153.449 10.3636 153.973 10.3636C154.559 10.3636 155.028 10.2326 155.38 9.9708C155.731 9.70565 155.907 9.37421 155.907 8.97648C155.907 8.66825 155.804 8.40972 155.598 8.20092C155.393 7.9888 155.081 7.83302 154.664 7.73359L153.416 7.43529C152.753 7.2762 152.262 7.02431 151.944 6.67961C151.626 6.33491 151.467 5.90736 151.467 5.39694C151.467 4.97601 151.581 4.60646 151.81 4.28827C152.039 3.96678 152.354 3.71488 152.755 3.53259C153.156 3.3503 153.613 3.25916 154.127 3.25916C154.826 3.25916 155.385 3.41825 155.802 3.73643C156.223 4.05129 156.526 4.48548 156.712 5.03898Z" fill="#4D5965"/>
<path d="M146.534 11.159C145.821 11.159 145.205 10.9933 144.684 10.6619C144.164 10.3271 143.761 9.86474 143.476 9.27478C143.195 8.6815 143.054 7.99874 143.054 7.22648C143.054 6.45755 143.195 5.77478 143.476 5.17819C143.761 4.57828 144.154 4.1093 144.655 3.77123C145.158 3.42985 145.74 3.25916 146.4 3.25916C146.814 3.25916 147.213 3.33539 147.598 3.48785C147.982 3.637 148.327 3.86735 148.632 4.1789C148.94 4.48714 149.184 4.87658 149.363 5.34722C149.542 5.81455 149.631 6.36806 149.631 7.00773V7.44523H143.665V6.6647H148.726C148.726 6.17417 148.627 5.73335 148.428 5.34225C148.232 4.94784 147.959 4.63629 147.608 4.40759C147.26 4.1789 146.857 4.06455 146.4 4.06455C145.916 4.06455 145.49 4.19381 145.122 4.45234C144.754 4.71086 144.466 5.05224 144.257 5.47648C144.051 5.90073 143.947 6.36474 143.944 6.86853V7.33586C143.944 7.94239 144.048 8.4727 144.257 8.92677C144.469 9.37753 144.769 9.72719 145.157 9.97577C145.544 10.2244 146.004 10.3486 146.534 10.3486C146.895 10.3486 147.212 10.2923 147.483 10.1796C147.758 10.0669 147.989 9.91612 148.174 9.7272C148.363 9.53496 148.506 9.3245 148.602 9.0958L149.442 9.36924C149.326 9.69074 149.136 9.98737 148.87 10.2592C148.609 10.5309 148.281 10.7497 147.886 10.9154C147.495 11.0778 147.044 11.159 146.534 11.159Z" fill="#4D5965"/>
<path d="M138.689 11V3.36361H139.549V4.53691H139.614C139.766 4.15244 140.031 3.84254 140.409 3.60722C140.79 3.36859 141.221 3.24927 141.702 3.24927C141.775 3.24927 141.856 3.25092 141.945 3.25424C142.035 3.25755 142.109 3.26087 142.169 3.26418V4.16404C142.129 4.15741 142.06 4.14747 141.96 4.13421C141.861 4.12095 141.753 4.11432 141.637 4.11432C141.239 4.11432 140.885 4.19884 140.573 4.36788C140.265 4.5336 140.021 4.76395 139.842 5.05893C139.663 5.35391 139.574 5.69032 139.574 6.06816V11H138.689Z" fill="#4D5965"/>
<path d="M132.704 5.03898L131.894 5.26768C131.814 5.03898 131.702 4.83184 131.556 4.64623C131.41 4.46062 131.219 4.31313 130.984 4.20376C130.752 4.09438 130.464 4.0397 130.119 4.0397C129.602 4.0397 129.178 4.16233 128.846 4.40759C128.515 4.65286 128.349 4.96938 128.349 5.35717C128.349 5.68529 128.462 5.9521 128.687 6.15759C128.916 6.35977 129.267 6.52052 129.741 6.63984L130.894 6.92322C131.534 7.07899 132.013 7.32592 132.331 7.66398C132.653 8.00205 132.814 8.42629 132.814 8.93671C132.814 9.36758 132.694 9.7504 132.456 10.0851C132.217 10.4199 131.884 10.6834 131.456 10.8756C131.032 11.0646 130.54 11.159 129.98 11.159C129.234 11.159 128.619 10.9916 128.135 10.6569C127.651 10.3188 127.341 9.8316 127.206 9.19523L128.056 8.98643C128.165 9.4405 128.379 9.78354 128.697 10.0155C129.019 10.2476 129.441 10.3636 129.965 10.3636C130.551 10.3636 131.02 10.2326 131.372 9.9708C131.723 9.70565 131.899 9.37421 131.899 8.97648C131.899 8.66825 131.796 8.40972 131.59 8.20092C131.385 7.9888 131.073 7.83302 130.656 7.73359L129.408 7.43529C128.745 7.2762 128.255 7.02431 127.936 6.67961C127.618 6.33491 127.459 5.90736 127.459 5.39694C127.459 4.97601 127.573 4.60646 127.802 4.28827C128.031 3.96678 128.346 3.71488 128.747 3.53259C129.148 3.3503 129.605 3.25916 130.119 3.25916C130.818 3.25916 131.377 3.41825 131.794 3.73643C132.215 4.05129 132.519 4.48548 132.704 5.03898Z" fill="#4D5965"/>
<path d="M125.701 3.3636V4.1342H122.057V3.3636H125.701ZM123.195 1.53406H124.085V9.00636C124.085 9.32454 124.14 9.57478 124.249 9.75707C124.358 9.93605 124.501 10.0637 124.677 10.1399C124.852 10.2128 125.04 10.2493 125.238 10.2493C125.354 10.2493 125.454 10.2426 125.537 10.2294C125.62 10.2128 125.693 10.1962 125.756 10.1797L125.944 10.9801C125.858 11.0132 125.752 11.0431 125.626 11.0696C125.5 11.0994 125.345 11.1143 125.159 11.1143C124.834 11.1143 124.521 11.0431 124.219 10.9005C123.921 10.758 123.676 10.5459 123.483 10.2642C123.291 9.98245 123.195 9.63278 123.195 9.21517V1.53406Z" fill="#4D5965"/>
<path d="M115.416 6.22721V10.9999H114.531V0.818115H115.416V4.56172H115.495C115.674 4.16731 115.951 3.85244 116.326 3.61712C116.703 3.3818 117.181 3.26414 117.757 3.26414C118.274 3.26414 118.728 3.3702 119.12 3.58232C119.511 3.79444 119.816 4.10765 120.034 4.52195C120.253 4.93625 120.362 5.44667 120.362 6.0532V10.9999H119.473V6.10789C119.473 5.47815 119.297 4.98265 118.946 4.62138C118.598 4.2568 118.127 4.07451 117.534 4.07451C117.126 4.07451 116.763 4.16068 116.445 4.33303C116.127 4.50538 115.875 4.75396 115.689 5.07877C115.507 5.40027 115.416 5.78308 115.416 6.22721Z" fill="#4D5965"/>
<path d="M109.036 14.0226C108.515 14.0226 108.06 13.9547 107.668 13.8188C107.277 13.6862 106.948 13.5039 106.679 13.2719C106.411 13.0399 106.202 12.7798 106.053 12.4914L106.779 12.0141C106.888 12.2064 107.034 12.3953 107.216 12.5809C107.402 12.7665 107.642 12.9206 107.937 13.0432C108.235 13.1659 108.601 13.2272 109.036 13.2272C109.712 13.2272 110.257 13.0582 110.671 12.7201C111.089 12.382 111.298 11.8567 111.298 11.1441V9.42393H111.218C111.115 9.65594 110.968 9.88794 110.776 10.12C110.583 10.3486 110.332 10.5392 110.02 10.6917C109.712 10.8441 109.329 10.9204 108.872 10.9204C108.262 10.9204 107.72 10.7696 107.246 10.468C106.775 10.1664 106.404 9.73548 106.132 9.17535C105.864 8.6119 105.729 7.94074 105.729 7.16185C105.729 6.3896 105.86 5.71015 106.122 5.1235C106.387 4.53685 106.757 4.07947 107.231 3.75134C107.705 3.42322 108.257 3.25916 108.886 3.25916C109.354 3.25916 109.742 3.34202 110.05 3.50773C110.358 3.67014 110.605 3.87232 110.791 4.11427C110.979 4.35622 111.127 4.59154 111.233 4.82023H111.323V3.36356H112.188V11.1988C112.188 11.8451 112.05 12.3771 111.775 12.7947C111.5 13.2123 111.125 13.5205 110.651 13.7194C110.177 13.9216 109.639 14.0226 109.036 14.0226ZM108.976 10.11C109.466 10.11 109.886 9.99235 110.234 9.75702C110.582 9.51839 110.849 9.17701 111.034 8.73288C111.22 8.28875 111.313 7.7601 111.313 7.14694C111.313 6.55035 111.221 6.0217 111.039 5.561C110.857 5.09699 110.592 4.7324 110.244 4.46725C109.899 4.19879 109.476 4.06455 108.976 4.06455C108.466 4.06455 108.035 4.2021 107.683 4.4772C107.332 4.75229 107.067 5.1235 106.888 5.59083C106.709 6.05485 106.619 6.57355 106.619 7.14694C106.619 7.73027 106.711 8.24566 106.893 8.6931C107.075 9.13723 107.342 9.48524 107.693 9.73714C108.045 9.98572 108.472 10.11 108.976 10.11Z" fill="#4D5965"/>
<path d="M102.892 10.9999V3.36355H103.782V10.9999H102.892ZM103.345 2.05105C103.163 2.05105 103.007 1.98973 102.877 1.8671C102.748 1.74115 102.684 1.59035 102.684 1.41468C102.684 1.23902 102.748 1.08987 102.877 0.967241C103.007 0.841294 103.163 0.77832 103.345 0.77832C103.527 0.77832 103.683 0.841294 103.812 0.967241C103.941 1.08987 104.006 1.23902 104.006 1.41468C104.006 1.59035 103.941 1.74115 103.812 1.8671C103.683 1.98973 103.527 2.05105 103.345 2.05105Z" fill="#4D5965"/>
<path d="M97.8921 11V3.36361H98.7522V4.53691H98.8168C98.9693 4.15244 99.2344 3.84254 99.6123 3.60722C99.9934 3.36859 100.424 3.24927 100.905 3.24927C100.978 3.24927 101.059 3.25092 101.148 3.25424C101.238 3.25755 101.313 3.26087 101.372 3.26418V4.16404C101.332 4.15741 101.263 4.14747 101.163 4.13421C101.064 4.12095 100.956 4.11432 100.84 4.11432C100.443 4.11432 100.088 4.19884 99.7763 4.36788C99.4681 4.5336 99.2245 4.76395 99.0455 5.05893C98.8665 5.35391 98.777 5.69032 98.777 6.06816V11H97.8921Z" fill="#4D5965"/>
<path d="M91.613 0.818115V10.9999H90.728V0.818115H91.613Z" fill="#4D5965"/>
<path d="M88.3864 0.818115V10.9999H87.5015V0.818115H88.3864Z" fill="#4D5965"/>
<path d="M78.5125 10.9999H77.5381L81.2419 0.818115H82.2362L85.9401 10.9999H84.9656L81.7739 2.02621H81.7043L78.5125 10.9999ZM79.2135 7.09723H84.2646V7.93246H79.2135V7.09723Z" fill="#4D5965"/>
<path d="M71.3224 11.0745C71.1268 11.0745 70.9578 11.0049 70.8153 10.8657C70.676 10.7232 70.6064 10.5542 70.6064 10.3586C70.6064 10.1597 70.676 9.99071 70.8153 9.85151C70.9578 9.7123 71.1268 9.6427 71.3224 9.6427C71.5212 9.6427 71.6903 9.7123 71.8295 9.85151C71.9687 9.99071 72.0383 10.1597 72.0383 10.3586C72.0383 10.4879 72.0051 10.6072 71.9388 10.7166C71.8759 10.8259 71.7897 10.9138 71.6803 10.9801C71.5743 11.043 71.4549 11.0745 71.3224 11.0745Z" fill="#4D5965"/>
<path d="M58.5991 11V3.36359H59.4592V4.53689H59.5388C59.6912 4.14248 59.9448 3.83258 60.2994 3.6072C60.6574 3.37851 61.0866 3.26416 61.587 3.26416C62.114 3.26416 62.5466 3.38845 62.8846 3.63703C63.226 3.88229 63.4812 4.22036 63.6503 4.65123H63.7149C63.8872 4.22699 64.1673 3.89058 64.5551 3.642C64.9462 3.39011 65.4201 3.26416 65.977 3.26416C66.6862 3.26416 67.2464 3.48788 67.6574 3.93532C68.0683 4.37945 68.2738 5.02907 68.2738 5.88419V11H67.3889V5.88419C67.3889 5.28097 67.2348 4.82855 66.9265 4.52694C66.6183 4.22533 66.2123 4.07453 65.7085 4.07453C65.1252 4.07453 64.6761 4.25351 64.3612 4.61146C64.0463 4.96942 63.8889 5.42349 63.8889 5.97368V11H62.9841V5.80464C62.9841 5.2876 62.8399 4.86998 62.5515 4.5518C62.2632 4.23362 61.8572 4.07453 61.3335 4.07453C60.9822 4.07453 60.6656 4.1607 60.3839 4.33305C60.1055 4.5054 59.8851 4.74569 59.7227 5.05393C59.5636 5.35886 59.4841 5.71018 59.4841 6.10791V11H58.5991Z" fill="#4D5965"/>
<path d="M52.9389 11.1739C52.4782 11.1739 52.0572 11.0844 51.6761 10.9055C51.2949 10.7232 50.9917 10.4613 50.7663 10.12C50.5409 9.77525 50.4282 9.35764 50.4282 8.86711C50.4282 8.48927 50.4995 8.17109 50.642 7.91256C50.7845 7.65404 50.9867 7.44192 51.2485 7.2762C51.5104 7.11048 51.8203 6.97956 52.1782 6.88345C52.5362 6.78733 52.9306 6.71275 53.3615 6.65972C53.789 6.60669 54.1503 6.56029 54.4453 6.52052C54.7436 6.48075 54.9706 6.41777 55.1264 6.3316C55.2822 6.24542 55.36 6.10622 55.36 5.91398V5.73501C55.36 5.21465 55.2043 4.80532 54.8927 4.50702C54.5845 4.20541 54.1403 4.05461 53.5603 4.05461C53.0101 4.05461 52.561 4.17558 52.213 4.41754C51.8683 4.65949 51.6264 4.94452 51.4872 5.27265L50.647 4.96938C50.8193 4.55177 51.058 4.21867 51.3629 3.97009C51.6678 3.7182 52.0092 3.53756 52.387 3.42819C52.7649 3.3155 53.1477 3.25916 53.5355 3.25916C53.8271 3.25916 54.1304 3.29727 54.4453 3.3735C54.7635 3.44973 55.0584 3.58231 55.3302 3.77123C55.602 3.95683 55.8224 4.21702 55.9914 4.55177C56.1605 4.88321 56.245 5.30414 56.245 5.81455V10.9999H55.36V9.79183H55.3054C55.1993 10.0172 55.0419 10.236 54.8331 10.4481C54.6242 10.6602 54.3624 10.8342 54.0475 10.9701C53.7327 11.106 53.3631 11.1739 52.9389 11.1739ZM53.0582 10.3636C53.5288 10.3636 53.9365 10.2592 54.2812 10.0503C54.6259 9.84154 54.8911 9.56479 55.0767 9.22009C55.2656 8.87208 55.36 8.48927 55.36 8.07165V6.96796C55.2938 7.03094 55.1827 7.08728 55.0269 7.137C54.8745 7.18671 54.6972 7.23146 54.495 7.27123C54.2961 7.30769 54.0973 7.33917 53.8984 7.36569C53.6995 7.3922 53.5206 7.41541 53.3615 7.43529C52.9306 7.48832 52.5627 7.57118 52.2578 7.68387C51.9528 7.79656 51.7192 7.95234 51.5568 8.1512C51.3944 8.34675 51.3132 8.59864 51.3132 8.90688C51.3132 9.3709 51.4789 9.73051 51.8103 9.98572C52.1418 10.2376 52.5577 10.3636 53.0582 10.3636Z" fill="#4D5965"/>
<path d="M43.5837 6.22723V11H42.6987V3.36359H43.5588V4.56175H43.6384C43.8173 4.17065 44.0957 3.85744 44.4736 3.62211C44.8547 3.38348 45.3254 3.26416 45.8855 3.26416C46.3993 3.26416 46.85 3.37188 47.2378 3.58731C47.6289 3.79943 47.9322 4.11264 48.1476 4.52694C48.3663 4.94124 48.4757 5.45 48.4757 6.05322V11H47.5908V6.10791C47.5908 5.48149 47.4151 4.98599 47.0638 4.6214C46.7158 4.25682 46.2484 4.07453 45.6618 4.07453C45.2608 4.07453 44.9045 4.1607 44.5929 4.33305C44.2814 4.5054 44.0344 4.75398 43.8521 5.07879C43.6732 5.40029 43.5837 5.7831 43.5837 6.22723Z" fill="#4D5965"/>
<path d="M40.6891 3.3636V4.1342H37.0449V3.3636H40.6891ZM38.1834 1.53406H39.0733V9.00636C39.0733 9.32454 39.128 9.57478 39.2374 9.75707C39.3468 9.93605 39.4893 10.0637 39.665 10.1399C39.8406 10.2128 40.0279 10.2493 40.2267 10.2493C40.3427 10.2493 40.4422 10.2426 40.525 10.2294C40.6079 10.2128 40.6808 10.1962 40.7438 10.1797L40.9327 10.9801C40.8465 11.0132 40.7405 11.0431 40.6145 11.0696C40.4886 11.0994 40.3328 11.1143 40.1472 11.1143C39.8224 11.1143 39.5092 11.0431 39.2076 10.9005C38.9093 10.758 38.664 10.5459 38.4718 10.2642C38.2795 9.98245 38.1834 9.63278 38.1834 9.21517V1.53406Z" fill="#4D5965"/>
<path d="M32.6334 11.159C31.9208 11.159 31.3044 10.9933 30.784 10.6619C30.2636 10.3271 29.8609 9.86474 29.5759 9.27478C29.2942 8.6815 29.1533 7.99874 29.1533 7.22648C29.1533 6.45755 29.2942 5.77478 29.5759 5.17819C29.8609 4.57828 30.2537 4.1093 30.7542 3.77123C31.258 3.42985 31.8396 3.25916 32.4992 3.25916C32.9135 3.25916 33.3129 3.33539 33.6974 3.48785C34.0818 3.637 34.4265 3.86735 34.7314 4.1789C35.0397 4.48714 35.2833 4.87658 35.4623 5.34722C35.6412 5.81455 35.7307 6.36806 35.7307 7.00773V7.44523H29.7648V6.6647H34.8259C34.8259 6.17417 34.7265 5.73335 34.5276 5.34225C34.3321 4.94784 34.0586 4.63629 33.7073 4.40759C33.3593 4.1789 32.9566 4.06455 32.4992 4.06455C32.0153 4.06455 31.5894 4.19381 31.2215 4.45234C30.8536 4.71086 30.5653 5.05224 30.3564 5.47648C30.151 5.90073 30.0466 6.36474 30.0432 6.86853V7.33586C30.0432 7.94239 30.1476 8.4727 30.3564 8.92677C30.5686 9.37753 30.8685 9.72719 31.2563 9.97577C31.6441 10.2244 32.1031 10.3486 32.6334 10.3486C32.9947 10.3486 33.3112 10.2923 33.583 10.1796C33.8581 10.0669 34.0885 9.91612 34.2741 9.7272C34.463 9.53496 34.6055 9.3245 34.7016 9.0958L35.5418 9.36924C35.4258 9.69074 35.2352 9.98737 34.9701 10.2592C34.7082 10.5309 34.3801 10.7497 33.9857 10.9154C33.5946 11.0778 33.1438 11.159 32.6334 11.159Z" fill="#4D5965"/>
<path d="M26.3162 10.9999V3.36355H27.2061V10.9999H26.3162ZM26.7686 2.05105C26.5864 2.05105 26.4306 1.98973 26.3013 1.8671C26.1721 1.74115 26.1074 1.59035 26.1074 1.41468C26.1074 1.23902 26.1721 1.08987 26.3013 0.967241C26.4306 0.841294 26.5864 0.77832 26.7686 0.77832C26.9509 0.77832 27.1067 0.841294 27.236 0.967241C27.3652 1.08987 27.4299 1.23902 27.4299 1.41468C27.4299 1.59035 27.3652 1.74115 27.236 1.8671C27.1067 1.98973 26.9509 2.05105 26.7686 2.05105Z" fill="#4D5965"/>
<path d="M17.3172 0.818115L20.499 9.79184H20.5885L23.7703 0.818115H24.7448L21.0409 10.9999H20.0466L16.3428 0.818115H17.3172Z" fill="#4D5965"/>
<path d="M2.73195 5.90906C2.73195 5.3655 2.86453 4.87 3.12968 4.42255C3.39483 3.97511 3.75113 3.61881 4.19857 3.35366C4.64601 3.08851 5.14151 2.95593 5.68507 2.95593C6.1292 2.95593 6.53853 3.04708 6.91306 3.22937C7.28758 3.41166 7.60079 3.6619 7.85269 3.98008C8.1079 4.29495 8.27859 4.65456 8.36476 5.05892H7.44005C7.34061 4.69765 7.12849 4.40267 6.80368 4.17397C6.47887 3.94528 6.106 3.83093 5.68507 3.83093C5.30392 3.83093 4.95591 3.92539 4.64104 4.11431C4.32617 4.29992 4.07428 4.55016 3.88536 4.86502C3.69975 5.17658 3.60695 5.52459 3.60695 5.90906C3.60695 6.29021 3.69975 6.63822 3.88536 6.95309C4.07428 7.26796 4.32617 7.51985 4.64104 7.70877C4.95591 7.89438 5.30392 7.98718 5.68507 7.98718C6.106 7.98718 6.46727 7.87284 6.76888 7.64414C7.07049 7.41545 7.27267 7.12047 7.37541 6.7592H8.29516C8.2123 7.16356 8.04989 7.52482 7.80794 7.84301C7.56599 8.15787 7.26273 8.40645 6.89814 8.58875C6.53356 8.77104 6.1292 8.86218 5.68507 8.86218C5.14151 8.86218 4.64601 8.72961 4.19857 8.46446C3.75113 8.1993 3.39483 7.84301 3.12968 7.39556C2.86453 6.94812 2.73195 6.45262 2.73195 5.90906ZM5.60553 11.1591C4.88299 11.1591 4.20354 11.0232 3.56718 10.7514C2.93413 10.4796 2.37565 10.1034 1.89175 9.62284C1.41116 9.13893 1.03332 8.58046 0.758228 7.94741C0.486447 7.31436 0.352214 6.63491 0.355529 5.90906C0.358843 5.18321 0.49639 4.50375 0.768171 3.8707C1.04327 3.23766 1.42111 2.68084 1.90169 2.20025C2.38228 1.71635 2.9391 1.33851 3.57215 1.06673C4.2052 0.794947 4.88299 0.659058 5.60553 0.659058C6.33138 0.659058 7.01083 0.794947 7.64388 1.06673C8.28024 1.33851 8.83706 1.71635 9.31434 2.20025C9.79492 2.68084 10.1711 3.23766 10.4429 3.8707C10.7147 4.50375 10.8522 5.18321 10.8555 5.90906C10.8588 6.63491 10.7246 7.31436 10.4528 7.94741C10.1811 8.58046 9.80487 9.13893 9.32428 9.62284C8.84369 10.1034 8.28522 10.4796 7.64885 10.7514C7.01249 11.0232 6.33138 11.1591 5.60553 11.1591ZM5.60553 10.2841C6.21206 10.2841 6.78048 10.1714 7.31078 9.94599C7.84109 9.7173 8.3051 9.40409 8.70283 9.00636C9.10387 8.60532 9.41708 8.13964 9.64246 7.60934C9.87115 7.07904 9.98384 6.51393 9.98053 5.91403C9.97721 5.3075 9.86121 4.73908 9.63252 4.20877C9.40714 3.67847 9.09393 3.21445 8.69289 2.81673C8.29516 2.41569 7.8328 2.10248 7.30581 1.8771C6.77882 1.6484 6.21206 1.53406 5.60553 1.53406C5.00231 1.53406 4.4372 1.6484 3.91022 1.8771C3.38323 2.10248 2.91921 2.41569 2.51817 2.81673C2.12044 3.21777 1.80723 3.68344 1.57854 4.21375C1.34985 4.74073 1.23384 5.3075 1.23053 5.91403C1.22721 6.51393 1.33825 7.07904 1.56363 7.60934C1.79232 8.13633 2.10719 8.60035 2.50823 9.00139C2.90927 9.39911 3.37494 9.71233 3.90524 9.94102C4.43555 10.1697 5.00231 10.2841 5.60553 10.2841Z" fill="#4D5965"/>
</svg>
