<svg width="125" height="13" viewBox="0 0 125 13" fill="none" xmlns="http://www.w3.org/2000/svg">
<path d="M117.55 12.336V3.93601H119.198V5.66401L118.91 5.85601C119.016 5.48268 119.224 5.14134 119.534 4.83201C119.843 4.51201 120.211 4.25601 120.638 4.06401C121.064 3.86134 121.502 3.76001 121.95 3.76001C122.59 3.76001 123.123 3.88801 123.55 4.14401C123.976 4.38934 124.296 4.76801 124.51 5.28001C124.723 5.79201 124.83 6.43734 124.83 7.21601V12.336H123.182V7.32801C123.182 6.84801 123.118 6.45334 122.99 6.14401C122.862 5.82401 122.664 5.59468 122.398 5.45601C122.131 5.30668 121.8 5.24268 121.406 5.26401C121.086 5.26401 120.792 5.31734 120.526 5.42401C120.259 5.52001 120.024 5.65868 119.822 5.84001C119.63 6.02134 119.475 6.23468 119.358 6.48001C119.251 6.71468 119.198 6.97068 119.198 7.24801V12.336H118.382C118.243 12.336 118.104 12.336 117.966 12.336C117.827 12.336 117.688 12.336 117.55 12.336Z" fill="#121212"/>
<path d="M112.095 12.4961C111.231 12.4961 110.463 12.3148 109.791 11.9521C109.13 11.5788 108.607 11.0721 108.223 10.4321C107.85 9.79209 107.663 9.05609 107.663 8.22409C107.663 7.56275 107.77 6.96009 107.983 6.41609C108.196 5.87209 108.49 5.40275 108.863 5.00809C109.247 4.60275 109.7 4.29342 110.223 4.08009C110.756 3.85609 111.332 3.74409 111.951 3.74409C112.495 3.74409 113.002 3.85075 113.471 4.06409C113.94 4.26675 114.346 4.54942 114.687 4.91209C115.039 5.27475 115.306 5.70675 115.487 6.20809C115.679 6.69875 115.77 7.23742 115.759 7.82409L115.743 8.52809H108.879L108.511 7.21609H114.319L114.079 7.48809V7.10409C114.047 6.75209 113.93 6.43742 113.727 6.16009C113.524 5.88275 113.268 5.66409 112.959 5.50409C112.65 5.34409 112.314 5.26409 111.951 5.26409C111.375 5.26409 110.89 5.37609 110.495 5.60009C110.1 5.81342 109.802 6.13342 109.599 6.56009C109.396 6.97609 109.295 7.49342 109.295 8.11209C109.295 8.69875 109.418 9.21075 109.663 9.64809C109.908 10.0748 110.255 10.4054 110.703 10.6401C111.151 10.8748 111.668 10.9921 112.255 10.9921C112.671 10.9921 113.055 10.9228 113.407 10.7841C113.77 10.6454 114.159 10.3948 114.575 10.0321L115.407 11.2001C115.151 11.4561 114.836 11.6801 114.463 11.8721C114.1 12.0641 113.711 12.2188 113.295 12.3361C112.89 12.4428 112.49 12.4961 112.095 12.4961ZM110.031 2.62409L109.423 2.09609L111.263 0.288086H112.639L114.479 2.09609L113.871 2.62409L111.711 1.45609H112.191L110.031 2.62409Z" fill="#121212"/>
<path d="M103.994 12.336V3.936H105.642V12.336H103.994ZM104.794 2.08C104.442 2.08 104.17 1.98933 103.978 1.808C103.786 1.62667 103.69 1.37067 103.69 1.04C103.69 0.730667 103.786 0.48 103.978 0.288C104.181 0.096 104.453 0 104.794 0C105.146 0 105.418 0.0906668 105.61 0.272C105.802 0.453333 105.898 0.709333 105.898 1.04C105.898 1.34933 105.797 1.6 105.594 1.792C105.402 1.984 105.135 2.08 104.794 2.08Z" fill="#121212"/>
<path d="M97.302 12.336L93.75 3.93604H95.526L98.086 10.224L97.782 10.368L100.518 3.93604H102.214L98.486 12.336H97.302Z" fill="#121212"/>
<path d="M80.5498 12.336V3.93601H82.1978V5.66401L81.9098 5.85601C82.0165 5.48268 82.2245 5.14134 82.5338 4.83201C82.8431 4.51201 83.2111 4.25601 83.6378 4.06401C84.0645 3.86134 84.5018 3.76001 84.9498 3.76001C85.5898 3.76001 86.1231 3.88801 86.5498 4.14401C86.9765 4.38934 87.2965 4.76801 87.5098 5.28001C87.7231 5.79201 87.8298 6.43734 87.8298 7.21601V12.336H86.1818V7.32801C86.1818 6.84801 86.1178 6.45334 85.9898 6.14401C85.8618 5.82401 85.6645 5.59468 85.3978 5.45601C85.1311 5.30668 84.8005 5.24268 84.4058 5.26401C84.0858 5.26401 83.7925 5.31734 83.5258 5.42401C83.2591 5.52001 83.0245 5.65868 82.8218 5.84001C82.6298 6.02134 82.4751 6.23468 82.3578 6.48001C82.2511 6.71468 82.1978 6.97068 82.1978 7.24801V12.336H81.3818C81.2431 12.336 81.1045 12.336 80.9658 12.336C80.8271 12.336 80.6885 12.336 80.5498 12.336Z" fill="#121212"/>
<path d="M73.6569 12.4961C72.9635 12.4961 72.3289 12.3041 71.7529 11.9201C71.1875 11.5361 70.7342 11.0134 70.3929 10.3521C70.0515 9.69075 69.8809 8.94409 69.8809 8.11209C69.8809 7.26942 70.0515 6.52275 70.3929 5.87209C70.7449 5.21075 71.2142 4.69342 71.8009 4.32009C72.3982 3.94675 73.0649 3.76009 73.8009 3.76009C74.2382 3.76009 74.6382 3.82409 75.0009 3.95209C75.3635 4.08009 75.6782 4.26142 75.9449 4.49609C76.2222 4.72009 76.4462 4.98142 76.6169 5.28009C76.7982 5.57875 76.9102 5.89875 76.9529 6.24009L76.5849 6.11209V3.93609H78.2489V12.3361H76.5849V10.3361L76.9689 10.2241C76.9049 10.5121 76.7715 10.7948 76.5689 11.0721C76.3769 11.3388 76.1262 11.5788 75.8169 11.7921C75.5182 12.0054 75.1822 12.1761 74.8089 12.3041C74.4462 12.4321 74.0622 12.4961 73.6569 12.4961ZM74.0889 10.9761C74.5902 10.9761 75.0329 10.8534 75.4169 10.6081C75.8009 10.3628 76.0995 10.0268 76.3129 9.60009C76.5369 9.16275 76.6489 8.66675 76.6489 8.11209C76.6489 7.56809 76.5369 7.08275 76.3129 6.65609C76.0995 6.22942 75.8009 5.89342 75.4169 5.64809C75.0329 5.40275 74.5902 5.28009 74.0889 5.28009C73.5982 5.28009 73.1609 5.40275 72.7769 5.64809C72.4035 5.89342 72.1049 6.22942 71.8809 6.65609C71.6675 7.08275 71.5609 7.56809 71.5609 8.11209C71.5609 8.66675 71.6675 9.16275 71.8809 9.60009C72.1049 10.0268 72.4035 10.3628 72.7769 10.6081C73.1609 10.8534 73.5982 10.9761 74.0889 10.9761ZM72.4249 2.62409L71.8169 2.09609L73.6569 0.288086H75.0329L76.8729 2.09609L76.2649 2.62409L74.1049 1.45609H74.5849L72.4249 2.62409Z" fill="#121212"/>
<path d="M60.9092 12.3361V0.496094H62.5572V5.66409L62.2692 5.85609C62.3758 5.48276 62.5838 5.14143 62.8932 4.83209C63.2025 4.51209 63.5705 4.25609 63.9972 4.06409C64.4238 3.86143 64.8612 3.76009 65.3092 3.76009C65.9492 3.76009 66.4825 3.88809 66.9092 4.14409C67.3358 4.38943 67.6558 4.76809 67.8692 5.28009C68.0825 5.79209 68.1892 6.43743 68.1892 7.21609V12.3361H66.5412V7.32809C66.5412 6.84809 66.4772 6.45343 66.3492 6.14409C66.2212 5.82409 66.0238 5.59476 65.7572 5.45609C65.4905 5.30676 65.1598 5.24276 64.7652 5.26409C64.4452 5.26409 64.1518 5.31743 63.8852 5.42409C63.6185 5.52009 63.3838 5.65876 63.1812 5.84009C62.9892 6.02143 62.8345 6.23476 62.7172 6.48009C62.6105 6.71476 62.5572 6.97076 62.5572 7.24809V12.3361H61.7412C61.6025 12.3361 61.4638 12.3361 61.3252 12.3361C61.1865 12.3361 61.0478 12.3361 60.9092 12.3361Z" fill="#121212"/>
<path d="M51.3936 12.336V3.93601H53.0416V5.66401L52.7536 5.85601C52.8602 5.48268 53.0682 5.14134 53.3776 4.83201C53.6869 4.51201 54.0549 4.25601 54.4816 4.06401C54.9082 3.86134 55.3456 3.76001 55.7936 3.76001C56.4336 3.76001 56.9669 3.88801 57.3936 4.14401C57.8202 4.38934 58.1402 4.76801 58.3536 5.28001C58.5669 5.79201 58.6736 6.43734 58.6736 7.21601V12.336H57.0256V7.32801C57.0256 6.84801 56.9616 6.45334 56.8336 6.14401C56.7056 5.82401 56.5082 5.59468 56.2416 5.45601C55.9749 5.30668 55.6442 5.24268 55.2496 5.26401C54.9296 5.26401 54.6362 5.31734 54.3696 5.42401C54.1029 5.52001 53.8682 5.65868 53.6656 5.84001C53.4736 6.02134 53.3189 6.23468 53.2016 6.48001C53.0949 6.71468 53.0416 6.97068 53.0416 7.24801V12.336H52.2256C52.0869 12.336 51.9482 12.336 51.8096 12.336C51.6709 12.336 51.5322 12.336 51.3936 12.336Z" fill="#121212"/>
<path d="M37.0244 8.57604V7.13603H45.0404V8.57604H37.0244ZM40.1764 11.664V3.93604H41.8564V11.664H40.1764Z" fill="#121212"/>
<path d="M31.4338 12.4961C30.5804 12.4961 29.8444 12.2614 29.2258 11.7921C28.6178 11.3227 28.1484 10.6614 27.8178 9.80807C27.4871 8.94408 27.3218 7.92007 27.3218 6.73607C27.3218 5.55207 27.4871 4.53341 27.8178 3.68007C28.1484 2.81607 28.6178 2.14941 29.2258 1.68007C29.8444 1.21074 30.5804 0.976074 31.4338 0.976074C32.2871 0.976074 33.0231 1.21074 33.6418 1.68007C34.2604 2.14941 34.7351 2.81607 35.0658 3.68007C35.3964 4.53341 35.5618 5.55207 35.5618 6.73607C35.5618 7.92007 35.3964 8.94408 35.0658 9.80807C34.7351 10.6614 34.2604 11.3227 33.6418 11.7921C33.0231 12.2614 32.2871 12.4961 31.4338 12.4961ZM31.4338 10.9281C32.2124 10.9281 32.8151 10.5654 33.2418 9.84007C33.6684 9.10407 33.8818 8.06941 33.8818 6.73607C33.8818 5.40274 33.6684 4.37341 33.2418 3.64807C32.8151 2.91207 32.2124 2.54407 31.4338 2.54407C30.6551 2.54407 30.0524 2.91207 29.6258 3.64807C29.1991 4.37341 28.9858 5.40274 28.9858 6.73607C28.9858 8.06941 29.1991 9.10407 29.6258 9.84007C30.0524 10.5654 30.6551 10.9281 31.4338 10.9281Z" fill="#121212"/>
<path d="M21.715 12.4961C20.8617 12.4961 20.1257 12.2614 19.507 11.7921C18.899 11.3227 18.4297 10.6614 18.099 9.80807C17.7684 8.94408 17.603 7.92007 17.603 6.73607C17.603 5.55207 17.7684 4.53341 18.099 3.68007C18.4297 2.81607 18.899 2.14941 19.507 1.68007C20.1257 1.21074 20.8617 0.976074 21.715 0.976074C22.5684 0.976074 23.3044 1.21074 23.923 1.68007C24.5417 2.14941 25.0164 2.81607 25.347 3.68007C25.6777 4.53341 25.843 5.55207 25.843 6.73607C25.843 7.92007 25.6777 8.94408 25.347 9.80807C25.0164 10.6614 24.5417 11.3227 23.923 11.7921C23.3044 12.2614 22.5684 12.4961 21.715 12.4961ZM21.715 10.9281C22.4937 10.9281 23.0964 10.5654 23.523 9.84007C23.9497 9.10407 24.163 8.06941 24.163 6.73607C24.163 5.40274 23.9497 4.37341 23.523 3.64807C23.0964 2.91207 22.4937 2.54407 21.715 2.54407C20.9364 2.54407 20.3337 2.91207 19.907 3.64807C19.4804 4.37341 19.267 5.40274 19.267 6.73607C19.267 8.06941 19.4804 9.10407 19.907 9.84007C20.3337 10.5654 20.9364 10.9281 21.715 10.9281Z" fill="#121212"/>
<path d="M11.9963 12.4961C11.1429 12.4961 10.4069 12.2614 9.78828 11.7921C9.18028 11.3227 8.71094 10.6614 8.38028 9.80807C8.04961 8.94408 7.88428 7.92007 7.88428 6.73607C7.88428 5.55207 8.04961 4.53341 8.38028 3.68007C8.71094 2.81607 9.18028 2.14941 9.78828 1.68007C10.4069 1.21074 11.1429 0.976074 11.9963 0.976074C12.8496 0.976074 13.5856 1.21074 14.2043 1.68007C14.8229 2.14941 15.2976 2.81607 15.6283 3.68007C15.9589 4.53341 16.1243 5.55207 16.1243 6.73607C16.1243 7.92007 15.9589 8.94408 15.6283 9.80807C15.2976 10.6614 14.8229 11.3227 14.2043 11.7921C13.5856 12.2614 12.8496 12.4961 11.9963 12.4961ZM11.9963 10.9281C12.7749 10.9281 13.3776 10.5654 13.8043 9.84007C14.2309 9.10407 14.4443 8.06941 14.4443 6.73607C14.4443 5.40274 14.2309 4.37341 13.8043 3.64807C13.3776 2.91207 12.7749 2.54407 11.9963 2.54407C11.2176 2.54407 10.6149 2.91207 10.1883 3.64807C9.76161 4.37341 9.54828 5.40274 9.54828 6.73607C9.54828 8.06941 9.76161 9.10407 10.1883 9.84007C10.6149 10.5654 11.2176 10.9281 11.9963 10.9281Z" fill="#121212"/>
<path d="M2.62004 11.5521V2.46407L3.21204 2.91207L1.00404 4.08007L0.540039 2.57607L3.53204 0.976074H4.36404V11.5521H2.62004ZM0.844039 12.3361V10.6721H6.18804V12.3361H0.844039Z" fill="#121212"/>
</svg>
