<svg width="18" height="12" viewBox="0 0 18 12" fill="none" xmlns="http://www.w3.org/2000/svg">
<path d="M10.6666 11.6801L10.1386 10.3681L13.5626 6.51207C13.744 6.32007 13.9306 6.1014 14.1226 5.85607C14.3253 5.60007 14.5173 5.33874 14.6986 5.07207C14.88 4.8054 15.024 4.54407 15.1306 4.28807C15.248 4.0214 15.3066 3.77074 15.3066 3.53607C15.3066 3.19474 15.2373 2.90674 15.0986 2.67207C14.9706 2.42674 14.7786 2.24007 14.5226 2.11207C14.2773 1.98407 13.9786 1.92007 13.6266 1.92007C13.3173 1.92007 13.0133 2.01074 12.7146 2.19207C12.416 2.3734 12.144 2.6294 11.8986 2.96007C11.6533 3.29074 11.4613 3.67474 11.3226 4.11207L9.99463 3.28007C10.176 2.6614 10.448 2.1334 10.8106 1.69607C11.184 1.24807 11.6266 0.906735 12.1386 0.672069C12.6613 0.437402 13.2266 0.320068 13.8346 0.320068C14.464 0.320068 15.024 0.453402 15.5146 0.720068C16.0053 0.976068 16.3893 1.33874 16.6666 1.80807C16.944 2.26674 17.0826 2.80007 17.0826 3.40807C17.0826 3.6534 17.056 3.90407 17.0026 4.16007C16.9493 4.41607 16.864 4.68274 16.7466 4.96007C16.6293 5.22674 16.48 5.5094 16.2986 5.80807C16.1173 6.09607 15.8986 6.40007 15.6426 6.72007C15.3973 7.04007 15.1146 7.37607 14.7946 7.72807L12.2506 10.4961L11.9306 10.0161H17.4346V11.6801H10.6666Z" fill="white"/>
<path d="M0.445557 7.92003V6.48003H8.46156V7.92003H0.445557ZM3.59756 11.008V3.28003H5.27756V11.008H3.59756Z" fill="white"/>
</svg>
