<svg width="855" height="2" viewBox="0 0 855 2" fill="none" xmlns="http://www.w3.org/2000/svg">
<mask id="path-1-inside-1_87_2714" fill="white">
<path d="M0.169922 1H854.5H427.335H0.169922Z"/>
</mask>
<path d="M0.169922 1.5H1.67756V0.5H0.169922V1.5ZM3.68775 1.5H6.70303V0.5H3.68775V1.5ZM8.71322 1.5H11.7285V0.5H8.71322V1.5ZM13.7387 1.5H16.754V0.5H13.7387V1.5ZM18.7642 1.5H21.7794V0.5H18.7642V1.5ZM23.7896 1.5H26.8049V0.5H23.7896V1.5ZM28.8151 1.5H31.8304V0.5H28.8151V1.5ZM33.8406 1.5H36.8559V0.5H33.8406V1.5ZM38.866 1.5H41.8813V0.5H38.866V1.5ZM43.8915 1.5H46.9068V0.5H43.8915V1.5ZM48.917 1.5H51.9323V0.5H48.917V1.5ZM53.9425 1.5H56.9577V0.5H53.9425V1.5ZM58.9679 1.5H61.9832V0.5H58.9679V1.5ZM63.9934 1.5H67.0087V0.5H63.9934V1.5ZM69.0189 1.5H72.0341V0.5H69.0189V1.5ZM74.0443 1.5H77.0596V0.5H74.0443V1.5ZM79.0698 1.5H82.0851V0.5H79.0698V1.5ZM84.0953 1.5H87.1105V0.5H84.0953V1.5ZM89.1207 1.5H92.136V0.5H89.1207V1.5ZM94.1462 1.5H97.1615V0.5H94.1462V1.5ZM99.1717 1.5H102.187V0.5H99.1717V1.5ZM104.197 1.5H107.212V0.5H104.197V1.5ZM109.223 1.5H112.238V0.5H109.223V1.5ZM114.248 1.5H117.263V0.5H114.248V1.5ZM119.274 1.5H122.289V0.5H119.274V1.5ZM124.299 1.5H127.314V0.5H124.299V1.5ZM129.324 1.5H132.34V0.5H129.324V1.5ZM134.35 1.5H137.365V0.5H134.35V1.5ZM139.375 1.5H142.391V0.5H139.375V1.5ZM144.401 1.5H147.416V0.5H144.401V1.5ZM149.426 1.5H152.442V0.5H149.426V1.5ZM154.452 1.5H157.467V0.5H154.452V1.5ZM159.477 1.5H162.493V0.5H159.477V1.5ZM164.503 1.5H167.518V0.5H164.503V1.5ZM169.528 1.5H172.544V0.5H169.528V1.5ZM174.554 1.5H177.569V0.5H174.554V1.5ZM179.579 1.5H182.595V0.5H179.579V1.5ZM184.605 1.5H187.62V0.5H184.605V1.5ZM189.63 1.5H192.646V0.5H189.63V1.5ZM194.656 1.5H197.671V0.5H194.656V1.5ZM199.681 1.5H202.697V0.5H199.681V1.5ZM204.707 1.5H207.722V0.5H204.707V1.5ZM209.732 1.5H212.747V0.5H209.732V1.5ZM214.758 1.5H217.773V0.5H214.758V1.5ZM219.783 1.5H222.798V0.5H219.783V1.5ZM224.809 1.5H227.824V0.5H224.809V1.5ZM229.834 1.5H232.849V0.5H229.834V1.5ZM234.86 1.5H237.875V0.5H234.86V1.5ZM239.885 1.5H242.9V0.5H239.885V1.5ZM244.911 1.5H247.926V0.5H244.911V1.5ZM249.936 1.5H252.951V0.5H249.936V1.5ZM254.962 1.5H257.977V0.5H254.962V1.5ZM259.987 1.5H263.002V0.5H259.987V1.5ZM265.012 1.5H268.028V0.5H265.012V1.5ZM270.038 1.5H273.053V0.5H270.038V1.5ZM275.063 1.5H278.079V0.5H275.063V1.5ZM280.089 1.5H283.104V0.5H280.089V1.5ZM285.114 1.5H288.13V0.5H285.114V1.5ZM290.14 1.5H293.155V0.5H290.14V1.5ZM295.165 1.5H298.181V0.5H295.165V1.5ZM300.191 1.5H303.206V0.5H300.191V1.5ZM305.216 1.5H308.232V0.5H305.216V1.5ZM310.242 1.5H313.257V0.5H310.242V1.5ZM315.267 1.5H318.283V0.5H315.267V1.5ZM320.293 1.5H323.308V0.5H320.293V1.5ZM325.318 1.5H328.334V0.5H325.318V1.5ZM330.344 1.5H333.359V0.5H330.344V1.5ZM335.369 1.5H338.385V0.5H335.369V1.5ZM340.395 1.5H343.41V0.5H340.395V1.5ZM345.42 1.5H348.435V0.5H345.42V1.5ZM350.446 1.5H353.461V0.5H350.446V1.5ZM355.471 1.5H358.486V0.5H355.471V1.5ZM360.497 1.5H363.512V0.5H360.497V1.5ZM365.522 1.5H368.537V0.5H365.522V1.5ZM370.548 1.5H373.563V0.5H370.548V1.5ZM375.573 1.5H378.588V0.5H375.573V1.5ZM380.599 1.5H383.614V0.5H380.599V1.5ZM385.624 1.5H388.639V0.5H385.624V1.5ZM390.65 1.5H393.665V0.5H390.65V1.5ZM395.675 1.5H398.69V0.5H395.675V1.5ZM400.701 1.5H403.716V0.5H400.701V1.5ZM405.726 1.5H408.741V0.5H405.726V1.5ZM410.751 1.5H413.767V0.5H410.751V1.5ZM415.777 1.5H418.792V0.5H415.777V1.5ZM420.802 1.5H423.818V0.5H420.802V1.5ZM425.828 1.5H427.335V0.5H425.828V1.5ZM427.335 1.5H428.843V0.5H427.335V1.5ZM430.853 1.5H433.868V0.5H430.853V1.5ZM435.878 1.5H438.893V0.5H435.878V1.5ZM440.904 1.5H443.919V0.5H440.904V1.5ZM445.929 1.5H448.944V0.5H445.929V1.5ZM450.955 1.5H453.97V0.5H450.955V1.5ZM455.98 1.5H458.995V0.5H455.98V1.5ZM461.006 1.5H464.021V0.5H461.006V1.5ZM466.031 1.5H469.046V0.5H466.031V1.5ZM471.057 1.5H474.072V0.5H471.057V1.5ZM476.082 1.5H479.097V0.5H476.082V1.5ZM481.107 1.5H484.123V0.5H481.107V1.5ZM486.133 1.5H489.148V0.5H486.133V1.5ZM491.158 1.5H494.174V0.5H491.158V1.5ZM496.184 1.5H499.199V0.5H496.184V1.5ZM501.209 1.5H504.225V0.5H501.209V1.5ZM506.235 1.5H509.25V0.5H506.235V1.5ZM511.26 1.5H514.276V0.5H511.26V1.5ZM516.286 1.5H519.301V0.5H516.286V1.5ZM521.311 1.5H524.326V0.5H521.311V1.5ZM526.337 1.5H529.352V0.5H526.337V1.5ZM531.362 1.5H534.377V0.5H531.362V1.5ZM536.388 1.5H539.403V0.5H536.388V1.5ZM541.413 1.5H544.428V0.5H541.413V1.5ZM546.439 1.5H549.454V0.5H546.439V1.5ZM551.464 1.5H554.479V0.5H551.464V1.5ZM556.489 1.5H559.505V0.5H556.489V1.5ZM561.515 1.5H564.53V0.5H561.515V1.5ZM566.54 1.5H569.556V0.5H566.54V1.5ZM571.566 1.5H574.581V0.5H571.566V1.5ZM576.591 1.5H579.607V0.5H576.591V1.5ZM581.617 1.5H584.632V0.5H581.617V1.5ZM586.642 1.5H589.658V0.5H586.642V1.5ZM591.668 1.5H594.683V0.5H591.668V1.5ZM596.693 1.5H599.709V0.5H596.693V1.5ZM601.719 1.5H604.734V0.5H601.719V1.5ZM606.744 1.5H609.76V0.5H606.744V1.5ZM611.77 1.5H614.785V0.5H611.77V1.5ZM616.795 1.5H619.811V0.5H616.795V1.5ZM621.821 1.5H624.836V0.5H621.821V1.5ZM626.846 1.5H629.862V0.5H626.846V1.5ZM631.872 1.5H634.887V0.5H631.872V1.5ZM636.897 1.5H639.912V0.5H636.897V1.5ZM641.923 1.5H644.938V0.5H641.923V1.5ZM646.948 1.5H649.963V0.5H646.948V1.5ZM651.974 1.5H654.989V0.5H651.974V1.5ZM656.999 1.5H660.014V0.5H656.999V1.5ZM662.025 1.5H665.04V0.5H662.025V1.5ZM667.05 1.5H670.065V0.5H667.05V1.5ZM672.076 1.5H675.091V0.5H672.076V1.5ZM677.101 1.5H680.116V0.5H677.101V1.5ZM682.127 1.5H685.142V0.5H682.127V1.5ZM687.152 1.5H690.167V0.5H687.152V1.5ZM692.177 1.5H695.193V0.5H692.177V1.5ZM697.203 1.5H700.218V0.5H697.203V1.5ZM702.228 1.5H705.244V0.5H702.228V1.5ZM707.254 1.5H710.269V0.5H707.254V1.5ZM712.279 1.5H715.295V0.5H712.279V1.5ZM717.305 1.5H720.32V0.5H717.305V1.5ZM722.33 1.5H725.346V0.5H722.33V1.5ZM727.356 1.5H730.371V0.5H727.356V1.5ZM732.381 1.5H735.397V0.5H732.381V1.5ZM737.407 1.5H740.422V0.5H737.407V1.5ZM742.432 1.5H745.448V0.5H742.432V1.5ZM747.458 1.5H750.473V0.5H747.458V1.5ZM752.483 1.5H755.499V0.5H752.483V1.5ZM757.509 1.5H760.524V0.5H757.509V1.5ZM762.534 1.5H765.549V0.5H762.534V1.5ZM767.56 1.5H770.575V0.5H767.56V1.5ZM772.585 1.5H775.6V0.5H772.585V1.5ZM777.611 1.5H780.626V0.5H777.611V1.5ZM782.636 1.5H785.651V0.5H782.636V1.5ZM787.662 1.5H790.677V0.5H787.662V1.5ZM792.687 1.5H795.702V0.5H792.687V1.5ZM797.713 1.5H800.728V0.5H797.713V1.5ZM802.738 1.5H805.753V0.5H802.738V1.5ZM807.764 1.5H810.779V0.5H807.764V1.5ZM812.789 1.5H815.804V0.5H812.789V1.5ZM817.815 1.5H820.83V0.5H817.815V1.5ZM822.84 1.5H825.855V0.5H822.84V1.5ZM827.865 1.5H830.881V0.5H827.865V1.5ZM832.891 1.5H835.906V0.5H832.891V1.5ZM837.916 1.5H840.932V0.5H837.916V1.5ZM842.942 1.5H845.957V0.5H842.942V1.5ZM847.967 1.5H850.983V0.5H847.967V1.5ZM852.993 1.5H854.5V0.5H852.993V1.5ZM854.5 0.5H853.001V1.5H854.5V0.5ZM851.003 0.5H848.005V1.5H851.003V0.5ZM846.007 0.5H843.009V1.5H846.007V0.5ZM841.01 0.5H838.013V1.5H841.01V0.5ZM836.014 0.5H833.017V1.5H836.014V0.5ZM831.018 0.5H828.021V1.5H831.018V0.5ZM826.022 0.5H823.025V1.5H826.022V0.5ZM821.026 0.5H818.029V1.5H821.026V0.5ZM816.03 0.5H813.032V1.5H816.03V0.5ZM811.034 0.5H808.036V1.5H811.034V0.5ZM806.038 0.5H803.04V1.5H806.038V0.5ZM801.042 0.5H798.044V1.5H801.042V0.5ZM796.046 0.5H793.048V1.5H796.046V0.5ZM791.05 0.5H788.052V1.5H791.05V0.5ZM786.054 0.5H783.056V1.5H786.054V0.5ZM781.057 0.5H778.06V1.5H781.057V0.5ZM776.061 0.5H773.064V1.5H776.061V0.5ZM771.065 0.5H768.068V1.5H771.065V0.5ZM766.069 0.5H763.072V1.5H766.069V0.5ZM761.073 0.5H758.076V1.5H761.073V0.5ZM756.077 0.5H753.079V1.5H756.077V0.5ZM751.081 0.5H748.083V1.5H751.081V0.5ZM746.085 0.5H743.087V1.5H746.085V0.5ZM741.089 0.5H738.091V1.5H741.089V0.5ZM736.093 0.5H733.095V1.5H736.093V0.5ZM731.097 0.5H728.099V1.5H731.097V0.5ZM726.101 0.5H723.103V1.5H726.101V0.5ZM721.104 0.5H718.107V1.5H721.104V0.5ZM716.108 0.5H713.111V1.5H716.108V0.5ZM711.112 0.5H708.115V1.5H711.112V0.5ZM706.116 0.5H703.119V1.5H706.116V0.5ZM701.12 0.5H698.122V1.5H701.12V0.5ZM696.124 0.5H693.126V1.5H696.124V0.5ZM691.128 0.5H688.13V1.5H691.128V0.5ZM686.132 0.5H683.134V1.5H686.132V0.5ZM681.136 0.5H678.138V1.5H681.136V0.5ZM676.14 0.5H673.142V1.5H676.14V0.5ZM671.144 0.5H668.146V1.5H671.144V0.5ZM666.148 0.5H663.15V1.5H666.148V0.5ZM661.151 0.5H658.154V1.5H661.151V0.5ZM656.155 0.5H653.158V1.5H656.155V0.5ZM651.159 0.5H648.162V1.5H651.159V0.5ZM646.163 0.5H643.166V1.5H646.163V0.5ZM641.167 0.5H638.17V1.5H641.167V0.5ZM636.171 0.5H633.173V1.5H636.171V0.5ZM631.175 0.5H628.177V1.5H631.175V0.5ZM626.179 0.5H623.181V1.5H626.179V0.5ZM621.183 0.5H618.185V1.5H621.183V0.5ZM616.187 0.5H613.189V1.5H616.187V0.5ZM611.191 0.5H608.193V1.5H611.191V0.5ZM606.195 0.5H603.197V1.5H606.195V0.5ZM601.199 0.5H598.201V1.5H601.199V0.5ZM596.203 0.5H593.205V1.5H596.203V0.5ZM591.206 0.5H588.209V1.5H591.206V0.5ZM586.21 0.5H583.213V1.5H586.21V0.5ZM581.214 0.5H578.217V1.5H581.214V0.5ZM576.218 0.5H573.22V1.5H576.218V0.5ZM571.222 0.5H568.224V1.5H571.222V0.5ZM566.226 0.5H563.228V1.5H566.226V0.5ZM561.23 0.5H558.232V1.5H561.23V0.5ZM556.234 0.5H553.236V1.5H556.234V0.5ZM551.238 0.5H548.24V1.5H551.238V0.5ZM546.242 0.5H543.244V1.5H546.242V0.5ZM541.245 0.5H538.248V1.5H541.245V0.5ZM536.249 0.5H533.252V1.5H536.249V0.5ZM531.253 0.5H528.256V1.5H531.253V0.5ZM526.257 0.5H523.26V1.5H526.257V0.5ZM521.261 0.5H518.263V1.5H521.261V0.5ZM516.265 0.5H513.267V1.5H516.265V0.5ZM511.269 0.5H508.271V1.5H511.269V0.5ZM506.273 0.5H503.275V1.5H506.273V0.5ZM501.277 0.5H498.279V1.5H501.277V0.5ZM496.281 0.5H493.283V1.5H496.281V0.5ZM491.285 0.5H488.287V1.5H491.285V0.5ZM486.288 0.5H483.291V1.5H486.288V0.5ZM481.292 0.5H478.295V1.5H481.292V0.5ZM476.296 0.5H473.299V1.5H476.296V0.5ZM471.3 0.5H468.302V1.5H471.3V0.5ZM466.304 0.5H463.306V1.5H466.304V0.5ZM461.308 0.5H458.31V1.5H461.308V0.5ZM456.312 0.5H453.314V1.5H456.312V0.5ZM451.316 0.5H448.318V1.5H451.316V0.5ZM446.32 0.5H443.322V1.5H446.32V0.5ZM441.324 0.5H438.326V1.5H441.324V0.5ZM436.327 0.5H433.33V1.5H436.327V0.5ZM431.331 0.5H428.334V1.5H431.331V0.5ZM426.335 0.5H423.338V1.5H426.335V0.5ZM421.339 0.5H418.342V1.5H421.339V0.5ZM416.343 0.5H413.345V1.5H416.343V0.5ZM411.347 0.5H408.349V1.5H411.347V0.5ZM406.351 0.5H403.353V1.5H406.351V0.5ZM401.355 0.5H398.357V1.5H401.355V0.5ZM396.359 0.5H393.361V1.5H396.359V0.5ZM391.363 0.5H388.365V1.5H391.363V0.5ZM386.367 0.5H383.369V1.5H386.367V0.5ZM381.37 0.5H378.373V1.5H381.37V0.5ZM376.374 0.5H373.377V1.5H376.374V0.5ZM371.378 0.5H368.381V1.5H371.378V0.5ZM366.382 0.5H363.385V1.5H366.382V0.5ZM361.386 0.5H358.388V1.5H361.386V0.5ZM356.39 0.5H353.392V1.5H356.39V0.5ZM351.394 0.5H348.396V1.5H351.394V0.5ZM346.398 0.5H343.4V1.5H346.398V0.5ZM341.402 0.5H338.404V1.5H341.402V0.5ZM336.406 0.5H333.408V1.5H336.406V0.5ZM331.41 0.5H328.412V1.5H331.41V0.5ZM326.414 0.5H323.416V1.5H326.414V0.5ZM321.418 0.5H318.42V1.5H321.418V0.5ZM316.422 0.5H313.424V1.5H316.422V0.5ZM311.426 0.5H308.428V1.5H311.426V0.5ZM306.43 0.5H303.432V1.5H306.43V0.5ZM301.434 0.5H298.436V1.5H301.434V0.5ZM296.437 0.5H293.44V1.5H296.437V0.5ZM291.441 0.5H288.444V1.5H291.441V0.5ZM286.445 0.5H283.448V1.5H286.445V0.5ZM281.449 0.5H278.452V1.5H281.449V0.5ZM276.453 0.5H273.456V1.5H276.453V0.5ZM271.457 0.5H268.46V1.5H271.457V0.5ZM266.461 0.5H263.464V1.5H266.461V0.5ZM261.465 0.5H258.468V1.5H261.465V0.5ZM256.469 0.5H253.472V1.5H256.469V0.5ZM251.473 0.5H248.476V1.5H251.473V0.5ZM246.477 0.5H243.479V1.5H246.477V0.5ZM241.481 0.5H238.483V1.5H241.481V0.5ZM236.485 0.5H233.487V1.5H236.485V0.5ZM231.489 0.5H228.491V1.5H231.489V0.5ZM226.493 0.5H223.495V1.5H226.493V0.5ZM221.497 0.5H218.499V1.5H221.497V0.5ZM216.501 0.5H213.503V1.5H216.501V0.5ZM211.505 0.5H208.507V1.5H211.505V0.5ZM206.509 0.5H203.511V1.5H206.509V0.5ZM201.513 0.5H198.515V1.5H201.513V0.5ZM196.517 0.5H193.519V1.5H196.517V0.5ZM191.521 0.5H188.523V1.5H191.521V0.5ZM186.525 0.5H183.527V1.5H186.525V0.5ZM181.529 0.5H178.531V1.5H181.529V0.5ZM176.533 0.5H173.535V1.5H176.533V0.5ZM171.537 0.5H168.539V1.5H171.537V0.5ZM166.541 0.5H163.543V1.5H166.541V0.5ZM161.545 0.5H158.547V1.5H161.545V0.5ZM156.549 0.5H153.551V1.5H156.549V0.5ZM151.552 0.5H148.555V1.5H151.552V0.5ZM146.556 0.5H143.559V1.5H146.556V0.5ZM141.56 0.5H138.563V1.5H141.56V0.5ZM136.564 0.5H133.567V1.5H136.564V0.5ZM131.568 0.5H128.571V1.5H131.568V0.5ZM126.572 0.5H123.575V1.5H126.572V0.5ZM121.576 0.5H118.579V1.5H121.576V0.5ZM116.58 0.5H113.583V1.5H116.58V0.5ZM111.584 0.5H108.587V1.5H111.584V0.5ZM106.588 0.5H103.591V1.5H106.588V0.5ZM101.592 0.5H98.5945V1.5H101.592V0.5ZM96.5961 0.5H93.5985V1.5H96.5961V0.5ZM91.6001 0.5H88.6025V1.5H91.6001V0.5ZM86.6041 0.5H83.6064V1.5H86.6041V0.5ZM81.6081 0.5H78.6104V1.5H81.6081V0.5ZM76.612 0.5H73.6144V1.5H76.612V0.5ZM71.616 0.5H68.6184V1.5H71.616V0.5ZM66.6199 0.5H63.6223V1.5H66.6199V0.5ZM61.6239 0.5H58.6263V1.5H61.6239V0.5ZM56.6279 0.5H53.6303V1.5H56.6279V0.5ZM51.6318 0.5H48.6342V1.5H51.6318V0.5ZM46.6358 0.5H43.6382V1.5H46.6358V0.5ZM41.6398 0.5H38.6421V1.5H41.6398V0.5ZM36.6437 0.5H33.6461V1.5H36.6437V0.5ZM31.6477 0.5H28.6501V1.5H31.6477V0.5ZM26.6517 0.5H23.654V1.5H26.6517V0.5ZM21.6557 0.5H18.658V1.5H21.6557V0.5ZM16.6596 0.5H13.662V1.5H16.6596V0.5ZM11.6636 0.5H8.66596V1.5H11.6636V0.5ZM6.66752 0.5H3.66995V1.5H6.66752V0.5ZM1.67151 0.5H0.169922V1.5H1.67151V0.5ZM0.169922 2H1.67756V0H0.169922V2ZM3.68775 2H6.70303V0H3.68775V2ZM8.71322 2H11.7285V0H8.71322V2ZM13.7387 2H16.754V0H13.7387V2ZM18.7642 2H21.7794V0H18.7642V2ZM23.7896 2H26.8049V0H23.7896V2ZM28.8151 2H31.8304V0H28.8151V2ZM33.8406 2H36.8559V0H33.8406V2ZM38.866 2H41.8813V0H38.866V2ZM43.8915 2H46.9068V0H43.8915V2ZM48.917 2H51.9323V0H48.917V2ZM53.9425 2H56.9577V0H53.9425V2ZM58.9679 2H61.9832V0H58.9679V2ZM63.9934 2H67.0087V0H63.9934V2ZM69.0189 2H72.0341V0H69.0189V2ZM74.0443 2H77.0596V0H74.0443V2ZM79.0698 2H82.0851V0H79.0698V2ZM84.0953 2H87.1105V0H84.0953V2ZM89.1207 2H92.136V0H89.1207V2ZM94.1462 2H97.1615V0H94.1462V2ZM99.1717 2H102.187V0H99.1717V2ZM104.197 2H107.212V0H104.197V2ZM109.223 2H112.238V0H109.223V2ZM114.248 2H117.263V0H114.248V2ZM119.274 2H122.289V0H119.274V2ZM124.299 2H127.314V0H124.299V2ZM129.324 2H132.34V0H129.324V2ZM134.35 2H137.365V0H134.35V2ZM139.375 2H142.391V0H139.375V2ZM144.401 2H147.416V0H144.401V2ZM149.426 2H152.442V0H149.426V2ZM154.452 2H157.467V0H154.452V2ZM159.477 2H162.493V0H159.477V2ZM164.503 2H167.518V0H164.503V2ZM169.528 2H172.544V0H169.528V2ZM174.554 2H177.569V0H174.554V2ZM179.579 2H182.595V0H179.579V2ZM184.605 2H187.62V0H184.605V2ZM189.63 2H192.646V0H189.63V2ZM194.656 2H197.671V0H194.656V2ZM199.681 2H202.697V0H199.681V2ZM204.707 2H207.722V0H204.707V2ZM209.732 2H212.747V0H209.732V2ZM214.758 2H217.773V0H214.758V2ZM219.783 2H222.798V0H219.783V2ZM224.809 2H227.824V0H224.809V2ZM229.834 2H232.849V0H229.834V2ZM234.86 2H237.875V0H234.86V2ZM239.885 2H242.9V0H239.885V2ZM244.911 2H247.926V0H244.911V2ZM249.936 2H252.951V0H249.936V2ZM254.962 2H257.977V0H254.962V2ZM259.987 2H263.002V0H259.987V2ZM265.012 2H268.028V0H265.012V2ZM270.038 2H273.053V0H270.038V2ZM275.063 2H278.079V0H275.063V2ZM280.089 2H283.104V0H280.089V2ZM285.114 2H288.13V0H285.114V2ZM290.14 2H293.155V0H290.14V2ZM295.165 2H298.181V0H295.165V2ZM300.191 2H303.206V0H300.191V2ZM305.216 2H308.232V0H305.216V2ZM310.242 2H313.257V0H310.242V2ZM315.267 2H318.283V0H315.267V2ZM320.293 2H323.308V0H320.293V2ZM325.318 2H328.334V0H325.318V2ZM330.344 2H333.359V0H330.344V2ZM335.369 2H338.385V0H335.369V2ZM340.395 2H343.41V0H340.395V2ZM345.42 2H348.435V0H345.42V2ZM350.446 2H353.461V0H350.446V2ZM355.471 2H358.486V0H355.471V2ZM360.497 2H363.512V0H360.497V2ZM365.522 2H368.537V0H365.522V2ZM370.548 2H373.563V0H370.548V2ZM375.573 2H378.588V0H375.573V2ZM380.599 2H383.614V0H380.599V2ZM385.624 2H388.639V0H385.624V2ZM390.65 2H393.665V0H390.65V2ZM395.675 2H398.69V0H395.675V2ZM400.701 2H403.716V0H400.701V2ZM405.726 2H408.741V0H405.726V2ZM410.751 2H413.767V0H410.751V2ZM415.777 2H418.792V0H415.777V2ZM420.802 2H423.818V0H420.802V2ZM425.828 2H427.335V0H425.828V2ZM427.335 2H428.843V0H427.335V2ZM430.853 2H433.868V0H430.853V2ZM435.878 2H438.893V0H435.878V2ZM440.904 2H443.919V0H440.904V2ZM445.929 2H448.944V0H445.929V2ZM450.955 2H453.97V0H450.955V2ZM455.98 2H458.995V0H455.98V2ZM461.006 2H464.021V0H461.006V2ZM466.031 2H469.046V0H466.031V2ZM471.057 2H474.072V0H471.057V2ZM476.082 2H479.097V0H476.082V2ZM481.107 2H484.123V0H481.107V2ZM486.133 2H489.148V0H486.133V2ZM491.158 2H494.174V0H491.158V2ZM496.184 2H499.199V0H496.184V2ZM501.209 2H504.225V0H501.209V2ZM506.235 2H509.25V0H506.235V2ZM511.26 2H514.276V0H511.26V2ZM516.286 2H519.301V0H516.286V2ZM521.311 2H524.326V0H521.311V2ZM526.337 2H529.352V0H526.337V2ZM531.362 2H534.377V0H531.362V2ZM536.388 2H539.403V0H536.388V2ZM541.413 2H544.428V0H541.413V2ZM546.439 2H549.454V0H546.439V2ZM551.464 2H554.479V0H551.464V2ZM556.489 2H559.505V0H556.489V2ZM561.515 2H564.53V0H561.515V2ZM566.54 2H569.556V0H566.54V2ZM571.566 2H574.581V0H571.566V2ZM576.591 2H579.607V0H576.591V2ZM581.617 2H584.632V0H581.617V2ZM586.642 2H589.658V0H586.642V2ZM591.668 2H594.683V0H591.668V2ZM596.693 2H599.709V0H596.693V2ZM601.719 2H604.734V0H601.719V2ZM606.744 2H609.76V0H606.744V2ZM611.77 2H614.785V0H611.77V2ZM616.795 2H619.811V0H616.795V2ZM621.821 2H624.836V0H621.821V2ZM626.846 2H629.862V0H626.846V2ZM631.872 2H634.887V0H631.872V2ZM636.897 2H639.912V0H636.897V2ZM641.923 2H644.938V0H641.923V2ZM646.948 2H649.963V0H646.948V2ZM651.974 2H654.989V0H651.974V2ZM656.999 2H660.014V0H656.999V2ZM662.025 2H665.04V0H662.025V2ZM667.05 2H670.065V0H667.05V2ZM672.076 2H675.091V0H672.076V2ZM677.101 2H680.116V0H677.101V2ZM682.127 2H685.142V0H682.127V2ZM687.152 2H690.167V0H687.152V2ZM692.177 2H695.193V0H692.177V2ZM697.203 2H700.218V0H697.203V2ZM702.228 2H705.244V0H702.228V2ZM707.254 2H710.269V0H707.254V2ZM712.279 2H715.295V0H712.279V2ZM717.305 2H720.32V0H717.305V2ZM722.33 2H725.346V0H722.33V2ZM727.356 2H730.371V0H727.356V2ZM732.381 2H735.397V0H732.381V2ZM737.407 2H740.422V0H737.407V2ZM742.432 2H745.448V0H742.432V2ZM747.458 2H750.473V0H747.458V2ZM752.483 2H755.499V0H752.483V2ZM757.509 2H760.524V0H757.509V2ZM762.534 2H765.549V0H762.534V2ZM767.56 2H770.575V0H767.56V2ZM772.585 2H775.6V0H772.585V2ZM777.611 2H780.626V0H777.611V2ZM782.636 2H785.651V0H782.636V2ZM787.662 2H790.677V0H787.662V2ZM792.687 2H795.702V0H792.687V2ZM797.713 2H800.728V0H797.713V2ZM802.738 2H805.753V0H802.738V2ZM807.764 2H810.779V0H807.764V2ZM812.789 2H815.804V0H812.789V2ZM817.815 2H820.83V0H817.815V2ZM822.84 2H825.855V0H822.84V2ZM827.865 2H830.881V0H827.865V2ZM832.891 2H835.906V0H832.891V2ZM837.916 2H840.932V0H837.916V2ZM842.942 2H845.957V0H842.942V2ZM847.967 2H850.983V0H847.967V2ZM852.993 2H854.5V0H852.993V2ZM854.5 0H853.001V2H854.5V0ZM851.003 0H848.005V2H851.003V0ZM846.007 0H843.009V2H846.007V0ZM841.01 0H838.013V2H841.01V0ZM836.014 0H833.017V2H836.014V0ZM831.018 0H828.021V2H831.018V0ZM826.022 0H823.025V2H826.022V0ZM821.026 0H818.029V2H821.026V0ZM816.03 0H813.032V2H816.03V0ZM811.034 0H808.036V2H811.034V0ZM806.038 0H803.04V2H806.038V0ZM801.042 0H798.044V2H801.042V0ZM796.046 0H793.048V2H796.046V0ZM791.05 0H788.052V2H791.05V0ZM786.054 0H783.056V2H786.054V0ZM781.057 0H778.06V2H781.057V0ZM776.061 0H773.064V2H776.061V0ZM771.065 0H768.068V2H771.065V0ZM766.069 0H763.072V2H766.069V0ZM761.073 0H758.076V2H761.073V0ZM756.077 0H753.079V2H756.077V0ZM751.081 0H748.083V2H751.081V0ZM746.085 0H743.087V2H746.085V0ZM741.089 0H738.091V2H741.089V0ZM736.093 0H733.095V2H736.093V0ZM731.097 0H728.099V2H731.097V0ZM726.101 0H723.103V2H726.101V0ZM721.104 0H718.107V2H721.104V0ZM716.108 0H713.111V2H716.108V0ZM711.112 0H708.115V2H711.112V0ZM706.116 0H703.119V2H706.116V0ZM701.12 0H698.122V2H701.12V0ZM696.124 0H693.126V2H696.124V0ZM691.128 0H688.13V2H691.128V0ZM686.132 0H683.134V2H686.132V0ZM681.136 0H678.138V2H681.136V0ZM676.14 0H673.142V2H676.14V0ZM671.144 0H668.146V2H671.144V0ZM666.148 0H663.15V2H666.148V0ZM661.151 0H658.154V2H661.151V0ZM656.155 0H653.158V2H656.155V0ZM651.159 0H648.162V2H651.159V0ZM646.163 0H643.166V2H646.163V0ZM641.167 0H638.17V2H641.167V0ZM636.171 0H633.173V2H636.171V0ZM631.175 0H628.177V2H631.175V0ZM626.179 0H623.181V2H626.179V0ZM621.183 0H618.185V2H621.183V0ZM616.187 0H613.189V2H616.187V0ZM611.191 0H608.193V2H611.191V0ZM606.195 0H603.197V2H606.195V0ZM601.199 0H598.201V2H601.199V0ZM596.203 0H593.205V2H596.203V0ZM591.206 0H588.209V2H591.206V0ZM586.21 0H583.213V2H586.21V0ZM581.214 0H578.217V2H581.214V0ZM576.218 0H573.22V2H576.218V0ZM571.222 0H568.224V2H571.222V0ZM566.226 0H563.228V2H566.226V0ZM561.23 0H558.232V2H561.23V0ZM556.234 0H553.236V2H556.234V0ZM551.238 0H548.24V2H551.238V0ZM546.242 0H543.244V2H546.242V0ZM541.245 0H538.248V2H541.245V0ZM536.249 0H533.252V2H536.249V0ZM531.253 0H528.256V2H531.253V0ZM526.257 0H523.26V2H526.257V0ZM521.261 0H518.263V2H521.261V0ZM516.265 0H513.267V2H516.265V0ZM511.269 0H508.271V2H511.269V0ZM506.273 0H503.275V2H506.273V0ZM501.277 0H498.279V2H501.277V0ZM496.281 0H493.283V2H496.281V0ZM491.285 0H488.287V2H491.285V0ZM486.288 0H483.291V2H486.288V0ZM481.292 0H478.295V2H481.292V0ZM476.296 0H473.299V2H476.296V0ZM471.3 0H468.302V2H471.3V0ZM466.304 0H463.306V2H466.304V0ZM461.308 0H458.31V2H461.308V0ZM456.312 0H453.314V2H456.312V0ZM451.316 0H448.318V2H451.316V0ZM446.32 0H443.322V2H446.32V0ZM441.324 0H438.326V2H441.324V0ZM436.327 0H433.33V2H436.327V0ZM431.331 0H428.334V2H431.331V0ZM426.335 0H423.338V2H426.335V0ZM421.339 0H418.342V2H421.339V0ZM416.343 0H413.345V2H416.343V0ZM411.347 0H408.349V2H411.347V0ZM406.351 0H403.353V2H406.351V0ZM401.355 0H398.357V2H401.355V0ZM396.359 0H393.361V2H396.359V0ZM391.363 0H388.365V2H391.363V0ZM386.367 0H383.369V2H386.367V0ZM381.37 0H378.373V2H381.37V0ZM376.374 0H373.377V2H376.374V0ZM371.378 0H368.381V2H371.378V0ZM366.382 0H363.385V2H366.382V0ZM361.386 0H358.388V2H361.386V0ZM356.39 0H353.392V2H356.39V0ZM351.394 0H348.396V2H351.394V0ZM346.398 0H343.4V2H346.398V0ZM341.402 0H338.404V2H341.402V0ZM336.406 0H333.408V2H336.406V0ZM331.41 0H328.412V2H331.41V0ZM326.414 0H323.416V2H326.414V0ZM321.418 0H318.42V2H321.418V0ZM316.422 0H313.424V2H316.422V0ZM311.426 0H308.428V2H311.426V0ZM306.43 0H303.432V2H306.43V0ZM301.434 0H298.436V2H301.434V0ZM296.437 0H293.44V2H296.437V0ZM291.441 0H288.444V2H291.441V0ZM286.445 0H283.448V2H286.445V0ZM281.449 0H278.452V2H281.449V0ZM276.453 0H273.456V2H276.453V0ZM271.457 0H268.46V2H271.457V0ZM266.461 0H263.464V2H266.461V0ZM261.465 0H258.468V2H261.465V0ZM256.469 0H253.472V2H256.469V0ZM251.473 0H248.476V2H251.473V0ZM246.477 0H243.479V2H246.477V0ZM241.481 0H238.483V2H241.481V0ZM236.485 0H233.487V2H236.485V0ZM231.489 0H228.491V2H231.489V0ZM226.493 0H223.495V2H226.493V0ZM221.497 0H218.499V2H221.497V0ZM216.501 0H213.503V2H216.501V0ZM211.505 0H208.507V2H211.505V0ZM206.509 0H203.511V2H206.509V0ZM201.513 0H198.515V2H201.513V0ZM196.517 0H193.519V2H196.517V0ZM191.521 0H188.523V2H191.521V0ZM186.525 0H183.527V2H186.525V0ZM181.529 0H178.531V2H181.529V0ZM176.533 0H173.535V2H176.533V0ZM171.537 0H168.539V2H171.537V0ZM166.541 0H163.543V2H166.541V0ZM161.545 0H158.547V2H161.545V0ZM156.549 0H153.551V2H156.549V0ZM151.552 0H148.555V2H151.552V0ZM146.556 0H143.559V2H146.556V0ZM141.56 0H138.563V2H141.56V0ZM136.564 0H133.567V2H136.564V0ZM131.568 0H128.571V2H131.568V0ZM126.572 0H123.575V2H126.572V0ZM121.576 0H118.579V2H121.576V0ZM116.58 0H113.583V2H116.58V0ZM111.584 0H108.587V2H111.584V0ZM106.588 0H103.591V2H106.588V0ZM101.592 0H98.5945V2H101.592V0ZM96.5961 0H93.5985V2H96.5961V0ZM91.6001 0H88.6025V2H91.6001V0ZM86.6041 0H83.6064V2H86.6041V0ZM81.6081 0H78.6104V2H81.6081V0ZM76.612 0H73.6144V2H76.612V0ZM71.616 0H68.6184V2H71.616V0ZM66.6199 0H63.6223V2H66.6199V0ZM61.6239 0H58.6263V2H61.6239V0ZM56.6279 0H53.6303V2H56.6279V0ZM51.6318 0H48.6342V2H51.6318V0ZM46.6358 0H43.6382V2H46.6358V0ZM41.6398 0H38.6421V2H41.6398V0ZM36.6437 0H33.6461V2H36.6437V0ZM31.6477 0H28.6501V2H31.6477V0ZM26.6517 0H23.654V2H26.6517V0ZM21.6557 0H18.658V2H21.6557V0ZM16.6596 0H13.662V2H16.6596V0ZM11.6636 0H8.66596V2H11.6636V0ZM6.66752 0H3.66995V2H6.66752V0ZM1.67151 0H0.169922V2H1.67151V0Z" fill="white" mask="url(#path-1-inside-1_87_2714)"/>
</svg>
