<svg width="16" height="17" viewBox="0 0 16 17" fill="none" xmlns="http://www.w3.org/2000/svg">
<g clip-path="url(#clip0_87_1060)">
<path fill-rule="evenodd" clip-rule="evenodd" d="M7.99992 2.13338C6.58543 2.13338 5.22888 2.69529 4.22868 3.69548C3.22849 4.69567 2.66659 6.05223 2.66659 7.46672C2.66659 9.53209 4.01041 11.5362 5.48389 13.0916C6.20699 13.8548 6.93236 14.4797 7.4777 14.9139C7.68066 15.0756 7.85793 15.2102 7.99992 15.3151C8.1419 15.2102 8.31918 15.0756 8.52213 14.9139C9.06747 14.4797 9.79284 13.8548 10.516 13.0916C11.9894 11.5362 13.3333 9.53209 13.3333 7.46672C13.3333 6.05223 12.7713 4.69567 11.7712 3.69548C10.771 2.69529 9.41441 2.13338 7.99992 2.13338ZM7.99992 16.1334C7.63012 16.6881 7.62995 16.688 7.62976 16.6878L7.62785 16.6866L7.62341 16.6836L7.60813 16.6733C7.59515 16.6644 7.57664 16.6518 7.55296 16.6354C7.50561 16.6026 7.43756 16.5548 7.35178 16.4928C7.18028 16.369 6.93749 16.1882 6.64713 15.957C6.06747 15.4954 5.29284 14.8286 4.51595 14.0085C2.98943 12.3972 1.33325 10.068 1.33325 7.46672C1.33325 5.69861 2.03563 4.00291 3.28587 2.75267C4.53612 1.50243 6.23181 0.800049 7.99992 0.800049C9.76803 0.800049 11.4637 1.50243 12.714 2.75267C13.9642 4.00291 14.6666 5.69861 14.6666 7.46672C14.6666 10.068 13.0104 12.3972 11.4839 14.0085C10.707 14.8286 9.93236 15.4954 9.3527 15.957C9.06234 16.1882 8.81955 16.369 8.64806 16.4928C8.56228 16.5548 8.49423 16.6026 8.44688 16.6354C8.4232 16.6518 8.40469 16.6644 8.39171 16.6733L8.37643 16.6836L8.37198 16.6866L8.37058 16.6875C8.37039 16.6876 8.36972 16.6881 7.99992 16.1334ZM7.99992 16.1334L8.36972 16.6881C8.14579 16.8374 7.85369 16.8371 7.62976 16.6878L7.99992 16.1334Z" fill="#A6A6A6"/>
<path fill-rule="evenodd" clip-rule="evenodd" d="M7.99992 6.13338C7.26354 6.13338 6.66659 6.73034 6.66659 7.46672C6.66659 8.2031 7.26354 8.80005 7.99992 8.80005C8.7363 8.80005 9.33325 8.2031 9.33325 7.46672C9.33325 6.73034 8.7363 6.13338 7.99992 6.13338ZM5.33325 7.46672C5.33325 5.99396 6.52716 4.80005 7.99992 4.80005C9.47268 4.80005 10.6666 5.99396 10.6666 7.46672C10.6666 8.93948 9.47268 10.1334 7.99992 10.1334C6.52716 10.1334 5.33325 8.93948 5.33325 7.46672Z" fill="#A6A6A6"/>
</g>
<defs>
<clipPath id="clip0_87_1060">
<rect width="16" height="16" fill="white" transform="translate(0 0.800049)"/>
</clipPath>
</defs>
</svg>
