<svg width="16" height="17" viewBox="0 0 16 17" fill="none" xmlns="http://www.w3.org/2000/svg">
<path fill-rule="evenodd" clip-rule="evenodd" d="M8.00008 2.60018C4.68637 2.60018 2.00008 5.28647 2.00008 8.60018C2.00008 11.9139 4.68637 14.6002 8.00008 14.6002C11.3138 14.6002 14.0001 11.9139 14.0001 8.60018C14.0001 5.28647 11.3138 2.60018 8.00008 2.60018ZM0.666748 8.60018C0.666748 4.55009 3.94999 1.26685 8.00008 1.26685C12.0502 1.26685 15.3334 4.55009 15.3334 8.60018C15.3334 12.6503 12.0502 15.9335 8.00008 15.9335C3.94999 15.9335 0.666748 12.6503 0.666748 8.60018Z" fill="#A6A6A6"/>
<path fill-rule="evenodd" clip-rule="evenodd" d="M7.99992 3.93335C8.36811 3.93335 8.66659 4.23183 8.66659 4.60002V8.18799L10.9647 9.33706C11.294 9.50172 11.4275 9.90217 11.2629 10.2315C11.0982 10.5608 10.6978 10.6943 10.3684 10.5296L7.70178 9.1963C7.47592 9.08337 7.33325 8.85253 7.33325 8.60002V4.60002C7.33325 4.23183 7.63173 3.93335 7.99992 3.93335Z" fill="#A6A6A6"/>
</svg>
