<svg width="16" height="17" viewBox="0 0 16 17" fill="none" xmlns="http://www.w3.org/2000/svg">
<g clip-path="url(#clip0_87_1088)">
<path fill-rule="evenodd" clip-rule="evenodd" d="M8.00008 2.69613C4.68637 2.69613 2.00008 5.38242 2.00008 8.69613C2.00008 12.0098 4.68637 14.6961 8.00008 14.6961C11.3138 14.6961 14.0001 12.0098 14.0001 8.69613C14.0001 5.38242 11.3138 2.69613 8.00008 2.69613ZM0.666748 8.69613C0.666748 4.64604 3.94999 1.36279 8.00008 1.36279C12.0502 1.36279 15.3334 4.64604 15.3334 8.69613C15.3334 12.7462 12.0502 16.0295 8.00008 16.0295C3.94999 16.0295 0.666748 12.7462 0.666748 8.69613Z" fill="#A6A6A6"/>
<path fill-rule="evenodd" clip-rule="evenodd" d="M7.99992 4.0293C8.36811 4.0293 8.66659 4.32777 8.66659 4.69596V8.28394L10.9647 9.43301C11.294 9.59767 11.4275 9.99812 11.2629 10.3274C11.0982 10.6568 10.6978 10.7902 10.3684 10.6256L7.70178 9.29225C7.47592 9.17932 7.33325 8.94848 7.33325 8.69596V4.69596C7.33325 4.32777 7.63173 4.0293 7.99992 4.0293Z" fill="#A6A6A6"/>
</g>
<defs>
<clipPath id="clip0_87_1088">
<rect width="16" height="16" fill="white" transform="translate(0 0.696045)"/>
</clipPath>
</defs>
</svg>
