<svg width="16" height="17" viewBox="0 0 16 17" fill="none" xmlns="http://www.w3.org/2000/svg">
<g clip-path="url(#clip0_717_3095)">
<path fill-rule="evenodd" clip-rule="evenodd" d="M7.99984 2.09591C4.68613 2.09591 1.99984 4.7822 1.99984 8.09591C1.99984 11.4096 4.68613 14.0959 7.99984 14.0959C11.3135 14.0959 13.9998 11.4096 13.9998 8.09591C13.9998 4.7822 11.3135 2.09591 7.99984 2.09591ZM0.666504 8.09591C0.666504 4.04582 3.94975 0.762573 7.99984 0.762573C12.0499 0.762573 15.3332 4.04582 15.3332 8.09591C15.3332 12.146 12.0499 15.4292 7.99984 15.4292C3.94975 15.4292 0.666504 12.146 0.666504 8.09591Z" fill="#A6A6A6"/>
<path fill-rule="evenodd" clip-rule="evenodd" d="M7.99967 3.42932C8.36786 3.42932 8.66634 3.7278 8.66634 4.09599V7.68397L10.9645 8.83304C11.2938 8.9977 11.4273 9.39814 11.2626 9.72746C11.098 10.0568 10.6975 10.1903 10.3682 10.0256L7.70153 8.69227C7.47568 8.57934 7.33301 8.3485 7.33301 8.09599V4.09599C7.33301 3.7278 7.63148 3.42932 7.99967 3.42932Z" fill="#A6A6A6"/>
</g>
<defs>
<clipPath id="clip0_717_3095">
<rect width="16" height="16" fill="white" transform="translate(-0.000244141 0.0959473)"/>
</clipPath>
</defs>
</svg>
