<svg width="16" height="17" viewBox="0 0 16 17" fill="none" xmlns="http://www.w3.org/2000/svg">
<g clip-path="url(#clip0_717_1306)">
<path fill-rule="evenodd" clip-rule="evenodd" d="M8.00008 2.09591C4.68637 2.09591 2.00008 4.7822 2.00008 8.09591C2.00008 11.4096 4.68637 14.0959 8.00008 14.0959C11.3138 14.0959 14.0001 11.4096 14.0001 8.09591C14.0001 4.7822 11.3138 2.09591 8.00008 2.09591ZM0.666748 8.09591C0.666748 4.04582 3.94999 0.762573 8.00008 0.762573C12.0502 0.762573 15.3334 4.04582 15.3334 8.09591C15.3334 12.146 12.0502 15.4292 8.00008 15.4292C3.94999 15.4292 0.666748 12.146 0.666748 8.09591Z" fill="#A6A6A6"/>
<path fill-rule="evenodd" clip-rule="evenodd" d="M7.99992 3.42932C8.36811 3.42932 8.66659 3.7278 8.66659 4.09599V7.68397L10.9647 8.83304C11.294 8.9977 11.4275 9.39814 11.2629 9.72746C11.0982 10.0568 10.6978 10.1903 10.3684 10.0256L7.70178 8.69227C7.47592 8.57934 7.33325 8.3485 7.33325 8.09599V4.09599C7.33325 3.7278 7.63173 3.42932 7.99992 3.42932Z" fill="#A6A6A6"/>
</g>
<defs>
<clipPath id="clip0_717_1306">
<rect width="16" height="16" fill="white" transform="translate(0 0.0959473)"/>
</clipPath>
</defs>
</svg>
