<svg width="16" height="15" viewBox="0 0 16 15" fill="none" xmlns="http://www.w3.org/2000/svg">
<path d="M10 10.1001V8.6001H16V13.1001C16 13.9126 15.2812 14.6001 14.5 14.6001H1.5C0.6875 14.6001 0 13.9126 0 13.1001V8.6001H6V10.1001C6 10.3813 6.21875 10.6001 6.5 10.6001H9.5C9.75 10.6001 10 10.3813 10 10.1001ZM14.5 3.6001C15.2812 3.6001 16 4.31885 16 5.1001V7.6001H0V5.1001C0 4.31885 0.6875 3.6001 1.5 3.6001H4V2.1001C4 1.31885 4.6875 0.600098 5.5 0.600098H10.5C11.2812 0.600098 12 1.31885 12 2.1001V3.6001H14.5ZM10 3.6001V2.6001H6V3.6001H10Z" fill="#DBDBDB"/>
</svg>
