<svg width="270" height="17" viewBox="0 0 270 17" fill="none" xmlns="http://www.w3.org/2000/svg">
<path d="M267.623 13.0001V4.60006H269.271V13.0001H267.623ZM268.423 2.74406C268.071 2.74406 267.799 2.6534 267.607 2.47206C267.415 2.29073 267.319 2.03473 267.319 1.70406C267.319 1.39473 267.415 1.14406 267.607 0.952063C267.81 0.760063 268.082 0.664062 268.423 0.664062C268.775 0.664062 269.047 0.754729 269.239 0.936063C269.431 1.1174 269.527 1.3734 269.527 1.70406C269.527 2.0134 269.426 2.26406 269.223 2.45606C269.031 2.64806 268.764 2.74406 268.423 2.74406Z" fill="#414042"/>
<path d="M261.283 13.1601C260.462 13.1601 259.726 12.9734 259.075 12.6001C258.435 12.2161 257.928 11.6987 257.555 11.0481C257.182 10.3867 256.995 9.63474 256.995 8.79207C256.995 7.94941 257.182 7.20274 257.555 6.55207C257.928 5.89074 258.435 5.37341 259.075 5.00007C259.726 4.61607 260.462 4.42407 261.283 4.42407C262.094 4.42407 262.819 4.61607 263.459 5.00007C264.11 5.37341 264.622 5.89074 264.995 6.55207C265.368 7.20274 265.555 7.94941 265.555 8.79207C265.555 9.63474 265.368 10.3867 264.995 11.0481C264.622 11.6987 264.11 12.2161 263.459 12.6001C262.819 12.9734 262.094 13.1601 261.283 13.1601ZM261.283 11.6561C261.784 11.6561 262.232 11.5334 262.627 11.2881C263.022 11.0321 263.331 10.6907 263.555 10.2641C263.779 9.82674 263.886 9.33607 263.875 8.79207C263.886 8.23741 263.779 7.74674 263.555 7.32007C263.331 6.88274 263.022 6.54141 262.627 6.29607C262.232 6.05074 261.784 5.92807 261.283 5.92807C260.782 5.92807 260.328 6.05607 259.923 6.31207C259.528 6.55741 259.219 6.89874 258.995 7.33607C258.771 7.76274 258.664 8.24807 258.675 8.79207C258.664 9.33607 258.771 9.82674 258.995 10.2641C259.219 10.6907 259.528 11.0321 259.923 11.2881C260.328 11.5334 260.782 11.6561 261.283 11.6561Z" fill="#414042"/>
<path d="M245.236 13V1.80005H246.788L253.636 10.9681L253.38 11.112C253.337 10.8454 253.3 10.5574 253.268 10.248C253.236 9.92805 253.204 9.59205 253.172 9.24005C253.15 8.87738 253.129 8.49872 253.108 8.10405C253.097 7.69872 253.086 7.27738 253.076 6.84005C253.065 6.40272 253.06 5.94938 253.06 5.48005V1.80005H254.788V13H253.204L246.468 4.16805L246.644 3.94405C246.697 4.59472 246.74 5.14938 246.772 5.60805C246.814 6.05605 246.846 6.44005 246.868 6.76005C246.9 7.06938 246.921 7.32538 246.932 7.52805C246.942 7.72005 246.948 7.88005 246.948 8.00805C246.958 8.13605 246.964 8.24805 246.964 8.34405V13H245.236Z" fill="#414042"/>
<path d="M233.442 13.1601C232.749 13.1601 232.114 12.9681 231.538 12.5841C230.973 12.2001 230.52 11.6774 230.178 11.0161C229.837 10.3547 229.666 9.60807 229.666 8.77607C229.666 7.93341 229.837 7.18674 230.178 6.53607C230.53 5.87474 231 5.35741 231.586 4.98407C232.184 4.61074 232.85 4.42407 233.586 4.42407C234.024 4.42407 234.424 4.48807 234.786 4.61607C235.149 4.74407 235.464 4.92541 235.73 5.16007C236.008 5.38407 236.232 5.64541 236.402 5.94407C236.584 6.24274 236.696 6.56274 236.738 6.90407L236.37 6.77607V4.60007H238.034V13.0001H236.37V11.0001L236.754 10.8881C236.69 11.1761 236.557 11.4587 236.354 11.7361C236.162 12.0027 235.912 12.2427 235.602 12.4561C235.304 12.6694 234.968 12.8401 234.594 12.9681C234.232 13.0961 233.848 13.1601 233.442 13.1601ZM233.874 11.6401C234.376 11.6401 234.818 11.5174 235.202 11.2721C235.586 11.0267 235.885 10.6907 236.098 10.2641C236.322 9.82674 236.434 9.33074 236.434 8.77607C236.434 8.23207 236.322 7.74674 236.098 7.32007C235.885 6.89341 235.586 6.55741 235.202 6.31207C234.818 6.06674 234.376 5.94407 233.874 5.94407C233.384 5.94407 232.946 6.06674 232.562 6.31207C232.189 6.55741 231.89 6.89341 231.666 7.32007C231.453 7.74674 231.346 8.23207 231.346 8.77607C231.346 9.33074 231.453 9.82674 231.666 10.2641C231.89 10.6907 232.189 11.0267 232.562 11.2721C232.946 11.5174 233.384 11.6401 233.874 11.6401Z" fill="#414042"/>
<path d="M225.766 13V1.80005H227.494V13H225.766ZM218.454 13V1.80005H220.182V13H218.454ZM219.206 8.24805V6.58405H226.534V8.24805H219.206Z" fill="#414042"/>
<path d="M209.544 15.8639L208.936 15.1279C209.31 14.9146 209.614 14.6693 209.848 14.3919C210.083 14.1146 210.2 13.8746 210.2 13.6719C210.2 13.5653 210.174 13.4586 210.12 13.3519C210.067 13.2559 209.955 13.1173 209.784 12.9359C209.571 12.7333 209.432 12.5626 209.368 12.4239C209.304 12.2853 209.272 12.1359 209.272 11.9759C209.272 11.7199 209.363 11.5173 209.544 11.3679C209.726 11.2079 209.96 11.1279 210.248 11.1279C210.515 11.1279 210.755 11.2079 210.968 11.3679C211.192 11.5173 211.363 11.7306 211.48 12.0079C211.608 12.2746 211.672 12.5839 211.672 12.9359C211.672 13.2559 211.619 13.5653 211.512 13.8639C211.406 14.1626 211.256 14.4399 211.064 14.6959C210.872 14.9519 210.648 15.1813 210.392 15.3839C210.136 15.5866 209.854 15.7466 209.544 15.8639Z" fill="#414042"/>
<path d="M203.96 13.0001V4.60007H205.624V7.24007L205.464 6.60007C205.582 6.19474 205.779 5.82674 206.056 5.49607C206.344 5.16541 206.67 4.90407 207.032 4.71207C207.406 4.52007 207.79 4.42407 208.184 4.42407C208.366 4.42407 208.536 4.44007 208.696 4.47207C208.867 4.50407 209 4.54141 209.096 4.58407L208.664 6.37607C208.536 6.32274 208.392 6.28007 208.232 6.24807C208.083 6.2054 207.934 6.18407 207.784 6.18407C207.496 6.18407 207.219 6.24274 206.952 6.36007C206.696 6.46674 206.467 6.6214 206.264 6.82407C206.072 7.01607 205.918 7.2454 205.8 7.51207C205.683 7.76807 205.624 8.05074 205.624 8.36007V13.0001H203.96Z" fill="#414042"/>
<path d="M198.505 13.16C197.641 13.16 196.873 12.9786 196.201 12.616C195.54 12.2426 195.017 11.736 194.633 11.096C194.26 10.456 194.073 9.71996 194.073 8.88796C194.073 8.22663 194.18 7.62396 194.393 7.07996C194.607 6.53596 194.9 6.06662 195.273 5.67196C195.657 5.26662 196.111 4.95729 196.633 4.74396C197.167 4.51996 197.743 4.40796 198.361 4.40796C198.905 4.40796 199.412 4.51463 199.881 4.72796C200.351 4.93063 200.756 5.21329 201.097 5.57596C201.449 5.93863 201.716 6.37063 201.897 6.87196C202.089 7.36263 202.18 7.90129 202.169 8.48796L202.153 9.19196H195.289L194.921 7.87996H200.729L200.489 8.15196V7.76796C200.457 7.41596 200.34 7.10129 200.137 6.82396C199.935 6.54662 199.679 6.32796 199.369 6.16796C199.06 6.00796 198.724 5.92796 198.361 5.92796C197.785 5.92796 197.3 6.03996 196.905 6.26396C196.511 6.47729 196.212 6.79729 196.009 7.22396C195.807 7.63996 195.705 8.15729 195.705 8.77596C195.705 9.36263 195.828 9.87463 196.073 10.312C196.319 10.7386 196.665 11.0693 197.113 11.304C197.561 11.5386 198.079 11.656 198.665 11.656C199.081 11.656 199.465 11.5866 199.817 11.448C200.18 11.3093 200.569 11.0586 200.985 10.696L201.817 11.864C201.561 12.12 201.247 12.344 200.873 12.536C200.511 12.728 200.121 12.8826 199.705 13C199.3 13.1066 198.9 13.16 198.505 13.16Z" fill="#414042"/>
<path d="M185.07 13.0002V1.16016H186.718V6.32816L186.43 6.52016C186.536 6.14682 186.744 5.80549 187.054 5.49616C187.363 5.17616 187.731 4.92016 188.158 4.72816C188.584 4.52549 189.022 4.42416 189.47 4.42416C190.11 4.42416 190.643 4.55216 191.07 4.80816C191.496 5.05349 191.816 5.43216 192.03 5.94416C192.243 6.45616 192.35 7.10149 192.35 7.88016V13.0002H190.702V7.99216C190.702 7.51216 190.638 7.11749 190.51 6.80816C190.382 6.48816 190.184 6.25882 189.918 6.12016C189.651 5.97082 189.32 5.90682 188.926 5.92816C188.606 5.92816 188.312 5.98149 188.046 6.08816C187.779 6.18416 187.544 6.32282 187.342 6.50416C187.15 6.68549 186.995 6.89882 186.878 7.14416C186.771 7.37882 186.718 7.63482 186.718 7.91216V13.0002H185.902C185.763 13.0002 185.624 13.0002 185.486 13.0002C185.347 13.0002 185.208 13.0002 185.07 13.0002Z" fill="#414042"/>
<path d="M179.969 13.0001V2.45605H181.617V13.0001H179.969ZM178.225 6.20006V4.60005H183.569V6.20006H178.225Z" fill="#414042"/>
<path d="M171.517 13.1601C170.728 13.1601 169.997 13.0161 169.325 12.7281C168.664 12.4401 168.083 12.0401 167.581 11.5281C167.091 11.0055 166.707 10.3975 166.429 9.70414C166.163 9.00014 166.029 8.23214 166.029 7.40014C166.029 6.56814 166.163 5.80547 166.429 5.11214C166.707 4.40814 167.091 3.80014 167.581 3.28814C168.083 2.76547 168.664 2.36014 169.325 2.07214C169.997 1.78414 170.728 1.64014 171.517 1.64014C172.307 1.64014 173.032 1.78414 173.693 2.07214C174.365 2.36014 174.947 2.76547 175.437 3.28814C175.939 3.8108 176.323 4.42414 176.589 5.12814C176.867 5.82147 177.005 6.5788 177.005 7.40014C177.005 8.22147 176.867 8.98414 176.589 9.68814C176.323 10.3815 175.939 10.9895 175.437 11.5121C174.947 12.0348 174.365 12.4401 173.693 12.7281C173.032 13.0161 172.307 13.1601 171.517 13.1601ZM171.517 11.4801C172.061 11.4801 172.557 11.3788 173.005 11.1761C173.464 10.9735 173.859 10.6908 174.189 10.3281C174.52 9.9548 174.776 9.5228 174.957 9.03214C175.149 8.5308 175.245 7.9868 175.245 7.40014C175.245 6.81347 175.149 6.2748 174.957 5.78414C174.776 5.2828 174.52 4.8508 174.189 4.48814C173.859 4.1148 173.464 3.8268 173.005 3.62414C172.557 3.42147 172.061 3.32014 171.517 3.32014C170.973 3.32014 170.472 3.42147 170.013 3.62414C169.565 3.8268 169.171 4.10947 168.829 4.47214C168.499 4.8348 168.243 5.2668 168.061 5.76814C167.88 6.2588 167.789 6.8028 167.789 7.40014C167.789 7.9868 167.88 8.5308 168.061 9.03214C168.243 9.53347 168.499 9.96547 168.829 10.3281C169.171 10.6908 169.565 10.9735 170.013 11.1761C170.472 11.3788 170.973 11.4801 171.517 11.4801Z" fill="#414042"/>
<path d="M157.919 15.8639L157.311 15.1279C157.685 14.9146 157.989 14.6693 158.223 14.3919C158.458 14.1146 158.575 13.8746 158.575 13.6719C158.575 13.5653 158.549 13.4586 158.495 13.3519C158.442 13.2559 158.33 13.1173 158.159 12.9359C157.946 12.7333 157.807 12.5626 157.743 12.4239C157.679 12.2853 157.647 12.1359 157.647 11.9759C157.647 11.7199 157.738 11.5173 157.919 11.3679C158.101 11.2079 158.335 11.1279 158.623 11.1279C158.89 11.1279 159.13 11.2079 159.343 11.3679C159.567 11.5173 159.738 11.7306 159.855 12.0079C159.983 12.2746 160.047 12.5839 160.047 12.9359C160.047 13.2559 159.994 13.5653 159.887 13.8639C159.781 14.1626 159.631 14.4399 159.439 14.6959C159.247 14.9519 159.023 15.1813 158.767 15.3839C158.511 15.5866 158.229 15.7466 157.919 15.8639Z" fill="#414042"/>
<path d="M148.998 13.0001V4.60006H150.646V13.0001H148.998ZM149.798 2.74406C149.446 2.74406 149.174 2.6534 148.982 2.47206C148.79 2.29073 148.694 2.03473 148.694 1.70406C148.694 1.39473 148.79 1.14406 148.982 0.952063C149.185 0.760063 149.457 0.664062 149.798 0.664062C150.15 0.664062 150.422 0.754729 150.614 0.936063C150.806 1.1174 150.902 1.3734 150.902 1.70406C150.902 2.0134 150.801 2.26406 150.598 2.45606C150.406 2.64806 150.139 2.74406 149.798 2.74406Z" fill="#414042"/>
<path d="M142.658 13.1601C141.837 13.1601 141.101 12.9735 140.45 12.6001C139.81 12.2161 139.303 11.6988 138.93 11.0481C138.557 10.3868 138.37 9.63482 138.37 8.79215C138.37 7.94948 138.557 7.20282 138.93 6.55215C139.303 5.89082 139.81 5.37348 140.45 5.00015C141.101 4.61615 141.837 4.42415 142.658 4.42415C143.469 4.42415 144.194 4.61615 144.834 5.00015C145.485 5.37348 145.997 5.89082 146.37 6.55215C146.743 7.20282 146.93 7.94948 146.93 8.79215C146.93 9.63482 146.743 10.3868 146.37 11.0481C145.997 11.6988 145.485 12.2161 144.834 12.6001C144.194 12.9735 143.469 13.1601 142.658 13.1601ZM142.658 11.6561C143.159 11.6561 143.607 11.5335 144.002 11.2881C144.397 11.0321 144.706 10.6908 144.93 10.2641C145.154 9.82682 145.261 9.33615 145.25 8.79215C145.261 8.23748 145.154 7.74682 144.93 7.32015C144.706 6.88281 144.397 6.54148 144.002 6.29615C143.607 6.05082 143.159 5.92815 142.658 5.92815C142.157 5.92815 141.703 6.05615 141.298 6.31215C140.903 6.55748 140.594 6.89882 140.37 7.33615C140.146 7.76282 140.039 8.24815 140.05 8.79215C140.039 9.33615 140.146 9.82682 140.37 10.2641C140.594 10.6908 140.903 11.0321 141.298 11.2881C141.703 11.5335 142.157 11.6561 142.658 11.6561ZM142.658 16.2961C142.306 16.2961 142.034 16.2055 141.842 16.0241C141.65 15.8428 141.554 15.5868 141.554 15.2561C141.554 14.9468 141.65 14.6961 141.842 14.5041C142.045 14.3121 142.317 14.2161 142.658 14.2161C143.01 14.2161 143.282 14.3068 143.474 14.4881C143.666 14.6695 143.762 14.9255 143.762 15.2561C143.762 15.5655 143.661 15.8161 143.458 16.0081C143.266 16.2001 142.999 16.2961 142.658 16.2961ZM140.738 3.28815L140.13 2.76015L141.97 0.952148H143.346L145.186 2.76015L144.578 3.28815L142.418 2.12015H142.898L140.738 3.28815Z" fill="#414042"/>
<path d="M126.611 13V1.80005H128.163L135.011 10.9681L134.755 11.112C134.712 10.8454 134.675 10.5574 134.643 10.248C134.611 9.92805 134.579 9.59205 134.547 9.24005C134.525 8.87738 134.504 8.49872 134.483 8.10405C134.472 7.69872 134.461 7.27738 134.451 6.84005C134.44 6.40272 134.435 5.94938 134.435 5.48005V1.80005H136.163V13H134.579L127.843 4.16805L128.019 3.94405C128.072 4.59472 128.115 5.14938 128.147 5.60805C128.189 6.05605 128.221 6.44005 128.243 6.76005C128.275 7.06938 128.296 7.32538 128.307 7.52805C128.317 7.72005 128.323 7.88005 128.323 8.00805C128.333 8.13605 128.339 8.24805 128.339 8.34405V13H126.611Z" fill="#414042"/>
<path d="M114.817 13.16C114.124 13.16 113.489 12.968 112.913 12.584C112.348 12.2 111.895 11.6774 111.553 11.016C111.212 10.3547 111.041 9.60804 111.041 8.77604C111.041 7.93337 111.212 7.1867 111.553 6.53604C111.905 5.8747 112.375 5.35737 112.961 4.98404C113.559 4.6107 114.225 4.42404 114.961 4.42404C115.399 4.42404 115.799 4.48804 116.161 4.61604C116.524 4.74404 116.839 4.92537 117.105 5.16004C117.383 5.38404 117.607 5.64537 117.777 5.94404C117.959 6.2427 118.071 6.5627 118.113 6.90404L117.745 6.77604V4.60004H119.409V13H117.745V11L118.129 10.888C118.065 11.176 117.932 11.4587 117.729 11.736C117.537 12.0027 117.287 12.2427 116.977 12.456C116.679 12.6694 116.343 12.84 115.969 12.968C115.607 13.096 115.223 13.16 114.817 13.16ZM115.249 11.64C115.751 11.64 116.193 11.5174 116.577 11.272C116.961 11.0267 117.26 10.6907 117.473 10.264C117.697 9.8267 117.809 9.3307 117.809 8.77604C117.809 8.23204 117.697 7.7467 117.473 7.32004C117.26 6.89337 116.961 6.55737 116.577 6.31204C116.193 6.06671 115.751 5.94404 115.249 5.94404C114.759 5.94404 114.321 6.06671 113.937 6.31204C113.564 6.55737 113.265 6.89337 113.041 7.32004C112.828 7.7467 112.721 8.23204 112.721 8.77604C112.721 9.3307 112.828 9.8267 113.041 10.264C113.265 10.6907 113.564 11.0267 113.937 11.272C114.321 11.5174 114.759 11.64 115.249 11.64ZM116.305 3.30404L113.521 1.80004L114.561 0.488037L116.849 2.48804L116.305 3.30404Z" fill="#414042"/>
<path d="M107.141 13V1.80005H108.869V13H107.141ZM99.8293 13V1.80005H101.557V13H99.8293ZM100.581 8.24805V6.58405H107.909V8.24805H100.581Z" fill="#414042"/>
<path d="M90.7478 13.0001V4.60006H92.3958V13.0001H90.7478ZM91.5478 2.74406C91.1958 2.74406 90.9238 2.6534 90.7318 2.47206C90.5398 2.29073 90.4438 2.03473 90.4438 1.70406C90.4438 1.39473 90.5398 1.14406 90.7318 0.952063C90.9345 0.760063 91.2065 0.664062 91.5478 0.664062C91.8998 0.664062 92.1718 0.754729 92.3638 0.936063C92.5558 1.1174 92.6518 1.3734 92.6518 1.70406C92.6518 2.0134 92.5505 2.26406 92.3478 2.45606C92.1558 2.64806 91.8892 2.74406 91.5478 2.74406Z" fill="#414042"/>
<path d="M83.5829 13.1601C82.8896 13.1601 82.2549 12.9681 81.6789 12.5841C81.1136 12.2001 80.6602 11.6774 80.3189 11.0161C79.9776 10.3547 79.8069 9.60807 79.8069 8.77607C79.8069 7.93341 79.9776 7.18674 80.3189 6.53607C80.6709 5.87474 81.1402 5.35741 81.7269 4.98407C82.3242 4.61074 82.9909 4.42407 83.7269 4.42407C84.1642 4.42407 84.5642 4.48807 84.9269 4.61607C85.2895 4.74407 85.6042 4.92541 85.8709 5.16007C86.1482 5.38407 86.3722 5.64541 86.5429 5.94407C86.7242 6.24274 86.8362 6.56274 86.8789 6.90407L86.5109 6.77607V4.60007H88.1749V13.0001H86.5109V11.0001L86.8949 10.8881C86.8309 11.1761 86.6975 11.4587 86.4949 11.7361C86.3029 12.0027 86.0522 12.2427 85.7429 12.4561C85.4442 12.6694 85.1082 12.8401 84.7349 12.9681C84.3722 13.0961 83.9882 13.1601 83.5829 13.1601ZM84.0149 11.6401C84.5162 11.6401 84.9589 11.5174 85.3429 11.2721C85.7269 11.0267 86.0256 10.6907 86.2389 10.2641C86.4629 9.82674 86.5749 9.33074 86.5749 8.77607C86.5749 8.23207 86.4629 7.74674 86.2389 7.32007C86.0256 6.89341 85.7269 6.55741 85.3429 6.31207C84.9589 6.06674 84.5162 5.94407 84.0149 5.94407C83.5242 5.94407 83.0869 6.06674 82.7029 6.31207C82.3295 6.55741 82.0309 6.89341 81.8069 7.32007C81.5936 7.74674 81.4869 8.23207 81.4869 8.77607C81.4869 9.33074 81.5936 9.82674 81.8069 10.2641C82.0309 10.6907 82.3295 11.0267 82.7029 11.2721C83.0869 11.5174 83.5242 11.6401 84.0149 11.6401ZM84.2709 16.2961C83.9189 16.2961 83.6469 16.2054 83.4549 16.0241C83.2629 15.8427 83.1669 15.5867 83.1669 15.2561C83.1669 14.9467 83.2629 14.6961 83.4549 14.5041C83.6575 14.3121 83.9295 14.2161 84.2709 14.2161C84.6229 14.2161 84.8949 14.3067 85.0869 14.4881C85.2789 14.6694 85.3749 14.9254 85.3749 15.2561C85.3749 15.5654 85.2736 15.8161 85.0709 16.0081C84.8789 16.2001 84.6122 16.2961 84.2709 16.2961Z" fill="#414042"/>
<path d="M75.3282 13.0001V2.45605H76.9762V13.0001H75.3282ZM73.5842 6.20006V4.60005H78.9282V6.20006H73.5842Z" fill="#414042"/>
<path d="M64.8095 13.1601C64.0308 13.1601 63.3322 12.9681 62.7135 12.5841C62.1055 12.2001 61.6202 11.6774 61.2575 11.0161C60.9055 10.3547 60.7295 9.61341 60.7295 8.79207C60.7295 7.97074 60.9055 7.22941 61.2575 6.56807C61.6202 5.90674 62.1055 5.38407 62.7135 5.00007C63.3322 4.61607 64.0308 4.42407 64.8095 4.42407C65.5562 4.42407 66.2335 4.57874 66.8415 4.88807C67.4602 5.18674 67.9295 5.59741 68.2495 6.12007L67.3375 7.24007C67.1668 6.99474 66.9482 6.77074 66.6815 6.56807C66.4148 6.36541 66.1322 6.2054 65.8335 6.08807C65.5348 5.97074 65.2468 5.91207 64.9695 5.91207C64.4575 5.91207 63.9988 6.04007 63.5935 6.29607C63.1988 6.54141 62.8842 6.88274 62.6495 7.32007C62.4148 7.75741 62.2975 8.24807 62.2975 8.79207C62.2975 9.33607 62.4202 9.82674 62.6655 10.2641C62.9108 10.6907 63.2362 11.0321 63.6415 11.2881C64.0468 11.5441 64.4948 11.6721 64.9855 11.6721C65.2735 11.6721 65.5508 11.6241 65.8175 11.5281C66.0948 11.4321 66.3615 11.2881 66.6175 11.0961C66.8735 10.9041 67.1135 10.6694 67.3375 10.3921L68.2495 11.5121C67.9082 11.9921 67.4175 12.3867 66.7775 12.6961C66.1482 13.0054 65.4922 13.1601 64.8095 13.1601Z" fill="#414042"/>
<path d="M55.7865 13.1601C54.9225 13.1601 54.1545 12.9788 53.4825 12.6161C52.8212 12.2428 52.2985 11.7361 51.9145 11.0961C51.5412 10.4561 51.3545 9.72015 51.3545 8.88815C51.3545 8.22682 51.4612 7.62415 51.6745 7.08015C51.8878 6.53615 52.1812 6.06681 52.5545 5.67215C52.9385 5.26681 53.3918 4.95748 53.9145 4.74415C54.4478 4.52015 55.0238 4.40815 55.6425 4.40815C56.1865 4.40815 56.6932 4.51482 57.1625 4.72815C57.6318 4.93081 58.0372 5.21348 58.3785 5.57615C58.7305 5.93882 58.9972 6.37082 59.1785 6.87215C59.3705 7.36282 59.4612 7.90148 59.4505 8.48815L59.4345 9.19215H52.5705L52.2025 7.88015H58.0105L57.7705 8.15215V7.76815C57.7385 7.41615 57.6212 7.10148 57.4185 6.82415C57.2158 6.54681 56.9598 6.32815 56.6505 6.16815C56.3412 6.00815 56.0052 5.92815 55.6425 5.92815C55.0665 5.92815 54.5812 6.04015 54.1865 6.26415C53.7918 6.47748 53.4932 6.79748 53.2905 7.22415C53.0878 7.64015 52.9865 8.15748 52.9865 8.77615C52.9865 9.36282 53.1092 9.87482 53.3545 10.3121C53.5998 10.7388 53.9465 11.0695 54.3945 11.3041C54.8425 11.5388 55.3598 11.6561 55.9465 11.6561C56.3625 11.6561 56.7465 11.5868 57.0985 11.4481C57.4612 11.3095 57.8505 11.0588 58.2665 10.6961L59.0985 11.8641C58.8425 12.1201 58.5278 12.3441 58.1545 12.5361C57.7918 12.7281 57.4025 12.8828 56.9865 13.0001C56.5812 13.1068 56.1812 13.1601 55.7865 13.1601ZM55.7865 16.2961C55.4345 16.2961 55.1625 16.2055 54.9705 16.0241C54.7785 15.8428 54.6825 15.5868 54.6825 15.2561C54.6825 14.9468 54.7785 14.6961 54.9705 14.5041C55.1732 14.3121 55.4452 14.2161 55.7865 14.2161C56.1385 14.2161 56.4105 14.3068 56.6025 14.4881C56.7945 14.6695 56.8905 14.9255 56.8905 15.2561C56.8905 15.5655 56.7892 15.8161 56.5865 16.0081C56.3945 16.2001 56.1278 16.2961 55.7865 16.2961ZM53.7225 3.28815L53.1145 2.76015L54.9545 0.952148H56.3305L58.1705 2.76015L57.5625 3.28815L55.4025 2.12015H55.8825L53.7225 3.28815Z" fill="#414042"/>
<path d="M47.6853 13.0001V4.60006H49.3333V13.0001H47.6853ZM48.4853 2.74406C48.1333 2.74406 47.8613 2.6534 47.6693 2.47206C47.4773 2.29073 47.3813 2.03473 47.3813 1.70406C47.3813 1.39473 47.4773 1.14406 47.6693 0.952063C47.872 0.760063 48.144 0.664062 48.4853 0.664062C48.8373 0.664062 49.1093 0.754729 49.3013 0.936063C49.4933 1.1174 49.5893 1.3734 49.5893 1.70406C49.5893 2.0134 49.488 2.26406 49.2854 2.45606C49.0934 2.64806 48.8267 2.74406 48.4853 2.74406Z" fill="#414042"/>
<path d="M40.9934 13.0001L37.4414 4.6001H39.2174L41.7774 10.8881L41.4734 11.0321L44.2094 4.6001H45.9054L42.1774 13.0001H40.9934Z" fill="#414042"/>
<path d="M18.9907 13.0001V4.60005H20.6547V6.39206L20.3507 6.58405C20.4361 6.30672 20.5694 6.04005 20.7507 5.78405C20.9427 5.52805 21.1721 5.30405 21.4387 5.11205C21.7161 4.90939 22.0094 4.74939 22.3187 4.63206C22.6387 4.51472 22.9641 4.45605 23.2947 4.45605C23.7747 4.45605 24.1961 4.53605 24.5587 4.69605C24.9214 4.85605 25.2201 5.09606 25.4547 5.41605C25.6894 5.73605 25.8601 6.13605 25.9667 6.61605L25.7107 6.55206L25.8227 6.28006C25.9401 6.03472 26.1001 5.80539 26.3027 5.59205C26.5161 5.36805 26.7561 5.17072 27.0227 5.00006C27.2894 4.82939 27.5721 4.69605 27.8707 4.60005C28.1694 4.50405 28.4627 4.45605 28.7507 4.45605C29.3801 4.45605 29.8974 4.58405 30.3027 4.84005C30.7187 5.09605 31.0281 5.48539 31.2307 6.00805C31.4441 6.53072 31.5507 7.18139 31.5507 7.96005V13.0001H29.8867V8.05606C29.8867 7.57606 29.8227 7.18672 29.6947 6.88805C29.5774 6.57872 29.3961 6.34939 29.1507 6.20006C28.9054 6.05072 28.5907 5.97606 28.2067 5.97606C27.9081 5.97606 27.6254 6.02939 27.3587 6.13605C27.1027 6.23206 26.8787 6.37072 26.6867 6.55206C26.4947 6.73339 26.3454 6.94672 26.2387 7.19205C26.1321 7.42672 26.0787 7.68806 26.0787 7.97606V13.0001H24.4147V8.02406C24.4147 7.58672 24.3507 7.21872 24.2227 6.92006C24.0947 6.61072 23.9081 6.37606 23.6627 6.21605C23.4174 6.05606 23.1187 5.97606 22.7667 5.97606C22.4681 5.97606 22.1907 6.02939 21.9347 6.13605C21.6787 6.23206 21.4547 6.37072 21.2627 6.55206C21.0707 6.72272 20.9214 6.93072 20.8147 7.17605C20.7081 7.41072 20.6547 7.66672 20.6547 7.94406V13.0001H18.9907Z" fill="#414042"/>
<path d="M12.1298 13.16C11.4364 13.16 10.8018 12.968 10.2258 12.584C9.66043 12.2 9.20709 11.6774 8.86576 11.016C8.52443 10.3547 8.35376 9.60804 8.35376 8.77604C8.35376 7.93337 8.52443 7.1867 8.86576 6.53604C9.21776 5.8747 9.68709 5.35737 10.2738 4.98404C10.8711 4.6107 11.5378 4.42404 12.2738 4.42404C12.7111 4.42404 13.1111 4.48804 13.4738 4.61604C13.8364 4.74404 14.1511 4.92537 14.4178 5.16004C14.6951 5.38404 14.9191 5.64537 15.0898 5.94404C15.2711 6.2427 15.3831 6.5627 15.4258 6.90404L15.0578 6.77604V4.60004H16.7218V13H15.0578V11L15.4418 10.888C15.3778 11.176 15.2444 11.4587 15.0418 11.736C14.8498 12.0027 14.5991 12.2427 14.2898 12.456C13.9911 12.6694 13.6551 12.84 13.2818 12.968C12.9191 13.096 12.5351 13.16 12.1298 13.16ZM12.5618 11.64C13.0631 11.64 13.5058 11.5174 13.8898 11.272C14.2738 11.0267 14.5724 10.6907 14.7858 10.264C15.0098 9.8267 15.1218 9.3307 15.1218 8.77604C15.1218 8.23204 15.0098 7.7467 14.7858 7.32004C14.5724 6.89337 14.2738 6.55737 13.8898 6.31204C13.5058 6.06671 13.0631 5.94404 12.5618 5.94404C12.0711 5.94404 11.6338 6.06671 11.2498 6.31204C10.8764 6.55737 10.5778 6.89337 10.3538 7.32004C10.1404 7.7467 10.0338 8.23204 10.0338 8.77604C10.0338 9.3307 10.1404 9.8267 10.3538 10.264C10.5778 10.6907 10.8764 11.0267 11.2498 11.272C11.6338 11.5174 12.0711 11.64 12.5618 11.64ZM13.6178 3.30404L10.8338 1.80004L11.8738 0.488037L14.1618 2.48804L13.6178 3.30404Z" fill="#414042"/>
<path d="M0.0480957 13V1.80005H1.7761V11.3361H7.0241V13H0.0480957Z" fill="#414042"/>
</svg>
