<svg width="153" height="17" viewBox="0 0 153 17" fill="none" xmlns="http://www.w3.org/2000/svg">
<path d="M149.51 12.672C148.731 12.672 148.032 12.48 147.414 12.096C146.806 11.712 146.32 11.1894 145.958 10.528C145.606 9.8667 145.43 9.12537 145.43 8.30404C145.43 7.4827 145.606 6.74137 145.958 6.08004C146.32 5.4187 146.806 4.89604 147.414 4.51204C148.032 4.12804 148.731 3.93604 149.51 3.93604C150.256 3.93604 150.934 4.0907 151.542 4.40003C152.16 4.6987 152.63 5.10937 152.95 5.63204L152.038 6.75204C151.867 6.5067 151.648 6.2827 151.382 6.08004C151.115 5.87737 150.832 5.71737 150.534 5.60003C150.235 5.4827 149.947 5.42404 149.67 5.42404C149.158 5.42404 148.699 5.55203 148.294 5.80803C147.899 6.05337 147.584 6.3947 147.35 6.83204C147.115 7.26937 146.998 7.76004 146.998 8.30404C146.998 8.84804 147.12 9.3387 147.366 9.77604C147.611 10.2027 147.936 10.544 148.342 10.8C148.747 11.056 149.195 11.184 149.686 11.184C149.974 11.184 150.251 11.136 150.518 11.04C150.795 10.944 151.062 10.8 151.318 10.608C151.574 10.416 151.814 10.1814 152.038 9.90404L152.95 11.024C152.608 11.504 152.118 11.8987 151.478 12.208C150.848 12.5174 150.192 12.672 149.51 12.672Z" fill="#414042"/>
<path d="M139.874 12.672C139.053 12.672 138.317 12.4853 137.666 12.112C137.026 11.728 136.519 11.2107 136.146 10.56C135.773 9.89867 135.586 9.14667 135.586 8.304C135.586 7.46133 135.773 6.71467 136.146 6.064C136.519 5.40267 137.026 4.88533 137.666 4.512C138.317 4.128 139.053 3.936 139.874 3.936C140.109 3.936 140.322 3.952 140.514 3.984C140.717 4.016 140.893 4.048 141.042 4.08C141.138 4.10133 141.223 4.12267 141.298 4.144C141.383 4.15467 141.458 4.16 141.522 4.16C141.949 4.16 142.263 4.00533 142.466 3.696C142.669 3.376 142.77 2.90667 142.77 2.288H144.082C144.082 2.768 144.018 3.20533 143.89 3.6C143.773 3.99467 143.575 4.32533 143.298 4.592C143.031 4.848 142.679 5.024 142.242 5.12L142.354 4.704C142.909 5.088 143.346 5.58933 143.666 6.208C143.986 6.82667 144.146 7.52533 144.146 8.304C144.146 9.14667 143.959 9.89867 143.586 10.56C143.213 11.2107 142.701 11.728 142.05 12.112C141.41 12.4853 140.685 12.672 139.874 12.672ZM139.874 11.168C140.375 11.168 140.823 11.0453 141.218 10.8C141.613 10.544 141.922 10.2027 142.146 9.776C142.37 9.33867 142.477 8.848 142.466 8.304C142.477 7.74933 142.37 7.25867 142.146 6.832C141.922 6.39467 141.613 6.05333 141.218 5.808C140.823 5.56267 140.375 5.44 139.874 5.44C139.373 5.44 138.919 5.568 138.514 5.824C138.119 6.06933 137.81 6.41067 137.586 6.848C137.362 7.27467 137.255 7.76 137.266 8.304C137.255 8.848 137.362 9.33867 137.586 9.776C137.81 10.2027 138.119 10.544 138.514 10.8C138.919 11.0453 139.373 11.168 139.874 11.168ZM138.754 2.816L138.21 2L140.498 0L141.538 1.312L138.754 2.816Z" fill="#414042"/>
<path d="M129.354 12.672C128.757 12.672 128.234 12.5333 127.786 12.256C127.349 11.9786 127.008 11.5893 126.762 11.088C126.528 10.5866 126.41 9.9893 126.41 9.29597V4.11196H128.058V8.84796C128.058 9.33863 128.133 9.7653 128.282 10.128C128.442 10.48 128.666 10.752 128.954 10.944C129.253 11.136 129.61 11.232 130.026 11.232C130.336 11.232 130.618 11.184 130.874 11.088C131.13 10.9813 131.349 10.8373 131.53 10.656C131.722 10.4746 131.872 10.256 131.978 9.99996C132.085 9.74396 132.138 9.46663 132.138 9.16796V4.11196C132.405 4.11196 132.634 4.07463 132.826 3.99996C133.029 3.9253 133.194 3.8133 133.322 3.66396C133.45 3.50396 133.546 3.31196 133.61 3.08796C133.674 2.8533 133.706 2.58663 133.706 2.28796H135.018C135.018 2.71463 134.96 3.1093 134.842 3.47196C134.736 3.83463 134.554 4.1493 134.298 4.41596C134.053 4.67196 133.722 4.86396 133.306 4.99196L133.786 4.07996V12.512H132.138V10.448L132.346 10.768C132.197 11.1306 131.968 11.456 131.658 11.744C131.36 12.032 131.013 12.2613 130.618 12.432C130.224 12.592 129.802 12.672 129.354 12.672Z" fill="#414042"/>
<path d="M119.957 12.512V4.11203H121.621V6.75204L121.461 6.11204C121.579 5.7067 121.776 5.3387 122.053 5.00804C122.341 4.67737 122.667 4.41604 123.029 4.22404C123.403 4.03204 123.787 3.93604 124.181 3.93604C124.363 3.93604 124.533 3.95203 124.693 3.98403C124.864 4.01603 124.997 4.05337 125.093 4.09604L124.661 5.88803C124.533 5.8347 124.389 5.79203 124.229 5.76003C124.08 5.71737 123.931 5.69604 123.781 5.69604C123.493 5.69604 123.216 5.7547 122.949 5.87204C122.693 5.9787 122.464 6.13337 122.261 6.33603C122.069 6.52803 121.915 6.75737 121.797 7.02403C121.68 7.28003 121.621 7.5627 121.621 7.87204V12.512H119.957Z" fill="#414042"/>
<path d="M114.857 12.512V1.96802H116.505V12.512H114.857ZM113.113 5.71202V4.11202H118.457V5.71202H113.113Z" fill="#414042"/>
<path d="M101.443 16.1921L103.139 12.2721L103.155 13.5841L98.9634 4.11206H100.883L103.507 10.2881C103.561 10.3947 103.625 10.5601 103.699 10.7841C103.774 10.9974 103.838 11.2107 103.891 11.4241L103.475 11.5201C103.561 11.2961 103.641 11.0721 103.715 10.8481C103.801 10.6241 103.881 10.4001 103.955 10.1761L106.147 4.11206H108.099L104.643 12.5121L103.219 16.1921H101.443Z" fill="#414042"/>
<path d="M93.33 12.672C92.6366 12.672 92.002 12.48 91.426 12.096C90.8606 11.712 90.4073 11.1893 90.066 10.528C89.7246 9.86667 89.554 9.12 89.554 8.288C89.554 7.44533 89.7246 6.69867 90.066 6.048C90.418 5.38667 90.8873 4.86933 91.474 4.496C92.0713 4.12267 92.738 3.936 93.474 3.936C93.9113 3.936 94.3113 4 94.674 4.128C95.0366 4.256 95.3513 4.43733 95.618 4.672C95.8953 4.896 96.1193 5.15733 96.29 5.456C96.4713 5.75467 96.5833 6.07467 96.626 6.416L96.2579 6.288V4.112H97.922V12.512H96.2579V10.512L96.642 10.4C96.578 10.688 96.4446 10.9707 96.242 11.248C96.05 11.5147 95.7993 11.7547 95.49 11.968C95.1913 12.1813 94.8553 12.352 94.482 12.48C94.1193 12.608 93.7353 12.672 93.33 12.672ZM93.762 11.152C94.2633 11.152 94.706 11.0293 95.09 10.784C95.474 10.5387 95.7726 10.2027 95.986 9.776C96.21 9.33867 96.322 8.84267 96.322 8.288C96.322 7.744 96.21 7.25867 95.986 6.832C95.7726 6.40533 95.474 6.06933 95.09 5.824C94.706 5.57867 94.2633 5.456 93.762 5.456C93.2713 5.456 92.834 5.57867 92.45 5.824C92.0766 6.06933 91.778 6.40533 91.554 6.832C91.3406 7.25867 91.234 7.744 91.234 8.288C91.234 8.84267 91.3406 9.33867 91.554 9.776C91.778 10.2027 92.0766 10.5387 92.45 10.784C92.834 11.0293 93.2713 11.152 93.762 11.152ZM94.818 2.816L92.034 1.312L93.074 0L95.362 2L94.818 2.816Z" fill="#414042"/>
<path d="M83.4673 16.192C82.87 16.192 82.2726 16.096 81.6753 15.904C81.0886 15.7227 80.614 15.4827 80.2513 15.184L80.8593 13.904C81.0726 14.064 81.3233 14.2027 81.6113 14.32C81.8993 14.448 82.2033 14.544 82.5233 14.608C82.8433 14.6827 83.158 14.72 83.4673 14.72C84.054 14.72 84.5446 14.624 84.9393 14.432C85.334 14.24 85.6326 13.9574 85.8353 13.584C86.038 13.2107 86.1393 12.7467 86.1393 12.192V10.576L86.3153 10.688C86.262 11.0187 86.086 11.3387 85.7873 11.648C85.4993 11.9467 85.1366 12.192 84.6993 12.384C84.262 12.576 83.814 12.672 83.3553 12.672C82.5553 12.672 81.8406 12.4854 81.2113 12.112C80.5926 11.728 80.102 11.2107 79.7393 10.56C79.3766 9.8987 79.1953 9.1467 79.1953 8.30404C79.1953 7.46137 79.3713 6.7147 79.7233 6.06404C80.086 5.4027 80.5766 4.88537 81.1953 4.51204C81.8246 4.12804 82.5286 3.93604 83.3073 3.93604C83.6273 3.93604 83.9366 3.9787 84.2353 4.06404C84.534 4.1387 84.8113 4.2507 85.0673 4.40003C85.3233 4.5387 85.5526 4.69337 85.7553 4.86403C85.958 5.0347 86.1233 5.21604 86.2513 5.40804C86.3793 5.60004 86.4593 5.78137 86.4913 5.95203L86.1393 6.08004V4.11203H87.7873V12C87.7873 12.672 87.686 13.264 87.4833 13.776C87.2913 14.2987 87.0086 14.736 86.6353 15.088C86.262 15.4507 85.8086 15.7227 85.2753 15.904C84.742 16.096 84.1393 16.192 83.4673 16.192ZM83.5313 11.152C84.054 11.152 84.518 11.0294 84.9233 10.784C85.3286 10.5387 85.6433 10.2027 85.8673 9.77604C86.0913 9.34937 86.2033 8.8587 86.2033 8.30404C86.2033 7.74937 86.086 7.2587 85.8513 6.83204C85.6273 6.3947 85.3126 6.05337 84.9073 5.80803C84.5126 5.5627 84.054 5.44003 83.5313 5.44003C83.0193 5.44003 82.5606 5.56804 82.1553 5.82404C81.7606 6.06937 81.446 6.4107 81.2113 6.84804C80.9873 7.2747 80.8753 7.76004 80.8753 8.30404C80.8753 8.84804 80.9873 9.3387 81.2113 9.77604C81.446 10.2027 81.7606 10.5387 82.1553 10.784C82.5606 11.0294 83.0193 11.152 83.5313 11.152Z" fill="#414042"/>
<path d="M70.1917 12.512V4.11203H71.8397V5.84003L71.5517 6.03203C71.6583 5.6587 71.8663 5.31737 72.1757 5.00804C72.485 4.68804 72.853 4.43204 73.2796 4.24004C73.7063 4.03737 74.1437 3.93604 74.5917 3.93604C75.2317 3.93604 75.765 4.06404 76.1917 4.32003C76.6183 4.56537 76.9383 4.94404 77.1516 5.45604C77.365 5.96804 77.4716 6.61337 77.4716 7.39203V12.512H75.8236V7.50403C75.8236 7.02404 75.7597 6.62937 75.6317 6.32003C75.5037 6.00004 75.3063 5.7707 75.0396 5.63204C74.773 5.4827 74.4423 5.4187 74.0477 5.44003C73.7277 5.44003 73.4343 5.49337 73.1676 5.60003C72.901 5.69603 72.6663 5.8347 72.4637 6.01604C72.2717 6.19737 72.117 6.4107 71.9996 6.65603C71.893 6.8907 71.8397 7.1467 71.8397 7.42404V12.512H71.0237C70.885 12.512 70.7463 12.512 70.6077 12.512C70.469 12.512 70.3303 12.512 70.1917 12.512Z" fill="#414042"/>
<path d="M60.2655 12.512V3.48801L60.6655 3.58401L56.9855 8.08001L56.9215 7.88801H63.8815V9.47201H55.8495L55.1135 8.03201L60.6015 1.31201H61.9295V12.512H60.2655Z" fill="#414042"/>
<path d="M47.6683 12.512L47.1403 11.2L50.5643 7.34398C50.7457 7.15198 50.9323 6.93331 51.1243 6.68798C51.327 6.43198 51.519 6.17065 51.7003 5.90398C51.8817 5.63731 52.0257 5.37598 52.1323 5.11998C52.2497 4.85331 52.3083 4.60264 52.3083 4.36798C52.3083 4.02664 52.239 3.73864 52.1003 3.50398C51.9723 3.25864 51.7803 3.07198 51.5243 2.94398C51.279 2.81598 50.9803 2.75198 50.6283 2.75198C50.319 2.75198 50.015 2.84264 49.7163 3.02398C49.4177 3.20531 49.1457 3.46131 48.9003 3.79198C48.655 4.12264 48.463 4.50664 48.3243 4.94398L46.9963 4.11198C47.1777 3.49331 47.4497 2.96531 47.8123 2.52798C48.1857 2.07998 48.6283 1.73864 49.1403 1.50398C49.663 1.26931 50.2283 1.15198 50.8363 1.15198C51.4657 1.15198 52.0257 1.28531 52.5163 1.55198C53.007 1.80798 53.391 2.17064 53.6683 2.63998C53.9457 3.09864 54.0843 3.63198 54.0843 4.23998C54.0843 4.48531 54.0577 4.73598 54.0043 4.99198C53.951 5.24798 53.8657 5.51464 53.7483 5.79198C53.631 6.05864 53.4817 6.34131 53.3003 6.63998C53.119 6.92798 52.9003 7.23198 52.6443 7.55198C52.399 7.87198 52.1163 8.20798 51.7963 8.55998L49.2523 11.328L48.9323 10.848H54.4363V12.512H47.6683Z" fill="#414042"/>
<path d="M36.2173 16.192C35.62 16.192 35.0226 16.096 34.4253 15.904C33.8386 15.7227 33.364 15.4827 33.0013 15.184L33.6093 13.904C33.8226 14.064 34.0733 14.2027 34.3613 14.32C34.6493 14.448 34.9533 14.544 35.2733 14.608C35.5933 14.6827 35.908 14.72 36.2173 14.72C36.804 14.72 37.2946 14.624 37.6893 14.432C38.084 14.24 38.3826 13.9574 38.5853 13.584C38.788 13.2107 38.8893 12.7467 38.8893 12.192V10.576L39.0653 10.688C39.012 11.0187 38.836 11.3387 38.5373 11.648C38.2493 11.9467 37.8866 12.192 37.4493 12.384C37.012 12.576 36.564 12.672 36.1053 12.672C35.3053 12.672 34.5906 12.4854 33.9613 12.112C33.3426 11.728 32.852 11.2107 32.4893 10.56C32.1266 9.8987 31.9453 9.1467 31.9453 8.30404C31.9453 7.46137 32.1213 6.7147 32.4733 6.06404C32.836 5.4027 33.3266 4.88537 33.9453 4.51204C34.5746 4.12804 35.2786 3.93604 36.0573 3.93604C36.3773 3.93604 36.6866 3.9787 36.9853 4.06404C37.284 4.1387 37.5613 4.2507 37.8173 4.40003C38.0733 4.5387 38.3026 4.69337 38.5053 4.86403C38.708 5.0347 38.8733 5.21604 39.0013 5.40804C39.1293 5.60004 39.2093 5.78137 39.2413 5.95203L38.8893 6.08004V4.11203H40.5373V12C40.5373 12.672 40.436 13.264 40.2333 13.776C40.0413 14.2987 39.7586 14.736 39.3853 15.088C39.012 15.4507 38.5586 15.7227 38.0253 15.904C37.492 16.096 36.8893 16.192 36.2173 16.192ZM36.2813 11.152C36.804 11.152 37.268 11.0294 37.6733 10.784C38.0786 10.5387 38.3933 10.2027 38.6173 9.77604C38.8413 9.34937 38.9533 8.8587 38.9533 8.30404C38.9533 7.74937 38.836 7.2587 38.6013 6.83204C38.3773 6.3947 38.0626 6.05337 37.6573 5.80803C37.2626 5.5627 36.804 5.44003 36.2813 5.44003C35.7693 5.44003 35.3106 5.56804 34.9053 5.82404C34.5106 6.06937 34.196 6.4107 33.9613 6.84804C33.7373 7.2747 33.6253 7.76004 33.6253 8.30404C33.6253 8.84804 33.7373 9.3387 33.9613 9.77604C34.196 10.2027 34.5106 10.5387 34.9053 10.784C35.3106 11.0294 35.7693 11.152 36.2813 11.152Z" fill="#414042"/>
<path d="M22.9417 12.512V4.11203H24.5896V5.84003L24.3017 6.03203C24.4083 5.6587 24.6163 5.31737 24.9256 5.00804C25.235 4.68804 25.603 4.43204 26.0296 4.24004C26.4563 4.03737 26.8937 3.93604 27.3417 3.93604C27.9816 3.93604 28.515 4.06404 28.9417 4.32003C29.3683 4.56537 29.6883 4.94404 29.9016 5.45604C30.115 5.96804 30.2216 6.61337 30.2216 7.39203V12.512H28.5737V7.50403C28.5737 7.02404 28.5097 6.62937 28.3817 6.32003C28.2537 6.00004 28.0563 5.7707 27.7896 5.63204C27.523 5.4827 27.1923 5.4187 26.7976 5.44003C26.4776 5.44003 26.1843 5.49337 25.9177 5.60003C25.651 5.69603 25.4163 5.8347 25.2136 6.01604C25.0216 6.19737 24.867 6.4107 24.7496 6.65603C24.643 6.8907 24.5896 7.1467 24.5896 7.42404V12.512H23.7736C23.635 12.512 23.4963 12.512 23.3577 12.512C23.219 12.512 23.0803 12.512 22.9417 12.512Z" fill="#414042"/>
<path d="M16.0487 12.672C15.3554 12.672 14.7207 12.48 14.1447 12.096C13.5794 11.712 13.126 11.1893 12.7847 10.528C12.4434 9.86668 12.2727 9.12001 12.2727 8.28801C12.2727 7.44534 12.4434 6.69867 12.7847 6.04801C13.1367 5.38667 13.606 4.86934 14.1927 4.49601C14.79 4.12267 15.4567 3.93601 16.1927 3.93601C16.63 3.93601 17.03 4.00001 17.3927 4.12801C17.7554 4.25601 18.07 4.43734 18.3367 4.67201C18.614 4.89601 18.838 5.15734 19.0087 5.45601C19.19 5.75467 19.302 6.07467 19.3447 6.41601L18.9767 6.28801V4.11201H20.6407V12.512H18.9767V10.512L19.3607 10.4C19.2967 10.688 19.1634 10.9707 18.9607 11.248C18.7687 11.5147 18.518 11.7547 18.2087 11.968C17.91 12.1813 17.574 12.352 17.2007 12.48C16.838 12.608 16.454 12.672 16.0487 12.672ZM16.4807 11.152C16.982 11.152 17.4247 11.0293 17.8087 10.784C18.1927 10.5387 18.4914 10.2027 18.7047 9.77601C18.9287 9.33867 19.0407 8.84267 19.0407 8.28801C19.0407 7.74401 18.9287 7.25867 18.7047 6.83201C18.4914 6.40534 18.1927 6.06934 17.8087 5.82401C17.4247 5.57867 16.982 5.45601 16.4807 5.45601C15.99 5.45601 15.5527 5.57867 15.1687 5.82401C14.7954 6.06934 14.4967 6.40534 14.2727 6.83201C14.0594 7.25867 13.9527 7.74401 13.9527 8.28801C13.9527 8.84267 14.0594 9.33867 14.2727 9.77601C14.4967 10.2027 14.7954 10.5387 15.1687 10.784C15.5527 11.0293 15.99 11.152 16.4807 11.152ZM16.7367 3.08801C16.054 3.08801 15.4887 2.86934 15.0407 2.43201C14.5927 1.98401 14.294 1.38134 14.1447 0.624007L15.3287 0.432007C15.4674 0.848007 15.654 1.17867 15.8887 1.42401C16.134 1.66934 16.4167 1.79201 16.7367 1.79201C17.0567 1.79201 17.334 1.66934 17.5687 1.42401C17.814 1.17867 18.006 0.848007 18.1447 0.432007L19.3287 0.624007C19.1794 1.38134 18.8807 1.98401 18.4327 2.43201C17.9847 2.86934 17.4194 3.08801 16.7367 3.08801Z" fill="#414042"/>
<path d="M0.47998 7.63201V6.19201H4.76798V7.63201H0.47998ZM1.26398 12.512V1.31201H5.64798C6.44798 1.31201 7.16798 1.44535 7.80798 1.71201C8.45865 1.97868 9.01331 2.36268 9.47198 2.86401C9.93065 3.36535 10.2826 3.95735 10.528 4.64001C10.7733 5.32268 10.896 6.08001 10.896 6.91201C10.896 7.74401 10.7733 8.50668 10.528 9.20001C10.2826 9.88268 9.93065 10.4747 9.47198 10.976C9.02398 11.4667 8.47465 11.8453 7.82398 12.112C7.17331 12.3787 6.44798 12.512 5.64798 12.512H1.26398ZM2.99198 11.024L2.94398 10.848H5.56798C6.13331 10.848 6.63465 10.7573 7.07198 10.576C7.51998 10.3947 7.89331 10.1387 8.19198 9.80801C8.50131 9.46668 8.73598 9.05068 8.89598 8.56001C9.05598 8.06935 9.13598 7.52001 9.13598 6.91201C9.13598 6.30401 9.05598 5.76001 8.89598 5.28001C8.73598 4.78935 8.50131 4.37335 8.19198 4.03201C7.88265 3.69068 7.50931 3.42935 7.07198 3.24801C6.63465 3.06668 6.13331 2.97601 5.56798 2.97601H2.89598L2.99198 2.83201V11.024Z" fill="#414042"/>
</svg>
