<svg width="153" height="17" viewBox="0 0 153 17" fill="none" xmlns="http://www.w3.org/2000/svg">
<path d="M149.51 13.2721C148.731 13.2721 148.032 13.0801 147.414 12.6961C146.806 12.3121 146.32 11.7895 145.958 11.1281C145.606 10.4668 145.43 9.72547 145.43 8.90413C145.43 8.0828 145.606 7.34147 145.958 6.68013C146.32 6.0188 146.806 5.49613 147.414 5.11213C148.032 4.72813 148.731 4.53613 149.51 4.53613C150.256 4.53613 150.934 4.6908 151.542 5.00013C152.16 5.2988 152.63 5.70947 152.95 6.23213L152.038 7.35213C151.867 7.1068 151.648 6.8828 151.382 6.68013C151.115 6.47747 150.832 6.31747 150.534 6.20013C150.235 6.0828 149.947 6.02413 149.67 6.02413C149.158 6.02413 148.699 6.15213 148.294 6.40813C147.899 6.65347 147.584 6.9948 147.35 7.43213C147.115 7.86947 146.998 8.36013 146.998 8.90413C146.998 9.44813 147.12 9.9388 147.366 10.3761C147.611 10.8028 147.936 11.1441 148.342 11.4001C148.747 11.6561 149.195 11.7841 149.686 11.7841C149.974 11.7841 150.251 11.7361 150.518 11.6401C150.795 11.5441 151.062 11.4001 151.318 11.2081C151.574 11.0161 151.814 10.7815 152.038 10.5041L152.95 11.6241C152.608 12.1041 152.118 12.4988 151.478 12.8081C150.848 13.1175 150.192 13.2721 149.51 13.2721Z" fill="#414042"/>
<path d="M139.874 13.2721C139.053 13.2721 138.317 13.0854 137.666 12.7121C137.026 12.3281 136.519 11.8108 136.146 11.1601C135.773 10.4988 135.586 9.74677 135.586 8.9041C135.586 8.06143 135.773 7.31477 136.146 6.6641C136.519 6.00277 137.026 5.48543 137.666 5.1121C138.317 4.7281 139.053 4.5361 139.874 4.5361C140.109 4.5361 140.322 4.5521 140.514 4.5841C140.717 4.6161 140.893 4.6481 141.042 4.6801C141.138 4.70143 141.223 4.72276 141.298 4.7441C141.383 4.75477 141.458 4.7601 141.522 4.7601C141.949 4.7601 142.263 4.60543 142.466 4.2961C142.669 3.9761 142.77 3.50676 142.77 2.8881H144.082C144.082 3.3681 144.018 3.80543 143.89 4.2001C143.773 4.59476 143.575 4.92543 143.298 5.1921C143.031 5.4481 142.679 5.6241 142.242 5.7201L142.354 5.3041C142.909 5.6881 143.346 6.18943 143.666 6.8081C143.986 7.42676 144.146 8.12543 144.146 8.9041C144.146 9.74677 143.959 10.4988 143.586 11.1601C143.213 11.8108 142.701 12.3281 142.05 12.7121C141.41 13.0854 140.685 13.2721 139.874 13.2721ZM139.874 11.7681C140.375 11.7681 140.823 11.6454 141.218 11.4001C141.613 11.1441 141.922 10.8028 142.146 10.3761C142.37 9.93877 142.477 9.4481 142.466 8.9041C142.477 8.34943 142.37 7.85877 142.146 7.4321C141.922 6.99476 141.613 6.65343 141.218 6.4081C140.823 6.16277 140.375 6.0401 139.874 6.0401C139.373 6.0401 138.919 6.1681 138.514 6.4241C138.119 6.66943 137.81 7.01077 137.586 7.4481C137.362 7.87477 137.255 8.3601 137.266 8.9041C137.255 9.4481 137.362 9.93877 137.586 10.3761C137.81 10.8028 138.119 11.1441 138.514 11.4001C138.919 11.6454 139.373 11.7681 139.874 11.7681ZM138.754 3.4161L138.21 2.6001L140.498 0.600098L141.538 1.9121L138.754 3.4161Z" fill="#414042"/>
<path d="M129.354 13.2722C128.757 13.2722 128.234 13.1335 127.786 12.8562C127.349 12.5789 127.008 12.1895 126.762 11.6882C126.528 11.1869 126.41 10.5895 126.41 9.89618V4.71218H128.058V9.44818C128.058 9.93885 128.133 10.3655 128.282 10.7282C128.442 11.0802 128.666 11.3522 128.954 11.5442C129.253 11.7362 129.61 11.8322 130.026 11.8322C130.336 11.8322 130.618 11.7842 130.874 11.6882C131.13 11.5815 131.349 11.4375 131.53 11.2562C131.722 11.0749 131.872 10.8562 131.978 10.6002C132.085 10.3442 132.138 10.0669 132.138 9.76818V4.71218C132.405 4.71218 132.634 4.67485 132.826 4.60018C133.029 4.52552 133.194 4.41352 133.322 4.26418C133.45 4.10418 133.546 3.91218 133.61 3.68818C133.674 3.45352 133.706 3.18685 133.706 2.88818H135.018C135.018 3.31485 134.96 3.70952 134.842 4.07218C134.736 4.43485 134.554 4.74952 134.298 5.01618C134.053 5.27218 133.722 5.46418 133.306 5.59218L133.786 4.68018V13.1122H132.138V11.0482L132.346 11.3682C132.197 11.7309 131.968 12.0562 131.658 12.3442C131.36 12.6322 131.013 12.8615 130.618 13.0322C130.224 13.1922 129.802 13.2722 129.354 13.2722Z" fill="#414042"/>
<path d="M119.957 13.1121V4.71213H121.621V7.35213L121.461 6.71213C121.579 6.3068 121.776 5.9388 122.053 5.60813C122.341 5.27747 122.667 5.01613 123.029 4.82413C123.403 4.63213 123.787 4.53613 124.181 4.53613C124.363 4.53613 124.533 4.55213 124.693 4.58413C124.864 4.61613 124.997 4.65347 125.093 4.69613L124.661 6.48813C124.533 6.4348 124.389 6.39213 124.229 6.36013C124.08 6.31747 123.931 6.29613 123.781 6.29613C123.493 6.29613 123.216 6.3548 122.949 6.47213C122.693 6.5788 122.464 6.73347 122.261 6.93613C122.069 7.12813 121.915 7.35747 121.797 7.62413C121.68 7.88013 121.621 8.1628 121.621 8.47213V13.1121H119.957Z" fill="#414042"/>
<path d="M114.857 13.1121V2.56812H116.505V13.1121H114.857ZM113.113 6.31212V4.71212H118.457V6.31212H113.113Z" fill="#414042"/>
<path d="M101.443 16.7922L103.139 12.8722L103.155 14.1842L98.9634 4.71216H100.883L103.507 10.8882C103.561 10.9948 103.625 11.1602 103.699 11.3842C103.774 11.5975 103.838 11.8108 103.891 12.0242L103.475 12.1202C103.561 11.8962 103.641 11.6722 103.715 11.4482C103.801 11.2242 103.881 11.0002 103.955 10.7762L106.147 4.71216H108.099L104.643 13.1122L103.219 16.7922H101.443Z" fill="#414042"/>
<path d="M93.33 13.2721C92.6366 13.2721 92.002 13.0801 91.426 12.6961C90.8606 12.3121 90.4073 11.7894 90.066 11.1281C89.7246 10.4668 89.554 9.7201 89.554 8.8881C89.554 8.04543 89.7246 7.29876 90.066 6.6481C90.418 5.98676 90.8873 5.46943 91.474 5.0961C92.0713 4.72276 92.738 4.5361 93.474 4.5361C93.9113 4.5361 94.3113 4.6001 94.674 4.7281C95.0366 4.8561 95.3513 5.03743 95.618 5.2721C95.8953 5.4961 96.1193 5.75743 96.29 6.0561C96.4713 6.35477 96.5833 6.67476 96.626 7.0161L96.2579 6.8881V4.7121H97.922V13.1121H96.2579V11.1121L96.642 11.0001C96.578 11.2881 96.4446 11.5708 96.242 11.8481C96.05 12.1148 95.7993 12.3548 95.49 12.5681C95.1913 12.7814 94.8553 12.9521 94.482 13.0801C94.1193 13.2081 93.7353 13.2721 93.33 13.2721ZM93.762 11.7521C94.2633 11.7521 94.706 11.6294 95.09 11.3841C95.474 11.1388 95.7726 10.8028 95.986 10.3761C96.21 9.93877 96.322 9.44277 96.322 8.8881C96.322 8.3441 96.21 7.85877 95.986 7.4321C95.7726 7.00543 95.474 6.66943 95.09 6.4241C94.706 6.17877 94.2633 6.0561 93.762 6.0561C93.2713 6.0561 92.834 6.17877 92.45 6.4241C92.0766 6.66943 91.778 7.00543 91.554 7.4321C91.3406 7.85877 91.234 8.3441 91.234 8.8881C91.234 9.44277 91.3406 9.93877 91.554 10.3761C91.778 10.8028 92.0766 11.1388 92.45 11.3841C92.834 11.6294 93.2713 11.7521 93.762 11.7521ZM94.818 3.4161L92.034 1.9121L93.074 0.600098L95.362 2.6001L94.818 3.4161Z" fill="#414042"/>
<path d="M83.4673 16.7921C82.87 16.7921 82.2726 16.6961 81.6753 16.5041C81.0886 16.3228 80.614 16.0828 80.2513 15.7841L80.8593 14.5041C81.0726 14.6641 81.3233 14.8028 81.6113 14.9201C81.8993 15.0481 82.2033 15.1441 82.5233 15.2081C82.8433 15.2828 83.158 15.3201 83.4673 15.3201C84.054 15.3201 84.5446 15.2241 84.9393 15.0321C85.334 14.8401 85.6326 14.5575 85.8353 14.1841C86.038 13.8108 86.1393 13.3468 86.1393 12.7921V11.1761L86.3153 11.2881C86.262 11.6188 86.086 11.9388 85.7873 12.2481C85.4993 12.5468 85.1366 12.7921 84.6993 12.9841C84.262 13.1761 83.814 13.2721 83.3553 13.2721C82.5553 13.2721 81.8406 13.0855 81.2113 12.7121C80.5926 12.3281 80.102 11.8108 79.7393 11.1601C79.3766 10.4988 79.1953 9.7468 79.1953 8.90413C79.1953 8.06147 79.3713 7.3148 79.7233 6.66413C80.086 6.0028 80.5766 5.48547 81.1953 5.11213C81.8246 4.72813 82.5286 4.53613 83.3073 4.53613C83.6273 4.53613 83.9366 4.5788 84.2353 4.66413C84.534 4.7388 84.8113 4.8508 85.0673 5.00013C85.3233 5.1388 85.5526 5.29347 85.7553 5.46413C85.958 5.6348 86.1233 5.81613 86.2513 6.00813C86.3793 6.20013 86.4593 6.38147 86.4913 6.55213L86.1393 6.68013V4.71213H87.7873V12.6001C87.7873 13.2721 87.686 13.8641 87.4833 14.3761C87.2913 14.8988 87.0086 15.3361 86.6353 15.6881C86.262 16.0508 85.8086 16.3228 85.2753 16.5041C84.742 16.6961 84.1393 16.7921 83.4673 16.7921ZM83.5313 11.7521C84.054 11.7521 84.518 11.6295 84.9233 11.3841C85.3286 11.1388 85.6433 10.8028 85.8673 10.3761C86.0913 9.94947 86.2033 9.4588 86.2033 8.90413C86.2033 8.34947 86.086 7.8588 85.8513 7.43213C85.6273 6.9948 85.3126 6.65347 84.9073 6.40813C84.5126 6.1628 84.054 6.04013 83.5313 6.04013C83.0193 6.04013 82.5606 6.16813 82.1553 6.42413C81.7606 6.66947 81.446 7.0108 81.2113 7.44813C80.9873 7.8748 80.8753 8.36013 80.8753 8.90413C80.8753 9.44813 80.9873 9.9388 81.2113 10.3761C81.446 10.8028 81.7606 11.1388 82.1553 11.3841C82.5606 11.6295 83.0193 11.7521 83.5313 11.7521Z" fill="#414042"/>
<path d="M70.1917 13.1121V4.71213H71.8397V6.44013L71.5517 6.63213C71.6583 6.2588 71.8663 5.91747 72.1757 5.60813C72.485 5.28813 72.853 5.03213 73.2796 4.84013C73.7063 4.63747 74.1437 4.53613 74.5917 4.53613C75.2317 4.53613 75.765 4.66413 76.1917 4.92013C76.6183 5.16547 76.9383 5.54413 77.1516 6.05613C77.365 6.56813 77.4716 7.21347 77.4716 7.99213V13.1121H75.8236V8.10413C75.8236 7.62413 75.7597 7.22947 75.6317 6.92013C75.5037 6.60013 75.3063 6.3708 75.0396 6.23213C74.773 6.0828 74.4423 6.0188 74.0477 6.04013C73.7277 6.04013 73.4343 6.09347 73.1676 6.20013C72.901 6.29613 72.6663 6.4348 72.4637 6.61613C72.2717 6.79747 72.117 7.0108 71.9996 7.25613C71.893 7.4908 71.8397 7.7468 71.8397 8.02413V13.1121H71.0237C70.885 13.1121 70.7463 13.1121 70.6077 13.1121C70.469 13.1121 70.3303 13.1121 70.1917 13.1121Z" fill="#414042"/>
<path d="M60.2655 13.1121V4.08811L60.6655 4.18411L56.9855 8.68011L56.9215 8.48811H63.8815V10.0721H55.8495L55.1135 8.63211L60.6015 1.91211H61.9295V13.1121H60.2655Z" fill="#414042"/>
<path d="M47.6683 13.1122L47.1403 11.8002L50.5643 7.9442C50.7457 7.7522 50.9323 7.53353 51.1243 7.2882C51.327 7.0322 51.519 6.77086 51.7003 6.5042C51.8817 6.23753 52.0257 5.9762 52.1323 5.7202C52.2497 5.45353 52.3083 5.20286 52.3083 4.9682C52.3083 4.62686 52.239 4.33886 52.1003 4.1042C51.9723 3.85886 51.7803 3.6722 51.5243 3.5442C51.279 3.4162 50.9803 3.3522 50.6283 3.3522C50.319 3.3522 50.015 3.44286 49.7163 3.6242C49.4177 3.80553 49.1457 4.06153 48.9003 4.3922C48.655 4.72286 48.463 5.10686 48.3243 5.5442L46.9963 4.7122C47.1777 4.09353 47.4497 3.56553 47.8123 3.1282C48.1857 2.6802 48.6283 2.33886 49.1403 2.1042C49.663 1.86953 50.2283 1.7522 50.8363 1.7522C51.4657 1.7522 52.0257 1.88553 52.5163 2.1522C53.007 2.4082 53.391 2.77086 53.6683 3.2402C53.9457 3.69886 54.0843 4.2322 54.0843 4.8402C54.0843 5.08553 54.0577 5.3362 54.0043 5.5922C53.951 5.8482 53.8657 6.11486 53.7483 6.3922C53.631 6.65886 53.4817 6.94153 53.3003 7.2402C53.119 7.5282 52.9003 7.8322 52.6443 8.1522C52.399 8.4722 52.1163 8.8082 51.7963 9.1602L49.2523 11.9282L48.9323 11.4482H54.4363V13.1122H47.6683Z" fill="#414042"/>
<path d="M36.2173 16.7921C35.62 16.7921 35.0226 16.6961 34.4253 16.5041C33.8386 16.3228 33.364 16.0828 33.0013 15.7841L33.6093 14.5041C33.8226 14.6641 34.0733 14.8028 34.3613 14.9201C34.6493 15.0481 34.9533 15.1441 35.2733 15.2081C35.5933 15.2828 35.908 15.3201 36.2173 15.3201C36.804 15.3201 37.2946 15.2241 37.6893 15.0321C38.084 14.8401 38.3826 14.5575 38.5853 14.1841C38.788 13.8108 38.8893 13.3468 38.8893 12.7921V11.1761L39.0653 11.2881C39.012 11.6188 38.836 11.9388 38.5373 12.2481C38.2493 12.5468 37.8866 12.7921 37.4493 12.9841C37.012 13.1761 36.564 13.2721 36.1053 13.2721C35.3053 13.2721 34.5906 13.0855 33.9613 12.7121C33.3426 12.3281 32.852 11.8108 32.4893 11.1601C32.1266 10.4988 31.9453 9.7468 31.9453 8.90413C31.9453 8.06147 32.1213 7.3148 32.4733 6.66413C32.836 6.0028 33.3266 5.48547 33.9453 5.11213C34.5746 4.72813 35.2786 4.53613 36.0573 4.53613C36.3773 4.53613 36.6866 4.5788 36.9853 4.66413C37.284 4.7388 37.5613 4.8508 37.8173 5.00013C38.0733 5.1388 38.3026 5.29347 38.5053 5.46413C38.708 5.6348 38.8733 5.81613 39.0013 6.00813C39.1293 6.20013 39.2093 6.38147 39.2413 6.55213L38.8893 6.68013V4.71213H40.5373V12.6001C40.5373 13.2721 40.436 13.8641 40.2333 14.3761C40.0413 14.8988 39.7586 15.3361 39.3853 15.6881C39.012 16.0508 38.5586 16.3228 38.0253 16.5041C37.492 16.6961 36.8893 16.7921 36.2173 16.7921ZM36.2813 11.7521C36.804 11.7521 37.268 11.6295 37.6733 11.3841C38.0786 11.1388 38.3933 10.8028 38.6173 10.3761C38.8413 9.94947 38.9533 9.4588 38.9533 8.90413C38.9533 8.34947 38.836 7.8588 38.6013 7.43213C38.3773 6.9948 38.0626 6.65347 37.6573 6.40813C37.2626 6.1628 36.804 6.04013 36.2813 6.04013C35.7693 6.04013 35.3106 6.16813 34.9053 6.42413C34.5106 6.66947 34.196 7.0108 33.9613 7.44813C33.7373 7.8748 33.6253 8.36013 33.6253 8.90413C33.6253 9.44813 33.7373 9.9388 33.9613 10.3761C34.196 10.8028 34.5106 11.1388 34.9053 11.3841C35.3106 11.6295 35.7693 11.7521 36.2813 11.7521Z" fill="#414042"/>
<path d="M22.9417 13.1121V4.71213H24.5896V6.44013L24.3017 6.63213C24.4083 6.2588 24.6163 5.91747 24.9256 5.60813C25.235 5.28813 25.603 5.03213 26.0296 4.84013C26.4563 4.63747 26.8937 4.53613 27.3417 4.53613C27.9816 4.53613 28.515 4.66413 28.9417 4.92013C29.3683 5.16547 29.6883 5.54413 29.9016 6.05613C30.115 6.56813 30.2216 7.21347 30.2216 7.99213V13.1121H28.5737V8.10413C28.5737 7.62413 28.5097 7.22947 28.3817 6.92013C28.2537 6.60013 28.0563 6.3708 27.7896 6.23213C27.523 6.0828 27.1923 6.0188 26.7976 6.04013C26.4776 6.04013 26.1843 6.09347 25.9177 6.20013C25.651 6.29613 25.4163 6.4348 25.2136 6.61613C25.0216 6.79747 24.867 7.0108 24.7496 7.25613C24.643 7.4908 24.5896 7.7468 24.5896 8.02413V13.1121H23.7736C23.635 13.1121 23.4963 13.1121 23.3577 13.1121C23.219 13.1121 23.0803 13.1121 22.9417 13.1121Z" fill="#414042"/>
<path d="M16.0487 13.272C15.3554 13.272 14.7207 13.08 14.1447 12.696C13.5794 12.312 13.126 11.7893 12.7847 11.128C12.4434 10.4667 12.2727 9.71998 12.2727 8.88798C12.2727 8.04532 12.4434 7.29865 12.7847 6.64798C13.1367 5.98665 13.606 5.46932 14.1927 5.09598C14.79 4.72265 15.4567 4.53598 16.1927 4.53598C16.63 4.53598 17.03 4.59998 17.3927 4.72798C17.7554 4.85598 18.07 5.03732 18.3367 5.27198C18.614 5.49598 18.838 5.75732 19.0087 6.05598C19.19 6.35465 19.302 6.67465 19.3447 7.01598L18.9767 6.88798V4.71198H20.6407V13.112H18.9767V11.112L19.3607 11C19.2967 11.288 19.1634 11.5707 18.9607 11.848C18.7687 12.1146 18.518 12.3546 18.2087 12.568C17.91 12.7813 17.574 12.952 17.2007 13.08C16.838 13.208 16.454 13.272 16.0487 13.272ZM16.4807 11.752C16.982 11.752 17.4247 11.6293 17.8087 11.384C18.1927 11.1386 18.4914 10.8026 18.7047 10.376C18.9287 9.93865 19.0407 9.44265 19.0407 8.88798C19.0407 8.34398 18.9287 7.85865 18.7047 7.43198C18.4914 7.00532 18.1927 6.66932 17.8087 6.42398C17.4247 6.17865 16.982 6.05598 16.4807 6.05598C15.99 6.05598 15.5527 6.17865 15.1687 6.42398C14.7954 6.66932 14.4967 7.00532 14.2727 7.43198C14.0594 7.85865 13.9527 8.34398 13.9527 8.88798C13.9527 9.44265 14.0594 9.93865 14.2727 10.376C14.4967 10.8026 14.7954 11.1386 15.1687 11.384C15.5527 11.6293 15.99 11.752 16.4807 11.752ZM16.7367 3.68798C16.054 3.68798 15.4887 3.46932 15.0407 3.03198C14.5927 2.58398 14.294 1.98132 14.1447 1.22398L15.3287 1.03198C15.4674 1.44798 15.654 1.77865 15.8887 2.02398C16.134 2.26932 16.4167 2.39198 16.7367 2.39198C17.0567 2.39198 17.334 2.26932 17.5687 2.02398C17.814 1.77865 18.006 1.44798 18.1447 1.03198L19.3287 1.22398C19.1794 1.98132 18.8807 2.58398 18.4327 3.03198C17.9847 3.46932 17.4194 3.68798 16.7367 3.68798Z" fill="#414042"/>
<path d="M0.47998 8.23211V6.79211H4.76798V8.23211H0.47998ZM1.26398 13.1121V1.91211H5.64798C6.44798 1.91211 7.16798 2.04544 7.80798 2.31211C8.45865 2.57878 9.01331 2.96278 9.47198 3.46411C9.93065 3.96544 10.2826 4.55744 10.528 5.24011C10.7733 5.92278 10.896 6.68011 10.896 7.51211C10.896 8.34411 10.7733 9.10678 10.528 9.80011C10.2826 10.4828 9.93065 11.0748 9.47198 11.5761C9.02398 12.0668 8.47465 12.4454 7.82398 12.7121C7.17331 12.9788 6.44798 13.1121 5.64798 13.1121H1.26398ZM2.99198 11.6241L2.94398 11.4481H5.56798C6.13331 11.4481 6.63465 11.3574 7.07198 11.1761C7.51998 10.9948 7.89331 10.7388 8.19198 10.4081C8.50131 10.0668 8.73598 9.65078 8.89598 9.16011C9.05598 8.66944 9.13598 8.12011 9.13598 7.51211C9.13598 6.90411 9.05598 6.36011 8.89598 5.88011C8.73598 5.38944 8.50131 4.97344 8.19198 4.63211C7.88265 4.29078 7.50931 4.02944 7.07198 3.84811C6.63465 3.66678 6.13331 3.57611 5.56798 3.57611H2.89598L2.99198 3.43211V11.6241Z" fill="#414042"/>
</svg>
