<svg width="153" height="17" viewBox="0 0 153 17" fill="none" xmlns="http://www.w3.org/2000/svg">
<path d="M149.509 12.672C148.731 12.672 148.032 12.48 147.413 12.096C146.805 11.712 146.32 11.1894 145.957 10.528C145.605 9.8667 145.429 9.12537 145.429 8.30404C145.429 7.4827 145.605 6.74137 145.957 6.08004C146.32 5.4187 146.805 4.89604 147.413 4.51204C148.032 4.12804 148.731 3.93604 149.509 3.93604C150.256 3.93604 150.933 4.0907 151.541 4.40003C152.16 4.6987 152.629 5.10937 152.949 5.63204L152.037 6.75204C151.867 6.5067 151.648 6.2827 151.381 6.08004C151.115 5.87737 150.832 5.71737 150.533 5.60003C150.235 5.4827 149.947 5.42404 149.669 5.42404C149.157 5.42404 148.699 5.55203 148.293 5.80803C147.899 6.05337 147.584 6.3947 147.349 6.83204C147.115 7.26937 146.997 7.76004 146.997 8.30404C146.997 8.84804 147.12 9.3387 147.365 9.77604C147.611 10.2027 147.936 10.544 148.341 10.8C148.747 11.056 149.195 11.184 149.685 11.184C149.973 11.184 150.251 11.136 150.517 11.04C150.795 10.944 151.061 10.8 151.317 10.608C151.573 10.416 151.813 10.1814 152.037 9.90404L152.949 11.024C152.608 11.504 152.117 11.8987 151.477 12.208C150.848 12.5174 150.192 12.672 149.509 12.672Z" fill="#414042"/>
<path d="M139.874 12.672C139.052 12.672 138.316 12.4853 137.666 12.112C137.026 11.728 136.519 11.2107 136.146 10.56C135.772 9.89867 135.586 9.14667 135.586 8.304C135.586 7.46133 135.772 6.71467 136.146 6.064C136.519 5.40267 137.026 4.88533 137.666 4.512C138.316 4.128 139.052 3.936 139.874 3.936C140.108 3.936 140.322 3.952 140.514 3.984C140.716 4.016 140.892 4.048 141.042 4.08C141.138 4.10133 141.223 4.12267 141.298 4.144C141.383 4.15467 141.458 4.16 141.522 4.16C141.948 4.16 142.263 4.00533 142.466 3.696C142.668 3.376 142.77 2.90667 142.77 2.288H144.082C144.082 2.768 144.018 3.20533 143.89 3.6C143.772 3.99467 143.575 4.32533 143.298 4.592C143.031 4.848 142.679 5.024 142.242 5.12L142.354 4.704C142.908 5.088 143.346 5.58933 143.666 6.208C143.986 6.82667 144.146 7.52533 144.146 8.304C144.146 9.14667 143.959 9.89867 143.586 10.56C143.212 11.2107 142.7 11.728 142.05 12.112C141.41 12.4853 140.684 12.672 139.874 12.672ZM139.874 11.168C140.375 11.168 140.823 11.0453 141.218 10.8C141.612 10.544 141.922 10.2027 142.146 9.776C142.37 9.33867 142.476 8.848 142.466 8.304C142.476 7.74933 142.37 7.25867 142.146 6.832C141.922 6.39467 141.612 6.05333 141.218 5.808C140.823 5.56267 140.375 5.44 139.874 5.44C139.372 5.44 138.919 5.568 138.514 5.824C138.119 6.06933 137.81 6.41067 137.586 6.848C137.362 7.27467 137.255 7.76 137.266 8.304C137.255 8.848 137.362 9.33867 137.586 9.776C137.81 10.2027 138.119 10.544 138.514 10.8C138.919 11.0453 139.372 11.168 139.874 11.168ZM138.754 2.816L138.21 2L140.498 0L141.538 1.312L138.754 2.816Z" fill="#414042"/>
<path d="M129.354 12.672C128.757 12.672 128.234 12.5333 127.786 12.256C127.349 11.9786 127.007 11.5893 126.762 11.088C126.527 10.5866 126.41 9.9893 126.41 9.29597V4.11196H128.058V8.84796C128.058 9.33863 128.133 9.7653 128.282 10.128C128.442 10.48 128.666 10.752 128.954 10.944C129.253 11.136 129.61 11.232 130.026 11.232C130.335 11.232 130.618 11.184 130.874 11.088C131.13 10.9813 131.349 10.8373 131.53 10.656C131.722 10.4746 131.871 10.256 131.978 9.99996C132.085 9.74396 132.138 9.46663 132.138 9.16796V4.11196C132.405 4.11196 132.634 4.07463 132.826 3.99996C133.029 3.9253 133.194 3.8133 133.322 3.66396C133.45 3.50396 133.546 3.31196 133.61 3.08796C133.674 2.8533 133.706 2.58663 133.706 2.28796H135.018C135.018 2.71463 134.959 3.1093 134.842 3.47196C134.735 3.83463 134.554 4.1493 134.298 4.41596C134.053 4.67196 133.722 4.86396 133.306 4.99196L133.786 4.07996V12.512H132.138V10.448L132.346 10.768C132.197 11.1306 131.967 11.456 131.658 11.744C131.359 12.032 131.013 12.2613 130.618 12.432C130.223 12.592 129.802 12.672 129.354 12.672Z" fill="#414042"/>
<path d="M119.957 12.512V4.11203H121.621V6.75204L121.461 6.11204C121.578 5.7067 121.776 5.3387 122.053 5.00804C122.341 4.67737 122.666 4.41604 123.029 4.22404C123.402 4.03204 123.786 3.93604 124.181 3.93604C124.362 3.93604 124.533 3.95203 124.693 3.98403C124.864 4.01603 124.997 4.05337 125.093 4.09604L124.661 5.88803C124.533 5.8347 124.389 5.79203 124.229 5.76003C124.08 5.71737 123.93 5.69604 123.781 5.69604C123.493 5.69604 123.216 5.7547 122.949 5.87204C122.693 5.9787 122.464 6.13337 122.261 6.33603C122.069 6.52803 121.914 6.75737 121.797 7.02403C121.68 7.28003 121.621 7.5627 121.621 7.87204V12.512H119.957Z" fill="#414042"/>
<path d="M114.857 12.512V1.96802H116.505V12.512H114.857ZM113.113 5.71202V4.11202H118.457V5.71202H113.113Z" fill="#414042"/>
<path d="M101.443 16.1921L103.139 12.2721L103.155 13.5841L98.9631 4.11206H100.883L103.507 10.2881C103.56 10.3947 103.624 10.5601 103.699 10.7841C103.774 10.9974 103.838 11.2107 103.891 11.4241L103.475 11.5201C103.56 11.2961 103.64 11.0721 103.715 10.8481C103.8 10.6241 103.88 10.4001 103.955 10.1761L106.147 4.11206H108.099L104.643 12.5121L103.219 16.1921H101.443Z" fill="#414042"/>
<path d="M93.3297 12.672C92.6364 12.672 92.0017 12.48 91.4257 12.096C90.8604 11.712 90.407 11.1893 90.0657 10.528C89.7244 9.86667 89.5537 9.12 89.5537 8.288C89.5537 7.44533 89.7244 6.69867 90.0657 6.048C90.4177 5.38667 90.887 4.86933 91.4737 4.496C92.071 4.12267 92.7377 3.936 93.4737 3.936C93.911 3.936 94.311 4 94.6737 4.128C95.0364 4.256 95.351 4.43733 95.6177 4.672C95.895 4.896 96.119 5.15733 96.2897 5.456C96.471 5.75467 96.583 6.07467 96.6257 6.416L96.2577 6.288V4.112H97.9217V12.512H96.2577V10.512L96.6417 10.4C96.5777 10.688 96.4444 10.9707 96.2417 11.248C96.0497 11.5147 95.799 11.7547 95.4897 11.968C95.191 12.1813 94.855 12.352 94.4817 12.48C94.119 12.608 93.735 12.672 93.3297 12.672ZM93.7617 11.152C94.263 11.152 94.7057 11.0293 95.0897 10.784C95.4737 10.5387 95.7724 10.2027 95.9857 9.776C96.2097 9.33867 96.3217 8.84267 96.3217 8.288C96.3217 7.744 96.2097 7.25867 95.9857 6.832C95.7724 6.40533 95.4737 6.06933 95.0897 5.824C94.7057 5.57867 94.263 5.456 93.7617 5.456C93.271 5.456 92.8337 5.57867 92.4497 5.824C92.0764 6.06933 91.7777 6.40533 91.5537 6.832C91.3404 7.25867 91.2337 7.744 91.2337 8.288C91.2337 8.84267 91.3404 9.33867 91.5537 9.776C91.7777 10.2027 92.0764 10.5387 92.4497 10.784C92.8337 11.0293 93.271 11.152 93.7617 11.152ZM94.8177 2.816L92.0337 1.312L93.0737 0L95.3617 2L94.8177 2.816Z" fill="#414042"/>
<path d="M83.4671 16.192C82.8697 16.192 82.2724 16.096 81.6751 15.904C81.0884 15.7227 80.6137 15.4827 80.2511 15.184L80.8591 13.904C81.0724 14.064 81.3231 14.2027 81.6111 14.32C81.8991 14.448 82.2031 14.544 82.5231 14.608C82.8431 14.6827 83.1577 14.72 83.4671 14.72C84.0537 14.72 84.5444 14.624 84.9391 14.432C85.3337 14.24 85.6324 13.9574 85.8351 13.584C86.0377 13.2107 86.1391 12.7467 86.1391 12.192V10.576L86.3151 10.688C86.2617 11.0187 86.0857 11.3387 85.7871 11.648C85.4991 11.9467 85.1364 12.192 84.6991 12.384C84.2617 12.576 83.8137 12.672 83.3551 12.672C82.5551 12.672 81.8404 12.4854 81.2111 12.112C80.5924 11.728 80.1017 11.2107 79.7391 10.56C79.3764 9.8987 79.1951 9.1467 79.1951 8.30404C79.1951 7.46137 79.3711 6.7147 79.7231 6.06404C80.0857 5.4027 80.5764 4.88537 81.1951 4.51204C81.8244 4.12804 82.5284 3.93604 83.3071 3.93604C83.6271 3.93604 83.9364 3.9787 84.2351 4.06404C84.5337 4.1387 84.8111 4.2507 85.0671 4.40003C85.3231 4.5387 85.5524 4.69337 85.7551 4.86403C85.9577 5.0347 86.1231 5.21604 86.2511 5.40804C86.3791 5.60004 86.4591 5.78137 86.4911 5.95203L86.1391 6.08004V4.11203H87.7871V12C87.7871 12.672 87.6857 13.264 87.4831 13.776C87.2911 14.2987 87.0084 14.736 86.6351 15.088C86.2617 15.4507 85.8084 15.7227 85.2751 15.904C84.7417 16.096 84.1391 16.192 83.4671 16.192ZM83.5311 11.152C84.0537 11.152 84.5177 11.0294 84.9231 10.784C85.3284 10.5387 85.6431 10.2027 85.8671 9.77604C86.0911 9.34937 86.2031 8.8587 86.2031 8.30404C86.2031 7.74937 86.0857 7.2587 85.8511 6.83204C85.6271 6.3947 85.3124 6.05337 84.9071 5.80803C84.5124 5.5627 84.0537 5.44003 83.5311 5.44003C83.0191 5.44003 82.5604 5.56804 82.1551 5.82404C81.7604 6.06937 81.4457 6.4107 81.2111 6.84804C80.9871 7.2747 80.8751 7.76004 80.8751 8.30404C80.8751 8.84804 80.9871 9.3387 81.2111 9.77604C81.4457 10.2027 81.7604 10.5387 82.1551 10.784C82.5604 11.0294 83.0191 11.152 83.5311 11.152Z" fill="#414042"/>
<path d="M70.1914 12.512V4.11203H71.8394V5.84003L71.5514 6.03203C71.6581 5.6587 71.8661 5.31737 72.1754 5.00804C72.4847 4.68804 72.8527 4.43204 73.2794 4.24004C73.7061 4.03737 74.1434 3.93604 74.5914 3.93604C75.2314 3.93604 75.7647 4.06404 76.1914 4.32003C76.6181 4.56537 76.9381 4.94404 77.1514 5.45604C77.3647 5.96804 77.4714 6.61337 77.4714 7.39203V12.512H75.8234V7.50403C75.8234 7.02404 75.7594 6.62937 75.6314 6.32003C75.5034 6.00004 75.3061 5.7707 75.0394 5.63204C74.7727 5.4827 74.4421 5.4187 74.0474 5.44003C73.7274 5.44003 73.4341 5.49337 73.1674 5.60003C72.9007 5.69603 72.6661 5.8347 72.4634 6.01604C72.2714 6.19737 72.1167 6.4107 71.9994 6.65603C71.8927 6.8907 71.8394 7.1467 71.8394 7.42404V12.512H71.0234C70.8847 12.512 70.7461 12.512 70.6074 12.512C70.4687 12.512 70.3301 12.512 70.1914 12.512Z" fill="#414042"/>
<path d="M60.2653 12.512V3.48801L60.6653 3.58401L56.9853 8.08001L56.9213 7.88801H63.8813V9.47201H55.8493L55.1133 8.03201L60.6013 1.31201H61.9293V12.512H60.2653Z" fill="#414042"/>
<path d="M47.6681 12.512L47.1401 11.2L50.5641 7.34398C50.7454 7.15198 50.9321 6.93331 51.1241 6.68798C51.3268 6.43198 51.5188 6.17065 51.7001 5.90398C51.8814 5.63731 52.0254 5.37598 52.1321 5.11998C52.2494 4.85331 52.3081 4.60264 52.3081 4.36798C52.3081 4.02664 52.2388 3.73864 52.1001 3.50398C51.9721 3.25864 51.7801 3.07198 51.5241 2.94398C51.2788 2.81598 50.9801 2.75198 50.6281 2.75198C50.3188 2.75198 50.0148 2.84264 49.7161 3.02398C49.4174 3.20531 49.1454 3.46131 48.9001 3.79198C48.6548 4.12264 48.4628 4.50664 48.3241 4.94398L46.9961 4.11198C47.1774 3.49331 47.4494 2.96531 47.8121 2.52798C48.1854 2.07998 48.6281 1.73864 49.1401 1.50398C49.6628 1.26931 50.2281 1.15198 50.8361 1.15198C51.4654 1.15198 52.0254 1.28531 52.5161 1.55198C53.0068 1.80798 53.3908 2.17064 53.6681 2.63998C53.9454 3.09864 54.0841 3.63198 54.0841 4.23998C54.0841 4.48531 54.0574 4.73598 54.0041 4.99198C53.9508 5.24798 53.8654 5.51464 53.7481 5.79198C53.6308 6.05864 53.4814 6.34131 53.3001 6.63998C53.1188 6.92798 52.9001 7.23198 52.6441 7.55198C52.3988 7.87198 52.1161 8.20798 51.7961 8.55998L49.2521 11.328L48.9321 10.848H54.4361V12.512H47.6681Z" fill="#414042"/>
<path d="M36.2171 16.192C35.6197 16.192 35.0224 16.096 34.4251 15.904C33.8384 15.7227 33.3637 15.4827 33.0011 15.184L33.6091 13.904C33.8224 14.064 34.0731 14.2027 34.3611 14.32C34.6491 14.448 34.9531 14.544 35.2731 14.608C35.5931 14.6827 35.9077 14.72 36.2171 14.72C36.8037 14.72 37.2944 14.624 37.6891 14.432C38.0837 14.24 38.3824 13.9574 38.5851 13.584C38.7877 13.2107 38.8891 12.7467 38.8891 12.192V10.576L39.0651 10.688C39.0117 11.0187 38.8357 11.3387 38.5371 11.648C38.2491 11.9467 37.8864 12.192 37.4491 12.384C37.0117 12.576 36.5637 12.672 36.1051 12.672C35.3051 12.672 34.5904 12.4854 33.9611 12.112C33.3424 11.728 32.8517 11.2107 32.4891 10.56C32.1264 9.8987 31.9451 9.1467 31.9451 8.30404C31.9451 7.46137 32.1211 6.7147 32.4731 6.06404C32.8357 5.4027 33.3264 4.88537 33.9451 4.51204C34.5744 4.12804 35.2784 3.93604 36.0571 3.93604C36.3771 3.93604 36.6864 3.9787 36.9851 4.06404C37.2837 4.1387 37.5611 4.2507 37.8171 4.40003C38.0731 4.5387 38.3024 4.69337 38.5051 4.86403C38.7077 5.0347 38.8731 5.21604 39.0011 5.40804C39.1291 5.60004 39.2091 5.78137 39.2411 5.95203L38.8891 6.08004V4.11203H40.5371V12C40.5371 12.672 40.4357 13.264 40.2331 13.776C40.0411 14.2987 39.7584 14.736 39.3851 15.088C39.0117 15.4507 38.5584 15.7227 38.0251 15.904C37.4917 16.096 36.8891 16.192 36.2171 16.192ZM36.2811 11.152C36.8037 11.152 37.2677 11.0294 37.6731 10.784C38.0784 10.5387 38.3931 10.2027 38.6171 9.77604C38.8411 9.34937 38.9531 8.8587 38.9531 8.30404C38.9531 7.74937 38.8357 7.2587 38.6011 6.83204C38.3771 6.3947 38.0624 6.05337 37.6571 5.80803C37.2624 5.5627 36.8037 5.44003 36.2811 5.44003C35.7691 5.44003 35.3104 5.56804 34.9051 5.82404C34.5104 6.06937 34.1957 6.4107 33.9611 6.84804C33.7371 7.2747 33.6251 7.76004 33.6251 8.30404C33.6251 8.84804 33.7371 9.3387 33.9611 9.77604C34.1957 10.2027 34.5104 10.5387 34.9051 10.784C35.3104 11.0294 35.7691 11.152 36.2811 11.152Z" fill="#414042"/>
<path d="M22.9414 12.512V4.11203H24.5894V5.84003L24.3014 6.03203C24.4081 5.6587 24.6161 5.31737 24.9254 5.00804C25.2347 4.68804 25.6027 4.43204 26.0294 4.24004C26.4561 4.03737 26.8934 3.93604 27.3414 3.93604C27.9814 3.93604 28.5147 4.06404 28.9414 4.32003C29.3681 4.56537 29.6881 4.94404 29.9014 5.45604C30.1147 5.96804 30.2214 6.61337 30.2214 7.39203V12.512H28.5734V7.50403C28.5734 7.02404 28.5094 6.62937 28.3814 6.32003C28.2534 6.00004 28.0561 5.7707 27.7894 5.63204C27.5227 5.4827 27.1921 5.4187 26.7974 5.44003C26.4774 5.44003 26.1841 5.49337 25.9174 5.60003C25.6507 5.69603 25.4161 5.8347 25.2134 6.01604C25.0214 6.19737 24.8667 6.4107 24.7494 6.65603C24.6427 6.8907 24.5894 7.1467 24.5894 7.42404V12.512H23.7734C23.6347 12.512 23.4961 12.512 23.3574 12.512C23.2187 12.512 23.0801 12.512 22.9414 12.512Z" fill="#414042"/>
<path d="M16.0485 12.672C15.3551 12.672 14.7205 12.48 14.1445 12.096C13.5791 11.712 13.1258 11.1893 12.7845 10.528C12.4431 9.86668 12.2725 9.12001 12.2725 8.28801C12.2725 7.44534 12.4431 6.69867 12.7845 6.04801C13.1365 5.38667 13.6058 4.86934 14.1925 4.49601C14.7898 4.12267 15.4565 3.93601 16.1925 3.93601C16.6298 3.93601 17.0298 4.00001 17.3925 4.12801C17.7551 4.25601 18.0698 4.43734 18.3365 4.67201C18.6138 4.89601 18.8378 5.15734 19.0085 5.45601C19.1898 5.75467 19.3018 6.07467 19.3445 6.41601L18.9765 6.28801V4.11201H20.6405V12.512H18.9765V10.512L19.3605 10.4C19.2965 10.688 19.1631 10.9707 18.9605 11.248C18.7685 11.5147 18.5178 11.7547 18.2085 11.968C17.9098 12.1813 17.5738 12.352 17.2005 12.48C16.8378 12.608 16.4538 12.672 16.0485 12.672ZM16.4805 11.152C16.9818 11.152 17.4245 11.0293 17.8085 10.784C18.1925 10.5387 18.4911 10.2027 18.7045 9.77601C18.9285 9.33867 19.0405 8.84267 19.0405 8.28801C19.0405 7.74401 18.9285 7.25867 18.7045 6.83201C18.4911 6.40534 18.1925 6.06934 17.8085 5.82401C17.4245 5.57867 16.9818 5.45601 16.4805 5.45601C15.9898 5.45601 15.5525 5.57867 15.1685 5.82401C14.7951 6.06934 14.4965 6.40534 14.2725 6.83201C14.0591 7.25867 13.9525 7.74401 13.9525 8.28801C13.9525 8.84267 14.0591 9.33867 14.2725 9.77601C14.4965 10.2027 14.7951 10.5387 15.1685 10.784C15.5525 11.0293 15.9898 11.152 16.4805 11.152ZM16.7365 3.08801C16.0538 3.08801 15.4885 2.86934 15.0405 2.43201C14.5925 1.98401 14.2938 1.38134 14.1445 0.624007L15.3285 0.432007C15.4671 0.848007 15.6538 1.17867 15.8885 1.42401C16.1338 1.66934 16.4165 1.79201 16.7365 1.79201C17.0565 1.79201 17.3338 1.66934 17.5685 1.42401C17.8138 1.17867 18.0058 0.848007 18.1445 0.432007L19.3285 0.624007C19.1791 1.38134 18.8805 1.98401 18.4325 2.43201C17.9845 2.86934 17.4191 3.08801 16.7365 3.08801Z" fill="#414042"/>
<path d="M0.479736 7.63201V6.19201H4.76774V7.63201H0.479736ZM1.26374 12.512V1.31201H5.64774C6.44774 1.31201 7.16774 1.44535 7.80774 1.71201C8.4584 1.97868 9.01307 2.36268 9.47174 2.86401C9.9304 3.36535 10.2824 3.95735 10.5277 4.64001C10.7731 5.32268 10.8957 6.08001 10.8957 6.91201C10.8957 7.74401 10.7731 8.50668 10.5277 9.20001C10.2824 9.88268 9.9304 10.4747 9.47174 10.976C9.02374 11.4667 8.4744 11.8453 7.82374 12.112C7.17307 12.3787 6.44774 12.512 5.64774 12.512H1.26374ZM2.99174 11.024L2.94374 10.848H5.56774C6.13307 10.848 6.6344 10.7573 7.07174 10.576C7.51974 10.3947 7.89307 10.1387 8.19174 9.80801C8.50107 9.46668 8.73574 9.05068 8.89574 8.56001C9.05574 8.06935 9.13574 7.52001 9.13574 6.91201C9.13574 6.30401 9.05574 5.76001 8.89574 5.28001C8.73574 4.78935 8.50107 4.37335 8.19174 4.03201C7.8824 3.69068 7.50907 3.42935 7.07174 3.24801C6.6344 3.06668 6.13307 2.97601 5.56774 2.97601H2.89574L2.99174 2.83201V11.024Z" fill="#414042"/>
</svg>
