<svg width="69" height="20" viewBox="0 0 69 20" fill="none" xmlns="http://www.w3.org/2000/svg">
<path d="M63.7233 15.7201C63.0299 15.7201 62.3953 15.5281 61.8193 15.1441C61.2539 14.7601 60.8006 14.2375 60.4593 13.5761C60.1179 12.9148 59.9473 12.1681 59.9473 11.3361C59.9473 10.4935 60.1179 9.7468 60.4593 9.09613C60.8113 8.4348 61.2806 7.91746 61.8673 7.54413C62.4646 7.1708 63.1313 6.98413 63.8673 6.98413C64.3046 6.98413 64.7046 7.04813 65.0673 7.17613C65.4299 7.30413 65.7446 7.48546 66.0113 7.72013C66.2886 7.94413 66.5126 8.20546 66.6833 8.50413C66.8646 8.8028 66.9766 9.1228 67.0193 9.46413L66.6513 9.33613V7.16013H68.3153V15.5601H66.6513V13.5601L67.0353 13.4481C66.9713 13.7361 66.8379 14.0188 66.6353 14.2961C66.4433 14.5628 66.1926 14.8028 65.8833 15.0161C65.5846 15.2295 65.2486 15.4001 64.8753 15.5281C64.5126 15.6561 64.1286 15.7201 63.7233 15.7201ZM64.1553 14.2001C64.6566 14.2001 65.0993 14.0775 65.4833 13.8321C65.8673 13.5868 66.1659 13.2508 66.3793 12.8241C66.6033 12.3868 66.7153 11.8908 66.7153 11.3361C66.7153 10.7921 66.6033 10.3068 66.3793 9.88013C66.1659 9.45346 65.8673 9.11746 65.4833 8.87213C65.0993 8.6268 64.6566 8.50413 64.1553 8.50413C63.6646 8.50413 63.2273 8.6268 62.8433 8.87213C62.4699 9.11746 62.1713 9.45346 61.9473 9.88013C61.7339 10.3068 61.6273 10.7921 61.6273 11.3361C61.6273 11.8908 61.7339 12.3868 61.9473 12.8241C62.1713 13.2508 62.4699 13.5868 62.8433 13.8321C63.2273 14.0775 63.6646 14.2001 64.1553 14.2001Z" fill="#A6A6A6"/>
<path d="M56.3103 15.5601V7.16012H57.9583V15.5601H56.3103ZM57.1103 5.30412C56.7583 5.30412 56.4863 5.21345 56.2943 5.03212C56.1023 4.85079 56.0063 4.59479 56.0063 4.26412C56.0063 3.95479 56.1023 3.70412 56.2943 3.51212C56.497 3.32012 56.769 3.22412 57.1103 3.22412C57.4623 3.22412 57.7343 3.31479 57.9263 3.49612C58.1183 3.67745 58.2143 3.93345 58.2143 4.26412C58.2143 4.57345 58.113 4.82412 57.9104 5.01612C57.7184 5.20812 57.4517 5.30412 57.1103 5.30412Z" fill="#A6A6A6"/>
<path d="M49.4077 19.2401C48.8104 19.2401 48.2131 19.1441 47.6157 18.9521C47.0291 18.7708 46.5544 18.5308 46.1917 18.2321L46.7997 16.9521C47.0131 17.1121 47.2637 17.2508 47.5517 17.3681C47.8397 17.4961 48.1437 17.5921 48.4637 17.6561C48.7837 17.7308 49.0984 17.7681 49.4077 17.7681C49.9944 17.7681 50.4851 17.6721 50.8797 17.4801C51.2744 17.2881 51.5731 17.0055 51.7757 16.6321C51.9784 16.2588 52.0797 15.7948 52.0797 15.2401V13.6241L52.2557 13.7361C52.2024 14.0668 52.0264 14.3868 51.7277 14.6961C51.4397 14.9948 51.0771 15.2401 50.6397 15.4321C50.2024 15.6241 49.7544 15.7201 49.2957 15.7201C48.4957 15.7201 47.7811 15.5335 47.1517 15.1601C46.5331 14.7761 46.0424 14.2588 45.6797 13.6081C45.3171 12.9468 45.1357 12.1948 45.1357 11.3521C45.1357 10.5095 45.3117 9.7628 45.6637 9.11213C46.0264 8.4508 46.5171 7.93346 47.1357 7.56013C47.7651 7.17613 48.4691 6.98413 49.2477 6.98413C49.5677 6.98413 49.8771 7.0268 50.1757 7.11213C50.4744 7.1868 50.7517 7.2988 51.0077 7.44813C51.2637 7.5868 51.4931 7.74146 51.6957 7.91213C51.8984 8.0828 52.0637 8.26413 52.1917 8.45613C52.3197 8.64813 52.3997 8.82946 52.4317 9.00013L52.0797 9.12813V7.16013H53.7277V15.0481C53.7277 15.7201 53.6264 16.3121 53.4237 16.8241C53.2317 17.3468 52.9491 17.7841 52.5757 18.1361C52.2024 18.4988 51.7491 18.7708 51.2157 18.9521C50.6824 19.1441 50.0797 19.2401 49.4077 19.2401ZM49.4717 14.2001C49.9944 14.2001 50.4584 14.0775 50.8637 13.8321C51.2691 13.5868 51.5837 13.2508 51.8077 12.8241C52.0317 12.3975 52.1437 11.9068 52.1437 11.3521C52.1437 10.7975 52.0264 10.3068 51.7917 9.88013C51.5677 9.4428 51.2531 9.10146 50.8477 8.85613C50.4531 8.6108 49.9944 8.48813 49.4717 8.48813C48.9597 8.48813 48.5011 8.61613 48.0957 8.87213C47.7011 9.11746 47.3864 9.4588 47.1517 9.89613C46.9277 10.3228 46.8157 10.8081 46.8157 11.3521C46.8157 11.8961 46.9277 12.3868 47.1517 12.8241C47.3864 13.2508 47.7011 13.5868 48.0957 13.8321C48.5011 14.0775 48.9597 14.2001 49.4717 14.2001Z" fill="#A6A6A6"/>
<path d="M36.1689 15.7201C35.3902 15.7201 34.6915 15.5281 34.0729 15.1441C33.4649 14.7601 32.9795 14.2375 32.6169 13.5761C32.2649 12.9148 32.0889 12.1735 32.0889 11.3521C32.0889 10.5308 32.2649 9.78946 32.6169 9.12813C32.9795 8.4668 33.4649 7.94413 34.0729 7.56013C34.6915 7.17613 35.3902 6.98413 36.1689 6.98413C36.9155 6.98413 37.5929 7.1388 38.2009 7.44813C38.8195 7.7468 39.2889 8.15746 39.6089 8.68013L38.6969 9.80013C38.5262 9.5548 38.3075 9.3308 38.0409 9.12813C37.7742 8.92546 37.4915 8.76546 37.1929 8.64813C36.8942 8.5308 36.6062 8.47213 36.3289 8.47213C35.8169 8.47213 35.3582 8.60013 34.9529 8.85613C34.5582 9.10146 34.2435 9.4428 34.0089 9.88013C33.7742 10.3175 33.6569 10.8081 33.6569 11.3521C33.6569 11.8961 33.7795 12.3868 34.0249 12.8241C34.2702 13.2508 34.5955 13.5921 35.0009 13.8481C35.4062 14.1041 35.8542 14.2321 36.3449 14.2321C36.6329 14.2321 36.9102 14.1841 37.1769 14.0881C37.4542 13.9921 37.7209 13.8481 37.9769 13.6561C38.2329 13.4641 38.4729 13.2295 38.6969 12.9521L39.6089 14.0721C39.2675 14.5521 38.7769 14.9468 38.1369 15.2561C37.5075 15.5655 36.8515 15.7201 36.1689 15.7201Z" fill="#A6A6A6"/>
<path d="M26.5331 15.72C25.7118 15.72 24.9758 15.5334 24.3251 15.16C23.6851 14.776 23.1785 14.2587 22.8051 13.608C22.4318 12.9467 22.2451 12.1947 22.2451 11.352C22.2451 10.5094 22.4318 9.7627 22.8051 9.11203C23.1785 8.45069 23.6851 7.93336 24.3251 7.56003C24.9758 7.17603 25.7118 6.98403 26.5331 6.98403C27.3438 6.98403 28.0691 7.17603 28.7091 7.56003C29.3598 7.93336 29.8718 8.45069 30.2451 9.11203C30.6185 9.7627 30.8051 10.5094 30.8051 11.352C30.8051 12.1947 30.6185 12.9467 30.2451 13.608C29.8718 14.2587 29.3598 14.776 28.7091 15.16C28.0691 15.5334 27.3438 15.72 26.5331 15.72ZM26.5331 14.216C27.0345 14.216 27.4825 14.0934 27.8771 13.848C28.2718 13.592 28.5811 13.2507 28.8051 12.824C29.0291 12.3867 29.1358 11.896 29.1251 11.352C29.1358 10.7974 29.0291 10.3067 28.8051 9.88003C28.5811 9.44269 28.2718 9.10136 27.8771 8.85603C27.4825 8.61069 27.0345 8.48803 26.5331 8.48803C26.0318 8.48803 25.5785 8.61603 25.1731 8.87203C24.7785 9.11736 24.4691 9.4587 24.2451 9.89603C24.0211 10.3227 23.9145 10.808 23.9251 11.352C23.9145 11.896 24.0211 12.3867 24.2451 12.824C24.4691 13.2507 24.7785 13.592 25.1731 13.848C25.5785 14.0934 26.0318 14.216 26.5331 14.216ZM24.6131 5.84803L24.0051 5.32003L25.8451 3.51203H27.2211L29.0611 5.32003L28.4531 5.84803L26.2931 4.68003H26.7731L24.6131 5.84803ZM29.2051 3.64003L28.3731 3.06403L29.6851 0.728027L31.0771 1.72003L29.2051 3.64003Z" fill="#A6A6A6"/>
<path d="M16.0133 15.7199C15.416 15.7199 14.8933 15.5812 14.4453 15.3039C14.008 15.0266 13.6667 14.6372 13.4213 14.1359C13.1867 13.6346 13.0693 13.0372 13.0693 12.3439V7.15991H14.7173V11.8959C14.7173 12.3866 14.792 12.8132 14.9413 13.1759C15.1013 13.5279 15.3253 13.7999 15.6133 13.9919C15.912 14.1839 16.2693 14.2799 16.6853 14.2799C16.9947 14.2799 17.2773 14.2319 17.5333 14.1359C17.7893 14.0292 18.008 13.8852 18.1893 13.7039C18.3813 13.5226 18.5307 13.3039 18.6373 13.0479C18.744 12.7919 18.7973 12.5146 18.7973 12.2159V7.15991H20.4453V15.5599H18.7973V13.7999L19.0853 13.6079C18.9573 14.0026 18.7387 14.3599 18.4293 14.6799C18.1307 14.9999 17.7733 15.2559 17.3573 15.4479C16.9413 15.6292 16.4933 15.7199 16.0133 15.7199Z" fill="#A6A6A6"/>
<path d="M9.20992 17.32L4.96992 11.768L6.39392 10.824L10.5859 16.328L9.20992 17.32ZM5.65792 15.72C4.86859 15.72 4.13792 15.576 3.46592 15.288C2.80459 15 2.22326 14.6 1.72192 14.088C1.23126 13.5653 0.847255 12.9573 0.569922 12.264C0.303255 11.56 0.169922 10.792 0.169922 9.95995C0.169922 9.12795 0.303255 8.36528 0.569922 7.67195C0.847255 6.96795 1.23126 6.35995 1.72192 5.84795C2.22326 5.32528 2.80459 4.91995 3.46592 4.63195C4.13792 4.34395 4.86859 4.19995 5.65792 4.19995C6.44726 4.19995 7.17259 4.34395 7.83392 4.63195C8.50592 4.91995 9.08726 5.32528 9.57792 5.84795C10.0793 6.37062 10.4633 6.98395 10.7299 7.68795C11.0073 8.38129 11.1459 9.13862 11.1459 9.95995C11.1459 10.7813 11.0073 11.544 10.7299 12.248C10.4633 12.9413 10.0793 13.5493 9.57792 14.072C9.08726 14.5946 8.50592 15 7.83392 15.288C7.17259 15.576 6.44726 15.72 5.65792 15.72ZM5.65792 14.04C6.20192 14.04 6.69792 13.9386 7.14592 13.736C7.60459 13.5333 7.99926 13.2506 8.32992 12.888C8.66059 12.5146 8.91659 12.0826 9.09792 11.592C9.28992 11.0906 9.38592 10.5466 9.38592 9.95995C9.38592 9.37328 9.28992 8.83462 9.09792 8.34395C8.91659 7.84262 8.66059 7.41062 8.32992 7.04795C7.99926 6.67462 7.60459 6.38662 7.14592 6.18395C6.69792 5.98128 6.20192 5.87995 5.65792 5.87995C5.11392 5.87995 4.61259 5.98128 4.15392 6.18395C3.70592 6.38662 3.31126 6.66928 2.96992 7.03195C2.63926 7.39462 2.38326 7.82662 2.20192 8.32795C2.02059 8.81862 1.92992 9.36262 1.92992 9.95995C1.92992 10.5466 2.02059 11.0906 2.20192 11.592C2.38326 12.0933 2.63926 12.5253 2.96992 12.888C3.31126 13.2506 3.70592 13.5333 4.15392 13.736C4.61259 13.9386 5.11392 14.04 5.65792 14.04Z" fill="#A6A6A6"/>
</svg>
