<svg width="123" height="16" viewBox="0 0 123 16" fill="none" xmlns="http://www.w3.org/2000/svg">
<path d="M115.946 15.728L117.642 11.808L117.658 13.12L113.466 3.64795H115.386L118.01 9.82395C118.064 9.93062 118.128 10.0959 118.202 10.3199C118.277 10.5333 118.341 10.7466 118.394 10.96L117.978 11.0559C118.064 10.8319 118.144 10.608 118.218 10.384C118.304 10.16 118.384 9.93595 118.458 9.71195L120.65 3.64795H122.602L119.146 12.0479L117.722 15.728H115.946Z" fill="#A6A6A6"/>
<path d="M109.438 12.0479V1.50391H111.086V12.0479H109.438ZM107.694 5.24791V3.64791H113.038V5.24791H107.694Z" fill="#A6A6A6"/>
<path d="M97.2827 15.7279C96.6854 15.7279 96.0881 15.6319 95.4907 15.4399C94.9041 15.2586 94.4294 15.0186 94.0667 14.7199L94.6747 13.4399C94.8881 13.5999 95.1387 13.7386 95.4267 13.8559C95.7147 13.9839 96.0187 14.0799 96.3387 14.1439C96.6587 14.2186 96.9734 14.2559 97.2827 14.2559C97.8694 14.2559 98.3601 14.1599 98.7547 13.9679C99.1494 13.7759 99.4481 13.4933 99.6507 13.1199C99.8534 12.7466 99.9547 12.2826 99.9547 11.7279V10.1119L100.131 10.2239C100.077 10.5546 99.9014 10.8746 99.6027 11.1839C99.3147 11.4826 98.9521 11.7279 98.5147 11.9199C98.0774 12.1119 97.6294 12.2079 97.1707 12.2079C96.3707 12.2079 95.6561 12.0213 95.0267 11.6479C94.4081 11.2639 93.9174 10.7466 93.5547 10.0959C93.1921 9.43459 93.0107 8.68259 93.0107 7.83992C93.0107 6.99726 93.1867 6.25059 93.5387 5.59992C93.9014 4.93859 94.3921 4.42126 95.0107 4.04792C95.6401 3.66392 96.3441 3.47192 97.1227 3.47192C97.4427 3.47192 97.7521 3.51459 98.0507 3.59992C98.3494 3.67459 98.6267 3.78659 98.8827 3.93592C99.1387 4.07459 99.3681 4.22926 99.5707 4.39992C99.7734 4.57059 99.9387 4.75192 100.067 4.94392C100.195 5.13592 100.275 5.31726 100.307 5.48792L99.9547 5.61592V3.64792H101.603V11.5359C101.603 12.2079 101.501 12.7999 101.299 13.3119C101.107 13.8346 100.824 14.2719 100.451 14.6239C100.077 14.9866 99.6241 15.2586 99.0907 15.4399C98.5574 15.6319 97.9547 15.7279 97.2827 15.7279ZM97.3467 10.6879C97.8694 10.6879 98.3334 10.5653 98.7387 10.3199C99.1441 10.0746 99.4587 9.73859 99.6827 9.31192C99.9067 8.88526 100.019 8.39459 100.019 7.83992C100.019 7.28526 99.9014 6.79459 99.6667 6.36792C99.4427 5.93059 99.1281 5.58926 98.7227 5.34392C98.3281 5.09859 97.8694 4.97592 97.3467 4.97592C96.8347 4.97592 96.3761 5.10392 95.9707 5.35992C95.5761 5.60526 95.2614 5.94659 95.0267 6.38392C94.8027 6.81059 94.6907 7.29592 94.6907 7.83992C94.6907 8.38392 94.8027 8.87459 95.0267 9.31192C95.2614 9.73859 95.5761 10.0746 95.9707 10.3199C96.3761 10.5653 96.8347 10.6879 97.3467 10.6879Z" fill="#A6A6A6"/>
<path d="M84.0068 12.0479V3.64792H85.6548V5.37592L85.3668 5.56792C85.4735 5.19459 85.6815 4.85326 85.9908 4.54392C86.3002 4.22392 86.6682 3.96792 87.0948 3.77592C87.5215 3.57326 87.9588 3.47192 88.4068 3.47192C89.0468 3.47192 89.5802 3.59992 90.0068 3.85592C90.4335 4.10126 90.7535 4.47992 90.9668 4.99192C91.1802 5.50392 91.2868 6.14926 91.2868 6.92792V12.0479H89.6388V7.03992C89.6388 6.55992 89.5748 6.16526 89.4468 5.85592C89.3188 5.53592 89.1215 5.30659 88.8548 5.16792C88.5882 5.01859 88.2575 4.95459 87.8628 4.97592C87.5428 4.97592 87.2495 5.02926 86.9828 5.13592C86.7162 5.23192 86.4815 5.37059 86.2788 5.55192C86.0868 5.73326 85.9322 5.94659 85.8148 6.19192C85.7082 6.42659 85.6548 6.68259 85.6548 6.95992V12.0479H84.8388C84.7002 12.0479 84.5615 12.0479 84.4228 12.0479C84.2842 12.0479 84.1455 12.0479 84.0068 12.0479Z" fill="#A6A6A6"/>
<path d="M77.9394 12.208C77.118 12.208 76.382 12.0213 75.7314 11.648C75.0914 11.264 74.5847 10.7467 74.2114 10.096C73.838 9.43467 73.6514 8.68267 73.6514 7.84C73.6514 6.99733 73.838 6.25067 74.2114 5.6C74.5847 4.93867 75.0914 4.42133 75.7314 4.048C76.382 3.664 77.118 3.472 77.9394 3.472C78.75 3.472 79.4754 3.664 80.1154 4.048C80.766 4.42133 81.278 4.93867 81.6514 5.6C82.0247 6.25067 82.2114 6.99733 82.2114 7.84C82.2114 8.68267 82.0247 9.43467 81.6514 10.096C81.278 10.7467 80.766 11.264 80.1154 11.648C79.4754 12.0213 78.75 12.208 77.9394 12.208ZM77.9394 10.704C78.4407 10.704 78.8887 10.5813 79.2834 10.336C79.678 10.08 79.9874 9.73867 80.2114 9.312C80.4354 8.87467 80.542 8.384 80.5314 7.84C80.542 7.28533 80.4354 6.79467 80.2114 6.368C79.9874 5.93067 79.678 5.58933 79.2834 5.344C78.8887 5.09867 78.4407 4.976 77.9394 4.976C77.438 4.976 76.9847 5.104 76.5794 5.36C76.1847 5.60533 75.8754 5.94667 75.6514 6.384C75.4274 6.81067 75.3207 7.296 75.3314 7.84C75.3207 8.384 75.4274 8.87467 75.6514 9.312C75.8754 9.73867 76.1847 10.08 76.5794 10.336C76.9847 10.5813 77.438 10.704 77.9394 10.704ZM76.0194 2.336L75.4114 1.808L77.2514 0H78.6274L80.4674 1.808L79.8594 2.336L77.6994 1.168H78.1794L76.0194 2.336Z" fill="#A6A6A6"/>
<path d="M69.1689 12.2079C68.3902 12.2079 67.6915 12.0159 67.0729 11.6319C66.4649 11.2479 65.9795 10.7253 65.6169 10.0639C65.2649 9.40259 65.0889 8.66126 65.0889 7.83992C65.0889 7.01859 65.2649 6.27726 65.6169 5.61592C65.9795 4.95459 66.4649 4.43192 67.0729 4.04792C67.6915 3.66392 68.3902 3.47192 69.1689 3.47192C69.9155 3.47192 70.5929 3.62659 71.2009 3.93592C71.8195 4.23459 72.2889 4.64526 72.6089 5.16792L71.6969 6.28792C71.5262 6.04259 71.3075 5.81859 71.0409 5.61592C70.7742 5.41326 70.4915 5.25326 70.1929 5.13592C69.8942 5.01859 69.6062 4.95992 69.3289 4.95992C68.8169 4.95992 68.3582 5.08792 67.9529 5.34392C67.5582 5.58926 67.2435 5.93059 67.0089 6.36792C66.7742 6.80526 66.6569 7.29592 66.6569 7.83992C66.6569 8.38392 66.7795 8.87459 67.0249 9.31192C67.2702 9.73859 67.5955 10.0799 68.0009 10.3359C68.4062 10.5919 68.8542 10.7199 69.3449 10.7199C69.6329 10.7199 69.9102 10.6719 70.1769 10.5759C70.4542 10.4799 70.7209 10.3359 70.9769 10.1439C71.2329 9.95192 71.4729 9.71726 71.6969 9.43992L72.6089 10.5599C72.2675 11.0399 71.7769 11.4346 71.1369 11.7439C70.5075 12.0533 69.8515 12.2079 69.1689 12.2079Z" fill="#A6A6A6"/>
<path d="M55.0487 12.208C54.2274 12.208 53.4914 12.0213 52.8407 11.648C52.2007 11.264 51.6941 10.7467 51.3207 10.096C50.9474 9.43467 50.7607 8.68267 50.7607 7.84C50.7607 6.99733 50.9474 6.25067 51.3207 5.6C51.6941 4.93867 52.2007 4.42133 52.8407 4.048C53.4914 3.664 54.2274 3.472 55.0487 3.472C55.8594 3.472 56.5847 3.664 57.2247 4.048C57.8754 4.42133 58.3874 4.93867 58.7607 5.6C59.1341 6.25067 59.3207 6.99733 59.3207 7.84C59.3207 8.68267 59.1341 9.43467 58.7607 10.096C58.3874 10.7467 57.8754 11.264 57.2247 11.648C56.5847 12.0213 55.8594 12.208 55.0487 12.208ZM55.0487 10.704C55.5501 10.704 55.9981 10.5813 56.3927 10.336C56.7874 10.08 57.0967 9.73867 57.3207 9.312C57.5447 8.87467 57.6514 8.384 57.6407 7.84C57.6514 7.28533 57.5447 6.79467 57.3207 6.368C57.0967 5.93067 56.7874 5.58933 56.3927 5.344C55.9981 5.09867 55.5501 4.976 55.0487 4.976C54.5474 4.976 54.0941 5.104 53.6887 5.36C53.2941 5.60533 52.9847 5.94667 52.7607 6.384C52.5367 6.81067 52.4301 7.296 52.4407 7.84C52.4301 8.384 52.5367 8.87467 52.7607 9.312C52.9847 9.73867 53.2941 10.08 53.6887 10.336C54.0941 10.5813 54.5474 10.704 55.0487 10.704ZM53.1287 2.336L52.5207 1.808L54.3607 0H55.7367L57.5767 1.808L56.9687 2.336L54.8087 1.168H55.2887L53.1287 2.336Z" fill="#A6A6A6"/>
<path d="M36.5063 12.0479V3.64791H38.1703V5.43991L37.8663 5.63191C37.9517 5.35457 38.085 5.08791 38.2663 4.83191C38.4583 4.57591 38.6877 4.35191 38.9543 4.15991C39.2317 3.95724 39.525 3.79724 39.8344 3.67991C40.1544 3.56257 40.4797 3.50391 40.8103 3.50391C41.2903 3.50391 41.7117 3.58391 42.0743 3.74391C42.437 3.90391 42.7357 4.14391 42.9703 4.46391C43.205 4.78391 43.3757 5.18391 43.4823 5.66391L43.2263 5.59991L43.3383 5.32791C43.4557 5.08257 43.6157 4.85324 43.8183 4.63991C44.0317 4.41591 44.2717 4.21857 44.5383 4.04791C44.805 3.87724 45.0877 3.74391 45.3863 3.64791C45.685 3.55191 45.9784 3.50391 46.2663 3.50391C46.8957 3.50391 47.413 3.63191 47.8183 3.88791C48.2343 4.14391 48.5437 4.53324 48.7463 5.05591C48.9597 5.57857 49.0663 6.22924 49.0663 7.00791V12.0479H47.4023V7.10391C47.4023 6.62391 47.3384 6.23457 47.2104 5.93591C47.093 5.62657 46.9117 5.39724 46.6663 5.24791C46.421 5.09857 46.1063 5.02391 45.7223 5.02391C45.4237 5.02391 45.141 5.07724 44.8743 5.18391C44.6183 5.27991 44.3944 5.41857 44.2024 5.59991C44.0104 5.78124 43.861 5.99457 43.7543 6.23991C43.6477 6.47457 43.5943 6.73591 43.5943 7.02391V12.0479H41.9303V7.07191C41.9303 6.63457 41.8663 6.26657 41.7383 5.96791C41.6104 5.65857 41.4237 5.42391 41.1783 5.26391C40.933 5.10391 40.6343 5.02391 40.2823 5.02391C39.9837 5.02391 39.7063 5.07724 39.4503 5.18391C39.1943 5.27991 38.9703 5.41857 38.7783 5.59991C38.5863 5.77057 38.437 5.97857 38.3303 6.22391C38.2237 6.45857 38.1703 6.71457 38.1703 6.99191V12.0479H36.5063Z" fill="#A6A6A6"/>
<path d="M24.1651 15.728L25.8611 11.808L25.8771 13.12L21.6851 3.64795H23.6051L26.2291 9.82395C26.2824 9.93062 26.3464 10.0959 26.4211 10.3199C26.4957 10.5333 26.5597 10.7466 26.6131 10.96L26.1971 11.0559C26.2824 10.8319 26.3624 10.608 26.4371 10.384C26.5224 10.16 26.6024 9.93595 26.6771 9.71195L28.8691 3.64795H30.8211L27.3651 12.0479L25.9411 15.728H24.1651Z" fill="#A6A6A6"/>
<path d="M16.0133 12.2079C15.416 12.2079 14.8933 12.0693 14.4453 11.7919C14.008 11.5146 13.6667 11.1253 13.4213 10.624C13.1867 10.1226 13.0693 9.52528 13.0693 8.83195V3.64795H14.7173V8.38395C14.7173 8.87462 14.792 9.30128 14.9413 9.66395C15.1013 10.016 15.3253 10.2879 15.6133 10.4799C15.912 10.6719 16.2693 10.7679 16.6853 10.7679C16.9947 10.7679 17.2773 10.7199 17.5333 10.624C17.7893 10.5173 18.008 10.3733 18.1893 10.1919C18.3813 10.0106 18.5307 9.79195 18.6373 9.53595C18.744 9.27995 18.7973 9.00262 18.7973 8.70395V3.64795H20.4453V12.0479H18.7973V10.2879L19.0853 10.096C18.9573 10.4906 18.7387 10.848 18.4293 11.168C18.1307 11.488 17.7733 11.7439 17.3573 11.936C16.9413 12.1173 16.4933 12.2079 16.0133 12.2079Z" fill="#A6A6A6"/>
<path d="M9.20992 13.808L4.96992 8.25599L6.39392 7.31199L10.5859 12.816L9.20992 13.808ZM5.65792 12.208C4.86859 12.208 4.13792 12.064 3.46592 11.776C2.80459 11.488 2.22326 11.088 1.72192 10.576C1.23126 10.0533 0.847255 9.44532 0.569922 8.75199C0.303255 8.04799 0.169922 7.27999 0.169922 6.44799C0.169922 5.61599 0.303255 4.85332 0.569922 4.15999C0.847255 3.45599 1.23126 2.84799 1.72192 2.33599C2.22326 1.81332 2.80459 1.40799 3.46592 1.11999C4.13792 0.831988 4.86859 0.687988 5.65792 0.687988C6.44726 0.687988 7.17259 0.831988 7.83392 1.11999C8.50592 1.40799 9.08726 1.81332 9.57792 2.33599C10.0793 2.85865 10.4633 3.47199 10.7299 4.17599C11.0073 4.86932 11.1459 5.62666 11.1459 6.44799C11.1459 7.26932 11.0073 8.03199 10.7299 8.73599C10.4633 9.42932 10.0793 10.0373 9.57792 10.56C9.08726 11.0827 8.50592 11.488 7.83392 11.776C7.17259 12.064 6.44726 12.208 5.65792 12.208ZM5.65792 10.528C6.20192 10.528 6.69792 10.4267 7.14592 10.224C7.60459 10.0213 7.99926 9.73866 8.32992 9.37599C8.66059 9.00266 8.91659 8.57066 9.09792 8.07999C9.28992 7.57866 9.38592 7.03466 9.38592 6.44799C9.38592 5.86132 9.28992 5.32266 9.09792 4.83199C8.91659 4.33066 8.66059 3.89866 8.32992 3.53599C7.99926 3.16266 7.60459 2.87466 7.14592 2.67199C6.69792 2.46932 6.20192 2.36799 5.65792 2.36799C5.11392 2.36799 4.61259 2.46932 4.15392 2.67199C3.70592 2.87466 3.31126 3.15732 2.96992 3.51999C2.63926 3.88266 2.38326 4.31466 2.20192 4.81599C2.02059 5.30666 1.92992 5.85066 1.92992 6.44799C1.92992 7.03466 2.02059 7.57866 2.20192 8.07999C2.38326 8.58132 2.63926 9.01332 2.96992 9.37599C3.31126 9.73866 3.70592 10.0213 4.15392 10.224C4.61259 10.4267 5.11392 10.528 5.65792 10.528Z" fill="#A6A6A6"/>
</svg>
