<svg width="167" height="12" viewBox="0 0 167 12" fill="none" xmlns="http://www.w3.org/2000/svg">
<path d="M160.305 11.3599V5.77591L160.417 6.55991L155.889 0.159912H157.969L161.425 5.11991L161.025 5.07191L164.145 0.159912H166.129L161.793 6.73591L162.033 5.64791V11.3599H160.305Z" fill="#414042"/>
<path d="M146.208 11.3599L150.544 0.159912H152.304L156.608 11.3599H154.768L152.208 4.60791C152.176 4.53325 152.112 4.35191 152.016 4.06391C151.93 3.77591 151.829 3.45591 151.712 3.10391C151.594 2.75191 151.488 2.43191 151.392 2.14391C151.296 1.84525 151.232 1.65325 151.2 1.56791L151.568 1.55191C151.504 1.73325 151.424 1.96258 151.328 2.23991C151.242 2.51725 151.146 2.81058 151.04 3.11991C150.944 3.42925 150.848 3.72258 150.752 3.99991C150.656 4.26658 150.576 4.49058 150.512 4.67191L147.968 11.3599H146.208ZM148.128 8.57591L148.768 6.91191H153.856L154.592 8.57591H148.128Z" fill="#414042"/>
<path d="M134.463 11.3599L130.895 0.159912H132.735L134.895 7.16791C134.959 7.33858 135.017 7.54125 135.071 7.77591C135.124 7.99991 135.172 8.22925 135.215 8.46391C135.257 8.69858 135.295 8.91725 135.327 9.11991C135.369 9.32258 135.407 9.48791 135.439 9.61591L134.975 9.59991C135.135 9.03458 135.257 8.59725 135.343 8.28791C135.439 7.97858 135.513 7.74391 135.567 7.58391C135.62 7.41325 135.668 7.26925 135.711 7.15191L137.727 2.09591H139.279L141.231 7.15191C141.337 7.40791 141.428 7.66391 141.503 7.91991C141.588 8.16525 141.663 8.41591 141.727 8.67191C141.791 8.91725 141.86 9.17858 141.935 9.45591L141.519 9.56791C141.572 9.27991 141.609 9.05591 141.631 8.89591C141.663 8.72525 141.689 8.58658 141.711 8.47991C141.732 8.37325 141.753 8.27191 141.775 8.17591C141.796 8.06925 141.828 7.93591 141.871 7.77591C141.924 7.61591 141.993 7.39725 142.079 7.11991L144.207 0.159912H146.063L142.495 11.3599H141.295L138.335 4.35191L138.479 4.41591L135.631 11.3599H134.463Z" fill="#414042"/>
<path d="M116.469 11.3599V0.159912H121.237C121.877 0.159912 122.464 0.319912 122.997 0.639913C123.541 0.949246 123.973 1.37591 124.293 1.91991C124.613 2.45325 124.773 3.05591 124.773 3.72791C124.773 4.33591 124.613 4.90125 124.293 5.42391C123.973 5.94658 123.547 6.36791 123.013 6.68791C122.48 6.99725 121.888 7.15191 121.237 7.15191H118.197V11.3599H116.469ZM123.125 11.3599L120.277 6.30391L122.053 5.90391L125.221 11.3759L123.125 11.3599ZM118.197 5.48791H121.397C121.707 5.48791 121.984 5.41325 122.229 5.26391C122.475 5.10391 122.667 4.89058 122.805 4.62391C122.944 4.34658 123.013 4.04258 123.013 3.71191C123.013 3.33858 122.923 3.01325 122.741 2.73591C122.571 2.44791 122.325 2.22391 122.005 2.06391C121.696 1.90391 121.344 1.82391 120.949 1.82391H118.197V5.48791Z" fill="#414042"/>
<path d="M108.977 11.456C108.113 11.456 107.34 11.2694 106.657 10.896C105.975 10.512 105.436 9.98938 105.041 9.32804C104.657 8.65604 104.465 7.89871 104.465 7.05604V0.144043H106.193V6.91204C106.193 7.45604 106.321 7.94671 106.577 8.38404C106.833 8.81071 107.169 9.15204 107.585 9.40804C108.012 9.66404 108.476 9.79204 108.977 9.79204C109.511 9.79204 109.991 9.66404 110.417 9.40804C110.855 9.15204 111.201 8.81071 111.457 8.38404C111.713 7.94671 111.841 7.45604 111.841 6.91204V0.144043H113.489V7.05604C113.489 7.89871 113.292 8.65604 112.897 9.32804C112.513 9.98938 111.98 10.512 111.297 10.896C110.615 11.2694 109.841 11.456 108.977 11.456Z" fill="#414042"/>
<path d="M96.7976 11.52C96.0082 11.52 95.2776 11.376 94.6056 11.088C93.9442 10.8 93.3629 10.4 92.8616 9.888C92.3709 9.36533 91.9869 8.75733 91.7096 8.064C91.4429 7.36 91.3096 6.592 91.3096 5.76C91.3096 4.928 91.4429 4.16533 91.7096 3.472C91.9869 2.768 92.3709 2.16 92.8616 1.648C93.3629 1.12533 93.9442 0.72 94.6056 0.432C95.2776 0.144 96.0082 0 96.7976 0C97.5869 0 98.3122 0.144 98.9736 0.432C99.6456 0.72 100.227 1.12533 100.718 1.648C101.219 2.17067 101.603 2.784 101.87 3.488C102.147 4.18133 102.286 4.93867 102.286 5.76C102.286 6.58133 102.147 7.344 101.87 8.048C101.603 8.74133 101.219 9.34933 100.718 9.872C100.227 10.3947 99.6456 10.8 98.9736 11.088C98.3122 11.376 97.5869 11.52 96.7976 11.52ZM96.7976 9.84C97.3416 9.84 97.8376 9.73867 98.2856 9.536C98.7442 9.33333 99.1389 9.05067 99.4696 8.688C99.8002 8.31467 100.056 7.88267 100.238 7.392C100.43 6.89067 100.526 6.34667 100.526 5.76C100.526 5.17333 100.43 4.63467 100.238 4.144C100.056 3.64267 99.8002 3.21067 99.4696 2.848C99.1389 2.47467 98.7442 2.18667 98.2856 1.984C97.8376 1.78133 97.3416 1.68 96.7976 1.68C96.2536 1.68 95.7522 1.78133 95.2936 1.984C94.8456 2.18667 94.4509 2.46933 94.1096 2.832C93.7789 3.19467 93.5229 3.62667 93.3416 4.128C93.1602 4.61867 93.0696 5.16267 93.0696 5.76C93.0696 6.34667 93.1602 6.89067 93.3416 7.392C93.5229 7.89333 93.7789 8.32533 94.1096 8.688C94.4509 9.05067 94.8456 9.33333 95.2936 9.536C95.7522 9.73867 96.2536 9.84 96.7976 9.84Z" fill="#414042"/>
<path d="M85.1177 11.3599V5.77591L85.2297 6.55991L80.7017 0.159912H82.7817L86.2377 5.11991L85.8377 5.07191L88.9577 0.159912H90.9417L86.6057 6.73591L86.8457 5.64791V11.3599H85.1177Z" fill="#414042"/>
<path d="M71.097 11.52C70.489 11.52 69.9237 11.44 69.401 11.28C68.889 11.12 68.4197 10.88 67.993 10.56C67.577 10.2293 67.2037 9.824 66.873 9.344L68.057 7.984C68.5797 8.73067 69.081 9.248 69.561 9.536C70.041 9.824 70.6117 9.968 71.273 9.968C71.6784 9.968 72.0464 9.904 72.377 9.776C72.7077 9.648 72.969 9.472 73.161 9.248C73.353 9.024 73.449 8.768 73.449 8.48C73.449 8.288 73.417 8.10667 73.353 7.936C73.289 7.76533 73.1877 7.61067 73.049 7.472C72.921 7.33333 72.7504 7.20533 72.537 7.088C72.3344 6.97067 72.0944 6.86933 71.817 6.784C71.5397 6.688 71.2197 6.608 70.857 6.544C70.281 6.42667 69.7797 6.272 69.353 6.08C68.9264 5.888 68.569 5.648 68.281 5.36C67.993 5.072 67.7797 4.74667 67.641 4.384C67.5024 4.01067 67.433 3.59467 67.433 3.136C67.433 2.688 67.529 2.272 67.721 1.888C67.9237 1.504 68.1957 1.17333 68.537 0.896C68.889 0.608 69.2997 0.389333 69.769 0.24C70.2384 0.0799999 70.745 0 71.289 0C71.865 0 72.393 0.0746667 72.873 0.224C73.353 0.373333 73.7797 0.597333 74.153 0.896C74.5264 1.184 74.8357 1.54133 75.081 1.968L73.865 3.168C73.6517 2.816 73.4117 2.52267 73.145 2.288C72.8784 2.04267 72.585 1.86133 72.265 1.744C71.945 1.616 71.6037 1.552 71.241 1.552C70.825 1.552 70.4624 1.616 70.153 1.744C69.8437 1.872 69.5984 2.05333 69.417 2.288C69.2464 2.512 69.161 2.77867 69.161 3.088C69.161 3.312 69.2037 3.52 69.289 3.712C69.3744 3.89333 69.5024 4.05867 69.673 4.208C69.8544 4.34667 70.0944 4.47467 70.393 4.592C70.6917 4.69867 71.049 4.79467 71.465 4.88C72.0517 5.008 72.5744 5.17333 73.033 5.376C73.4917 5.568 73.881 5.79733 74.201 6.064C74.521 6.33067 74.761 6.62933 74.921 6.96C75.0917 7.29067 75.177 7.648 75.177 8.032C75.177 8.74667 75.0117 9.36533 74.681 9.888C74.3504 10.4107 73.881 10.816 73.273 11.104C72.665 11.3813 71.9397 11.52 71.097 11.52Z" fill="#414042"/>
<path d="M60.3055 11.456C59.4415 11.456 58.6681 11.2694 57.9855 10.896C57.3028 10.512 56.7641 9.98938 56.3695 9.32804C55.9855 8.65604 55.7935 7.89871 55.7935 7.05604V0.144043H57.5215V6.91204C57.5215 7.45604 57.6495 7.94671 57.9055 8.38404C58.1615 8.81071 58.4975 9.15204 58.9135 9.40804C59.3401 9.66404 59.8041 9.79204 60.3055 9.79204C60.8388 9.79204 61.3188 9.66404 61.7455 9.40804C62.1828 9.15204 62.5295 8.81071 62.7855 8.38404C63.0415 7.94671 63.1695 7.45604 63.1695 6.91204V0.144043H64.8175V7.05604C64.8175 7.89871 64.6201 8.65604 64.2255 9.32804C63.8415 9.98938 63.3081 10.512 62.6255 10.896C61.9428 11.2694 61.1695 11.456 60.3055 11.456Z" fill="#414042"/>
<path d="M37.9157 11.3599L34.3477 0.159912H36.1877L38.3477 7.16791C38.4117 7.33858 38.4703 7.54125 38.5237 7.77591C38.577 7.99991 38.625 8.22925 38.6677 8.46391C38.7103 8.69858 38.7477 8.91725 38.7797 9.11991C38.8223 9.32258 38.8597 9.48791 38.8917 9.61591L38.4277 9.59991C38.5877 9.03458 38.7103 8.59725 38.7957 8.28791C38.8917 7.97858 38.9663 7.74391 39.0197 7.58391C39.073 7.41325 39.121 7.26925 39.1637 7.15191L41.1797 2.09591H42.7317L44.6837 7.15191C44.7903 7.40791 44.881 7.66391 44.9557 7.91991C45.041 8.16525 45.1157 8.41591 45.1797 8.67191C45.2437 8.91725 45.313 9.17858 45.3877 9.45591L44.9717 9.56791C45.025 9.27991 45.0623 9.05591 45.0837 8.89591C45.1157 8.72525 45.1423 8.58658 45.1637 8.47991C45.185 8.37325 45.2063 8.27191 45.2277 8.17591C45.249 8.06925 45.281 7.93591 45.3237 7.77591C45.377 7.61591 45.4463 7.39725 45.5317 7.11991L47.6597 0.159912H49.5157L45.9477 11.3599H44.7477L41.7877 4.35191L41.9317 4.41591L39.0837 11.3599H37.9157Z" fill="#414042"/>
<path d="M27.7819 11.52C26.9926 11.52 26.2619 11.376 25.5899 11.088C24.9286 10.8 24.3473 10.4 23.8459 9.888C23.3553 9.36533 22.9713 8.75733 22.6939 8.064C22.4273 7.36 22.2939 6.592 22.2939 5.76C22.2939 4.928 22.4273 4.16533 22.6939 3.472C22.9713 2.768 23.3553 2.16 23.8459 1.648C24.3473 1.12533 24.9286 0.72 25.5899 0.432C26.2619 0.144 26.9926 0 27.7819 0C28.5713 0 29.2966 0.144 29.9579 0.432C30.6299 0.72 31.2113 1.12533 31.7019 1.648C32.2033 2.17067 32.5873 2.784 32.8539 3.488C33.1313 4.18133 33.2699 4.93867 33.2699 5.76C33.2699 6.58133 33.1313 7.344 32.8539 8.048C32.5873 8.74133 32.2033 9.34933 31.7019 9.872C31.2113 10.3947 30.6299 10.8 29.9579 11.088C29.2966 11.376 28.5713 11.52 27.7819 11.52ZM27.7819 9.84C28.3259 9.84 28.8219 9.73867 29.2699 9.536C29.7286 9.33333 30.1233 9.05067 30.4539 8.688C30.7846 8.31467 31.0406 7.88267 31.2219 7.392C31.4139 6.89067 31.5099 6.34667 31.5099 5.76C31.5099 5.17333 31.4139 4.63467 31.2219 4.144C31.0406 3.64267 30.7846 3.21067 30.4539 2.848C30.1233 2.47467 29.7286 2.18667 29.2699 1.984C28.8219 1.78133 28.3259 1.68 27.7819 1.68C27.2379 1.68 26.7366 1.78133 26.2779 1.984C25.8299 2.18667 25.4353 2.46933 25.0939 2.832C24.7633 3.19467 24.5073 3.62667 24.3259 4.128C24.1446 4.61867 24.0539 5.16267 24.0539 5.76C24.0539 6.34667 24.1446 6.89067 24.3259 7.392C24.5073 7.89333 24.7633 8.32533 25.0939 8.688C25.4353 9.05067 25.8299 9.33333 26.2779 9.536C26.7366 9.73867 27.2379 9.84 27.7819 9.84Z" fill="#414042"/>
<path d="M18.2344 11.3599V0.159912H19.9624V11.3599H18.2344ZM10.9224 11.3599V0.159912H12.6504V11.3599H10.9224ZM11.6744 6.60791V4.94391H19.0024V6.60791H11.6744Z" fill="#414042"/>
<path d="M4.39392 11.52C3.78592 11.52 3.22059 11.44 2.69792 11.28C2.18592 11.12 1.71659 10.88 1.28992 10.56C0.873922 10.2293 0.500589 9.824 0.169922 9.344L1.35392 7.984C1.87659 8.73067 2.37792 9.248 2.85792 9.536C3.33792 9.824 3.90859 9.968 4.56992 9.968C4.97526 9.968 5.34326 9.904 5.67392 9.776C6.00459 9.648 6.26592 9.472 6.45792 9.248C6.64992 9.024 6.74592 8.768 6.74592 8.48C6.74592 8.288 6.71392 8.10667 6.64992 7.936C6.58592 7.76533 6.48459 7.61067 6.34592 7.472C6.21792 7.33333 6.04726 7.20533 5.83392 7.088C5.63126 6.97067 5.39126 6.86933 5.11392 6.784C4.83659 6.688 4.51659 6.608 4.15392 6.544C3.57792 6.42667 3.07659 6.272 2.64992 6.08C2.22326 5.888 1.86592 5.648 1.57792 5.36C1.28992 5.072 1.07659 4.74667 0.937922 4.384C0.799255 4.01067 0.729922 3.59467 0.729922 3.136C0.729922 2.688 0.825922 2.272 1.01792 1.888C1.22059 1.504 1.49259 1.17333 1.83392 0.896C2.18592 0.608 2.59659 0.389333 3.06592 0.24C3.53526 0.0799999 4.04192 0 4.58592 0C5.16192 0 5.68992 0.0746667 6.16992 0.224C6.64992 0.373333 7.07659 0.597333 7.44992 0.896C7.82326 1.184 8.13259 1.54133 8.37792 1.968L7.16192 3.168C6.94859 2.816 6.70859 2.52267 6.44192 2.288C6.17526 2.04267 5.88192 1.86133 5.56192 1.744C5.24192 1.616 4.90059 1.552 4.53792 1.552C4.12192 1.552 3.75926 1.616 3.44992 1.744C3.14059 1.872 2.89526 2.05333 2.71392 2.288C2.54326 2.512 2.45792 2.77867 2.45792 3.088C2.45792 3.312 2.50059 3.52 2.58592 3.712C2.67126 3.89333 2.79926 4.05867 2.96992 4.208C3.15126 4.34667 3.39126 4.47467 3.68992 4.592C3.98859 4.69867 4.34592 4.79467 4.76192 4.88C5.34859 5.008 5.87126 5.17333 6.32992 5.376C6.78859 5.568 7.17792 5.79733 7.49792 6.064C7.81792 6.33067 8.05792 6.62933 8.21792 6.96C8.38859 7.29067 8.47392 7.648 8.47392 8.032C8.47392 8.74667 8.30859 9.36533 7.97792 9.888C7.64726 10.4107 7.17792 10.816 6.56992 11.104C5.96192 11.3813 5.23659 11.52 4.39392 11.52Z" fill="#414042"/>
</svg>
