<svg width="121" height="18" viewBox="0 0 121 18" fill="none" xmlns="http://www.w3.org/2000/svg">
<path d="M120.199 3.98228V5.51637H114.836V3.98228H120.199ZM116.274 1.63H118.186V10.9176C118.186 11.2884 118.241 11.5675 118.352 11.755C118.463 11.9382 118.605 12.064 118.78 12.1321C118.959 12.1961 119.153 12.228 119.362 12.228C119.515 12.228 119.649 12.2174 119.764 12.1961C119.879 12.1747 119.969 12.1577 120.033 12.1449L120.378 13.7238C120.267 13.7664 120.11 13.809 119.905 13.8516C119.701 13.8985 119.445 13.924 119.138 13.9283C118.635 13.9368 118.166 13.8473 117.732 13.6598C117.297 13.4723 116.946 13.1826 116.677 12.7905C116.409 12.3985 116.274 11.9063 116.274 11.314V1.63Z" fill="#212F3F"/>
<path d="M109.283 13.9985C108.316 13.9985 107.483 13.7919 106.784 13.3785C106.089 12.9609 105.552 12.375 105.173 11.6207C104.798 10.8622 104.611 9.97369 104.611 8.95522C104.611 7.94954 104.798 7.06318 105.173 6.29613C105.552 5.52909 106.081 4.93036 106.758 4.49997C107.44 4.06957 108.237 3.85437 109.149 3.85437C109.703 3.85437 110.24 3.94599 110.76 4.12923C111.28 4.31247 111.746 4.60011 112.16 4.99215C112.573 5.3842 112.899 5.89343 113.138 6.51985C113.376 7.14201 113.496 7.8984 113.496 8.78903V9.46659H105.691V8.03477H111.623C111.623 7.53193 111.52 7.08661 111.316 6.69883C111.111 6.30678 110.824 5.99784 110.453 5.77198C110.086 5.54613 109.656 5.43321 109.162 5.43321C108.625 5.43321 108.156 5.56531 107.755 5.82951C107.359 6.08946 107.052 6.43036 106.835 6.85224C106.622 7.26985 106.515 7.72369 106.515 8.21374V9.33235C106.515 9.9886 106.63 10.5468 106.861 11.0071C107.095 11.4673 107.421 11.8189 107.839 12.0618C108.256 12.3004 108.744 12.4197 109.302 12.4197C109.665 12.4197 109.995 12.3686 110.293 12.2663C110.591 12.1598 110.849 12.0021 111.067 11.7933C111.284 11.5845 111.45 11.3267 111.565 11.0199L113.374 11.3458C113.229 11.8785 112.969 12.3451 112.594 12.7457C112.224 13.142 111.757 13.451 111.194 13.6726C110.636 13.8899 109.999 13.9985 109.283 13.9985Z" fill="#212F3F"/>
<path d="M102.481 0.709473V13.8004H100.569V0.709473H102.481Z" fill="#212F3F"/>
<path d="M93.8592 13.9985C92.9387 13.9985 92.1355 13.7876 91.4494 13.3657C90.7633 12.9439 90.2306 12.3537 89.8514 11.5951C89.4721 10.8366 89.2825 9.95025 89.2825 8.93605C89.2825 7.91758 89.4721 7.02695 89.8514 6.26417C90.2306 5.50139 90.7633 4.90906 91.4494 4.48718C92.1355 4.06531 92.9387 3.85437 93.8592 3.85437C94.7796 3.85437 95.5829 4.06531 96.269 4.48718C96.9551 4.90906 97.4877 5.50139 97.867 6.26417C98.2463 7.02695 98.4359 7.91758 98.4359 8.93605C98.4359 9.95025 98.2463 10.8366 97.867 11.5951C97.4877 12.3537 96.9551 12.9439 96.269 13.3657C95.5829 13.7876 94.7796 13.9985 93.8592 13.9985ZM93.8656 12.3941C94.4622 12.3941 94.9565 12.2365 95.3485 11.9211C95.7406 11.6058 96.0303 11.186 96.2178 10.6619C96.4096 10.1378 96.5055 9.56034 96.5055 8.92965C96.5055 8.30323 96.4096 7.72795 96.2178 7.2038C96.0303 6.67539 95.7406 6.25139 95.3485 5.93178C94.9565 5.61218 94.4622 5.45238 93.8656 5.45238C93.2647 5.45238 92.7661 5.61218 92.3698 5.93178C91.9778 6.25139 91.6859 6.67539 91.4941 7.2038C91.3066 7.72795 91.2129 8.30323 91.2129 8.92965C91.2129 9.56034 91.3066 10.1378 91.4941 10.6619C91.6859 11.186 91.9778 11.6058 92.3698 11.9211C92.7661 12.2365 93.2647 12.3941 93.8656 12.3941Z" fill="#212F3F"/>
<path d="M85.2412 13.8005V3.9823H87.1524V13.8005H85.2412ZM86.2064 2.46738C85.874 2.46738 85.5885 2.35659 85.3499 2.135C85.1155 1.90915 84.9983 1.64068 84.9983 1.3296C84.9983 1.01426 85.1155 0.745794 85.3499 0.524203C85.5885 0.298351 85.874 0.185425 86.2064 0.185425C86.5388 0.185425 86.8222 0.298351 87.0565 0.524203C87.2952 0.745794 87.4145 1.01426 87.4145 1.3296C87.4145 1.64068 87.2952 1.90915 87.0565 2.135C86.8222 2.35659 86.5388 2.46738 86.2064 2.46738Z" fill="#212F3F"/>
<path d="M73.9352 0.709473L77.5787 11.3714H77.7257L81.3692 0.709473H83.5041L78.7932 13.8004H76.5112L71.8003 0.709473H73.9352Z" fill="#212F3F"/>
<path d="M58.8868 17.4823C58.6013 17.4823 58.3414 17.4589 58.107 17.412C57.8726 17.3694 57.6979 17.3225 57.5828 17.2714L58.0431 15.7053C58.3925 15.7991 58.7036 15.8395 58.9763 15.8268C59.249 15.814 59.4898 15.7117 59.6986 15.5199C59.9117 15.3282 60.0992 15.015 60.2611 14.5803L60.4976 13.9283L56.9053 3.9823H58.9507L61.4372 11.6016H61.5395L64.026 3.9823H66.0779L62.0317 15.1109C61.8442 15.6222 61.6056 16.0547 61.3158 16.4084C61.026 16.7664 60.6808 17.0349 60.2803 17.2138C59.8797 17.3928 59.4152 17.4823 58.8868 17.4823Z" fill="#212F3F"/>
<path d="M55.5643 3.98228V5.51637H50.2014V3.98228H55.5643ZM51.6396 1.63H53.5508V10.9176C53.5508 11.2884 53.6062 11.5675 53.717 11.755C53.8278 11.9382 53.9706 12.064 54.1453 12.1321C54.3243 12.1961 54.5182 12.228 54.727 12.228C54.8804 12.228 55.0146 12.2174 55.1297 12.1961C55.2447 12.1747 55.3342 12.1577 55.3982 12.1449L55.7433 13.7238C55.6325 13.7664 55.4749 13.809 55.2703 13.8516C55.0658 13.8985 54.8101 13.924 54.5033 13.9283C54.0004 13.9368 53.5317 13.8473 53.097 13.6598C52.6624 13.4723 52.3108 13.1826 52.0423 12.7905C51.7739 12.3985 51.6396 11.9063 51.6396 11.314V1.63Z" fill="#212F3F"/>
<path d="M39.2247 17.6868C38.4448 17.6868 37.7737 17.5845 37.2112 17.3799C36.6529 17.1754 36.197 16.9048 35.8433 16.5681C35.4896 16.2315 35.2254 15.8629 35.0507 15.4623L36.6934 14.7848C36.8085 14.9723 36.9619 15.1704 37.1537 15.3792C37.3497 15.5923 37.6139 15.7734 37.9463 15.9226C38.2829 16.0717 38.7154 16.1463 39.2439 16.1463C39.9683 16.1463 40.567 15.9694 41.04 15.6157C41.513 15.2663 41.7495 14.7081 41.7495 13.941V12.0106H41.6281C41.513 12.2194 41.3468 12.4517 41.1295 12.7074C40.9164 12.963 40.6224 13.1846 40.2474 13.3721C39.8724 13.5596 39.3845 13.6534 38.7836 13.6534C38.0081 13.6534 37.3092 13.4723 36.687 13.1101C36.0691 12.7436 35.5791 12.2045 35.2169 11.4929C34.8589 10.777 34.6799 9.89698 34.6799 8.85295C34.6799 7.80892 34.8568 6.91403 35.2105 6.16829C35.5684 5.42255 36.0585 4.85153 36.6806 4.45522C37.3028 4.05465 38.0081 3.85437 38.7964 3.85437C39.4058 3.85437 39.898 3.95664 40.273 4.16119C40.648 4.36147 40.9399 4.59585 41.1487 4.86431C41.3617 5.13278 41.5258 5.36928 41.6409 5.57383H41.7815V3.98221H43.6544V14.0177C43.6544 14.8615 43.4583 15.5539 43.0663 16.0951C42.6743 16.6363 42.1437 17.0369 41.4747 17.2968C40.8099 17.5568 40.0599 17.6868 39.2247 17.6868ZM39.2055 12.0681C39.7552 12.0681 40.2197 11.9403 40.599 11.6846C40.9825 11.4247 41.2723 11.0539 41.4683 10.5724C41.6686 10.0866 41.7687 9.50494 41.7687 8.82738C41.7687 8.16687 41.6707 7.58519 41.4747 7.08235C41.2787 6.57951 40.991 6.18747 40.6118 5.90622C40.2325 5.6207 39.7637 5.47795 39.2055 5.47795C38.6302 5.47795 38.1508 5.6271 37.7673 5.92539C37.3838 6.21943 37.094 6.61999 36.898 7.1271C36.7062 7.6342 36.6103 8.20096 36.6103 8.82738C36.6103 9.47085 36.7083 10.0355 36.9044 10.5213C37.1004 11.0071 37.3902 11.3863 37.7737 11.6591C38.1615 11.9318 38.6387 12.0681 39.2055 12.0681Z" fill="#212F3F"/>
<path d="M26.2618 7.97085V13.8004H24.3506V3.98221H26.1851V5.58022H26.3066C26.5324 5.06034 26.8861 4.64272 27.3676 4.32738C27.8534 4.01204 28.4649 3.85437 29.2021 3.85437C29.8712 3.85437 30.4571 3.995 30.96 4.27625C31.4628 4.55323 31.8527 4.96659 32.1297 5.5163C32.4067 6.06602 32.5452 6.74571 32.5452 7.55536V13.8004H30.634V7.78548C30.634 7.07383 30.4486 6.51772 30.0779 6.11715C29.7071 5.71232 29.1979 5.50991 28.5502 5.50991C28.107 5.50991 27.7128 5.60579 27.3676 5.79755C27.0267 5.98931 26.7561 6.27056 26.5558 6.6413C26.3598 7.00778 26.2618 7.45096 26.2618 7.97085Z" fill="#212F3F"/>
<path d="M17.6404 13.9986C16.72 13.9986 15.9167 13.7876 15.2306 13.3658C14.5445 12.9439 14.0119 12.3537 13.6326 11.5952C13.2534 10.8366 13.0637 9.95028 13.0637 8.93608C13.0637 7.91761 13.2534 7.02699 13.6326 6.2642C14.0119 5.50142 14.5445 4.90909 15.2306 4.48722C15.9167 4.06534 16.72 3.8544 17.6404 3.8544C18.5609 3.8544 19.3641 4.06534 20.0502 4.48722C20.7363 4.90909 21.269 5.50142 21.6482 6.2642C22.0275 7.02699 22.2171 7.91761 22.2171 8.93608C22.2171 9.95028 22.0275 10.8366 21.6482 11.5952C21.269 12.3537 20.7363 12.9439 20.0502 13.3658C19.3641 13.7876 18.5609 13.9986 17.6404 13.9986ZM17.6468 12.3942C18.2434 12.3942 18.7377 12.2365 19.1298 11.9212C19.5218 11.6058 19.8116 11.1861 19.9991 10.6619C20.1909 10.1378 20.2867 9.56037 20.2867 8.92969C20.2867 8.30327 20.1909 7.72798 19.9991 7.20384C19.8116 6.67543 19.5218 6.25142 19.1298 5.93182C18.7377 5.61222 18.2434 5.45241 17.6468 5.45241C17.046 5.45241 16.5474 5.61222 16.1511 5.93182C15.759 6.25142 15.4671 6.67543 15.2754 7.20384C15.0879 7.72798 14.9941 8.30327 14.9941 8.92969C14.9941 9.56037 15.0879 10.1378 15.2754 10.6619C15.4671 11.1861 15.759 11.6058 16.1511 11.9212C16.5474 12.2365 17.046 12.3942 17.6468 12.3942ZM18.9508 2.80611L17.6404 1.09304L16.3237 2.80611H14.5978V2.71023L16.8414 0H18.433L20.683 2.71023V2.80611H18.9508Z" fill="#212F3F"/>
<path d="M11.2947 4.9666H9.30043C9.22372 4.54046 9.08097 4.16546 8.87216 3.8416C8.66335 3.51773 8.40767 3.24288 8.10511 3.01702C7.80256 2.79117 7.46378 2.62072 7.08878 2.50566C6.71804 2.3906 6.32386 2.33307 5.90625 2.33307C5.15199 2.33307 4.47656 2.52271 3.87997 2.90197C3.28764 3.28123 2.81889 3.83734 2.47372 4.57029C2.13281 5.30325 1.96236 6.19813 1.96236 7.25495C1.96236 8.32029 2.13281 9.21944 2.47372 9.95239C2.81889 10.6853 3.28977 11.2393 3.88636 11.6143C4.48295 11.9893 5.15412 12.1768 5.89986 12.1768C6.31321 12.1768 6.70526 12.1214 7.07599 12.0106C7.45099 11.8956 7.78977 11.7273 8.09233 11.5057C8.39489 11.2841 8.65057 11.0135 8.85938 10.6939C9.07244 10.37 9.21946 9.99927 9.30043 9.58165L11.2947 9.58805C11.1882 10.2315 10.9815 10.8238 10.6747 11.365C10.3722 11.902 9.98224 12.3665 9.50497 12.7585C9.03196 13.1463 8.49077 13.4467 7.88139 13.6598C7.27202 13.8728 6.60724 13.9794 5.88707 13.9794C4.75355 13.9794 3.74361 13.7109 2.85724 13.174C1.97088 12.6328 1.27202 11.8594 0.760653 10.8537C0.253551 9.84799 0 8.64842 0 7.25495C0 5.85722 0.255682 4.65765 0.767045 3.65623C1.27841 2.65055 1.97727 1.87924 2.86364 1.34231C3.75 0.801114 4.75781 0.530518 5.88707 0.530518C6.58168 0.530518 7.2294 0.63066 7.83026 0.830945C8.43537 1.02697 8.97869 1.31674 9.46023 1.70026C9.94176 2.07952 10.3402 2.54401 10.6555 3.09373C10.9709 3.63918 11.1839 4.26347 11.2947 4.9666Z" fill="#212F3F"/>
</svg>
