<svg width="228" height="14" viewBox="0 0 228 14" fill="none" xmlns="http://www.w3.org/2000/svg">
<path d="M225.439 10.9474V3.31104H226.926V10.9474H225.439ZM226.19 2.13277C225.931 2.13277 225.709 2.04659 225.524 1.87425C225.341 1.69858 225.25 1.48978 225.25 1.24782C225.25 1.00256 225.341 0.793753 225.524 0.621404C225.709 0.445741 225.931 0.35791 226.19 0.35791C226.448 0.35791 226.669 0.445741 226.851 0.621404C227.037 0.793753 227.13 1.00256 227.13 1.24782C227.13 1.48978 227.037 1.69858 226.851 1.87425C226.669 2.04659 226.448 2.13277 226.19 2.13277Z" fill="#212F3F"/>
<path d="M220.22 11.1015C219.504 11.1015 218.88 10.9375 218.346 10.6093C217.812 10.2812 217.398 9.82217 217.103 9.23221C216.808 8.64225 216.661 7.95286 216.661 7.16403C216.661 6.37189 216.808 5.67918 217.103 5.08591C217.398 4.49263 217.812 4.03193 218.346 3.7038C218.88 3.37568 219.504 3.21162 220.22 3.21162C220.936 3.21162 221.561 3.37568 222.095 3.7038C222.628 4.03193 223.043 4.49263 223.337 5.08591C223.632 5.67918 223.78 6.37189 223.78 7.16403C223.78 7.95286 223.632 8.64225 223.337 9.23221C223.043 9.82217 222.628 10.2812 222.095 10.6093C221.561 10.9375 220.936 11.1015 220.22 11.1015ZM220.225 9.85366C220.689 9.85366 221.074 9.73103 221.379 9.48576C221.684 9.2405 221.909 8.91403 222.055 8.50636C222.204 8.09869 222.279 7.64959 222.279 7.15906C222.279 6.67184 222.204 6.2244 222.055 5.81673C221.909 5.40574 221.684 5.07596 221.379 4.82738C221.074 4.5788 220.689 4.45451 220.225 4.45451C219.758 4.45451 219.37 4.5788 219.062 4.82738C218.757 5.07596 218.53 5.40574 218.381 5.81673C218.235 6.2244 218.162 6.67184 218.162 7.15906C218.162 7.64959 218.235 8.09869 218.381 8.50636C218.53 8.91403 218.757 9.2405 219.062 9.48576C219.37 9.73103 219.758 9.85366 220.225 9.85366ZM221.239 2.39627L220.22 1.06389L219.196 2.39627H217.854V2.3217L219.599 0.213745H220.837L222.587 2.3217V2.39627H221.239ZM220.22 13.5824C219.965 13.5824 219.745 13.4962 219.559 13.3238C219.373 13.1515 219.281 12.9427 219.281 12.6974C219.281 12.4521 219.373 12.2433 219.559 12.071C219.745 11.8986 219.965 11.8125 220.22 11.8125C220.479 11.8125 220.699 11.8986 220.882 12.071C221.067 12.2433 221.16 12.4521 221.16 12.6974C221.16 12.9427 221.067 13.1515 220.882 13.3238C220.699 13.4962 220.479 13.5824 220.22 13.5824Z" fill="#212F3F"/>
<path d="M214.882 0.765625V10.9474H213.47L208.295 3.48011H208.2V10.9474H206.664V0.765625H208.086L213.266 8.2429H213.361V0.765625H214.882Z" fill="#212F3F"/>
<path d="M197.091 11.1165C196.607 11.1165 196.17 11.027 195.779 10.848C195.388 10.6657 195.078 10.4022 194.849 10.0575C194.624 9.71283 194.511 9.29025 194.511 8.78977C194.511 8.3589 194.594 8.00426 194.76 7.72585C194.925 7.44744 195.149 7.22704 195.431 7.06463C195.712 6.90223 196.027 6.77959 196.375 6.69673C196.723 6.61387 197.078 6.5509 197.439 6.50781C197.897 6.45478 198.268 6.4117 198.553 6.37855C198.838 6.34209 199.045 6.28409 199.174 6.20455C199.304 6.125 199.368 5.99574 199.368 5.81676V5.78196C199.368 5.34777 199.246 5.01136 199 4.77273C198.758 4.53409 198.397 4.41477 197.917 4.41477C197.416 4.41477 197.022 4.5258 196.733 4.74787C196.448 4.96662 196.251 5.21023 196.142 5.47869L194.745 5.16051C194.91 4.6965 195.152 4.32197 195.47 4.03693C195.792 3.74858 196.162 3.53977 196.579 3.41051C196.997 3.27794 197.436 3.21165 197.897 3.21165C198.202 3.21165 198.525 3.24811 198.866 3.32102C199.211 3.39063 199.532 3.51989 199.831 3.70881C200.132 3.89773 200.379 4.16785 200.571 4.51918C200.764 4.86719 200.86 5.3196 200.86 5.87642V10.9474H199.408V9.90341H199.348C199.252 10.0956 199.108 10.2846 198.916 10.4702C198.724 10.6558 198.477 10.8099 198.175 10.9325C197.873 11.0552 197.512 11.1165 197.091 11.1165ZM197.414 9.9233C197.825 9.9233 198.177 9.84209 198.468 9.67969C198.763 9.51728 198.987 9.30516 199.14 9.04332C199.295 8.77817 199.373 8.49479 199.373 8.19318V7.20881C199.32 7.26184 199.217 7.31155 199.065 7.35795C198.916 7.40104 198.745 7.43916 198.553 7.4723C198.361 7.50213 198.173 7.5303 197.991 7.55682C197.809 7.58002 197.656 7.59991 197.534 7.61648C197.245 7.65294 196.982 7.71425 196.743 7.80043C196.508 7.8866 196.319 8.01089 196.176 8.1733C196.037 8.33239 195.968 8.54451 195.968 8.80966C195.968 9.17756 196.104 9.45597 196.375 9.64489C196.647 9.83049 196.993 9.9233 197.414 9.9233ZM197.395 2.2919L195.858 0H197.424L198.583 2.2919H197.395Z" fill="#212F3F"/>
<path d="M184.598 10.9474V0.765625H186.134V5.19034H191.21V0.765625H192.751V10.9474H191.21V6.50781H186.134V10.9474H184.598Z" fill="#212F3F"/>
<path d="M175.025 11.1165C174.541 11.1165 174.103 11.027 173.712 10.848C173.321 10.6657 173.011 10.4022 172.783 10.0576C172.557 9.71285 172.445 9.29027 172.445 8.78979C172.445 8.35892 172.527 8.00428 172.693 7.72587C172.859 7.44747 173.083 7.22706 173.364 7.06465C173.646 6.90225 173.961 6.77961 174.309 6.69675C174.657 6.61389 175.012 6.55092 175.373 6.50783C175.83 6.4548 176.201 6.41172 176.486 6.37857C176.772 6.34211 176.979 6.28411 177.108 6.20457C177.237 6.12502 177.302 5.99576 177.302 5.81678V5.78198C177.302 5.3478 177.179 5.01139 176.934 4.77275C176.692 4.53411 176.331 4.41479 175.85 4.41479C175.35 4.41479 174.955 4.52583 174.667 4.74789C174.382 4.96664 174.185 5.21025 174.075 5.47872L172.678 5.16053C172.844 4.69652 173.086 4.32199 173.404 4.03695C173.726 3.7486 174.095 3.53979 174.513 3.41053C174.93 3.27796 175.37 3.21167 175.83 3.21167C176.135 3.21167 176.458 3.24813 176.8 3.32104C177.144 3.39065 177.466 3.51991 177.764 3.70883C178.066 3.89775 178.313 4.16787 178.505 4.5192C178.697 4.86721 178.793 5.31962 178.793 5.87644V10.9475H177.342V9.90343H177.282C177.186 10.0957 177.042 10.2846 176.849 10.4702C176.657 10.6558 176.41 10.8099 176.109 10.9326C175.807 11.0552 175.446 11.1165 175.025 11.1165ZM175.348 9.92332C175.759 9.92332 176.11 9.84212 176.402 9.67971C176.697 9.5173 176.921 9.30518 177.073 9.04335C177.229 8.77819 177.307 8.49481 177.307 8.1932V7.20883C177.254 7.26186 177.151 7.31157 176.999 7.35798C176.849 7.40106 176.679 7.43918 176.486 7.47232C176.294 7.50215 176.107 7.53032 175.925 7.55684C175.742 7.58004 175.59 7.59993 175.467 7.6165C175.179 7.65296 174.915 7.71427 174.677 7.80045C174.441 7.88662 174.253 8.01091 174.11 8.17332C173.971 8.33241 173.901 8.54453 173.901 8.80968C173.901 9.17758 174.037 9.45599 174.309 9.64491C174.581 9.83051 174.927 9.92332 175.348 9.92332Z" fill="#212F3F"/>
<path d="M167.584 11.1016C166.868 11.1016 166.243 10.9375 165.709 10.6094C165.176 10.2813 164.761 9.82223 164.466 9.23227C164.171 8.6423 164.024 7.95291 164.024 7.16408C164.024 6.37194 164.171 5.67924 164.466 5.08596C164.761 4.49268 165.176 4.03198 165.709 3.70386C166.243 3.37573 166.868 3.21167 167.584 3.21167C168.299 3.21167 168.924 3.37573 169.458 3.70386C169.991 4.03198 170.406 4.49268 170.701 5.08596C170.996 5.67924 171.143 6.37194 171.143 7.16408C171.143 7.95291 170.996 8.6423 170.701 9.23227C170.406 9.82223 169.991 10.2813 169.458 10.6094C168.924 10.9375 168.299 11.1016 167.584 11.1016ZM167.589 9.85372C168.053 9.85372 168.437 9.73108 168.742 9.48582C169.047 9.24055 169.272 8.91408 169.418 8.50641C169.567 8.09874 169.642 7.64964 169.642 7.15911C169.642 6.6719 169.567 6.22445 169.418 5.81678C169.272 5.4058 169.047 5.07602 168.742 4.82744C168.437 4.57886 168.053 4.45457 167.589 4.45457C167.121 4.45457 166.733 4.57886 166.425 4.82744C166.12 5.07602 165.893 5.4058 165.744 5.81678C165.598 6.22445 165.525 6.6719 165.525 7.15911C165.525 7.64964 165.598 8.09874 165.744 8.50641C165.893 8.91408 166.12 9.24055 166.425 9.48582C166.733 9.73108 167.121 9.85372 167.589 9.85372Z" fill="#212F3F"/>
<path d="M157.432 6.41335V10.9474H155.945V0.765625H157.412V4.55398H157.506C157.685 4.14299 157.959 3.81652 158.326 3.57457C158.694 3.33262 159.175 3.21165 159.768 3.21165C160.292 3.21165 160.749 3.31937 161.14 3.5348C161.535 3.75024 161.84 4.07173 162.055 4.49929C162.274 4.92353 162.383 5.45384 162.383 6.0902V10.9474H160.897V6.26918C160.897 5.70904 160.753 5.27486 160.464 4.96662C160.176 4.65507 159.775 4.49929 159.261 4.49929C158.91 4.49929 158.595 4.57386 158.317 4.72301C158.041 4.87216 157.824 5.09091 157.665 5.37926C157.509 5.6643 157.432 6.009 157.432 6.41335Z" fill="#212F3F"/>
<path d="M146.768 10.9474V0.765625H148.304V5.62784H148.428L152.699 0.765625H154.633L150.526 5.34943L154.648 10.9474H152.798L149.507 6.39844L148.304 7.78054V10.9474H146.768Z" fill="#212F3F"/>
<path d="M136.008 6.41335V10.9474H134.521V0.765625H135.988V4.55398H136.082C136.261 4.14299 136.535 3.81652 136.903 3.57457C137.271 3.33262 137.751 3.21165 138.344 3.21165C138.868 3.21165 139.325 3.31937 139.717 3.5348C140.111 3.75024 140.416 4.07173 140.631 4.49929C140.85 4.92353 140.959 5.45384 140.959 6.0902V10.9474H139.473V6.26918C139.473 5.70904 139.329 5.27486 139.04 4.96662C138.752 4.65507 138.351 4.49929 137.837 4.49929C137.486 4.49929 137.171 4.57386 136.893 4.72301C136.618 4.87216 136.401 5.09091 136.241 5.37926C136.086 5.6643 136.008 6.009 136.008 6.41335Z" fill="#212F3F"/>
<path d="M129.795 11.1016C129.055 11.1016 128.419 10.9342 127.885 10.5995C127.355 10.2614 126.947 9.79571 126.662 9.20244C126.377 8.60916 126.235 7.92971 126.235 7.16408C126.235 6.38852 126.381 5.70409 126.672 5.11082C126.964 4.51423 127.375 4.04855 127.905 3.7138C128.436 3.37905 129.06 3.21167 129.78 3.21167C130.36 3.21167 130.877 3.31939 131.331 3.53482C131.785 3.74694 132.151 4.04524 132.429 4.42971C132.711 4.81418 132.879 5.26328 132.932 5.77701H131.485C131.405 5.41906 131.223 5.11082 130.938 4.85229C130.656 4.59377 130.278 4.46451 129.804 4.46451C129.39 4.46451 129.027 4.57389 128.716 4.79264C128.407 5.00807 128.167 5.31631 127.995 5.71735C127.822 6.11508 127.736 6.58572 127.736 7.12928C127.736 7.6861 127.821 8.16669 127.99 8.57104C128.159 8.9754 128.398 9.28861 128.706 9.51068C129.017 9.73274 129.384 9.84377 129.804 9.84377C130.086 9.84377 130.341 9.7924 130.57 9.68965C130.802 9.58359 130.996 9.43279 131.152 9.23724C131.311 9.04169 131.422 8.80637 131.485 8.53127H132.932C132.879 9.02512 132.718 9.46593 132.449 9.85372C132.181 10.2415 131.821 10.5464 131.371 10.7685C130.923 10.9906 130.398 11.1016 129.795 11.1016Z" fill="#212F3F"/>
<path d="M120.83 11.1165C120.346 11.1165 119.908 11.027 119.517 10.848C119.126 10.6657 118.816 10.4022 118.587 10.0575C118.362 9.71283 118.249 9.29025 118.249 8.78977C118.249 8.3589 118.332 8.00426 118.498 7.72585C118.664 7.44744 118.887 7.22704 119.169 7.06463C119.451 6.90223 119.766 6.77959 120.114 6.69673C120.462 6.61387 120.816 6.5509 121.178 6.50781C121.635 6.45478 122.006 6.4117 122.291 6.37855C122.576 6.34209 122.783 6.28409 122.913 6.20455C123.042 6.125 123.107 5.99574 123.107 5.81676V5.78196C123.107 5.34777 122.984 5.01136 122.739 4.77273C122.497 4.53409 122.135 4.41477 121.655 4.41477C121.154 4.41477 120.76 4.5258 120.472 4.74787C120.187 4.96662 119.989 5.21023 119.88 5.47869L118.483 5.16051C118.649 4.6965 118.891 4.32197 119.209 4.03693C119.53 3.74858 119.9 3.53977 120.317 3.41051C120.735 3.27794 121.174 3.21165 121.635 3.21165C121.94 3.21165 122.263 3.24811 122.604 3.32102C122.949 3.39063 123.271 3.51989 123.569 3.70881C123.87 3.89773 124.117 4.16785 124.31 4.51918C124.502 4.86719 124.598 5.3196 124.598 5.87642V10.9474H123.146V9.90341H123.087C122.991 10.0956 122.846 10.2846 122.654 10.4702C122.462 10.6558 122.215 10.8099 121.913 10.9325C121.612 11.0552 121.25 11.1165 120.83 11.1165ZM121.153 9.9233C121.564 9.9233 121.915 9.84209 122.207 9.67969C122.502 9.51728 122.725 9.30516 122.878 9.04332C123.034 8.77817 123.111 8.49479 123.111 8.19318V7.20881C123.058 7.26184 122.956 7.31155 122.803 7.35795C122.654 7.40104 122.483 7.43916 122.291 7.4723C122.099 7.50213 121.912 7.5303 121.729 7.55682C121.547 7.58002 121.395 7.59991 121.272 7.61648C120.984 7.65294 120.72 7.71425 120.482 7.80043C120.246 7.8866 120.057 8.01089 119.915 8.1733C119.776 8.33239 119.706 8.54451 119.706 8.80966C119.706 9.17756 119.842 9.45597 120.114 9.64489C120.385 9.83049 120.732 9.9233 121.153 9.9233ZM121.098 2.2919L122.261 0H123.827L122.286 2.2919H121.098Z" fill="#212F3F"/>
<path d="M109.566 10.9474V0.765625H113.295C114.018 0.765625 114.616 0.884943 115.09 1.12358C115.564 1.3589 115.918 1.67874 116.154 2.0831C116.389 2.48414 116.507 2.93655 116.507 3.44034C116.507 3.86458 116.429 4.22254 116.273 4.5142C116.117 4.80256 115.908 5.03456 115.647 5.21023C115.388 5.38258 115.103 5.50852 114.792 5.58807V5.6875C115.13 5.70407 115.459 5.81345 115.781 6.01563C116.106 6.21449 116.374 6.49787 116.586 6.86577C116.798 7.23366 116.904 7.68111 116.904 8.2081C116.904 8.72846 116.782 9.19579 116.537 9.61009C116.295 10.0211 115.92 10.3475 115.413 10.5895C114.906 10.8281 114.258 10.9474 113.469 10.9474H109.566ZM111.103 9.62997H113.32C114.056 9.62997 114.583 9.48745 114.901 9.20242C115.219 8.91738 115.378 8.56108 115.378 8.13352C115.378 7.81203 115.297 7.51705 115.135 7.24858C114.972 6.98011 114.74 6.76634 114.439 6.60724C114.14 6.44815 113.786 6.36861 113.375 6.36861H111.103V9.62997ZM111.103 5.17045H113.161C113.506 5.17045 113.815 5.10417 114.091 4.97159C114.369 4.83902 114.589 4.65341 114.752 4.41477C114.917 4.17282 115 3.88778 115 3.55966C115 3.13873 114.853 2.78575 114.558 2.50071C114.263 2.21567 113.81 2.07315 113.201 2.07315H111.103V5.17045Z" fill="#212F3F"/>
<path d="M101.015 11.1016C100.276 11.1016 99.6398 10.9342 99.1061 10.5995C98.5758 10.2614 98.1682 9.79571 97.8831 9.20244C97.5981 8.60916 97.4556 7.92971 97.4556 7.16408C97.4556 6.38852 97.6014 5.70409 97.8931 5.11082C98.1847 4.51423 98.5957 4.04855 99.126 3.7138C99.6563 3.37905 100.281 3.21167 101 3.21167C101.58 3.21167 102.097 3.31939 102.551 3.53482C103.006 3.74694 103.372 4.04524 103.65 4.42971C103.932 4.81418 104.099 5.26328 104.152 5.77701H102.706C102.626 5.41906 102.444 5.11082 102.159 4.85229C101.877 4.59377 101.499 4.46451 101.025 4.46451C100.611 4.46451 100.248 4.57389 99.9364 4.79264C99.6282 5.00807 99.3879 5.31631 99.2155 5.71735C99.0432 6.11508 98.957 6.58572 98.957 7.12928C98.957 7.6861 99.0415 8.16669 99.2105 8.57104C99.3796 8.9754 99.6182 9.28861 99.9264 9.51068C100.238 9.73274 100.604 9.84377 101.025 9.84377C101.307 9.84377 101.562 9.7924 101.791 9.68965C102.023 9.58359 102.217 9.43279 102.372 9.23724C102.532 9.04169 102.643 8.80637 102.706 8.53127H104.152C104.099 9.02512 103.939 9.46593 103.67 9.85372C103.402 10.2415 103.042 10.5464 102.591 10.7685C102.144 10.9906 101.618 11.1016 101.015 11.1016Z" fill="#212F3F"/>
<path d="M92.5797 11.1016C91.8638 11.1016 91.239 10.9375 90.7054 10.6094C90.1718 10.2813 89.7575 9.82223 89.4625 9.23227C89.1675 8.6423 89.02 7.95291 89.02 7.16408C89.02 6.37194 89.1675 5.67924 89.4625 5.08596C89.7575 4.49268 90.1718 4.03198 90.7054 3.70386C91.239 3.37573 91.8638 3.21167 92.5797 3.21167C93.2956 3.21167 93.9204 3.37573 94.454 3.70386C94.9876 4.03198 95.4019 4.49268 95.6969 5.08596C95.9918 5.67924 96.1393 6.37194 96.1393 7.16408C96.1393 7.95291 95.9918 8.6423 95.6969 9.23227C95.4019 9.82223 94.9876 10.2813 94.454 10.6094C93.9204 10.9375 93.2956 11.1016 92.5797 11.1016ZM92.5846 9.85372C93.0487 9.85372 93.4331 9.73108 93.7381 9.48582C94.043 9.24055 94.2684 8.91408 94.4142 8.50641C94.5633 8.09874 94.6379 7.64964 94.6379 7.15911C94.6379 6.6719 94.5633 6.22445 94.4142 5.81678C94.2684 5.4058 94.043 5.07602 93.7381 4.82744C93.4331 4.57886 93.0487 4.45457 92.5846 4.45457C92.1173 4.45457 91.7295 4.57886 91.4213 4.82744C91.1164 5.07602 90.8893 5.4058 90.7402 5.81678C90.5944 6.22445 90.5214 6.6719 90.5214 7.15911C90.5214 7.64964 90.5944 8.09874 90.7402 8.50641C90.8893 8.91408 91.1164 9.24055 91.4213 9.48582C91.7295 9.73108 92.1173 9.85372 92.5846 9.85372ZM92.5797 13.5824C92.3245 13.5824 92.1041 13.4962 91.9185 13.3239C91.7329 13.1515 91.64 12.9427 91.64 12.6975C91.64 12.4522 91.7329 12.2434 91.9185 12.071C92.1041 11.8987 92.3245 11.8125 92.5797 11.8125C92.8382 11.8125 93.0586 11.8987 93.2409 12.071C93.4265 12.2434 93.5193 12.4522 93.5193 12.6975C93.5193 12.9427 93.4265 13.1515 93.2409 13.3239C93.0586 13.4962 92.8382 13.5824 92.5797 13.5824Z" fill="#212F3F"/>
<path d="M82.4277 6.41335V10.9474H80.9412V0.765625H82.4078V4.55398H82.5022C82.6812 4.14299 82.9547 3.81652 83.3226 3.57457C83.6905 3.33262 84.171 3.21165 84.7643 3.21165C85.288 3.21165 85.7454 3.31937 86.1365 3.5348C86.5309 3.75024 86.8358 4.07173 87.0512 4.49929C87.27 4.92353 87.3794 5.45384 87.3794 6.0902V10.9474H85.8929V6.26918C85.8929 5.70904 85.7487 5.27486 85.4603 4.96662C85.172 4.65507 84.7709 4.49929 84.2572 4.49929C83.9059 4.49929 83.591 4.57386 83.3126 4.72301C83.0375 4.87216 82.8204 5.09091 82.6613 5.37926C82.5056 5.6643 82.4277 6.009 82.4277 6.41335Z" fill="#212F3F"/>
<path d="M73.7497 10.9474V3.31104H75.2362V10.9474H73.7497ZM74.5004 2.13277C74.2419 2.13277 74.0198 2.04659 73.8342 1.87425C73.6519 1.69858 73.5608 1.48978 73.5608 1.24782C73.5608 1.00256 73.6519 0.793753 73.8342 0.621404C74.0198 0.445741 74.2419 0.35791 74.5004 0.35791C74.7589 0.35791 74.9794 0.445741 75.1616 0.621404C75.3472 0.793753 75.44 1.00256 75.44 1.24782C75.44 1.48978 75.3472 1.69858 75.1616 1.87425C74.9794 2.04659 74.7589 2.13277 74.5004 2.13277Z" fill="#212F3F"/>
<path d="M68.0014 11.1165C67.5175 11.1165 67.08 11.027 66.6889 10.848C66.2978 10.6657 65.9879 10.4022 65.7592 10.0576C65.5338 9.71285 65.4211 9.29027 65.4211 8.78979C65.4211 8.35892 65.504 8.00428 65.6697 7.72587C65.8354 7.44747 66.0592 7.22706 66.3409 7.06465C66.6226 6.90225 66.9375 6.77961 67.2855 6.69675C67.6335 6.61389 67.9881 6.55092 68.3494 6.50783C68.8068 6.4548 69.178 6.41172 69.463 6.37857C69.7481 6.34211 69.9552 6.28411 70.0845 6.20457C70.2138 6.12502 70.2784 5.99576 70.2784 5.81678V5.78198C70.2784 5.3478 70.1558 5.01139 69.9105 4.77275C69.6685 4.53411 69.3073 4.41479 68.8267 4.41479C68.3262 4.41479 67.9318 4.52583 67.6434 4.74789C67.3584 4.96664 67.1612 5.21025 67.0518 5.47872L65.6548 5.16053C65.8205 4.69652 66.0625 4.32199 66.3807 4.03695C66.7022 3.7486 67.0717 3.53979 67.4893 3.41053C67.9069 3.27796 68.3461 3.21167 68.8068 3.21167C69.1117 3.21167 69.4349 3.24813 69.7763 3.32104C70.121 3.39065 70.4425 3.51991 70.7407 3.70883C71.0424 3.89775 71.2893 4.16787 71.4815 4.5192C71.6737 4.86721 71.7699 5.31962 71.7699 5.87644V10.9475H70.3182V9.90343H70.2585C70.1624 10.0957 70.0182 10.2846 69.826 10.4702C69.6337 10.6558 69.3868 10.8099 69.0852 10.9326C68.7836 11.0552 68.4223 11.1165 68.0014 11.1165ZM68.3246 9.92332C68.7355 9.92332 69.0869 9.84212 69.3785 9.67971C69.6735 9.5173 69.8972 9.30518 70.0497 9.04335C70.2055 8.77819 70.2834 8.49481 70.2834 8.1932V7.20883C70.2303 7.26186 70.1276 7.31157 69.9751 7.35798C69.826 7.40106 69.6553 7.43918 69.463 7.47232C69.2708 7.50215 69.0836 7.53032 68.9013 7.55684C68.719 7.58004 68.5665 7.59993 68.4439 7.6165C68.1555 7.65296 67.892 7.71427 67.6534 7.80045C67.4181 7.88662 67.2291 8.01091 67.0866 8.17332C66.9474 8.33241 66.8778 8.54453 66.8778 8.80968C66.8778 9.17758 67.0137 9.45599 67.2855 9.64491C67.5573 9.83051 67.9036 9.92332 68.3246 9.92332ZM68.8167 13.5824C68.5615 13.5824 68.3411 13.4962 68.1555 13.3239C67.9699 13.1515 67.8771 12.9427 67.8771 12.6975C67.8771 12.4522 67.9699 12.2434 68.1555 12.071C68.3411 11.8987 68.5615 11.8125 68.8167 11.8125C69.0753 11.8125 69.2957 11.8987 69.478 12.071C69.6636 12.2434 69.7564 12.4522 69.7564 12.6975C69.7564 12.9427 69.6636 13.1515 69.478 13.3239C69.2957 13.4962 69.0753 13.5824 68.8167 13.5824Z" fill="#212F3F"/>
<path d="M59.0912 10.9474H56.5755V9.60511H59.0066C59.7822 9.60511 60.4269 9.45928 60.9406 9.16761C61.4543 8.87263 61.8388 8.44673 62.094 7.88991C62.3492 7.32978 62.4768 6.64702 62.4768 5.84162C62.4768 5.04285 62.3492 4.36506 62.094 3.80824C61.8421 3.25142 61.4659 2.82884 60.9654 2.54048C60.465 2.25213 59.8435 2.10795 59.1011 2.10795H56.5208V0.765625H59.1956C60.1932 0.765625 61.05 0.96946 61.7659 1.37713C62.4818 1.78149 63.0303 2.36316 63.4115 3.12216C63.7959 3.87784 63.9882 4.78433 63.9882 5.84162C63.9882 6.90223 63.7943 7.81368 63.4065 8.57599C63.022 9.33831 62.4652 9.92495 61.736 10.3359C61.0069 10.7436 60.1252 10.9474 59.0912 10.9474ZM57.3312 0.765625V10.9474H55.795V0.765625H57.3312ZM54.2737 6.16974V5.1456H58.8426V6.16974H54.2737Z" fill="#212F3F"/>
<path d="M46.6049 11.0867C46.1508 11.0801 45.7034 10.9972 45.2626 10.8381C44.8251 10.679 44.4273 10.4139 44.0694 10.0427C43.7114 9.67145 43.4247 9.17263 43.2093 8.54621C42.9972 7.91979 42.8911 7.13759 42.8911 6.19962C42.8911 5.31136 42.9789 4.52254 43.1546 3.83314C43.3336 3.14375 43.5905 2.56207 43.9252 2.08811C44.26 1.61084 44.6643 1.24791 45.1383 0.999334C45.6122 0.750755 46.1442 0.626465 46.7342 0.626465C47.3407 0.626465 47.8793 0.745783 48.3499 0.984419C48.8206 1.22306 49.2017 1.55284 49.4934 1.97377C49.7884 2.39469 49.9756 2.87362 50.0552 3.41056H48.5388C48.4361 2.98631 48.2323 2.63996 47.9273 2.37149C47.6224 2.10303 47.2247 1.96879 46.7342 1.96879C45.9884 1.96879 45.4067 2.2936 44.9891 2.94323C44.5748 3.59285 44.366 4.49602 44.3627 5.65274H44.4373C44.6129 5.36439 44.8284 5.11913 45.0836 4.91695C45.3421 4.71146 45.6305 4.55402 45.9486 4.44465C46.2701 4.33196 46.6082 4.27561 46.9628 4.27561C47.5528 4.27561 48.0864 4.41979 48.5637 4.70814C49.0443 4.99318 49.4271 5.38759 49.7121 5.89138C49.9972 6.39517 50.1397 6.97187 50.1397 7.62149C50.1397 8.27111 49.9922 8.85942 49.6972 9.38641C49.4056 9.9134 48.9946 10.331 48.4643 10.6392C47.934 10.9442 47.3142 11.0933 46.6049 11.0867ZM46.5999 9.79408C46.991 9.79408 47.3407 9.69796 47.6489 9.50573C47.9572 9.31349 48.2008 9.05497 48.3797 8.73016C48.5587 8.40535 48.6482 8.04242 48.6482 7.64138C48.6482 7.25028 48.5604 6.89398 48.3847 6.57249C48.2124 6.25099 47.9737 5.99578 47.6688 5.80686C47.3672 5.61794 47.0225 5.52348 46.6347 5.52348C46.3397 5.52348 46.0663 5.57983 45.8144 5.69252C45.5658 5.80521 45.3471 5.96098 45.1582 6.15985C44.9692 6.35871 44.8201 6.5874 44.7107 6.84593C44.6047 7.10113 44.5516 7.37126 44.5516 7.65629C44.5516 8.03745 44.6395 8.39043 44.8151 8.71524C44.9941 9.04005 45.2377 9.30189 45.5459 9.50076C45.8575 9.6963 46.2088 9.79408 46.5999 9.79408Z" fill="#212F3F"/>
<path d="M37.5579 11.1165C36.7724 11.1132 36.1012 10.9061 35.5444 10.4951C34.9876 10.0841 34.5617 9.48584 34.2667 8.70033C33.9717 7.91482 33.8242 6.96856 33.8242 5.86155C33.8242 4.75786 33.9717 3.81491 34.2667 3.03271C34.565 2.25052 34.9925 1.65393 35.5494 1.24294C36.1095 0.831957 36.779 0.626465 37.5579 0.626465C38.3368 0.626465 39.0046 0.833614 39.5614 1.24791C40.1183 1.6589 40.5442 2.25549 40.8391 3.03769C41.1374 3.81657 41.2866 4.75786 41.2866 5.86155C41.2866 6.97187 41.1391 7.91979 40.8441 8.7053C40.5491 9.4875 40.1232 10.0857 39.5664 10.5C39.0096 10.911 38.3401 11.1165 37.5579 11.1165ZM37.5579 9.78911C38.2473 9.78911 38.7859 9.4527 39.1737 8.77987C39.5648 8.10705 39.7603 7.13428 39.7603 5.86155C39.7603 5.01638 39.6708 4.30213 39.4918 3.71879C39.3162 3.13215 39.0626 2.68802 38.7312 2.38641C38.4031 2.08148 38.012 1.92902 37.5579 1.92902C36.8718 1.92902 36.3332 2.26709 35.9421 2.94323C35.551 3.61936 35.3538 4.59214 35.3505 5.86155C35.3505 6.71004 35.4383 7.4276 35.614 8.01425C35.793 8.59758 36.0465 9.04005 36.3746 9.34166C36.7028 9.63996 37.0972 9.78911 37.5579 9.78911Z" fill="#212F3F"/>
<path d="M28.5344 11.0867C27.8516 11.0867 27.2418 10.969 26.7049 10.7337C26.1712 10.4984 25.7487 10.1719 25.4371 9.75431C25.1289 9.33338 24.9631 8.84616 24.9399 8.29266H26.501C26.5209 8.59427 26.622 8.85611 26.8043 9.07817C26.9899 9.29692 27.2318 9.46595 27.5301 9.58527C27.8284 9.70459 28.1599 9.76425 28.5245 9.76425C28.9255 9.76425 29.2801 9.69465 29.5884 9.55544C29.8999 9.41624 30.1435 9.22235 30.3192 8.97377C30.4949 8.72187 30.5827 8.43186 30.5827 8.10374C30.5827 7.76236 30.4949 7.4624 30.3192 7.20388C30.1469 6.94204 29.8933 6.73655 29.5585 6.5874C29.2271 6.43825 28.8261 6.36368 28.3554 6.36368H27.4953V5.11084H28.3554C28.7333 5.11084 29.0647 5.04289 29.3497 4.907C29.6381 4.77111 29.8635 4.58219 30.0259 4.34024C30.1883 4.09498 30.2695 3.80828 30.2695 3.48016C30.2695 3.16529 30.1982 2.89185 30.0557 2.65985C29.9165 2.42452 29.7176 2.24057 29.4591 2.108C29.2039 1.97542 28.9023 1.90913 28.5543 1.90913C28.2228 1.90913 27.913 1.97045 27.6246 2.09308C27.3396 2.2124 27.1076 2.38475 26.9286 2.61013C26.7496 2.83219 26.6535 3.099 26.6402 3.41056H25.1537C25.1703 2.86037 25.3327 2.37646 25.6409 1.95885C25.9525 1.54124 26.3635 1.21477 26.8739 0.979447C27.3843 0.744125 27.9511 0.626465 28.5742 0.626465C29.2271 0.626465 29.7906 0.754069 30.2645 1.00928C30.7418 1.26117 31.1097 1.59758 31.3682 2.01851C31.63 2.43944 31.7593 2.90014 31.756 3.40061C31.7593 3.97069 31.6002 4.45459 31.2787 4.85232C30.9605 5.25004 30.5363 5.51685 30.006 5.65274V5.73229C30.6821 5.83503 31.2058 6.1035 31.577 6.53769C31.9515 6.97187 32.1371 7.51046 32.1338 8.15345C32.1371 8.71359 31.9814 9.21572 31.6665 9.65985C31.355 10.104 30.9291 10.4536 30.3888 10.7089C29.8486 10.9607 29.2304 11.0867 28.5344 11.0867Z" fill="#212F3F"/>
<path d="M23.1651 5.21021V6.50282H18.6509V5.21021H23.1651Z" fill="#212F3F"/>
<path d="M13.3252 11.0866C12.7021 11.0866 12.142 10.9673 11.6448 10.7287C11.151 10.4867 10.7565 10.1553 10.4616 9.73438C10.1666 9.31345 10.0091 8.83286 9.98926 8.29261H11.4807C11.5172 8.73011 11.7111 9.08972 12.0624 9.37145C12.4137 9.65317 12.8347 9.79403 13.3252 9.79403C13.7163 9.79403 14.0626 9.70455 14.3643 9.52557C14.6692 9.34328 14.9078 9.09304 15.0802 8.77486C15.2558 8.45668 15.3437 8.09375 15.3437 7.68608C15.3437 7.27178 15.2542 6.90223 15.0752 6.57741C14.8962 6.2526 14.6493 5.9974 14.3344 5.81179C14.0229 5.62618 13.6649 5.53172 13.2606 5.52841C12.9523 5.52841 12.6424 5.58144 12.3309 5.6875C12.0193 5.79356 11.7674 5.93277 11.5752 6.10511L10.1682 5.89631L10.74 0.765625H16.338V2.0831H12.0177L11.6945 4.93182H11.7542C11.953 4.73958 12.2165 4.57884 12.5447 4.44957C12.8761 4.32031 13.2307 4.25568 13.6086 4.25568C14.2284 4.25568 14.7802 4.40317 15.2641 4.69815C15.7513 4.99313 16.1341 5.39583 16.4126 5.90625C16.6943 6.41335 16.8335 6.99669 16.8302 7.65625C16.8335 8.31581 16.6843 8.90412 16.3827 9.42117C16.0844 9.93821 15.6701 10.3459 15.1398 10.6442C14.6128 10.9392 14.008 11.0866 13.3252 11.0866Z" fill="#212F3F"/>
<path d="M3.29616 10.9474H0V0.765625H3.40057C4.3982 0.765625 5.25497 0.96946 5.97088 1.37713C6.68679 1.78149 7.23532 2.36316 7.61648 3.12216C8.00095 3.87784 8.19318 4.78433 8.19318 5.84162C8.19318 6.90223 7.99929 7.81368 7.61151 8.57599C7.22704 9.33831 6.67022 9.92495 5.94105 10.3359C5.21188 10.7436 4.33026 10.9474 3.29616 10.9474ZM1.53622 9.60511H3.21165C3.98722 9.60511 4.63187 9.45928 5.1456 9.16761C5.65933 8.87263 6.0438 8.44673 6.29901 7.88991C6.55421 7.32978 6.68182 6.64702 6.68182 5.84162C6.68182 5.04285 6.55421 4.36506 6.29901 3.80824C6.04711 3.25142 5.67093 2.82884 5.17045 2.54048C4.66998 2.25213 4.04853 2.10795 3.30611 2.10795H1.53622V9.60511Z" fill="#212F3F"/>
</svg>
