<svg width="16" height="16" viewBox="0 0 16 16" fill="none" xmlns="http://www.w3.org/2000/svg">
<path d="M8.00293 4V12" stroke="#414042" stroke-width="1.33333" stroke-linecap="round" stroke-linejoin="round"/>
<path d="M9.95255 5.2688H7.02642C6.66425 5.2688 6.31693 5.41267 6.06084 5.66875C5.80476 5.92484 5.66089 6.27216 5.66089 6.63432C5.66089 6.99645 5.80476 7.34379 6.06084 7.59992C6.31693 7.85599 6.66425 7.99985 7.02642 7.99985H8.97715C9.33928 7.99985 9.68662 8.14372 9.94275 8.39979C10.1988 8.65585 10.3427 9.00319 10.3427 9.36539C10.3427 9.72752 10.1988 10.0749 9.94275 10.3309C9.68662 10.587 9.33928 10.7309 8.97715 10.7309H5.66089" stroke="#414042" stroke-width="1.33333" stroke-linecap="round" stroke-linejoin="round"/>
<path d="M8.00005 14.2C11.4242 14.2 14.2 11.4242 14.2 8.00005C14.2 4.57588 11.4242 1.80005 8.00005 1.80005C4.57588 1.80005 1.80005 4.57588 1.80005 8.00005C1.80005 11.4242 4.57588 14.2 8.00005 14.2Z" stroke="#414042" stroke-width="1.33333"/>
</svg>
