<svg width="17" height="17" viewBox="0 0 17 17" fill="none" xmlns="http://www.w3.org/2000/svg">
<g clip-path="url(#clip0_87_1066)">
<path fill-rule="evenodd" clip-rule="evenodd" d="M3.5332 5.46663C3.35639 5.46663 3.18682 5.53687 3.0618 5.6619C2.93677 5.78692 2.86654 5.95649 2.86654 6.1333V13.4666C2.86654 13.6434 2.93677 13.813 3.0618 13.938C3.18682 14.0631 3.35639 14.1333 3.5332 14.1333H10.8665C11.0433 14.1333 11.2129 14.0631 11.3379 13.938C11.463 13.813 11.5332 13.6434 11.5332 13.4666V9.46663C11.5332 9.09844 11.8317 8.79997 12.1999 8.79997C12.5681 8.79997 12.8665 9.09844 12.8665 9.46663V13.4666C12.8665 13.9971 12.6558 14.5058 12.2808 14.8808C11.9057 15.2559 11.397 15.4666 10.8665 15.4666H3.5332C3.00277 15.4666 2.49406 15.2559 2.11899 14.8808C1.74392 14.5058 1.5332 13.9971 1.5332 13.4666V6.1333C1.5332 5.60287 1.74392 5.09416 2.11899 4.71909C2.49406 4.34401 3.00277 4.1333 3.5332 4.1333H7.5332C7.90139 4.1333 8.19987 4.43178 8.19987 4.79997C8.19987 5.16816 7.90139 5.46663 7.5332 5.46663H3.5332Z" fill="#B511B8"/>
<path fill-rule="evenodd" clip-rule="evenodd" d="M9.5332 2.79997C9.5332 2.43178 9.83168 2.1333 10.1999 2.1333H14.1999C14.5681 2.1333 14.8665 2.43178 14.8665 2.79997V6.79997C14.8665 7.16816 14.5681 7.46663 14.1999 7.46663C13.8317 7.46663 13.5332 7.16816 13.5332 6.79997V3.46663H10.1999C9.83168 3.46663 9.5332 3.16816 9.5332 2.79997Z" fill="#B511B8"/>
<path fill-rule="evenodd" clip-rule="evenodd" d="M14.6714 2.32856C14.9317 2.58891 14.9317 3.01102 14.6714 3.27137L7.33802 10.6047C7.07767 10.8651 6.65556 10.8651 6.39521 10.6047C6.13486 10.3444 6.13486 9.92225 6.39521 9.6619L13.7285 2.32856C13.9889 2.06821 14.411 2.06821 14.6714 2.32856Z" fill="#B511B8"/>
</g>
<defs>
<clipPath id="clip0_87_1066">
<rect width="16" height="16" fill="white" transform="translate(0.199951 0.800049)"/>
</clipPath>
</defs>
</svg>
