<svg width="16" height="17" viewBox="0 0 16 17" fill="none" xmlns="http://www.w3.org/2000/svg">
<g clip-path="url(#clip0_741_983)">
<mask id="mask0_741_983" style="mask-type:luminance" maskUnits="userSpaceOnUse" x="0" y="0" width="16" height="17">
<path d="M15.6801 0.910156H0.320068V16.2702H15.6801V0.910156Z" fill="white"/>
</mask>
<g mask="url(#mask0_741_983)">
<path d="M12.48 9.94996C12.48 9.35585 12.244 8.78612 11.824 8.36602C11.4039 7.94593 10.8341 7.70996 10.24 7.70996H5.76002C5.16593 7.70996 4.59618 7.94593 4.1761 8.36602C3.75602 8.78612 3.52002 9.35585 3.52002 9.94996" stroke="#A6A6A6" stroke-width="1.28" stroke-linecap="round" stroke-linejoin="round"/>
<path d="M8.00001 6.03005C9.23713 6.03005 10.24 5.02717 10.24 3.79005C10.24 2.55293 9.23713 1.55005 8.00001 1.55005C6.76289 1.55005 5.76001 2.55293 5.76001 3.79005C5.76001 5.02717 6.76289 6.03005 8.00001 6.03005Z" stroke="#A6A6A6" stroke-width="1.28" stroke-linecap="round" stroke-linejoin="round"/>
<path d="M7.67993 12.71H8.31993" stroke="#A6A6A6" stroke-width="1.28" stroke-linecap="round" stroke-linejoin="round"/>
<path d="M3.23916 15.1699L2.17627 10.25H13.8238L12.7166 15.1699" stroke="#A6A6A6" stroke-width="1.28" stroke-linecap="round" stroke-linejoin="round"/>
<path d="M0.959961 15.6301H15.04" stroke="#A6A6A6" stroke-width="1.28" stroke-linecap="round" stroke-linejoin="round"/>
</g>
</g>
<defs>
<clipPath id="clip0_741_983">
<rect width="16" height="16" fill="white" transform="translate(0 0.590088)"/>
</clipPath>
</defs>
</svg>
