<svg width="17" height="16" viewBox="0 0 17 16" fill="none" xmlns="http://www.w3.org/2000/svg">
<path d="M8.66309 4V12" stroke="#414042" stroke-width="1.33333" stroke-linecap="round" stroke-linejoin="round"/>
<path d="M10.6127 5.26892H7.68657C7.32441 5.26892 6.97708 5.41279 6.721 5.66887C6.46491 5.92496 6.32104 6.27228 6.32104 6.63444C6.32104 6.99657 6.46491 7.34391 6.721 7.60004C6.97708 7.85611 7.32441 7.99997 7.68657 7.99997H9.63731C9.99944 7.99997 10.3468 8.14384 10.6029 8.39991C10.859 8.65597 11.0028 9.00331 11.0028 9.36551C11.0028 9.72764 10.859 10.075 10.6029 10.331C10.3468 10.5871 9.99944 10.731 9.63731 10.731H6.32104" stroke="#414042" stroke-width="1.33333" stroke-linecap="round" stroke-linejoin="round"/>
<path d="M8.66021 14.2002C12.0844 14.2002 14.8602 11.4243 14.8602 8.00017C14.8602 4.57601 12.0844 1.80017 8.66021 1.80017C5.23604 1.80017 2.46021 4.57601 2.46021 8.00017C2.46021 11.4243 5.23604 14.2002 8.66021 14.2002Z" stroke="#414042" stroke-width="1.33333"/>
</svg>
