<svg width="17" height="16" viewBox="0 0 17 16" fill="none" xmlns="http://www.w3.org/2000/svg">
<path d="M8.66284 4V12" stroke="#414042" stroke-width="1.33333" stroke-linecap="round" stroke-linejoin="round"/>
<path d="M10.6125 5.26892H7.68633C7.32416 5.26892 6.97684 5.41279 6.72075 5.66887C6.46467 5.92496 6.3208 6.27228 6.3208 6.63444C6.3208 6.99657 6.46467 7.34391 6.72075 7.60004C6.97684 7.85611 7.32416 7.99997 7.68633 7.99997H9.63706C9.99919 7.99997 10.3465 8.14384 10.6027 8.39991C10.8587 8.65597 11.0026 9.00331 11.0026 9.36551C11.0026 9.72764 10.8587 10.075 10.6027 10.331C10.3465 10.5871 9.99919 10.731 9.63706 10.731H6.3208" stroke="#414042" stroke-width="1.33333" stroke-linecap="round" stroke-linejoin="round"/>
<path d="M8.65996 14.2002C12.0841 14.2002 14.86 11.4243 14.86 8.00017C14.86 4.57601 12.0841 1.80017 8.65996 1.80017C5.2358 1.80017 2.45996 4.57601 2.45996 8.00017C2.45996 11.4243 5.2358 14.2002 8.65996 14.2002Z" stroke="#414042" stroke-width="1.33333"/>
</svg>
