<svg width="98" height="14" viewBox="0 0 98 14" fill="none" xmlns="http://www.w3.org/2000/svg">
<path d="M94.0062 13.0402C93.4515 13.0402 92.9342 12.9442 92.4542 12.7522C91.9848 12.5495 91.5742 12.2722 91.2222 11.9202C90.8808 11.5682 90.6088 11.1522 90.4062 10.6722C90.2142 10.1922 90.1182 9.66419 90.1182 9.08819C90.1182 8.80019 90.1555 8.48019 90.2302 8.12819C90.3155 7.76553 90.4382 7.37086 90.5982 6.94419C90.7688 6.51753 90.9715 6.06953 91.2062 5.60019C91.4408 5.12019 91.7128 4.62419 92.0222 4.11219L93.4782 1.64819H95.1582L95.2222 1.80819L93.4622 4.76819C93.1422 5.31219 92.8542 5.82953 92.5982 6.32019C92.3528 6.81086 92.1448 7.27486 91.9742 7.71219C91.8035 8.13886 91.6755 8.52819 91.5902 8.88019L91.2062 7.23219C91.4088 6.90153 91.6275 6.61353 91.8622 6.36819C92.0968 6.11219 92.3475 5.89886 92.6142 5.72819C92.8915 5.55753 93.1795 5.42953 93.4782 5.34419C93.7768 5.25886 94.0862 5.21619 94.4062 5.21619C95.0248 5.21619 95.5902 5.38686 96.1022 5.72819C96.6248 6.05886 97.0408 6.50153 97.3502 7.05619C97.6702 7.61086 97.8302 8.21886 97.8302 8.88019C97.8302 9.68019 97.6648 10.3949 97.3342 11.0242C97.0142 11.6429 96.5662 12.1335 95.9902 12.4962C95.4142 12.8589 94.7528 13.0402 94.0062 13.0402ZM94.0062 11.4402C94.4222 11.4402 94.7902 11.3442 95.1102 11.1522C95.4408 10.9495 95.6968 10.6722 95.8782 10.3202C96.0702 9.95753 96.1662 9.54686 96.1662 9.08819C96.1662 8.69353 96.0702 8.32553 95.8782 7.98419C95.6862 7.63219 95.4302 7.34953 95.1102 7.13619C94.7902 6.92286 94.4328 6.81619 94.0382 6.81619C93.6008 6.81619 93.2115 6.91753 92.8702 7.12019C92.5288 7.32286 92.2622 7.59486 92.0702 7.93619C91.8782 8.27753 91.7822 8.65619 91.7822 9.07219C91.7822 9.52019 91.8782 9.92553 92.0702 10.2882C92.2622 10.6402 92.5235 10.9229 92.8542 11.1362C93.1848 11.3389 93.5688 11.4402 94.0062 11.4402Z" fill="#121212"/>
<path d="M79.402 13.2001C78.8047 13.2001 78.282 13.0614 77.834 12.7841C77.3967 12.5067 77.0553 12.1174 76.81 11.6161C76.5753 11.1147 76.458 10.5174 76.458 9.82408V4.64008H78.106V9.37608C78.106 9.86674 78.1807 10.2934 78.33 10.6561C78.49 11.0081 78.714 11.2801 79.002 11.4721C79.3007 11.6641 79.658 11.7601 80.074 11.7601C80.3833 11.7601 80.666 11.7121 80.922 11.6161C81.178 11.5094 81.3967 11.3654 81.578 11.1841C81.77 11.0027 81.9193 10.7841 82.026 10.5281C82.1327 10.2721 82.186 9.99474 82.186 9.69608V4.64008C82.4527 4.64008 82.682 4.60274 82.874 4.52808C83.0767 4.45341 83.242 4.34141 83.37 4.19208C83.498 4.03208 83.594 3.84008 83.658 3.61608C83.722 3.38141 83.754 3.11474 83.754 2.81608H85.066C85.066 3.24274 85.0073 3.63741 84.89 4.00008C84.7833 4.36274 84.602 4.67741 84.346 4.94408C84.1007 5.20008 83.77 5.39208 83.354 5.52008L83.834 4.60808V13.0401H82.186V10.9761L82.394 11.2961C82.2447 11.6587 82.0153 11.9841 81.706 12.2721C81.4073 12.5601 81.0607 12.7894 80.666 12.9601C80.2713 13.1201 79.85 13.2001 79.402 13.2001ZM79.034 3.34408L78.49 2.52808L80.778 0.528076L81.818 1.84008L79.034 3.34408Z" fill="#121212"/>
<path d="M66.9424 13.0402V1.2002H68.5904V6.36819L68.3024 6.56019C68.4091 6.18686 68.6171 5.84553 68.9264 5.5362C69.2357 5.2162 69.6037 4.9602 70.0304 4.7682C70.457 4.56553 70.8944 4.4642 71.3424 4.4642C71.9824 4.4642 72.5157 4.5922 72.9424 4.8482C73.369 5.09353 73.689 5.4722 73.9024 5.9842C74.1157 6.4962 74.2224 7.14153 74.2224 7.92019V13.0402H72.5744V8.0322C72.5744 7.5522 72.5104 7.15753 72.3824 6.8482C72.2544 6.52819 72.057 6.29886 71.7904 6.1602C71.5237 6.01086 71.1931 5.94686 70.7984 5.96819C70.4784 5.96819 70.185 6.02153 69.9184 6.12819C69.6517 6.2242 69.4171 6.36286 69.2144 6.5442C69.0224 6.72553 68.8677 6.93886 68.7504 7.18419C68.6437 7.41886 68.5904 7.67486 68.5904 7.9522V13.0402H67.7744C67.6357 13.0402 67.497 13.0402 67.3584 13.0402C67.2197 13.0402 67.081 13.0402 66.9424 13.0402Z" fill="#121212"/>
<path d="M60.2678 13.0401V3.50409H57.1318V1.84009H65.2278V3.50409H61.9958V13.0401H60.2678Z" fill="#121212"/>
<path d="M46.6387 9.28019V7.64819H51.2467V9.28019H46.6387Z" fill="#121212"/>
<path d="M34.0284 13.0402L33.5004 11.7282L36.9244 7.87218C37.1058 7.68018 37.2924 7.46151 37.4844 7.21618C37.6871 6.96018 37.8791 6.69884 38.0604 6.43218C38.2418 6.16551 38.3858 5.90418 38.4924 5.64818C38.6098 5.38151 38.6684 5.13084 38.6684 4.89618C38.6684 4.55484 38.5991 4.26684 38.4604 4.03218C38.3324 3.78684 38.1404 3.60018 37.8844 3.47218C37.6391 3.34418 37.3404 3.28018 36.9884 3.28018C36.6791 3.28018 36.3751 3.37084 36.0764 3.55218C35.7778 3.73351 35.5058 3.98951 35.2604 4.32018C35.0151 4.65084 34.8231 5.03484 34.6844 5.47218L33.3564 4.64018C33.5378 4.02151 33.8098 3.49351 34.1724 3.05618C34.5458 2.60818 34.9884 2.26684 35.5004 2.03218C36.0231 1.79751 36.5884 1.68018 37.1964 1.68018C37.8258 1.68018 38.3858 1.81351 38.8764 2.08018C39.3671 2.33618 39.7511 2.69884 40.0284 3.16818C40.3058 3.62684 40.4444 4.16018 40.4444 4.76818C40.4444 5.01351 40.4178 5.26418 40.3644 5.52018C40.3111 5.77618 40.2258 6.04284 40.1084 6.32018C39.9911 6.58684 39.8418 6.86951 39.6604 7.16818C39.4791 7.45618 39.2604 7.76018 39.0044 8.08018C38.7591 8.40018 38.4764 8.73618 38.1564 9.08818L35.6124 11.8562L35.2924 11.3762H40.7964V13.0402H34.0284Z" fill="#121212"/>
<path d="M22.4645 13.2001C21.8672 13.2001 21.3445 13.0614 20.8965 12.7841C20.4592 12.5067 20.1178 12.1174 19.8725 11.6161C19.6378 11.1147 19.5205 10.5174 19.5205 9.82408V4.64008H21.1685V9.37608C21.1685 9.86674 21.2432 10.2934 21.3925 10.6561C21.5525 11.0081 21.7765 11.2801 22.0645 11.4721C22.3632 11.6641 22.7205 11.7601 23.1365 11.7601C23.4458 11.7601 23.7285 11.7121 23.9845 11.6161C24.2405 11.5094 24.4592 11.3654 24.6405 11.1841C24.8325 11.0027 24.9818 10.7841 25.0885 10.5281C25.1952 10.2721 25.2485 9.99474 25.2485 9.69608V4.64008C25.5152 4.64008 25.7445 4.60274 25.9365 4.52808C26.1392 4.45341 26.3045 4.34141 26.4325 4.19208C26.5605 4.03208 26.6565 3.84008 26.7205 3.61608C26.7845 3.38141 26.8165 3.11474 26.8165 2.81608H28.1285C28.1285 3.24274 28.0698 3.63741 27.9525 4.00008C27.8458 4.36274 27.6645 4.67741 27.4085 4.94408C27.1632 5.20008 26.8325 5.39208 26.4165 5.52008L26.8965 4.60808V13.0401H25.2485V10.9761L25.4565 11.2961C25.3072 11.6587 25.0778 11.9841 24.7685 12.2721C24.4698 12.5601 24.1232 12.7894 23.7285 12.9601C23.3338 13.1201 22.9125 13.2001 22.4645 13.2001ZM22.0965 3.34408L21.5525 2.52808L23.8405 0.528076L24.8805 1.84008L22.0965 3.34408Z" fill="#121212"/>
<path d="M10.0049 13.0402V1.2002H11.6529V6.36819L11.3649 6.56019C11.4715 6.18686 11.6795 5.84553 11.9889 5.5362C12.2982 5.2162 12.6662 4.9602 13.0929 4.7682C13.5195 4.56553 13.9569 4.4642 14.4049 4.4642C15.0449 4.4642 15.5782 4.5922 16.0049 4.8482C16.4315 5.09353 16.7515 5.4722 16.9649 5.9842C17.1782 6.4962 17.2849 7.14153 17.2849 7.92019V13.0402H15.6369V8.0322C15.6369 7.5522 15.5729 7.15753 15.4449 6.8482C15.3169 6.52819 15.1195 6.29886 14.8529 6.1602C14.5862 6.01086 14.2555 5.94686 13.8609 5.96819C13.5409 5.96819 13.2475 6.02153 12.9809 6.12819C12.7142 6.2242 12.4795 6.36286 12.2769 6.5442C12.0849 6.72553 11.9302 6.93886 11.8129 7.18419C11.7062 7.41886 11.6529 7.67486 11.6529 7.9522V13.0402H10.8369C10.6982 13.0402 10.5595 13.0402 10.4209 13.0402C10.2822 13.0402 10.1435 13.0402 10.0049 13.0402Z" fill="#121212"/>
<path d="M3.33034 13.0401V3.50409H0.194336V1.84009H8.29034V3.50409H5.05834V13.0401H3.33034Z" fill="#121212"/>
</svg>
