<svg width="141" height="17" viewBox="0 0 141 17" fill="none" xmlns="http://www.w3.org/2000/svg">
<path d="M137.018 13.2001C136.239 13.2001 135.54 13.0081 134.921 12.6241C134.313 12.2401 133.828 11.7174 133.465 11.0561C133.113 10.3948 132.938 9.65344 132.938 8.83211C132.938 8.01078 133.113 7.26944 133.465 6.60811C133.828 5.94678 134.313 5.42411 134.921 5.04011C135.54 4.65611 136.239 4.46411 137.018 4.46411C137.764 4.46411 138.441 4.61878 139.049 4.92811C139.668 5.22678 140.138 5.63744 140.458 6.16011L139.546 7.28011C139.375 7.03478 139.156 6.81078 138.889 6.60811C138.623 6.40544 138.34 6.24544 138.042 6.12811C137.743 6.01078 137.455 5.95211 137.178 5.95211C136.666 5.95211 136.207 6.08011 135.801 6.33611C135.407 6.58144 135.092 6.92278 134.857 7.36011C134.623 7.79744 134.506 8.28811 134.506 8.83211C134.506 9.37611 134.628 9.86678 134.874 10.3041C135.119 10.7308 135.444 11.0721 135.85 11.3281C136.255 11.5841 136.703 11.7121 137.193 11.7121C137.481 11.7121 137.759 11.6641 138.025 11.5681C138.303 11.4721 138.57 11.3281 138.826 11.1361C139.082 10.9441 139.322 10.7094 139.546 10.4321L140.458 11.5521C140.116 12.0321 139.626 12.4268 138.986 12.7361C138.356 13.0454 137.7 13.2001 137.018 13.2001Z" fill="#A6A6A6"/>
<path d="M127.995 13.2002C127.131 13.2002 126.362 13.0189 125.69 12.6562C125.029 12.2829 124.506 11.7762 124.122 11.1362C123.749 10.4962 123.562 9.76019 123.562 8.92819C123.562 8.26685 123.669 7.66419 123.882 7.12019C124.096 6.57619 124.389 6.10685 124.762 5.71219C125.146 5.30685 125.6 4.99752 126.122 4.78419C126.656 4.56019 127.232 4.44819 127.85 4.44819C128.394 4.44819 128.901 4.55485 129.37 4.76819C129.84 4.97085 130.245 5.25352 130.587 5.61619C130.939 5.97885 131.205 6.41085 131.387 6.91219C131.579 7.40285 131.669 7.94152 131.658 8.52819L131.643 9.23219H124.779L124.41 7.92019H130.219L129.979 8.19219V7.80819C129.947 7.45619 129.829 7.14152 129.626 6.86419C129.424 6.58685 129.168 6.36819 128.859 6.20819C128.549 6.04819 128.213 5.96819 127.85 5.96819C127.274 5.96819 126.789 6.08019 126.395 6.30419C126 6.51752 125.701 6.83752 125.499 7.26419C125.296 7.68019 125.195 8.19752 125.195 8.81619C125.195 9.40285 125.317 9.91486 125.562 10.3522C125.808 10.7789 126.155 11.1095 126.603 11.3442C127.051 11.5789 127.568 11.6962 128.154 11.6962C128.57 11.6962 128.955 11.6269 129.307 11.4882C129.669 11.3495 130.059 11.0989 130.475 10.7362L131.307 11.9042C131.051 12.1602 130.736 12.3842 130.363 12.5762C130 12.7682 129.611 12.9229 129.195 13.0402C128.789 13.1469 128.389 13.2002 127.995 13.2002ZM127.995 16.3362C127.643 16.3362 127.37 16.2455 127.178 16.0642C126.986 15.8829 126.891 15.6269 126.891 15.2962C126.891 14.9869 126.986 14.7362 127.178 14.5442C127.381 14.3522 127.653 14.2562 127.995 14.2562C128.347 14.2562 128.619 14.3469 128.811 14.5282C129.003 14.7095 129.098 14.9655 129.098 15.2962C129.098 15.6055 128.997 15.8562 128.794 16.0482C128.602 16.2402 128.336 16.3362 127.995 16.3362ZM125.931 3.32819L125.323 2.80019L127.162 0.992188H128.538L130.378 2.80019L129.771 3.32819L127.611 2.16019H128.09L125.931 3.32819Z" fill="#A6A6A6"/>
<path d="M119.893 13.0401V4.6401H121.541V13.0401H119.893ZM120.693 2.7841C120.341 2.7841 120.069 2.69343 119.877 2.5121C119.685 2.33077 119.589 2.07477 119.589 1.7441C119.589 1.43477 119.685 1.1841 119.877 0.992102C120.08 0.800102 120.352 0.704102 120.693 0.704102C121.045 0.704102 121.317 0.794768 121.509 0.976102C121.701 1.15743 121.797 1.41343 121.797 1.7441C121.797 2.05343 121.696 2.3041 121.493 2.4961C121.301 2.6881 121.035 2.7841 120.693 2.7841Z" fill="#A6A6A6"/>
<path d="M113.201 13.0401L109.649 4.64014H111.425L113.985 10.9281L113.681 11.0721L116.417 4.64014H118.113L114.385 13.0401H113.201Z" fill="#A6A6A6"/>
<path d="M91.1987 13.0401V4.64009H92.8627V6.43209L92.5587 6.62409C92.6441 6.34676 92.7774 6.08009 92.9587 5.82409C93.1507 5.56809 93.3801 5.34409 93.6467 5.15209C93.9241 4.94943 94.2174 4.78943 94.5267 4.67209C94.8467 4.55476 95.1721 4.49609 95.5027 4.49609C95.9827 4.49609 96.4041 4.57609 96.7667 4.73609C97.1294 4.89609 97.4281 5.13609 97.6627 5.45609C97.8974 5.77609 98.0681 6.17609 98.1747 6.65609L97.9187 6.59209L98.0307 6.32009C98.1481 6.07476 98.3081 5.84543 98.5107 5.63209C98.7241 5.40809 98.9641 5.21076 99.2307 5.04009C99.4974 4.86943 99.7801 4.73609 100.079 4.64009C100.377 4.54409 100.671 4.49609 100.959 4.49609C101.588 4.49609 102.105 4.62409 102.511 4.88009C102.927 5.13609 103.236 5.52543 103.439 6.04809C103.652 6.57076 103.759 7.22143 103.759 8.00009V13.0401H102.095V8.09609C102.095 7.61609 102.031 7.22676 101.903 6.92809C101.785 6.61876 101.604 6.38943 101.359 6.24009C101.113 6.09076 100.799 6.01609 100.415 6.01609C100.116 6.01609 99.8334 6.06943 99.5667 6.17609C99.3107 6.27209 99.0867 6.41076 98.8947 6.59209C98.7027 6.77343 98.5534 6.98676 98.4467 7.23209C98.3401 7.46676 98.2867 7.72809 98.2867 8.01609V13.0401H96.6227V8.06409C96.6227 7.62676 96.5587 7.25876 96.4307 6.96009C96.3027 6.65076 96.1161 6.41609 95.8707 6.25609C95.6254 6.09609 95.3267 6.01609 94.9747 6.01609C94.6761 6.01609 94.3987 6.06943 94.1427 6.17609C93.8867 6.27209 93.6627 6.41076 93.4707 6.59209C93.2787 6.76276 93.1294 6.97076 93.0227 7.21609C92.9161 7.45076 92.8627 7.70676 92.8627 7.98409V13.0401H91.1987Z" fill="#A6A6A6"/>
<path d="M84.3375 13.2001C83.6442 13.2001 83.0095 13.0081 82.4335 12.6241C81.8682 12.2401 81.4149 11.7174 81.0735 11.0561C80.7322 10.3947 80.5615 9.64808 80.5615 8.81608C80.5615 7.97341 80.7322 7.22674 81.0735 6.57608C81.4255 5.91474 81.8949 5.39741 82.4815 5.02408C83.0789 4.65074 83.7455 4.46408 84.4815 4.46408C84.9189 4.46408 85.3189 4.52808 85.6815 4.65608C86.0442 4.78408 86.3589 4.96541 86.6255 5.20008C86.9029 5.42408 87.1269 5.68541 87.2975 5.98408C87.4789 6.28274 87.5909 6.60274 87.6335 6.94408L87.2655 6.81608V4.64008H88.9295V13.0401H87.2655V11.0401L87.6495 10.9281C87.5855 11.2161 87.4522 11.4987 87.2495 11.7761C87.0575 12.0427 86.8069 12.2827 86.4975 12.4961C86.1989 12.7094 85.8629 12.8801 85.4895 13.0081C85.1269 13.1361 84.7429 13.2001 84.3375 13.2001ZM84.7695 11.6801C85.2709 11.6801 85.7135 11.5574 86.0975 11.3121C86.4815 11.0667 86.7802 10.7307 86.9935 10.3041C87.2175 9.86674 87.3295 9.37074 87.3295 8.81608C87.3295 8.27208 87.2175 7.78674 86.9935 7.36008C86.7802 6.93341 86.4815 6.59741 86.0975 6.35208C85.7135 6.10674 85.2709 5.98408 84.7695 5.98408C84.2789 5.98408 83.8415 6.10674 83.4575 6.35208C83.0842 6.59741 82.7855 6.93341 82.5615 7.36008C82.3482 7.78674 82.2415 8.27208 82.2415 8.81608C82.2415 9.37074 82.3482 9.86674 82.5615 10.3041C82.7855 10.7307 83.0842 11.0667 83.4575 11.3121C83.8415 11.5574 84.2789 11.6801 84.7695 11.6801ZM85.8255 3.34408L83.0415 1.84008L84.0815 0.528076L86.3695 2.52808L85.8255 3.34408Z" fill="#A6A6A6"/>
<path d="M77.2783 13.0402V1.2002H78.9263V13.0402H77.2783Z" fill="#A6A6A6"/>
<path d="M63.2461 13.0401V4.64011H64.8941V6.36811L64.6061 6.56011C64.7128 6.18678 64.9208 5.84545 65.2301 5.53611C65.5394 5.21611 65.9074 4.96011 66.3341 4.76811C66.7608 4.56544 67.1981 4.46411 67.6461 4.46411C68.2861 4.46411 68.8194 4.59211 69.2461 4.84811C69.6728 5.09344 69.9928 5.47211 70.2061 5.98411C70.4194 6.49611 70.5261 7.14144 70.5261 7.92011V13.0401H68.8781V8.03211C68.8781 7.55211 68.8141 7.15744 68.6861 6.84811C68.5581 6.52811 68.3608 6.29878 68.0941 6.16011C67.8274 6.01078 67.4968 5.94678 67.1021 5.96811C66.7821 5.96811 66.4888 6.02144 66.2221 6.12811C65.9554 6.22411 65.7208 6.36278 65.5181 6.54411C65.3261 6.72544 65.1714 6.93878 65.0541 7.18411C64.9474 7.41878 64.8941 7.67478 64.8941 7.95211V13.0401H64.0781C63.9394 13.0401 63.8008 13.0401 63.6621 13.0401C63.5234 13.0401 63.3848 13.0401 63.2461 13.0401Z" fill="#A6A6A6"/>
<path d="M56.3531 13.2001C55.6598 13.2001 55.0251 13.0081 54.4491 12.6241C53.8838 12.2401 53.4305 11.7174 53.0891 11.0561C52.7478 10.3948 52.5771 9.64811 52.5771 8.81611C52.5771 7.97344 52.7478 7.22678 53.0891 6.57611C53.4411 5.91478 53.9105 5.39744 54.4971 5.02411C55.0945 4.65078 55.7611 4.46411 56.4971 4.46411C56.9345 4.46411 57.3345 4.52811 57.6971 4.65611C58.0598 4.78411 58.3745 4.96544 58.6411 5.20011C58.9185 5.42411 59.1425 5.68545 59.3131 5.98411C59.4945 6.28278 59.6065 6.60278 59.6491 6.94411L59.2811 6.81611V4.64011H60.9451V13.0401H59.2811V11.0401L59.6651 10.9281C59.6011 11.2161 59.4678 11.4988 59.2651 11.7761C59.0731 12.0428 58.8225 12.2828 58.5131 12.4961C58.2145 12.7094 57.8785 12.8801 57.5051 13.0081C57.1425 13.1361 56.7585 13.2001 56.3531 13.2001ZM56.7851 11.6801C57.2865 11.6801 57.7291 11.5574 58.1131 11.3121C58.4971 11.0668 58.7958 10.7308 59.0091 10.3041C59.2331 9.86678 59.3451 9.37078 59.3451 8.81611C59.3451 8.27211 59.2331 7.78678 59.0091 7.36011C58.7958 6.93344 58.4971 6.59745 58.1131 6.35211C57.7291 6.10678 57.2865 5.98411 56.7851 5.98411C56.2945 5.98411 55.8571 6.10678 55.4731 6.35211C55.0998 6.59745 54.8011 6.93344 54.5771 7.36011C54.3638 7.78678 54.2571 8.27211 54.2571 8.81611C54.2571 9.37078 54.3638 9.86678 54.5771 10.3041C54.8011 10.7308 55.0998 11.0668 55.4731 11.3121C55.8571 11.5574 56.2945 11.6801 56.7851 11.6801Z" fill="#A6A6A6"/>
<path d="M48.9402 13.0401V4.6401H50.5882V13.0401H48.9402ZM49.7402 2.7841C49.3882 2.7841 49.1162 2.69343 48.9242 2.5121C48.7322 2.33077 48.6362 2.07477 48.6362 1.7441C48.6362 1.43477 48.7322 1.1841 48.9242 0.992102C49.1269 0.800102 49.3989 0.704102 49.7402 0.704102C50.0922 0.704102 50.3642 0.794768 50.5562 0.976102C50.7482 1.15743 50.8442 1.41343 50.8442 1.7441C50.8442 2.05343 50.7429 2.3041 50.5402 2.4961C50.3482 2.6881 50.0816 2.7841 49.7402 2.7841Z" fill="#A6A6A6"/>
<path d="M42.0376 16.7201C41.4403 16.7201 40.843 16.6241 40.2456 16.4321C39.659 16.2508 39.1843 16.0108 38.8216 15.7121L39.4296 14.4321C39.643 14.5921 39.8936 14.7308 40.1816 14.8481C40.4696 14.9761 40.7736 15.0721 41.0936 15.1361C41.4136 15.2108 41.7283 15.2481 42.0376 15.2481C42.6243 15.2481 43.115 15.1521 43.5096 14.9601C43.9043 14.7681 44.203 14.4854 44.4056 14.1121C44.6083 13.7388 44.7096 13.2748 44.7096 12.7201V11.1041L44.8856 11.2161C44.8323 11.5468 44.6563 11.8668 44.3576 12.1761C44.0696 12.4748 43.707 12.7201 43.2696 12.9121C42.8323 13.1041 42.3843 13.2001 41.9256 13.2001C41.1256 13.2001 40.411 13.0134 39.7816 12.6401C39.163 12.2561 38.6723 11.7388 38.3096 11.0881C37.947 10.4268 37.7656 9.67478 37.7656 8.83211C37.7656 7.98944 37.9416 7.24278 38.2936 6.59211C38.6563 5.93078 39.147 5.41344 39.7656 5.04011C40.395 4.65611 41.099 4.46411 41.8776 4.46411C42.1976 4.46411 42.507 4.50678 42.8056 4.59211C43.1043 4.66678 43.3816 4.77878 43.6376 4.92811C43.8936 5.06678 44.123 5.22144 44.3256 5.39211C44.5283 5.56278 44.6936 5.74411 44.8216 5.93611C44.9496 6.12811 45.0296 6.30944 45.0616 6.48011L44.7096 6.60811V4.64011H46.3576V12.5281C46.3576 13.2001 46.2563 13.7921 46.0536 14.3041C45.8616 14.8268 45.579 15.2641 45.2056 15.6161C44.8323 15.9788 44.379 16.2508 43.8456 16.4321C43.3123 16.6241 42.7096 16.7201 42.0376 16.7201ZM42.1016 11.6801C42.6243 11.6801 43.0883 11.5574 43.4936 11.3121C43.899 11.0668 44.2136 10.7308 44.4376 10.3041C44.6616 9.87744 44.7736 9.38678 44.7736 8.83211C44.7736 8.27744 44.6563 7.78678 44.4216 7.36011C44.1976 6.92278 43.883 6.58144 43.4776 6.33611C43.083 6.09078 42.6243 5.96811 42.1016 5.96811C41.5896 5.96811 41.131 6.09611 40.7256 6.35211C40.331 6.59745 40.0163 6.93878 39.7816 7.37611C39.5576 7.80278 39.4456 8.28811 39.4456 8.83211C39.4456 9.37611 39.5576 9.86678 39.7816 10.3041C40.0163 10.7308 40.331 11.0668 40.7256 11.3121C41.131 11.5574 41.5896 11.6801 42.1016 11.6801Z" fill="#A6A6A6"/>
<path d="M29.6121 13.0401V4.6401H31.2601V13.0401H29.6121ZM30.4121 2.7841C30.0601 2.7841 29.7881 2.69343 29.5961 2.5121C29.4041 2.33077 29.3081 2.07477 29.3081 1.7441C29.3081 1.43477 29.4041 1.1841 29.5961 0.992102C29.7988 0.800102 30.0708 0.704102 30.4121 0.704102C30.7641 0.704102 31.0361 0.794768 31.2281 0.976102C31.4201 1.15743 31.5161 1.41343 31.5161 1.7441C31.5161 2.05343 31.4148 2.3041 31.2121 2.4961C31.0201 2.6881 30.7534 2.7841 30.4121 2.7841Z" fill="#A6A6A6"/>
<path d="M23.2724 13.2001C22.451 13.2001 21.715 13.0134 21.0644 12.6401C20.4244 12.2561 19.9177 11.7387 19.5444 11.0881C19.171 10.4267 18.9844 9.67474 18.9844 8.83208C18.9844 7.98941 19.171 7.24274 19.5444 6.59208C19.9177 5.93074 20.4244 5.41341 21.0644 5.04008C21.715 4.65608 22.451 4.46408 23.2724 4.46408C23.507 4.46408 23.7204 4.48008 23.9124 4.51208C24.115 4.54408 24.291 4.57608 24.4404 4.60808C24.5364 4.62941 24.6217 4.65074 24.6964 4.67208C24.7817 4.68274 24.8564 4.68808 24.9204 4.68808C25.347 4.68808 25.6617 4.53341 25.8644 4.22408C26.067 3.90408 26.1684 3.43474 26.1684 2.81608H27.4804C27.4804 3.29608 27.4164 3.73341 27.2884 4.12808C27.171 4.52274 26.9737 4.85341 26.6964 5.12008C26.4297 5.37608 26.0777 5.55208 25.6404 5.64808L25.7524 5.23208C26.307 5.61608 26.7444 6.11741 27.0644 6.73608C27.3844 7.35474 27.5444 8.05341 27.5444 8.83208C27.5444 9.67474 27.3577 10.4267 26.9844 11.0881C26.611 11.7387 26.099 12.2561 25.4484 12.6401C24.8084 13.0134 24.083 13.2001 23.2724 13.2001ZM23.2724 11.6961C23.7737 11.6961 24.2217 11.5734 24.6164 11.3281C25.011 11.0721 25.3204 10.7307 25.5444 10.3041C25.7684 9.86674 25.875 9.37608 25.8644 8.83208C25.875 8.27741 25.7684 7.78674 25.5444 7.36008C25.3204 6.92274 25.011 6.58141 24.6164 6.33608C24.2217 6.09074 23.7737 5.96808 23.2724 5.96808C22.771 5.96808 22.3177 6.09608 21.9124 6.35208C21.5177 6.59741 21.2084 6.93874 20.9844 7.37608C20.7604 7.80274 20.6537 8.28808 20.6644 8.83208C20.6537 9.37608 20.7604 9.86674 20.9844 10.3041C21.2084 10.7307 21.5177 11.0721 21.9124 11.3281C22.3177 11.5734 22.771 11.6961 23.2724 11.6961ZM24.0724 3.34408L21.2884 1.84008L22.3284 0.528076L24.6164 2.52808L24.0724 3.34408Z" fill="#A6A6A6"/>
<path d="M9.98047 13.0402V1.2002H11.6285V6.36819L11.3405 6.56019C11.4471 6.18686 11.6551 5.84553 11.9645 5.5362C12.2738 5.2162 12.6418 4.9602 13.0685 4.7682C13.4951 4.56553 13.9325 4.4642 14.3805 4.4642C15.0205 4.4642 15.5538 4.5922 15.9805 4.8482C16.4071 5.09353 16.7271 5.4722 16.9405 5.9842C17.1538 6.4962 17.2605 7.14153 17.2605 7.92019V13.0402H15.6125V8.0322C15.6125 7.5522 15.5485 7.15753 15.4205 6.8482C15.2925 6.52819 15.0951 6.29886 14.8285 6.1602C14.5618 6.01086 14.2311 5.94686 13.8365 5.96819C13.5165 5.96819 13.2231 6.02153 12.9565 6.12819C12.6898 6.2242 12.4551 6.36286 12.2525 6.5442C12.0605 6.72553 11.9058 6.93886 11.7885 7.18419C11.6818 7.41886 11.6285 7.67486 11.6285 7.9522V13.0402H10.8125C10.6738 13.0402 10.5351 13.0402 10.3965 13.0402C10.2578 13.0402 10.1191 13.0402 9.98047 13.0402Z" fill="#A6A6A6"/>
<path d="M3.30592 13.0401V3.50409H0.169922V1.84009H8.26592V3.50409H5.03392V13.0401H3.30592Z" fill="#A6A6A6"/>
</svg>
