<svg width="757" height="28" viewBox="0 0 757 28" fill="none" xmlns="http://www.w3.org/2000/svg">
<path d="M749.773 25.928L747.253 23.548C748.971 22.3533 750.249 20.8786 751.089 19.124C751.929 17.3693 752.349 15.4933 752.349 13.496C752.349 11.4986 751.929 9.62263 751.089 7.86796C750.249 6.1133 748.971 4.63863 747.253 3.44396L749.801 1.06396C752.079 2.48263 753.815 4.25596 755.009 6.38396C756.204 8.51196 756.801 10.8826 756.801 13.496C756.801 16.0906 756.195 18.4613 754.981 20.608C753.787 22.736 752.051 24.5093 749.773 25.928Z" fill="#121212"/>
<path d="M731.216 20.7199V5.85195H735.472L735.612 8.87595L734.716 9.21195C734.921 8.53995 735.285 7.93328 735.808 7.39195C736.349 6.83195 736.993 6.38395 737.74 6.04795C738.487 5.71195 739.271 5.54395 740.092 5.54395C741.212 5.54395 742.155 5.77728 742.92 6.24395C743.685 6.69195 744.264 7.37328 744.656 8.28795C745.048 9.18395 745.244 10.2853 745.244 11.5919V20.7199H740.736V11.9559C740.736 11.3586 740.652 10.8639 740.484 10.4719C740.316 10.0799 740.054 9.79061 739.7 9.60395C739.364 9.39861 738.944 9.30528 738.44 9.32395C738.048 9.32395 737.684 9.38928 737.348 9.51995C737.012 9.63195 736.723 9.80928 736.48 10.0519C736.237 10.2759 736.041 10.5373 735.892 10.8359C735.761 11.1346 735.696 11.4613 735.696 11.8159V20.7199H733.484C732.961 20.7199 732.513 20.7199 732.14 20.7199C731.766 20.7199 731.458 20.7199 731.216 20.7199Z" fill="#121212"/>
<path d="M720.278 20.9999C718.729 20.9999 717.348 20.6639 716.134 19.9919C714.94 19.3199 713.988 18.4053 713.278 17.2479C712.588 16.0906 712.242 14.7653 712.242 13.2719C712.242 11.7786 712.588 10.4533 713.278 9.29595C713.988 8.13861 714.94 7.22395 716.134 6.55195C717.348 5.87995 718.729 5.54395 720.278 5.54395C721.828 5.54395 723.2 5.87995 724.394 6.55195C725.608 7.22395 726.56 8.13861 727.25 9.29595C727.941 10.4533 728.286 11.7786 728.286 13.2719C728.286 14.7653 727.941 16.0906 727.25 17.2479C726.56 18.4053 725.608 19.3199 724.394 19.9919C723.2 20.6639 721.828 20.9999 720.278 20.9999ZM720.278 17.1359C720.95 17.1359 721.548 16.9679 722.07 16.6319C722.593 16.2959 723.004 15.8386 723.302 15.2599C723.601 14.6813 723.741 14.0186 723.722 13.2719C723.741 12.5253 723.601 11.8626 723.302 11.2839C723.004 10.6866 722.593 10.2199 722.07 9.88395C721.548 9.54795 720.95 9.37995 720.278 9.37995C719.606 9.37995 719 9.54795 718.458 9.88395C717.936 10.2199 717.525 10.6866 717.226 11.2839C716.928 11.8626 716.788 12.5253 716.806 13.2719C716.788 14.0186 716.928 14.6813 717.226 15.2599C717.525 15.8386 717.936 16.2959 718.458 16.6319C719 16.9679 719.606 17.1359 720.278 17.1359Z" fill="#121212"/>
<path d="M695.505 20.72V0H699.901V8.876L699.005 9.212C699.21 8.54 699.574 7.93333 700.097 7.392C700.638 6.832 701.282 6.384 702.029 6.048C702.776 5.712 703.56 5.544 704.381 5.544C705.501 5.544 706.444 5.77733 707.209 6.244C707.974 6.692 708.553 7.37333 708.945 8.288C709.337 9.184 709.533 10.2853 709.533 11.592V20.72H705.025V11.956C705.025 11.3587 704.941 10.864 704.773 10.472C704.605 10.08 704.344 9.79067 703.989 9.604C703.653 9.39867 703.233 9.30533 702.729 9.324C702.337 9.324 701.973 9.38933 701.637 9.52C701.301 9.632 701.012 9.80933 700.769 10.052C700.526 10.276 700.33 10.5373 700.181 10.836C700.05 11.1347 699.985 11.4613 699.985 11.816V20.72H697.773C697.25 20.72 696.802 20.72 696.429 20.72C696.056 20.72 695.748 20.72 695.505 20.72Z" fill="#121212"/>
<path d="M685.581 20.7201V2.1001H690.061V20.7201H685.581ZM682.949 9.7721V5.8521H692.945V9.7721H682.949Z" fill="#121212"/>
<path d="M668.861 27.16L672.249 19.18L672.305 21.4761L665.137 5.85205H670.205L673.341 13.3281C673.509 13.7014 673.668 14.1027 673.817 14.5321C673.967 14.9614 674.079 15.3721 674.153 15.7641L673.537 16.128C673.649 15.8481 673.771 15.5027 673.901 15.0921C674.051 14.6627 674.209 14.2054 674.377 13.7201L677.121 5.85205H682.217L675.889 20.7201L673.313 27.16H668.861Z" fill="#121212"/>
<path d="M648.649 20.7201V1.12012H657.105C658.337 1.12012 659.429 1.40012 660.381 1.96012C661.352 2.52012 662.117 3.28545 662.677 4.25612C663.256 5.22679 663.545 6.31879 663.545 7.53212C663.545 8.80145 663.256 9.94012 662.677 10.9481C662.117 11.9375 661.352 12.7215 660.381 13.3001C659.429 13.8788 658.337 14.1681 657.105 14.1681H653.409V20.7201H648.649ZM653.325 9.99612H656.433C656.844 9.99612 657.217 9.89345 657.553 9.68812C657.889 9.48278 658.16 9.20278 658.365 8.84812C658.57 8.49345 658.673 8.08279 658.673 7.61612C658.673 7.13078 658.57 6.72012 658.365 6.38412C658.16 6.04812 657.889 5.78678 657.553 5.60012C657.217 5.41345 656.844 5.32012 656.433 5.32012H653.325V9.99612Z" fill="#121212"/>
<path d="M629.757 24.6961L641.405 1.12012H645.857L634.265 24.6961H629.757Z" fill="#121212"/>
<path d="M619.594 27.1599C618.381 27.1599 617.167 26.9826 615.954 26.6279C614.759 26.2733 613.789 25.8159 613.042 25.2559L614.61 22.1199C615.002 22.3813 615.431 22.6053 615.898 22.7919C616.383 22.9973 616.887 23.1559 617.41 23.2679C617.933 23.3799 618.465 23.4359 619.006 23.4359C619.958 23.4359 620.733 23.2959 621.33 23.0159C621.927 22.7359 622.375 22.3066 622.674 21.7279C622.973 21.1679 623.122 20.4586 623.122 19.5999V17.1079L623.99 17.2479C623.859 17.8639 623.533 18.4239 623.01 18.9279C622.506 19.4319 621.881 19.8426 621.134 20.1599C620.387 20.4586 619.594 20.6079 618.754 20.6079C617.41 20.6079 616.206 20.2999 615.142 19.6839C614.097 19.0493 613.266 18.1813 612.65 17.0799C612.053 15.9599 611.754 14.6719 611.754 13.2159C611.754 11.7226 612.053 10.4066 612.65 9.26795C613.247 8.11061 614.069 7.20528 615.114 6.55195C616.159 5.87995 617.335 5.54395 618.642 5.54395C619.202 5.54395 619.734 5.60928 620.238 5.73995C620.761 5.87061 621.237 6.04795 621.666 6.27195C622.114 6.47728 622.506 6.72928 622.842 7.02795C623.197 7.30795 623.477 7.61595 623.682 7.95195C623.906 8.28795 624.055 8.63328 624.13 8.98795L623.206 9.21195L623.374 5.85195H627.63V19.5159C627.63 20.7293 627.443 21.8026 627.07 22.7359C626.715 23.6879 626.183 24.4906 625.474 25.1439C624.783 25.8159 623.943 26.3199 622.954 26.6559C621.965 26.9919 620.845 27.1599 619.594 27.1599ZM619.706 17.1359C620.434 17.1359 621.059 16.9773 621.582 16.6599C622.123 16.3239 622.534 15.8666 622.814 15.2879C623.113 14.7093 623.262 14.0279 623.262 13.2439C623.262 12.4599 623.113 11.7786 622.814 11.1999C622.534 10.6026 622.123 10.1453 621.582 9.82795C621.059 9.49195 620.434 9.32395 619.706 9.32395C618.997 9.32395 618.381 9.49195 617.858 9.82795C617.335 10.1453 616.925 10.6026 616.626 11.1999C616.346 11.7786 616.206 12.4599 616.206 13.2439C616.206 14.0279 616.346 14.7093 616.626 15.2879C616.925 15.8666 617.335 16.3239 617.858 16.6599C618.381 16.9773 618.997 17.1359 619.706 17.1359Z" fill="#121212"/>
<path d="M595.017 20.7199V5.85195H599.273L599.413 8.87595L598.517 9.21195C598.722 8.53995 599.086 7.93328 599.609 7.39195C600.15 6.83195 600.794 6.38395 601.541 6.04795C602.287 5.71195 603.071 5.54395 603.893 5.54395C605.013 5.54395 605.955 5.77728 606.721 6.24395C607.486 6.69195 608.065 7.37328 608.457 8.28795C608.849 9.18395 609.045 10.2853 609.045 11.5919V20.7199H604.537V11.9559C604.537 11.3586 604.453 10.8639 604.285 10.4719C604.117 10.0799 603.855 9.79061 603.501 9.60395C603.165 9.39861 602.745 9.30528 602.241 9.32395C601.849 9.32395 601.485 9.38928 601.149 9.51995C600.813 9.63195 600.523 9.80928 600.281 10.0519C600.038 10.2759 599.842 10.5373 599.693 10.8359C599.562 11.1346 599.497 11.4613 599.497 11.8159V20.7199H597.285C596.762 20.7199 596.314 20.7199 595.941 20.7199C595.567 20.7199 595.259 20.7199 595.017 20.7199Z" fill="#121212"/>
<path d="M582.048 20.9719C580.797 20.9719 579.677 20.6453 578.688 19.9919C577.717 19.3199 576.942 18.4053 576.364 17.2479C575.785 16.0719 575.496 14.7466 575.496 13.2719C575.496 11.7599 575.785 10.4253 576.364 9.26795C576.942 8.11061 577.736 7.20528 578.744 6.55195C579.752 5.87995 580.9 5.54395 582.188 5.54395C582.897 5.54395 583.541 5.64661 584.12 5.85195C584.717 6.05728 585.24 6.34661 585.688 6.71995C586.136 7.07461 586.518 7.49461 586.836 7.97995C587.153 8.44661 587.386 8.95061 587.536 9.49195L586.612 9.37995V5.85195H591.064V20.7199H586.528V17.1359L587.536 17.1079C587.386 17.6306 587.144 18.1253 586.808 18.5919C586.472 19.0586 586.061 19.4693 585.576 19.8239C585.09 20.1786 584.549 20.4586 583.952 20.6639C583.354 20.8693 582.72 20.9719 582.048 20.9719ZM583.28 17.1919C583.97 17.1919 584.568 17.0333 585.072 16.7159C585.576 16.3986 585.968 15.9506 586.248 15.3719C586.528 14.7746 586.668 14.0746 586.668 13.2719C586.668 12.4693 586.528 11.7786 586.248 11.1999C585.968 10.6026 585.576 10.1453 585.072 9.82795C584.568 9.49195 583.97 9.32395 583.28 9.32395C582.608 9.32395 582.02 9.49195 581.516 9.82795C581.03 10.1453 580.648 10.6026 580.368 11.1999C580.088 11.7786 579.948 12.4693 579.948 13.2719C579.948 14.0746 580.088 14.7746 580.368 15.3719C580.648 15.9506 581.03 16.3986 581.516 16.7159C582.02 17.0333 582.608 17.1919 583.28 17.1919Z" fill="#121212"/>
<path d="M568.357 20.72V0H572.837V20.72H568.357Z" fill="#121212"/>
<path d="M557.392 20.9999C555.842 20.9999 554.461 20.6639 553.248 19.9919C552.053 19.3199 551.101 18.4053 550.392 17.2479C549.701 16.0906 549.356 14.7653 549.356 13.2719C549.356 11.7786 549.701 10.4533 550.392 9.29595C551.101 8.13861 552.053 7.22395 553.248 6.55195C554.461 5.87995 555.842 5.54395 557.392 5.54395C558.941 5.54395 560.313 5.87995 561.508 6.55195C562.721 7.22395 563.673 8.13861 564.364 9.29595C565.054 10.4533 565.4 11.7786 565.4 13.2719C565.4 14.7653 565.054 16.0906 564.364 17.2479C563.673 18.4053 562.721 19.3199 561.508 19.9919C560.313 20.6639 558.941 20.9999 557.392 20.9999ZM557.392 17.1359C558.064 17.1359 558.661 16.9679 559.184 16.6319C559.706 16.2959 560.117 15.8386 560.416 15.2599C560.714 14.6813 560.854 14.0186 560.836 13.2719C560.854 12.5253 560.714 11.8626 560.416 11.2839C560.117 10.6866 559.706 10.2199 559.184 9.88395C558.661 9.54795 558.064 9.37995 557.392 9.37995C556.72 9.37995 556.113 9.54795 555.572 9.88395C555.049 10.2199 554.638 10.6866 554.34 11.2839C554.041 11.8626 553.901 12.5253 553.92 13.2719C553.901 14.0186 554.041 14.6813 554.34 15.2599C554.638 15.8386 555.049 16.2959 555.572 16.6319C556.113 16.9679 556.72 17.1359 557.392 17.1359Z" fill="#121212"/>
<path d="M538.065 21C536.497 21 535.079 20.748 533.809 20.244C532.54 19.74 531.448 19.0307 530.533 18.116C529.619 17.2014 528.919 16.128 528.433 14.896C527.948 13.6454 527.705 12.292 527.705 10.836C527.705 9.38003 527.957 8.04536 528.461 6.83203C528.984 5.60003 529.721 4.5267 530.673 3.61203C531.625 2.69736 532.745 1.98803 534.033 1.48403C535.34 0.980028 536.759 0.728027 538.289 0.728027C539.372 0.728027 540.389 0.868028 541.341 1.14803C542.312 1.42803 543.189 1.81069 543.973 2.29603C544.757 2.78136 545.42 3.34136 545.961 3.97603L543.077 7.02803C542.611 6.58003 542.125 6.2067 541.621 5.90803C541.136 5.60936 540.613 5.37603 540.053 5.20803C539.493 5.02136 538.896 4.92803 538.261 4.92803C537.44 4.92803 536.684 5.07736 535.993 5.37603C535.321 5.67469 534.724 6.0947 534.201 6.63603C533.697 7.1587 533.305 7.78403 533.025 8.51203C532.745 9.22136 532.605 9.99603 532.605 10.836C532.605 11.676 532.755 12.46 533.053 13.188C533.352 13.916 533.763 14.5507 534.285 15.092C534.808 15.6147 535.424 16.0347 536.133 16.352C536.861 16.6507 537.636 16.8 538.457 16.8C539.036 16.8 539.577 16.7067 540.081 16.52C540.604 16.3334 541.052 16.0814 541.425 15.764C541.799 15.4467 542.097 15.0734 542.321 14.644C542.545 14.196 542.657 13.72 542.657 13.216V12.488L543.273 13.44H537.869V9.71603H547.081C547.119 9.92136 547.147 10.2014 547.165 10.556C547.184 10.9107 547.193 11.256 547.193 11.592C547.212 11.928 547.221 12.18 547.221 12.348C547.221 13.6174 546.988 14.784 546.521 15.848C546.073 16.8934 545.439 17.7987 544.617 18.564C543.796 19.3294 542.825 19.9267 541.705 20.356C540.585 20.7854 539.372 21 538.065 21Z" fill="#121212"/>
<path d="M524.559 25.928C522.282 24.5093 520.545 22.736 519.351 20.608C518.156 18.48 517.559 16.1093 517.559 13.496C517.559 10.9013 518.156 8.53996 519.351 6.41196C520.564 4.2653 522.31 2.48263 524.587 1.06396L527.107 3.44396C525.39 4.63863 524.102 6.1133 523.243 7.86796C522.403 9.62263 521.983 11.4986 521.983 13.496C521.983 15.4933 522.403 17.3693 523.243 19.124C524.102 20.8786 525.39 22.3533 527.107 23.548L524.559 25.928Z" fill="#121212"/>
<path d="M496.716 20.7199V5.85195H500.972L501.168 10.6959L500.328 9.77195C500.552 8.96928 500.916 8.25061 501.42 7.61595C501.942 6.98128 502.549 6.47728 503.24 6.10395C503.93 5.73061 504.668 5.54395 505.452 5.54395C505.788 5.54395 506.096 5.57195 506.376 5.62795C506.674 5.68395 506.945 5.74928 507.188 5.82395L505.956 10.7799C505.75 10.6493 505.47 10.5466 505.116 10.4719C504.78 10.3786 504.425 10.3319 504.052 10.3319C503.641 10.3319 503.258 10.4066 502.904 10.5559C502.549 10.6866 502.25 10.8826 502.008 11.1439C501.765 11.4053 501.569 11.7133 501.42 12.0679C501.289 12.4226 501.224 12.8239 501.224 13.2719V20.7199H496.716Z" fill="#121212"/>
<path d="M487.394 20.9999C485.751 20.9999 484.323 20.6733 483.11 20.0199C481.896 19.3479 480.954 18.4426 480.282 17.3039C479.61 16.1466 479.274 14.8306 479.274 13.3559C479.274 12.2173 479.46 11.1719 479.834 10.2199C480.207 9.26795 480.73 8.44661 481.402 7.75595C482.074 7.04661 482.867 6.50528 483.782 6.13195C484.715 5.73995 485.732 5.54395 486.834 5.54395C487.879 5.54395 488.831 5.73061 489.69 6.10395C490.567 6.47728 491.323 6.99995 491.958 7.67195C492.592 8.34395 493.078 9.13728 493.414 10.0519C493.75 10.9666 493.899 11.9653 493.862 13.0479L493.834 14.2519H481.99L481.346 11.7319H490.194L489.718 12.2639V11.7039C489.68 11.2373 489.531 10.8266 489.27 10.4719C489.027 10.0986 488.7 9.80928 488.29 9.60395C487.879 9.39861 487.412 9.29595 486.89 9.29595C486.162 9.29595 485.536 9.44528 485.014 9.74395C484.51 10.0239 484.127 10.4439 483.866 11.0039C483.604 11.5453 483.474 12.2173 483.474 13.0199C483.474 13.8413 483.642 14.5599 483.978 15.1759C484.332 15.7733 484.836 16.2399 485.49 16.5759C486.162 16.9119 486.955 17.0799 487.87 17.0799C488.504 17.0799 489.064 16.9866 489.55 16.7999C490.054 16.6133 490.595 16.2959 491.174 15.8479L493.274 18.8159C492.695 19.3199 492.079 19.7306 491.426 20.0479C490.772 20.3653 490.1 20.5986 489.41 20.7479C488.738 20.9159 488.066 20.9999 487.394 20.9999Z" fill="#121212"/>
<path d="M461.853 26.88V5.85202H466.109L466.277 9.18402L465.437 8.93202C465.567 8.31602 465.885 7.75602 466.389 7.25202C466.893 6.74802 467.527 6.34669 468.293 6.04802C469.077 5.73069 469.898 5.57202 470.757 5.57202C472.026 5.57202 473.155 5.90802 474.145 6.58002C475.134 7.23336 475.909 8.13869 476.469 9.29602C477.047 10.4347 477.337 11.76 477.337 13.272C477.337 14.7654 477.047 16.0907 476.469 17.248C475.909 18.4054 475.125 19.32 474.117 19.992C473.127 20.6454 471.989 20.972 470.701 20.972C469.861 20.972 469.058 20.8134 468.293 20.496C467.527 20.1787 466.883 19.7494 466.361 19.208C465.838 18.6667 465.493 18.0787 465.325 17.444L466.361 17.052V26.88H461.853ZM469.609 17.192C470.281 17.192 470.869 17.0334 471.373 16.716C471.877 16.38 472.269 15.9227 472.549 15.344C472.829 14.7654 472.969 14.0747 472.969 13.272C472.969 12.488 472.829 11.8067 472.549 11.228C472.269 10.6307 471.877 10.1734 471.373 9.85602C470.887 9.52002 470.299 9.35202 469.609 9.35202C468.918 9.35202 468.321 9.51069 467.817 9.82802C467.313 10.1454 466.921 10.6027 466.641 11.2C466.361 11.7974 466.221 12.488 466.221 13.272C466.221 14.0747 466.361 14.7654 466.641 15.344C466.921 15.9227 467.313 16.38 467.817 16.716C468.321 17.0334 468.918 17.192 469.609 17.192Z" fill="#121212"/>
<path d="M450.915 20.9999C449.366 20.9999 447.984 20.6639 446.771 19.9919C445.576 19.3199 444.624 18.4053 443.915 17.2479C443.224 16.0906 442.879 14.7653 442.879 13.2719C442.879 11.7786 443.224 10.4533 443.915 9.29595C444.624 8.13861 445.576 7.22395 446.771 6.55195C447.984 5.87995 449.366 5.54395 450.915 5.54395C452.464 5.54395 453.836 5.87995 455.031 6.55195C456.244 7.22395 457.196 8.13861 457.887 9.29595C458.578 10.4533 458.923 11.7786 458.923 13.2719C458.923 14.7653 458.578 16.0906 457.887 17.2479C457.196 18.4053 456.244 19.3199 455.031 19.9919C453.836 20.6639 452.464 20.9999 450.915 20.9999ZM450.915 17.1359C451.587 17.1359 452.184 16.9679 452.707 16.6319C453.23 16.2959 453.64 15.8386 453.939 15.2599C454.238 14.6813 454.378 14.0186 454.359 13.2719C454.378 12.5253 454.238 11.8626 453.939 11.2839C453.64 10.6866 453.23 10.2199 452.707 9.88395C452.184 9.54795 451.587 9.37995 450.915 9.37995C450.243 9.37995 449.636 9.54795 449.095 9.88395C448.572 10.2199 448.162 10.6866 447.863 11.2839C447.564 11.8626 447.424 12.5253 447.443 13.2719C447.424 14.0186 447.564 14.6813 447.863 15.2599C448.162 15.8386 448.572 16.2959 449.095 16.6319C449.636 16.9679 450.243 17.1359 450.915 17.1359Z" fill="#121212"/>
<path d="M435.713 20.72V0H440.193V20.72H435.713Z" fill="#121212"/>
<path d="M426.362 20.9999C424.72 20.9999 423.292 20.6733 422.078 20.0199C420.865 19.3479 419.922 18.4426 419.25 17.3039C418.578 16.1466 418.242 14.8306 418.242 13.3559C418.242 12.2173 418.429 11.1719 418.802 10.2199C419.176 9.26795 419.698 8.44661 420.37 7.75595C421.042 7.04661 421.836 6.50528 422.75 6.13195C423.684 5.73995 424.701 5.54395 425.802 5.54395C426.848 5.54395 427.8 5.73061 428.658 6.10395C429.536 6.47728 430.292 6.99995 430.926 7.67195C431.561 8.34395 432.046 9.13728 432.382 10.0519C432.718 10.9666 432.868 11.9653 432.83 13.0479L432.802 14.2519H420.958L420.314 11.7319H429.162L428.686 12.2639V11.7039C428.649 11.2373 428.5 10.8266 428.238 10.4719C427.996 10.0986 427.669 9.80928 427.258 9.60395C426.848 9.39861 426.381 9.29595 425.858 9.29595C425.13 9.29595 424.505 9.44528 423.982 9.74395C423.478 10.0239 423.096 10.4439 422.834 11.0039C422.573 11.5453 422.442 12.2173 422.442 13.0199C422.442 13.8413 422.61 14.5599 422.946 15.1759C423.301 15.7733 423.805 16.2399 424.458 16.5759C425.13 16.9119 425.924 17.0799 426.838 17.0799C427.473 17.0799 428.033 16.9866 428.518 16.7999C429.022 16.6133 429.564 16.2959 430.142 15.8479L432.242 18.8159C431.664 19.3199 431.048 19.7306 430.394 20.0479C429.741 20.3653 429.069 20.5986 428.378 20.7479C427.706 20.9159 427.034 20.9999 426.362 20.9999Z" fill="#121212"/>
<path d="M407.299 20.7201L401.083 5.85205H406.039L409.736 16.9681L408.643 17.0801L412.452 5.85205H417.352L410.827 20.7201H407.299Z" fill="#121212"/>
<path d="M393.687 20.9999C392.044 20.9999 390.616 20.6733 389.403 20.0199C388.189 19.3479 387.247 18.4426 386.575 17.3039C385.903 16.1466 385.567 14.8306 385.567 13.3559C385.567 12.2173 385.753 11.1719 386.127 10.2199C386.5 9.26795 387.023 8.44661 387.695 7.75595C388.367 7.04661 389.16 6.50528 390.075 6.13195C391.008 5.73995 392.025 5.54395 393.127 5.54395C394.172 5.54395 395.124 5.73061 395.983 6.10395C396.86 6.47728 397.616 6.99995 398.251 7.67195C398.885 8.34395 399.371 9.13728 399.707 10.0519C400.043 10.9666 400.192 11.9653 400.155 13.0479L400.127 14.2519H388.283L387.639 11.7319H396.487L396.011 12.2639V11.7039C395.973 11.2373 395.824 10.8266 395.563 10.4719C395.32 10.0986 394.993 9.80928 394.583 9.60395C394.172 9.39861 393.705 9.29595 393.183 9.29595C392.455 9.29595 391.829 9.44528 391.307 9.74395C390.803 10.0239 390.42 10.4439 390.159 11.0039C389.897 11.5453 389.767 12.2173 389.767 13.0199C389.767 13.8413 389.935 14.5599 390.271 15.1759C390.625 15.7733 391.129 16.2399 391.783 16.5759C392.455 16.9119 393.248 17.0799 394.163 17.0799C394.797 17.0799 395.357 16.9866 395.843 16.7999C396.347 16.6133 396.888 16.2959 397.467 15.8479L399.567 18.8159C398.988 19.3199 398.372 19.7306 397.719 20.0479C397.065 20.3653 396.393 20.5986 395.703 20.7479C395.031 20.9159 394.359 20.9999 393.687 20.9999Z" fill="#121212"/>
<path d="M365.45 20.7201V1.12012H373.654C375.091 1.12012 376.407 1.36278 377.602 1.84812C378.796 2.31478 379.823 2.98678 380.682 3.86412C381.559 4.74145 382.231 5.77745 382.698 6.97212C383.164 8.16678 383.398 9.48278 383.398 10.9201C383.398 12.3575 383.164 13.6828 382.698 14.8961C382.231 16.0908 381.559 17.1268 380.682 18.0041C379.823 18.8628 378.796 19.5348 377.602 20.0201C376.407 20.4868 375.091 20.7201 373.654 20.7201H365.45ZM370.21 17.4721L369.566 16.5201H373.514C374.298 16.5201 374.998 16.3895 375.614 16.1281C376.23 15.8481 376.752 15.4655 377.182 14.9801C377.63 14.4948 377.975 13.9068 378.218 13.2161C378.46 12.5255 378.582 11.7601 378.582 10.9201C378.582 10.0801 378.46 9.31479 378.218 8.62412C377.975 7.93345 377.63 7.34545 377.182 6.86012C376.752 6.37478 376.23 6.00145 375.614 5.74012C374.998 5.46012 374.298 5.32012 373.514 5.32012H369.482L370.21 4.42412V17.4721Z" fill="#121212"/>
<path d="M343.313 21.028C342.025 21.028 340.877 20.7013 339.869 20.048C338.879 19.376 338.095 18.4613 337.517 17.304C336.938 16.128 336.649 14.7933 336.649 13.3C336.649 11.8067 336.938 10.4813 337.517 9.324C338.095 8.148 338.889 7.224 339.897 6.552C340.905 5.88 342.062 5.544 343.369 5.544C344.041 5.544 344.685 5.64667 345.301 5.852C345.917 6.05733 346.477 6.33733 346.981 6.692C347.485 7.04667 347.895 7.45733 348.213 7.924C348.53 8.372 348.717 8.83867 348.773 9.324L347.709 9.576V0H352.217V20.72H348.045L347.793 17.332L348.689 17.472C348.633 17.9387 348.446 18.3867 348.129 18.816C347.83 19.2453 347.438 19.628 346.953 19.964C346.467 20.2813 345.907 20.5333 345.273 20.72C344.657 20.9253 344.003 21.028 343.313 21.028ZM344.461 17.304C345.151 17.304 345.749 17.136 346.253 16.8C346.757 16.464 347.139 15.9973 347.401 15.4C347.681 14.8027 347.821 14.1027 347.821 13.3C347.821 12.4787 347.681 11.7693 347.401 11.172C347.139 10.5747 346.757 10.108 346.253 9.772C345.749 9.436 345.151 9.268 344.461 9.268C343.77 9.268 343.173 9.436 342.669 9.772C342.183 10.108 341.801 10.5747 341.521 11.172C341.241 11.7693 341.101 12.4787 341.101 13.3C341.101 14.1027 341.241 14.8027 341.521 15.4C341.801 15.9973 342.183 16.464 342.669 16.8C343.173 17.136 343.77 17.304 344.461 17.304Z" fill="#121212"/>
<path d="M319.911 20.7199V5.85195H324.167L324.307 8.87595L323.411 9.21195C323.616 8.53995 323.98 7.93328 324.503 7.39195C325.044 6.83195 325.688 6.38395 326.435 6.04795C327.182 5.71195 327.966 5.54395 328.787 5.54395C329.907 5.54395 330.85 5.77728 331.615 6.24395C332.38 6.69195 332.959 7.37328 333.351 8.28795C333.743 9.18395 333.939 10.2853 333.939 11.5919V20.7199H329.431V11.9559C329.431 11.3586 329.347 10.8639 329.179 10.4719C329.011 10.0799 328.75 9.79061 328.395 9.60395C328.059 9.39861 327.639 9.30528 327.135 9.32395C326.743 9.32395 326.379 9.38928 326.043 9.51995C325.707 9.63195 325.418 9.80928 325.175 10.0519C324.932 10.2759 324.736 10.5373 324.587 10.8359C324.456 11.1346 324.391 11.4613 324.391 11.8159V20.7199H322.179C321.656 20.7199 321.208 20.7199 320.835 20.7199C320.462 20.7199 320.154 20.7199 319.911 20.7199Z" fill="#121212"/>
<path d="M310.589 20.9999C308.946 20.9999 307.518 20.6733 306.305 20.0199C305.092 19.3479 304.149 18.4426 303.477 17.3039C302.805 16.1466 302.469 14.8306 302.469 13.3559C302.469 12.2173 302.656 11.1719 303.029 10.2199C303.402 9.26795 303.925 8.44661 304.597 7.75595C305.269 7.04661 306.062 6.50528 306.977 6.13195C307.91 5.73995 308.928 5.54395 310.029 5.54395C311.074 5.54395 312.026 5.73061 312.885 6.10395C313.762 6.47728 314.518 6.99995 315.153 7.67195C315.788 8.34395 316.273 9.13728 316.609 10.0519C316.945 10.9666 317.094 11.9653 317.057 13.0479L317.029 14.2519H305.185L304.541 11.7319H313.389L312.913 12.2639V11.7039C312.876 11.2373 312.726 10.8266 312.465 10.4719C312.222 10.0986 311.896 9.80928 311.485 9.60395C311.074 9.39861 310.608 9.29595 310.085 9.29595C309.357 9.29595 308.732 9.44528 308.209 9.74395C307.705 10.0239 307.322 10.4439 307.061 11.0039C306.8 11.5453 306.669 12.2173 306.669 13.0199C306.669 13.8413 306.837 14.5599 307.173 15.1759C307.528 15.7733 308.032 16.2399 308.685 16.5759C309.357 16.9119 310.15 17.0799 311.065 17.0799C311.7 17.0799 312.26 16.9866 312.745 16.7999C313.249 16.6133 313.79 16.2959 314.369 15.8479L316.469 18.8159C315.89 19.3199 315.274 19.7306 314.621 20.0479C313.968 20.3653 313.296 20.5986 312.605 20.7479C311.933 20.9159 311.261 20.9999 310.589 20.9999Z" fill="#121212"/>
<path d="M290.918 16.352L289.266 12.992L296.21 5.852H302.118L290.918 16.352ZM286.606 20.72V0H291.086V20.72H286.606ZM296.686 20.72L291.45 13.944L294.614 11.48L301.978 20.72H296.686Z" fill="#121212"/>
<path d="M277.873 20.9999C276.435 20.9999 275.147 20.6639 274.009 19.9919C272.87 19.3199 271.965 18.4053 271.293 17.2479C270.639 16.0719 270.313 14.7466 270.313 13.2719C270.313 11.7973 270.639 10.4813 271.293 9.32395C271.965 8.14795 272.87 7.22395 274.009 6.55195C275.147 5.87995 276.435 5.54395 277.873 5.54395C279.198 5.54395 280.411 5.77728 281.513 6.24395C282.633 6.71061 283.519 7.36395 284.173 8.20395L281.737 11.1159C281.475 10.8173 281.167 10.5373 280.813 10.2759C280.458 10.0146 280.066 9.80928 279.637 9.65995C279.207 9.51061 278.759 9.43595 278.293 9.43595C277.583 9.43595 276.958 9.60395 276.417 9.93995C275.875 10.2573 275.455 10.7053 275.157 11.2839C274.858 11.8626 274.709 12.5253 274.709 13.2719C274.709 13.9813 274.858 14.6253 275.157 15.2039C275.474 15.7826 275.903 16.2399 276.445 16.5759C276.986 16.9119 277.602 17.0799 278.293 17.0799C278.778 17.0799 279.226 17.0239 279.637 16.9119C280.047 16.7813 280.421 16.5946 280.757 16.3519C281.111 16.1093 281.438 15.8106 281.737 15.4559L284.145 18.3959C283.51 19.1986 282.623 19.8333 281.485 20.2999C280.365 20.7666 279.161 20.9999 277.873 20.9999Z" fill="#121212"/>
<path d="M258.38 20.9719C257.129 20.9719 256.009 20.6453 255.02 19.9919C254.049 19.3199 253.274 18.4053 252.696 17.2479C252.117 16.0719 251.828 14.7466 251.828 13.2719C251.828 11.7599 252.117 10.4253 252.696 9.26795C253.274 8.11061 254.068 7.20528 255.076 6.55195C256.084 5.87995 257.232 5.54395 258.52 5.54395C259.229 5.54395 259.873 5.64661 260.452 5.85195C261.049 6.05728 261.572 6.34661 262.02 6.71995C262.468 7.07461 262.85 7.49461 263.168 7.97995C263.485 8.44661 263.718 8.95061 263.868 9.49195L262.944 9.37995V5.85195H267.396V20.7199H262.86V17.1359L263.868 17.1079C263.718 17.6306 263.476 18.1253 263.14 18.5919C262.804 19.0586 262.393 19.4693 261.908 19.8239C261.422 20.1786 260.881 20.4586 260.284 20.6639C259.686 20.8693 259.052 20.9719 258.38 20.9719ZM259.612 17.1919C260.302 17.1919 260.9 17.0333 261.404 16.7159C261.908 16.3986 262.3 15.9506 262.58 15.3719C262.86 14.7746 263 14.0746 263 13.2719C263 12.4693 262.86 11.7786 262.58 11.1999C262.3 10.6026 261.908 10.1453 261.404 9.82795C260.9 9.49195 260.302 9.32395 259.612 9.32395C258.94 9.32395 258.352 9.49195 257.848 9.82795C257.362 10.1453 256.98 10.6026 256.7 11.1999C256.42 11.7786 256.28 12.4693 256.28 13.2719C256.28 14.0746 256.42 14.7746 256.7 15.3719C256.98 15.9506 257.362 16.3986 257.848 16.7159C258.352 17.0333 258.94 17.1919 259.612 17.1919Z" fill="#121212"/>
<path d="M233.762 20.7201V1.12012H242.414C243.758 1.12012 244.897 1.31612 245.83 1.70812C246.764 2.08145 247.464 2.63212 247.93 3.36012C248.416 4.06945 248.658 4.92812 248.658 5.93612C248.658 7.05612 248.378 7.99878 247.818 8.76412C247.277 9.52945 246.484 10.0428 245.438 10.3041L245.382 9.77212C246.26 9.95878 247.016 10.2855 247.65 10.7521C248.304 11.2188 248.808 11.7975 249.162 12.4881C249.517 13.1601 249.694 13.9255 249.694 14.7841C249.694 15.7735 249.526 16.6415 249.19 17.3881C248.854 18.1161 248.369 18.7321 247.734 19.2361C247.1 19.7401 246.353 20.1135 245.494 20.3561C244.654 20.5988 243.721 20.7201 242.694 20.7201H233.762ZM238.242 16.7441H242.526C243.049 16.7441 243.488 16.6601 243.842 16.4921C244.216 16.3241 244.505 16.0815 244.71 15.7641C244.916 15.4281 245.018 15.0268 245.018 14.5601C245.018 14.1308 244.906 13.7668 244.682 13.4681C244.477 13.1695 244.178 12.9455 243.786 12.7961C243.394 12.6281 242.928 12.5441 242.386 12.5441H238.242V16.7441ZM238.242 8.98812H241.742C242.228 8.98812 242.638 8.91345 242.974 8.76412C243.329 8.59612 243.59 8.37212 243.758 8.09212C243.945 7.79345 244.038 7.43878 244.038 7.02812C244.038 6.43078 243.833 5.96412 243.422 5.62812C243.012 5.27345 242.396 5.09612 241.574 5.09612H238.242V8.98812Z" fill="#121212"/>
<path d="M214.87 24.6961L226.518 1.12012H230.97L219.378 24.6961H214.87Z" fill="#121212"/>
<path d="M203.418 16.352L201.766 12.992L208.71 5.852H214.618L203.418 16.352ZM199.106 20.72V0H203.586V20.72H199.106ZM209.186 20.72L203.95 13.944L207.114 11.48L214.478 20.72H209.186Z" fill="#121212"/>
<path d="M190.373 20.9999C188.935 20.9999 187.647 20.6639 186.509 19.9919C185.37 19.3199 184.465 18.4053 183.793 17.2479C183.139 16.0719 182.813 14.7466 182.813 13.2719C182.813 11.7973 183.139 10.4813 183.793 9.32395C184.465 8.14795 185.37 7.22395 186.509 6.55195C187.647 5.87995 188.935 5.54395 190.373 5.54395C191.698 5.54395 192.911 5.77728 194.013 6.24395C195.133 6.71061 196.019 7.36395 196.673 8.20395L194.237 11.1159C193.975 10.8173 193.667 10.5373 193.313 10.2759C192.958 10.0146 192.566 9.80928 192.137 9.65995C191.707 9.51061 191.259 9.43595 190.793 9.43595C190.083 9.43595 189.458 9.60395 188.917 9.93995C188.375 10.2573 187.955 10.7053 187.657 11.2839C187.358 11.8626 187.209 12.5253 187.209 13.2719C187.209 13.9813 187.358 14.6253 187.657 15.2039C187.974 15.7826 188.403 16.2399 188.945 16.5759C189.486 16.9119 190.102 17.0799 190.793 17.0799C191.278 17.0799 191.726 17.0239 192.137 16.9119C192.547 16.7813 192.921 16.5946 193.257 16.3519C193.611 16.1093 193.938 15.8106 194.237 15.4559L196.645 18.3959C196.01 19.1986 195.123 19.8333 193.985 20.2999C192.865 20.7666 191.661 20.9999 190.373 20.9999Z" fill="#121212"/>
<path d="M170.88 20.9719C169.629 20.9719 168.509 20.6453 167.52 19.9919C166.549 19.3199 165.774 18.4053 165.196 17.2479C164.617 16.0719 164.328 14.7466 164.328 13.2719C164.328 11.7599 164.617 10.4253 165.196 9.26795C165.774 8.11061 166.568 7.20528 167.576 6.55195C168.584 5.87995 169.732 5.54395 171.02 5.54395C171.729 5.54395 172.373 5.64661 172.952 5.85195C173.549 6.05728 174.072 6.34661 174.52 6.71995C174.968 7.07461 175.35 7.49461 175.668 7.97995C175.985 8.44661 176.218 8.95061 176.368 9.49195L175.444 9.37995V5.85195H179.896V20.7199H175.36V17.1359L176.368 17.1079C176.218 17.6306 175.976 18.1253 175.64 18.5919C175.304 19.0586 174.893 19.4693 174.408 19.8239C173.922 20.1786 173.381 20.4586 172.784 20.6639C172.186 20.8693 171.552 20.9719 170.88 20.9719ZM172.112 17.1919C172.802 17.1919 173.4 17.0333 173.904 16.7159C174.408 16.3986 174.8 15.9506 175.08 15.3719C175.36 14.7746 175.5 14.0746 175.5 13.2719C175.5 12.4693 175.36 11.7786 175.08 11.1999C174.8 10.6026 174.408 10.1453 173.904 9.82795C173.4 9.49195 172.802 9.32395 172.112 9.32395C171.44 9.32395 170.852 9.49195 170.348 9.82795C169.862 10.1453 169.48 10.6026 169.2 11.1999C168.92 11.7786 168.78 12.4693 168.78 13.2719C168.78 14.0746 168.92 14.7746 169.2 15.3719C169.48 15.9506 169.862 16.3986 170.348 16.7159C170.852 17.0333 171.44 17.1919 172.112 17.1919Z" fill="#121212"/>
<path d="M155.604 20.7201V2.1001H160.084V20.7201H155.604ZM152.972 9.7721V5.8521H162.968V9.7721H152.972Z" fill="#121212"/>
<path d="M145.521 20.9999C144.065 20.9999 142.777 20.7666 141.657 20.2999C140.556 19.8333 139.678 19.2079 139.025 18.4239L141.741 16.0719C142.32 16.6506 142.973 17.0799 143.701 17.3599C144.429 17.6213 145.12 17.7519 145.773 17.7519C146.034 17.7519 146.268 17.7239 146.473 17.6679C146.678 17.6119 146.846 17.5373 146.977 17.4439C147.126 17.3319 147.238 17.2106 147.313 17.0799C147.388 16.9306 147.425 16.7626 147.425 16.5759C147.425 16.2026 147.257 15.9133 146.921 15.7079C146.753 15.6146 146.473 15.5026 146.081 15.3719C145.689 15.2413 145.185 15.0919 144.569 14.9239C143.692 14.6999 142.926 14.4386 142.273 14.1399C141.638 13.8226 141.116 13.4586 140.705 13.0479C140.332 12.6559 140.042 12.2266 139.837 11.7599C139.632 11.2746 139.529 10.7333 139.529 10.1359C139.529 9.44528 139.688 8.81995 140.005 8.25995C140.341 7.69995 140.78 7.21461 141.321 6.80395C141.881 6.39328 142.516 6.08528 143.225 5.87995C143.953 5.65595 144.7 5.54395 145.465 5.54395C146.286 5.54395 147.07 5.63728 147.817 5.82395C148.564 6.01061 149.254 6.27195 149.889 6.60795C150.542 6.94395 151.121 7.34528 151.625 7.81195L149.273 10.4439C148.937 10.1266 148.554 9.84661 148.125 9.60395C147.714 9.34261 147.285 9.13728 146.837 8.98795C146.389 8.83861 145.978 8.76395 145.605 8.76395C145.325 8.76395 145.073 8.79195 144.849 8.84795C144.644 8.88528 144.466 8.95995 144.317 9.07195C144.168 9.16528 144.056 9.28661 143.981 9.43595C143.906 9.56661 143.869 9.72528 143.869 9.91195C143.869 10.0986 143.916 10.2759 144.009 10.4439C144.121 10.6119 144.27 10.7519 144.457 10.8639C144.644 10.9759 144.942 11.1066 145.353 11.2559C145.764 11.3866 146.324 11.5546 147.033 11.7599C147.91 12.0026 148.666 12.2733 149.301 12.5719C149.936 12.8706 150.44 13.2253 150.813 13.6359C151.112 13.9533 151.336 14.3266 151.485 14.7559C151.634 15.1666 151.709 15.6146 151.709 16.0999C151.709 17.0519 151.438 17.9013 150.897 18.6479C150.374 19.3759 149.646 19.9546 148.713 20.3839C147.78 20.7946 146.716 20.9999 145.521 20.9999Z" fill="#121212"/>
<path d="M132.033 20.72V0H136.513V20.72H132.033Z" fill="#121212"/>
<path d="M123.529 20.72V0H128.009V20.72H123.529Z" fill="#121212"/>
<path d="M110.604 21.028C109.503 21.028 108.56 20.7947 107.776 20.3281C107.011 19.8427 106.413 19.1521 105.984 18.2561C105.573 17.3601 105.368 16.2867 105.368 15.0361V5.85205H109.876V14.42C109.876 15.0174 109.969 15.5307 110.156 15.9601C110.343 16.3894 110.623 16.7254 110.996 16.9681C111.369 17.192 111.817 17.3041 112.34 17.3041C112.732 17.3041 113.087 17.2387 113.404 17.1081C113.74 16.9774 114.02 16.8 114.244 16.576C114.487 16.3334 114.673 16.0627 114.804 15.7641C114.935 15.4467 115 15.1014 115 14.7281V5.85205H119.508V20.7201H115.28L115.084 17.6681L115.924 17.3321C115.7 18.0414 115.327 18.6761 114.804 19.2361C114.281 19.7774 113.656 20.2161 112.928 20.5521C112.2 20.8694 111.425 21.028 110.604 21.028Z" fill="#121212"/>
<path d="M89.1138 20.7201V1.12012H93.8738V20.7201H89.1138ZM91.3258 13.2161V9.24012H101.462V13.2161H91.3258ZM91.3258 5.32012V1.12012H102.61V5.32012H91.3258Z" fill="#121212"/>
<path d="M66.5581 14.7281V10.6121H76.2461V14.7281H66.5581Z" fill="#121212"/>
<path d="M47.3753 21.0001C46.0873 21.0001 44.9207 20.8508 43.8753 20.5521C42.8487 20.2348 41.934 19.7868 41.1313 19.2081C40.3287 18.6108 39.61 17.9108 38.9753 17.1081L41.8593 13.8321C42.7927 15.0828 43.726 15.9228 44.6593 16.3521C45.6113 16.7815 46.5913 16.9961 47.5993 16.9961C48.1033 16.9961 48.5607 16.9308 48.9713 16.8001C49.382 16.6695 49.6993 16.4828 49.9233 16.2401C50.1473 15.9788 50.2593 15.6615 50.2593 15.2881C50.2593 15.0081 50.1847 14.7561 50.0353 14.5321C49.9047 14.3081 49.718 14.1121 49.4753 13.9441C49.2327 13.7761 48.9433 13.6268 48.6073 13.4961C48.2713 13.3468 47.9167 13.2255 47.5433 13.1321C47.17 13.0201 46.7873 12.9268 46.3953 12.8521C45.3127 12.6095 44.37 12.3108 43.5673 11.9561C42.7647 11.6015 42.0927 11.1721 41.5513 10.6681C41.0287 10.1455 40.6367 9.55745 40.3753 8.90412C40.114 8.23212 39.9833 7.48545 39.9833 6.66412C39.9833 5.78678 40.1793 4.98412 40.5713 4.25612C40.982 3.50945 41.5233 2.87479 42.1953 2.35212C42.886 1.81079 43.6793 1.40012 44.5753 1.12012C45.4713 0.821452 46.4047 0.672119 47.3753 0.672119C48.6633 0.672119 49.7647 0.812119 50.6793 1.09212C51.6127 1.35345 52.406 1.73612 53.0593 2.24012C53.7313 2.74412 54.3007 3.35079 54.7673 4.06012L51.8273 6.88812C51.4353 6.40278 51.006 6.00145 50.5393 5.68412C50.0913 5.36679 49.606 5.12412 49.0833 4.95612C48.5793 4.78812 48.0567 4.70412 47.5153 4.70412C46.9553 4.70412 46.47 4.77879 46.0593 4.92812C45.6673 5.05879 45.3593 5.25479 45.1353 5.51612C44.9113 5.75879 44.7993 6.05745 44.7993 6.41212C44.7993 6.72945 44.8927 7.00012 45.0793 7.22412C45.266 7.44812 45.518 7.65345 45.8353 7.84012C46.1527 8.00812 46.5167 8.15745 46.9273 8.28812C47.338 8.40012 47.7673 8.49345 48.2153 8.56812C49.242 8.77345 50.166 9.04412 50.9873 9.38012C51.8273 9.71612 52.546 10.1268 53.1433 10.6121C53.7593 11.0975 54.226 11.6761 54.5433 12.3481C54.8793 13.0015 55.0473 13.7668 55.0473 14.6441C55.0473 16.0068 54.7113 17.1641 54.0393 18.1161C53.386 19.0495 52.4807 19.7681 51.3233 20.2721C50.1847 20.7575 48.8687 21.0001 47.3753 21.0001Z" fill="#121212"/>
<path d="M30.342 21C28.8673 21 27.5046 20.7574 26.254 20.272C25.022 19.768 23.9486 19.068 23.034 18.172C22.1193 17.2574 21.41 16.184 20.906 14.952C20.4206 13.7014 20.178 12.3294 20.178 10.836C20.178 9.38003 20.4393 8.03603 20.962 6.80403C21.4846 5.57203 22.2033 4.50803 23.118 3.61203C24.0513 2.69736 25.1433 1.98803 26.394 1.48403C27.6633 0.980028 29.0446 0.728027 30.538 0.728027C31.4713 0.728027 32.386 0.849361 33.282 1.09203C34.178 1.33469 35.0086 1.6987 35.774 2.18403C36.558 2.65069 37.23 3.21069 37.79 3.86403L34.878 7.19603C34.486 6.78536 34.066 6.4307 33.618 6.13203C33.1886 5.81469 32.7126 5.57203 32.19 5.40403C31.6673 5.23603 31.1073 5.15203 30.51 5.15203C29.7633 5.15203 29.054 5.29203 28.382 5.57203C27.7286 5.83336 27.15 6.21603 26.646 6.72003C26.1606 7.20536 25.778 7.8027 25.498 8.51203C25.218 9.22136 25.078 10.0147 25.078 10.892C25.078 11.7507 25.218 12.5347 25.498 13.244C25.778 13.9347 26.17 14.532 26.674 15.036C27.178 15.54 27.7846 15.9227 28.494 16.184C29.222 16.4454 30.0246 16.576 30.902 16.576C31.4993 16.576 32.0686 16.492 32.61 16.324C33.1513 16.156 33.646 15.932 34.094 15.652C34.5606 15.3534 34.9713 15.0174 35.326 14.644L37.622 18.284C37.1553 18.8067 36.53 19.2734 35.746 19.684C34.9806 20.0947 34.122 20.4214 33.17 20.664C32.2366 20.888 31.294 21 30.342 21Z" fill="#121212"/>
<path d="M7.84 20.7201L0 1.12012H4.956L8.736 11.1161C8.96 11.6948 9.14667 12.1988 9.296 12.6281C9.464 13.0575 9.604 13.4588 9.716 13.8321C9.84667 14.2055 9.95867 14.5881 10.052 14.9801C10.164 15.3535 10.2853 15.7828 10.416 16.2681H9.548C9.69733 15.6335 9.84667 15.0735 9.996 14.5881C10.1453 14.0841 10.3133 13.5708 10.5 13.0481C10.6867 12.5068 10.92 11.8628 11.2 11.1161L14.84 1.12012H19.712L11.816 20.7201H7.84Z" fill="#121212"/>
</svg>
