<svg width="103" height="16" viewBox="0 0 103 16" fill="none" xmlns="http://www.w3.org/2000/svg">
<path d="M93.9868 15.856V3.93599H95.6508V5.85599L95.3948 5.71199C95.4588 5.39199 95.6402 5.08799 95.9388 4.79999C96.2375 4.50133 96.6002 4.26133 97.0268 4.07999C97.4642 3.88799 97.9122 3.79199 98.3708 3.79199C99.1282 3.79199 99.8002 3.97866 100.387 4.35199C100.973 4.72533 101.437 5.23733 101.779 5.88799C102.12 6.53866 102.291 7.28533 102.291 8.12799C102.291 8.95999 102.12 9.70666 101.779 10.368C101.448 11.0187 100.989 11.536 100.403 11.92C99.8162 12.2933 99.1548 12.48 98.4188 12.48C97.9281 12.48 97.4535 12.384 96.9948 12.192C96.5362 11.9893 96.1468 11.7333 95.8268 11.424C95.5068 11.1147 95.3095 10.7947 95.2348 10.464L95.6508 10.24V15.856H93.9868ZM98.1468 10.96C98.6375 10.96 99.0748 10.8373 99.4588 10.592C99.8428 10.3467 100.147 10.0107 100.371 9.58399C100.595 9.15733 100.707 8.67199 100.707 8.12799C100.707 7.58399 100.595 7.10399 100.371 6.68799C100.157 6.26133 99.8588 5.92533 99.4748 5.67999C99.0908 5.43466 98.6481 5.31199 98.1468 5.31199C97.6455 5.31199 97.2028 5.43466 96.8188 5.67999C96.4348 5.91466 96.1308 6.24533 95.9068 6.67199C95.6828 7.09866 95.5708 7.58399 95.5708 8.12799C95.5708 8.67199 95.6828 9.15733 95.9068 9.58399C96.1308 10.0107 96.4348 10.3467 96.8188 10.592C97.2028 10.8373 97.6455 10.96 98.1468 10.96Z" fill="#414042"/>
<path d="M87.2433 12.496C86.646 12.496 86.1233 12.3574 85.6753 12.08C85.238 11.8027 84.8966 11.4134 84.6513 10.912C84.4166 10.4107 84.2993 9.81337 84.2993 9.12004V3.93604H85.9473V8.67204C85.9473 9.1627 86.022 9.58937 86.1713 9.95204C86.3313 10.304 86.5553 10.576 86.8433 10.768C87.142 10.96 87.4993 11.056 87.9153 11.056C88.2246 11.056 88.5073 11.008 88.7633 10.912C89.0193 10.8054 89.238 10.6614 89.4193 10.48C89.6113 10.2987 89.7607 10.08 89.8673 9.82404C89.974 9.56804 90.0273 9.2907 90.0273 8.99204V3.93604H91.6753V12.336H90.0273V10.576L90.3153 10.384C90.1873 10.7787 89.9687 11.136 89.6593 11.456C89.3607 11.776 89.0033 12.032 88.5873 12.224C88.1713 12.4054 87.7233 12.496 87.2433 12.496Z" fill="#414042"/>
<path d="M78.2316 12.496C77.4103 12.496 76.6743 12.3093 76.0236 11.936C75.3836 11.552 74.8769 11.0347 74.5036 10.384C74.1303 9.72268 73.9436 8.97068 73.9436 8.12801C73.9436 7.28534 74.1303 6.53868 74.5036 5.88801C74.8769 5.22668 75.3836 4.70934 76.0236 4.33601C76.6743 3.95201 77.4103 3.76001 78.2316 3.76001C79.0423 3.76001 79.7676 3.95201 80.4076 4.33601C81.0583 4.70934 81.5703 5.22668 81.9436 5.88801C82.3169 6.53868 82.5036 7.28534 82.5036 8.12801C82.5036 8.97068 82.3169 9.72268 81.9436 10.384C81.5703 11.0347 81.0583 11.552 80.4076 11.936C79.7676 12.3093 79.0423 12.496 78.2316 12.496ZM78.2316 10.992C78.7329 10.992 79.1809 10.8693 79.5756 10.624C79.9703 10.368 80.2796 10.0267 80.5036 9.60001C80.7276 9.16268 80.8343 8.67201 80.8236 8.12801C80.8343 7.57334 80.7276 7.08268 80.5036 6.65601C80.2796 6.21868 79.9703 5.87734 79.5756 5.63201C79.1809 5.38668 78.7329 5.26401 78.2316 5.26401C77.7303 5.26401 77.2769 5.39201 76.8716 5.64801C76.4769 5.89334 76.1676 6.23468 75.9436 6.67201C75.7196 7.09868 75.6129 7.58401 75.6236 8.12801C75.6129 8.67201 75.7196 9.16268 75.9436 9.60001C76.1676 10.0267 76.4769 10.368 76.8716 10.624C77.2769 10.8693 77.7303 10.992 78.2316 10.992Z" fill="#414042"/>
<path d="M68.3618 12.336V3.93601H70.0258V6.57601L69.8658 5.93601C69.9831 5.53068 70.1805 5.16268 70.4578 4.83201C70.7458 4.50134 71.0711 4.24001 71.4338 4.04801C71.8071 3.85601 72.1911 3.76001 72.5858 3.76001C72.7671 3.76001 72.9378 3.77601 73.0978 3.80801C73.2685 3.84001 73.4018 3.87734 73.4978 3.92001L73.0658 5.71201C72.9378 5.65868 72.7938 5.61601 72.6338 5.58401C72.4845 5.54134 72.3351 5.52001 72.1858 5.52001C71.8978 5.52001 71.6205 5.57868 71.3538 5.69601C71.0978 5.80268 70.8685 5.95734 70.6658 6.16001C70.4738 6.35201 70.3191 6.58134 70.2018 6.84801C70.0845 7.10401 70.0258 7.38668 70.0258 7.69601V12.336H68.3618Z" fill="#414042"/>
<path d="M61.5358 12.496C60.7251 12.496 59.9678 12.352 59.2638 12.064C58.5598 11.7654 57.9411 11.3547 57.4078 10.832C56.8745 10.3094 56.4584 9.70137 56.1598 9.00804C55.8718 8.30404 55.7278 7.54671 55.7278 6.73604C55.7278 5.93604 55.8718 5.18937 56.1598 4.49604C56.4584 3.80271 56.8691 3.20004 57.3918 2.68804C57.9251 2.16537 58.5438 1.76004 59.2478 1.47204C59.9518 1.18404 60.7091 1.04004 61.5198 1.04004C62.0851 1.04004 62.6344 1.12004 63.1678 1.28004C63.7118 1.44004 64.2024 1.66404 64.6398 1.95204C65.0771 2.24004 65.4344 2.57071 65.7118 2.94404L64.5918 4.11204C64.2718 3.80271 63.9411 3.54671 63.5998 3.34404C63.2691 3.14137 62.9278 2.98671 62.5758 2.88004C62.2238 2.77337 61.8718 2.72004 61.5198 2.72004C60.9438 2.72004 60.4104 2.82137 59.9198 3.02404C59.4398 3.22671 59.0131 3.50937 58.6398 3.87204C58.2771 4.23471 57.9944 4.66137 57.7918 5.15204C57.5891 5.63204 57.4878 6.16004 57.4878 6.73604C57.4878 7.29071 57.5944 7.81871 57.8078 8.32004C58.0211 8.81071 58.3144 9.24271 58.6878 9.61604C59.0718 9.98937 59.5091 10.2827 59.9998 10.496C60.5011 10.7094 61.0291 10.816 61.5838 10.816C61.9998 10.816 62.3944 10.7574 62.7678 10.64C63.1411 10.512 63.4718 10.336 63.7598 10.112C64.0478 9.88804 64.2718 9.63204 64.4318 9.34404C64.5918 9.04537 64.6718 8.73071 64.6718 8.40004V8.08004L64.9118 8.30404H61.4878V6.59204H66.4478C66.4691 6.70937 66.4851 6.82671 66.4958 6.94404C66.5065 7.05071 66.5118 7.15737 66.5118 7.26404C66.5225 7.36004 66.5278 7.45604 66.5278 7.55204C66.5278 8.28804 66.3998 8.96004 66.1438 9.56804C65.8878 10.1654 65.5304 10.6827 65.0718 11.12C64.6238 11.5574 64.0958 11.8987 63.4878 12.144C62.8904 12.3787 62.2398 12.496 61.5358 12.496Z" fill="#414042"/>
<path d="M47.6438 12.3361V0.496094H49.2918V12.3361H47.6438Z" fill="#414042"/>
<path d="M42.1569 12.4959C41.2929 12.4959 40.5249 12.3146 39.8529 11.9519C39.1915 11.5786 38.6689 11.0719 38.2849 10.4319C37.9115 9.7919 37.7249 9.0559 37.7249 8.2239C37.7249 7.56256 37.8315 6.9599 38.0449 6.4159C38.2582 5.8719 38.5515 5.40256 38.9249 5.0079C39.3089 4.60256 39.7622 4.29323 40.2849 4.0799C40.8182 3.8559 41.3942 3.7439 42.0129 3.7439C42.5569 3.7439 43.0635 3.85056 43.5329 4.0639C44.0022 4.26656 44.4075 4.54923 44.7489 4.9119C45.1009 5.27456 45.3675 5.70656 45.5489 6.2079C45.7409 6.69856 45.8315 7.23723 45.8209 7.8239L45.8049 8.5279H38.9409L38.5729 7.2159H44.3809L44.1409 7.4879V7.1039C44.1089 6.7519 43.9915 6.43723 43.7889 6.1599C43.5862 5.88256 43.3302 5.6639 43.0209 5.5039C42.7115 5.3439 42.3755 5.2639 42.0129 5.2639C41.4369 5.2639 40.9515 5.3759 40.5569 5.5999C40.1622 5.81323 39.8635 6.13323 39.6609 6.5599C39.4582 6.9759 39.3569 7.49323 39.3569 8.1119C39.3569 8.69856 39.4795 9.21056 39.7249 9.6479C39.9702 10.0746 40.3169 10.4052 40.7649 10.6399C41.2129 10.8746 41.7302 10.9919 42.3169 10.9919C42.7329 10.9919 43.1169 10.9226 43.4689 10.7839C43.8315 10.6452 44.2209 10.3946 44.6369 10.0319L45.4689 11.1999C45.2129 11.4559 44.8982 11.6799 44.5249 11.8719C44.1622 12.0639 43.7729 12.2186 43.3569 12.3359C42.9515 12.4426 42.5515 12.4959 42.1569 12.4959Z" fill="#414042"/>
<path d="M33.2142 12.336V1.79199H34.8622V12.336H33.2142ZM31.4702 5.53599V3.93599H36.8142V5.53599H31.4702Z" fill="#414042"/>
<path d="M27.0736 12.336V1.79199H28.7216V12.336H27.0736ZM25.3296 5.53599V3.93599H30.6736V5.53599H25.3296Z" fill="#414042"/>
<path d="M20.5787 12.4959C19.7147 12.4959 18.9467 12.3146 18.2747 11.9519C17.6134 11.5786 17.0907 11.0719 16.7067 10.4319C16.3334 9.7919 16.1467 9.0559 16.1467 8.2239C16.1467 7.56256 16.2534 6.9599 16.4667 6.4159C16.6801 5.8719 16.9734 5.40256 17.3467 5.0079C17.7307 4.60256 18.1841 4.29323 18.7067 4.0799C19.2401 3.8559 19.8161 3.7439 20.4347 3.7439C20.9787 3.7439 21.4854 3.85056 21.9547 4.0639C22.4241 4.26656 22.8294 4.54923 23.1707 4.9119C23.5227 5.27456 23.7894 5.70656 23.9707 6.2079C24.1627 6.69856 24.2534 7.23723 24.2427 7.8239L24.2267 8.5279H17.3627L16.9947 7.2159H22.8027L22.5627 7.4879V7.1039C22.5307 6.7519 22.4134 6.43723 22.2107 6.1599C22.0081 5.88256 21.7521 5.6639 21.4427 5.5039C21.1334 5.3439 20.7974 5.2639 20.4347 5.2639C19.8587 5.2639 19.3734 5.3759 18.9787 5.5999C18.5841 5.81323 18.2854 6.13323 18.0827 6.5599C17.8801 6.9759 17.7787 7.49323 17.7787 8.1119C17.7787 8.69856 17.9014 9.21056 18.1467 9.6479C18.3921 10.0746 18.7387 10.4052 19.1867 10.6399C19.6347 10.8746 20.1521 10.9919 20.7387 10.9919C21.1547 10.9919 21.5387 10.9226 21.8907 10.7839C22.2534 10.6452 22.6427 10.3946 23.0587 10.0319L23.8907 11.1999C23.6347 11.4559 23.3201 11.6799 22.9467 11.8719C22.5841 12.0639 22.1947 12.2186 21.7787 12.3359C21.3734 12.4426 20.9734 12.4959 20.5787 12.4959Z" fill="#414042"/>
<path d="M12.4776 12.336V3.936H14.1256V12.336H12.4776ZM13.2776 2.08C12.9256 2.08 12.6536 1.98933 12.4616 1.808C12.2696 1.62667 12.1736 1.37067 12.1736 1.04C12.1736 0.730667 12.2696 0.48 12.4616 0.288C12.6643 0.096 12.9363 0 13.2776 0C13.6296 0 13.9016 0.0906668 14.0936 0.272C14.2856 0.453333 14.3816 0.709333 14.3816 1.04C14.3816 1.34933 14.2803 1.6 14.0776 1.792C13.8856 1.984 13.6189 2.08 13.2776 2.08Z" fill="#414042"/>
<path d="M4.48 12.336L0 1.13599H1.968L4.64 7.93599C4.768 8.26665 4.88 8.56532 4.976 8.83199C5.08267 9.09865 5.17333 9.34399 5.248 9.56799C5.32267 9.78132 5.392 9.98399 5.456 10.176C5.52 10.368 5.584 10.56 5.648 10.752L5.232 10.768C5.30667 10.512 5.38667 10.2453 5.472 9.96799C5.55733 9.69065 5.65333 9.38665 5.76 9.05599C5.87733 8.72532 6.016 8.35199 6.176 7.93599L8.656 1.13599H10.672L6.16 12.336H4.48Z" fill="#414042"/>
</svg>
