<svg width="65" height="14" viewBox="0 0 65 14" fill="none" xmlns="http://www.w3.org/2000/svg">
<path d="M52.2695 12.8641V4.46407H53.9335V6.25607L53.6295 6.44807C53.7149 6.17074 53.8482 5.90407 54.0295 5.64807C54.2215 5.39207 54.4509 5.16807 54.7175 4.97607C54.9949 4.7734 55.2882 4.6134 55.5975 4.49607C55.9175 4.37874 56.2429 4.32007 56.5735 4.32007C57.0535 4.32007 57.4749 4.40007 57.8375 4.56007C58.2002 4.72007 58.4989 4.96007 58.7335 5.28007C58.9682 5.60007 59.1389 6.00007 59.2455 6.48007L58.9895 6.41607L59.1015 6.14407C59.2189 5.89874 59.3789 5.6694 59.5815 5.45607C59.7949 5.23207 60.0349 5.03474 60.3015 4.86407C60.5682 4.6934 60.8509 4.56007 61.1495 4.46407C61.4482 4.36807 61.7415 4.32007 62.0295 4.32007C62.6589 4.32007 63.1762 4.44807 63.5815 4.70407C63.9975 4.96007 64.3069 5.3494 64.5095 5.87207C64.7229 6.39474 64.8295 7.0454 64.8295 7.82407V12.8641H63.1655V7.92007C63.1655 7.44007 63.1015 7.05074 62.9735 6.75207C62.8562 6.44274 62.6749 6.2134 62.4295 6.06407C62.1842 5.91474 61.8695 5.84007 61.4855 5.84007C61.1869 5.84007 60.9042 5.8934 60.6375 6.00007C60.3815 6.09607 60.1575 6.23474 59.9655 6.41607C59.7735 6.5974 59.6242 6.81073 59.5175 7.05607C59.4109 7.29074 59.3575 7.55207 59.3575 7.84007V12.8641H57.6935V7.88807C57.6935 7.45074 57.6295 7.08274 57.5015 6.78407C57.3735 6.47474 57.1869 6.24007 56.9415 6.08007C56.6962 5.92007 56.3975 5.84007 56.0455 5.84007C55.7469 5.84007 55.4695 5.8934 55.2135 6.00007C54.9575 6.09607 54.7335 6.23474 54.5415 6.41607C54.3495 6.58674 54.2002 6.79474 54.0935 7.04007C53.9869 7.27474 53.9335 7.53074 53.9335 7.80807V12.8641H52.2695Z" fill="#121212"/>
<path d="M45.4088 13.0241C44.7155 13.0241 44.0808 12.8321 43.5048 12.4481C42.9395 12.0641 42.4861 11.5414 42.1448 10.8801C41.8035 10.2188 41.6328 9.47209 41.6328 8.64009C41.6328 7.79742 41.8035 7.05075 42.1448 6.40009C42.4968 5.73875 42.9661 5.22142 43.5528 4.84809C44.1501 4.47475 44.8168 4.28809 45.5528 4.28809C45.9901 4.28809 46.3901 4.35209 46.7528 4.48009C47.1155 4.60809 47.4301 4.78942 47.6968 5.02409C47.9741 5.24809 48.1981 5.50942 48.3688 5.80809C48.5501 6.10675 48.6621 6.42675 48.7048 6.76809L48.3368 6.64009V4.46409H50.0008V12.8641H48.3368V10.8641L48.7208 10.7521C48.6568 11.0401 48.5235 11.3228 48.3208 11.6001C48.1288 11.8668 47.8781 12.1068 47.5688 12.3201C47.2701 12.5334 46.9341 12.7041 46.5608 12.8321C46.1981 12.9601 45.8141 13.0241 45.4088 13.0241ZM45.8408 11.5041C46.3421 11.5041 46.7848 11.3814 47.1688 11.1361C47.5528 10.8908 47.8515 10.5548 48.0648 10.1281C48.2888 9.69075 48.4008 9.19475 48.4008 8.64009C48.4008 8.09609 48.2888 7.61075 48.0648 7.18409C47.8515 6.75742 47.5528 6.42142 47.1688 6.17609C46.7848 5.93075 46.3421 5.80809 45.8408 5.80809C45.3501 5.80809 44.9128 5.93075 44.5288 6.17609C44.1555 6.42142 43.8568 6.75742 43.6328 7.18409C43.4195 7.61075 43.3128 8.09609 43.3128 8.64009C43.3128 9.19475 43.4195 9.69075 43.6328 10.1281C43.8568 10.5548 44.1555 10.8908 44.5288 11.1361C44.9128 11.3814 45.3501 11.5041 45.8408 11.5041Z" fill="#121212"/>
<path d="M32.6611 12.8641V4.46409H34.3091V6.19209L34.0211 6.38409C34.1278 6.01075 34.3358 5.66942 34.6451 5.36009C34.9545 5.04009 35.3225 4.78409 35.7491 4.59209C36.1758 4.38942 36.6131 4.28809 37.0611 4.28809C37.7011 4.28809 38.2345 4.41609 38.6611 4.67209C39.0878 4.91742 39.4078 5.29609 39.6211 5.80809C39.8345 6.32009 39.9411 6.96542 39.9411 7.74409V12.8641H38.2931V7.85609C38.2931 7.37609 38.2291 6.98142 38.1011 6.67209C37.9731 6.35209 37.7758 6.12275 37.5091 5.98409C37.2425 5.83475 36.9118 5.77075 36.5171 5.79209C36.1971 5.79209 35.9038 5.84542 35.6371 5.95209C35.3705 6.04809 35.1358 6.18675 34.9331 6.36809C34.7411 6.54942 34.5865 6.76275 34.4691 7.00809C34.3625 7.24275 34.3091 7.49875 34.3091 7.77609V12.8641H33.4931C33.3545 12.8641 33.2158 12.8641 33.0771 12.8641C32.9385 12.8641 32.7998 12.8641 32.6611 12.8641Z" fill="#121212"/>
<path d="M27.5604 12.8641V2.32007H29.2084V12.8641H27.5604ZM25.8164 6.06407V4.46407H31.1604V6.06407H25.8164Z" fill="#121212"/>
<path d="M21.0653 13.024C20.2013 13.024 19.4333 12.8426 18.7613 12.48C18.1 12.1066 17.5773 11.6 17.1933 10.96C16.82 10.32 16.6333 9.58397 16.6333 8.75197C16.6333 8.09064 16.74 7.48797 16.9533 6.94397C17.1666 6.39997 17.46 5.93064 17.8333 5.53597C18.2173 5.13064 18.6706 4.82131 19.1933 4.60797C19.7266 4.38397 20.3026 4.27197 20.9213 4.27197C21.4653 4.27197 21.972 4.37864 22.4413 4.59197C22.9106 4.79464 23.316 5.07731 23.6573 5.43997C24.0093 5.80264 24.276 6.23464 24.4573 6.73597C24.6493 7.22664 24.74 7.76531 24.7293 8.35197L24.7133 9.05597H17.8493L17.4813 7.74397H23.2893L23.0493 8.01597V7.63197C23.0173 7.27997 22.9 6.96531 22.6973 6.68797C22.4946 6.41064 22.2386 6.19197 21.9293 6.03197C21.62 5.87197 21.284 5.79197 20.9213 5.79197C20.3453 5.79197 19.86 5.90397 19.4653 6.12797C19.0706 6.34131 18.772 6.66131 18.5693 7.08797C18.3666 7.50397 18.2653 8.02131 18.2653 8.63997C18.2653 9.22664 18.388 9.73864 18.6333 10.176C18.8786 10.6026 19.2253 10.9333 19.6733 11.168C20.1213 11.4026 20.6386 11.52 21.2253 11.52C21.6413 11.52 22.0253 11.4506 22.3773 11.312C22.74 11.1733 23.1293 10.9226 23.5453 10.56L24.3773 11.728C24.1213 11.984 23.8066 12.208 23.4333 12.4C23.0706 12.592 22.6813 12.7466 22.2653 12.864C21.86 12.9706 21.46 13.024 21.0653 13.024Z" fill="#121212"/>
<path d="M12.9642 12.8641V4.46408H14.6122V12.8641H12.9642ZM13.7642 2.60808C13.4122 2.60808 13.1402 2.51741 12.9482 2.33608C12.7562 2.15474 12.6602 1.89874 12.6602 1.56808C12.6602 1.25874 12.7562 1.00808 12.9482 0.816076C13.1508 0.624076 13.4228 0.528076 13.7642 0.528076C14.1162 0.528076 14.3882 0.618743 14.5802 0.800076C14.7722 0.981409 14.8682 1.23741 14.8682 1.56808C14.8682 1.87741 14.7668 2.12808 14.5642 2.32008C14.3722 2.51208 14.1055 2.60808 13.7642 2.60808Z" fill="#121212"/>
<path d="M4.96682 12.8641L0.486816 1.66406H2.45482L5.12682 8.46406C5.25482 8.79473 5.36682 9.0934 5.46282 9.36006C5.56948 9.62673 5.66015 9.87206 5.73482 10.0961C5.80948 10.3094 5.87882 10.5121 5.94282 10.7041C6.00682 10.8961 6.07082 11.0881 6.13482 11.2801L5.71882 11.2961C5.79348 11.0401 5.87348 10.7734 5.95882 10.4961C6.04415 10.2187 6.14015 9.91473 6.24682 9.58406C6.36415 9.2534 6.50282 8.88006 6.66282 8.46406L9.14282 1.66406H11.1588L6.64682 12.8641H4.96682Z" fill="#121212"/>
</svg>
